G04*
G04 #@! TF.GenerationSoftware,Altium Limited,Altium Designer,23.8.1 (32)*
G04*
G04 Layer_Color=32896*
%FSLAX25Y25*%
%MOIN*%
G70*
G04*
G04 #@! TF.SameCoordinates,CA3F4A39-35F6-43B6-803E-031CCE665758*
G04*
G04*
G04 #@! TF.FilePolarity,Positive*
G04*
G01*
G75*
%ADD12C,0.02000*%
%ADD15C,0.01000*%
G36*
X411464Y208171D02*
X411501D01*
Y208098D01*
X411537D01*
Y208025D01*
X411573D01*
Y207952D01*
X411610D01*
Y207879D01*
X411646D01*
Y207806D01*
X411683D01*
Y207733D01*
X411719D01*
Y207660D01*
X411756D01*
Y207587D01*
X411792D01*
Y207515D01*
X411829D01*
Y207442D01*
X411865D01*
Y207332D01*
X411902D01*
Y207259D01*
X411938D01*
Y207187D01*
X411974D01*
Y207114D01*
X412011D01*
Y207041D01*
X412047D01*
Y206968D01*
X412084D01*
Y206895D01*
X411172D01*
Y206931D01*
X411136D01*
Y206968D01*
X411100D01*
Y207004D01*
X411063D01*
Y207041D01*
X411027D01*
Y207077D01*
X410990D01*
Y207114D01*
X410954D01*
Y207150D01*
X410917D01*
Y207187D01*
X410881D01*
Y207223D01*
X410844D01*
Y207259D01*
X410808D01*
Y207296D01*
X410772D01*
Y207332D01*
X410735D01*
Y207405D01*
X410699D01*
Y207442D01*
X410662D01*
Y207478D01*
X410626D01*
Y207515D01*
X410589D01*
Y207551D01*
X410553D01*
Y207587D01*
X410516D01*
Y207624D01*
X410480D01*
Y207660D01*
X410443D01*
Y207697D01*
X410407D01*
Y207733D01*
X410370D01*
Y207770D01*
X410334D01*
Y207806D01*
X410298D01*
Y207843D01*
X410261D01*
Y207879D01*
X410225D01*
Y207915D01*
X410188D01*
Y207952D01*
X410152D01*
Y207988D01*
X410115D01*
Y208025D01*
X410079D01*
Y208061D01*
X410042D01*
Y208134D01*
X410006D01*
Y208171D01*
X409970D01*
Y208207D01*
X409933D01*
Y208244D01*
X411464D01*
Y208171D01*
D02*
G37*
G36*
X404392Y199386D02*
X404356D01*
Y199349D01*
X403153D01*
Y200333D01*
X403190D01*
Y202083D01*
X403226D01*
Y203797D01*
X403262D01*
Y204453D01*
X403226D01*
Y204307D01*
X403190D01*
Y204161D01*
X403153D01*
Y204015D01*
X403117D01*
Y203833D01*
X403080D01*
Y203687D01*
X403044D01*
Y203541D01*
X403007D01*
Y203396D01*
X402971D01*
Y203213D01*
X402934D01*
Y203067D01*
X402898D01*
Y202922D01*
X402861D01*
Y202776D01*
X402825D01*
Y202630D01*
X402789D01*
Y202448D01*
X402752D01*
Y202302D01*
X402716D01*
Y202156D01*
X402679D01*
Y202010D01*
X402643D01*
Y201828D01*
X402606D01*
Y201682D01*
X402570D01*
Y201536D01*
X402533D01*
Y201391D01*
X402497D01*
Y201208D01*
X402460D01*
Y201063D01*
X402424D01*
Y200917D01*
X402388D01*
Y200771D01*
X402351D01*
Y200589D01*
X402315D01*
Y200443D01*
X402278D01*
Y200297D01*
X402242D01*
Y200151D01*
X402205D01*
Y199969D01*
X402169D01*
Y199823D01*
X402132D01*
Y199677D01*
X402096D01*
Y199532D01*
X402060D01*
Y199386D01*
X402023D01*
Y199349D01*
X400419D01*
Y199386D01*
X400383D01*
Y206348D01*
X401586D01*
Y205255D01*
X401549D01*
Y203797D01*
X401513D01*
Y202338D01*
X401476D01*
Y201391D01*
X401513D01*
Y201536D01*
X401549D01*
Y201719D01*
X401586D01*
Y201865D01*
X401622D01*
Y202010D01*
X401659D01*
Y202156D01*
X401695D01*
Y202302D01*
X401731D01*
Y202448D01*
X401768D01*
Y202594D01*
X401804D01*
Y202739D01*
X401841D01*
Y202885D01*
X401877D01*
Y203031D01*
X401914D01*
Y203177D01*
X401950D01*
Y203323D01*
X401987D01*
Y203468D01*
X402023D01*
Y203651D01*
X402060D01*
Y203797D01*
X402096D01*
Y203942D01*
X402132D01*
Y204088D01*
X402169D01*
Y204234D01*
X402205D01*
Y204380D01*
X402242D01*
Y204525D01*
X402278D01*
Y204671D01*
X402315D01*
Y204817D01*
X402351D01*
Y204963D01*
X402388D01*
Y205109D01*
X402424D01*
Y205255D01*
X402460D01*
Y205437D01*
X402497D01*
Y205546D01*
Y205583D01*
X402533D01*
Y205728D01*
X402570D01*
Y205874D01*
X402606D01*
Y206020D01*
X402643D01*
Y206166D01*
X402679D01*
Y206312D01*
X402716D01*
Y206348D01*
X404392D01*
Y199386D01*
D02*
G37*
G36*
X407527Y206457D02*
X407746D01*
Y206421D01*
X407855D01*
Y206384D01*
X407965D01*
Y206348D01*
X408074D01*
Y206312D01*
X408147D01*
Y206275D01*
X408220D01*
Y206239D01*
X408293D01*
Y206202D01*
X408329D01*
Y206166D01*
X408402D01*
Y206129D01*
X408439D01*
Y206093D01*
X408475D01*
Y206056D01*
X408511D01*
Y206020D01*
X408548D01*
Y205984D01*
X408584D01*
Y205947D01*
X408621D01*
Y205911D01*
X408657D01*
Y205874D01*
X408694D01*
Y205838D01*
X408730D01*
Y205765D01*
X408767D01*
Y205728D01*
X408803D01*
Y205619D01*
X408840D01*
Y205546D01*
X408876D01*
Y205400D01*
X408913D01*
Y205218D01*
X408949D01*
Y204781D01*
X408985D01*
Y200589D01*
X408949D01*
Y200333D01*
X408913D01*
Y200188D01*
X408876D01*
Y200078D01*
X408840D01*
Y200006D01*
X408803D01*
Y199933D01*
X408767D01*
Y199896D01*
X408730D01*
Y199823D01*
X408694D01*
Y199787D01*
X408657D01*
Y199750D01*
X408621D01*
Y199714D01*
X408584D01*
Y199677D01*
X408548D01*
Y199641D01*
X408511D01*
Y199604D01*
X408439D01*
Y199568D01*
X408402D01*
Y199532D01*
X408329D01*
Y199495D01*
X408293D01*
Y199459D01*
X408220D01*
Y199422D01*
X408111D01*
Y199386D01*
X408038D01*
Y199349D01*
X407892D01*
Y199313D01*
X407783D01*
Y199276D01*
X407600D01*
Y199240D01*
X407309D01*
Y199204D01*
X406689D01*
Y199240D01*
X406470D01*
Y199276D01*
X406288D01*
Y199313D01*
X406179D01*
Y199349D01*
X406069D01*
Y199386D01*
X405960D01*
Y199422D01*
X405887D01*
Y199459D01*
X405814D01*
Y199495D01*
X405778D01*
Y199532D01*
X405705D01*
Y199568D01*
X405668D01*
Y199604D01*
X405595D01*
Y199641D01*
X405559D01*
Y199677D01*
X405522D01*
Y199714D01*
X405486D01*
Y199750D01*
X405449D01*
Y199787D01*
X405413D01*
Y199860D01*
X405377D01*
Y199896D01*
X405340D01*
Y199969D01*
X405304D01*
Y200042D01*
X405267D01*
Y200115D01*
X405231D01*
Y200188D01*
Y200224D01*
X405194D01*
Y200370D01*
X405158D01*
Y200662D01*
X405122D01*
Y201974D01*
X405158D01*
Y202010D01*
X406397D01*
Y201974D01*
X406434D01*
Y200589D01*
X406470D01*
Y200479D01*
X406507D01*
Y200443D01*
X406543D01*
Y200370D01*
X406579D01*
Y200333D01*
X406652D01*
Y200297D01*
X406689D01*
Y200261D01*
X406835D01*
Y200224D01*
X407236D01*
Y200261D01*
X407345D01*
Y200297D01*
X407418D01*
Y200333D01*
X407454D01*
Y200370D01*
X407491D01*
Y200406D01*
X407527D01*
Y200443D01*
X407564D01*
Y200516D01*
X407600D01*
Y200625D01*
X407637D01*
Y205145D01*
X407600D01*
Y205218D01*
X407564D01*
Y205291D01*
X407527D01*
Y205364D01*
X407491D01*
Y205400D01*
X407418D01*
Y205437D01*
X407381D01*
Y205473D01*
X407236D01*
Y205510D01*
X406871D01*
Y205473D01*
X406725D01*
Y205437D01*
X406652D01*
Y205400D01*
X406616D01*
Y205364D01*
X406579D01*
Y205327D01*
X406543D01*
Y205291D01*
X406507D01*
Y205218D01*
X406470D01*
Y205109D01*
X406434D01*
Y203833D01*
X406397D01*
Y203797D01*
X405122D01*
Y205255D01*
X405158D01*
Y205473D01*
X405194D01*
Y205583D01*
X405231D01*
Y205656D01*
X405267D01*
Y205765D01*
X405304D01*
Y205801D01*
X405340D01*
Y205874D01*
X405377D01*
Y205911D01*
X405413D01*
Y205947D01*
X405449D01*
Y205984D01*
X405486D01*
Y206020D01*
X405522D01*
Y206056D01*
X405559D01*
Y206093D01*
X405595D01*
Y206129D01*
X405632D01*
Y206166D01*
X405668D01*
Y206202D01*
X405741D01*
Y206239D01*
X405778D01*
Y206275D01*
X405851D01*
Y206312D01*
X405960D01*
Y206348D01*
X406033D01*
Y206384D01*
X406142D01*
Y206421D01*
X406288D01*
Y206457D01*
X406470D01*
Y206494D01*
X407527D01*
Y206457D01*
D02*
G37*
G36*
X395790D02*
X395972D01*
Y206421D01*
X396118D01*
Y206384D01*
X396227D01*
Y206348D01*
X396337D01*
Y206312D01*
X396410D01*
Y206275D01*
X396482D01*
Y206239D01*
X396519D01*
Y206202D01*
X396592D01*
Y206166D01*
X396628D01*
Y206129D01*
X396701D01*
Y206093D01*
X396738D01*
Y206056D01*
X396774D01*
Y206020D01*
X396811D01*
Y205984D01*
X396847D01*
Y205947D01*
X396883D01*
Y205911D01*
X396920D01*
Y205874D01*
X396956D01*
Y205801D01*
X396993D01*
Y205765D01*
X397029D01*
Y205692D01*
X397066D01*
Y205583D01*
X397102D01*
Y205510D01*
X397139D01*
Y205364D01*
X397175D01*
Y205109D01*
X397211D01*
Y200370D01*
X397175D01*
Y200224D01*
X397139D01*
Y200115D01*
X397102D01*
Y200042D01*
X397066D01*
Y199969D01*
X397029D01*
Y199896D01*
X396993D01*
Y199860D01*
X396956D01*
Y199823D01*
X396920D01*
Y199750D01*
X396883D01*
Y199714D01*
X396847D01*
Y199677D01*
X396811D01*
Y199641D01*
X396738D01*
Y199604D01*
X396701D01*
Y199568D01*
X396665D01*
Y199532D01*
X396592D01*
Y199495D01*
X396519D01*
Y199459D01*
X396446D01*
Y199422D01*
X396373D01*
Y199386D01*
X396264D01*
Y199349D01*
X396154D01*
Y199313D01*
X396008D01*
Y199276D01*
X395826D01*
Y199240D01*
X395571D01*
Y199204D01*
X394951D01*
Y199240D01*
X394696D01*
Y199276D01*
X394550D01*
Y199313D01*
X394405D01*
Y199349D01*
X394295D01*
Y199386D01*
X394222D01*
Y199422D01*
X394149D01*
Y199459D01*
X394077D01*
Y199495D01*
X394004D01*
Y199532D01*
X393967D01*
Y199568D01*
X393894D01*
Y199604D01*
X393858D01*
Y199641D01*
X393821D01*
Y199677D01*
X393785D01*
Y199714D01*
X393748D01*
Y199750D01*
X393712D01*
Y199787D01*
X393676D01*
Y199823D01*
X393639D01*
Y199896D01*
X393603D01*
Y199933D01*
X393566D01*
Y200006D01*
X393530D01*
Y200078D01*
X393493D01*
Y200188D01*
X393457D01*
Y200333D01*
X393421D01*
Y200516D01*
X393384D01*
Y202010D01*
X394660D01*
Y200771D01*
X394696D01*
Y200552D01*
X394733D01*
Y200479D01*
X394769D01*
Y200406D01*
X394806D01*
Y200370D01*
X394842D01*
Y200333D01*
X394879D01*
Y200297D01*
X394951D01*
Y200261D01*
X395061D01*
Y200224D01*
X395498D01*
Y200261D01*
X395608D01*
Y200297D01*
X395644D01*
Y200333D01*
X395717D01*
Y200370D01*
X395753D01*
Y200406D01*
X395790D01*
Y200479D01*
X395826D01*
Y200552D01*
X395863D01*
Y200698D01*
X395899D01*
Y205072D01*
X395863D01*
Y205218D01*
X395826D01*
Y205291D01*
X395790D01*
Y205327D01*
X395753D01*
Y205364D01*
X395717D01*
Y205400D01*
X395680D01*
Y205437D01*
X395608D01*
Y205473D01*
X395498D01*
Y205510D01*
X395134D01*
Y205473D01*
X394988D01*
Y205437D01*
X394915D01*
Y205400D01*
X394842D01*
Y205364D01*
X394806D01*
Y205291D01*
X394769D01*
Y205255D01*
X394733D01*
Y205145D01*
X394696D01*
Y204963D01*
X394660D01*
Y203797D01*
X393384D01*
Y205364D01*
X393421D01*
Y205510D01*
X393457D01*
Y205619D01*
X393493D01*
Y205692D01*
X393530D01*
Y205765D01*
X393566D01*
Y205838D01*
X393603D01*
Y205874D01*
X393639D01*
Y205947D01*
X393676D01*
Y205984D01*
X393712D01*
Y206020D01*
X393748D01*
Y206056D01*
X393785D01*
Y206093D01*
X393821D01*
Y206129D01*
X393894D01*
Y206166D01*
X393931D01*
Y206202D01*
X393967D01*
Y206239D01*
X394040D01*
Y206275D01*
X394113D01*
Y206312D01*
X394186D01*
Y206348D01*
X394295D01*
Y206384D01*
X394405D01*
Y206421D01*
X394550D01*
Y206457D01*
X394733D01*
Y206494D01*
X395790D01*
Y206457D01*
D02*
G37*
G36*
X432205Y199349D02*
X430893D01*
Y202010D01*
Y202047D01*
Y202266D01*
X429435D01*
Y202302D01*
X429180D01*
Y202338D01*
X429070D01*
Y202375D01*
X428961D01*
Y202411D01*
X428888D01*
Y202448D01*
X428852D01*
Y202484D01*
X428779D01*
Y202521D01*
X428742D01*
Y202557D01*
X428706D01*
Y202594D01*
X428669D01*
Y202666D01*
X428633D01*
Y202703D01*
X428596D01*
Y202776D01*
X428560D01*
Y202849D01*
X428523D01*
Y202958D01*
X428487D01*
Y203104D01*
X428451D01*
Y203468D01*
X428414D01*
Y205145D01*
X428451D01*
Y205473D01*
X428487D01*
Y205656D01*
X428523D01*
Y205765D01*
X428560D01*
Y205838D01*
X428596D01*
Y205911D01*
X428633D01*
Y205947D01*
X428669D01*
Y205984D01*
X428706D01*
Y206020D01*
X428742D01*
Y206056D01*
X428779D01*
Y206093D01*
X428815D01*
Y206129D01*
X428852D01*
Y206166D01*
X428888D01*
Y206202D01*
X428961D01*
Y206239D01*
X429034D01*
Y206275D01*
X429143D01*
Y206312D01*
X429252D01*
Y206348D01*
X432205D01*
Y199349D01*
D02*
G37*
G36*
X422946D02*
X419739D01*
Y200406D01*
X419775D01*
Y200443D01*
X421634D01*
Y205874D01*
Y205911D01*
Y206348D01*
X422946D01*
Y199349D01*
D02*
G37*
G36*
X419228D02*
X417952D01*
Y199386D01*
X417916D01*
Y206348D01*
X419228D01*
Y199349D01*
D02*
G37*
G36*
X417442Y205327D02*
X416130D01*
Y199349D01*
X414854D01*
Y199386D01*
X414818D01*
Y201099D01*
Y201135D01*
Y205327D01*
X413542D01*
Y206348D01*
X417442D01*
Y205327D01*
D02*
G37*
G36*
X413031Y199349D02*
X409532D01*
Y200443D01*
X411719D01*
Y200990D01*
Y201026D01*
Y202594D01*
X409751D01*
Y203651D01*
X411719D01*
Y205291D01*
X409642D01*
Y206348D01*
X413031D01*
Y199349D01*
D02*
G37*
G36*
X399435D02*
X398123D01*
Y205218D01*
Y205255D01*
Y206348D01*
X399435D01*
Y199349D01*
D02*
G37*
G36*
X426264Y206457D02*
X426482D01*
Y206421D01*
X426628D01*
Y206384D01*
X426737D01*
Y206348D01*
X426847D01*
Y206312D01*
X426920D01*
Y206275D01*
X426993D01*
Y206239D01*
X427065D01*
Y206202D01*
X427138D01*
Y206166D01*
X427175D01*
Y206129D01*
X427248D01*
Y206093D01*
X427284D01*
Y206056D01*
X427321D01*
Y206020D01*
X427357D01*
Y205984D01*
X427393D01*
Y205947D01*
X427430D01*
Y205911D01*
X427466D01*
Y205838D01*
X427503D01*
Y205801D01*
X427539D01*
Y205728D01*
X427576D01*
Y205656D01*
X427612D01*
Y205546D01*
X427649D01*
Y205437D01*
X427685D01*
Y205291D01*
X427722D01*
Y204926D01*
X427758D01*
Y200807D01*
X427722D01*
Y200406D01*
X427685D01*
Y200261D01*
X427649D01*
Y200151D01*
X427612D01*
Y200042D01*
X427576D01*
Y199969D01*
X427539D01*
Y199933D01*
X427503D01*
Y199860D01*
X427466D01*
Y199823D01*
X427430D01*
Y199787D01*
X427393D01*
Y199750D01*
X427357D01*
Y199714D01*
X427321D01*
Y199677D01*
X427284D01*
Y199641D01*
X427248D01*
Y199604D01*
X427211D01*
Y199568D01*
X427138D01*
Y199532D01*
X427102D01*
Y199495D01*
X427029D01*
Y199459D01*
X426956D01*
Y199422D01*
X426883D01*
Y199386D01*
X426810D01*
Y199349D01*
X426701D01*
Y199313D01*
X426592D01*
Y199276D01*
X426409D01*
Y199240D01*
X426154D01*
Y199204D01*
X425425D01*
Y199240D01*
X425134D01*
Y199276D01*
X424988D01*
Y199313D01*
X424878D01*
Y199349D01*
X424769D01*
Y199386D01*
X424660D01*
Y199422D01*
X424587D01*
Y199459D01*
X424514D01*
Y199495D01*
X424477D01*
Y199532D01*
X424404D01*
Y199568D01*
X424368D01*
Y199604D01*
X424332D01*
Y199641D01*
X424295D01*
Y199677D01*
X424259D01*
Y199714D01*
X424222D01*
Y199750D01*
X424186D01*
Y199787D01*
X424149D01*
Y199823D01*
X424113D01*
Y199860D01*
X424076D01*
Y199933D01*
X424040D01*
Y200006D01*
X424004D01*
Y200078D01*
X423967D01*
Y200151D01*
X423931D01*
Y200297D01*
X423894D01*
Y200479D01*
X423858D01*
Y205218D01*
X423894D01*
Y205400D01*
X423931D01*
Y205510D01*
X423967D01*
Y205619D01*
X424004D01*
Y205692D01*
X424040D01*
Y205765D01*
X424076D01*
Y205838D01*
X424113D01*
Y205874D01*
X424149D01*
Y205911D01*
X424186D01*
Y205947D01*
X424222D01*
Y205984D01*
X424259D01*
Y206020D01*
X424295D01*
Y206056D01*
X424332D01*
Y206093D01*
X424368D01*
Y206129D01*
X424441D01*
Y206166D01*
X424477D01*
Y206202D01*
X424550D01*
Y206239D01*
X424587D01*
Y206275D01*
X424660D01*
Y206312D01*
X424769D01*
Y206348D01*
X424842D01*
Y206384D01*
X424951D01*
Y206421D01*
X425097D01*
Y206457D01*
X425279D01*
Y206494D01*
X426264D01*
Y206457D01*
D02*
G37*
G36*
X391233D02*
X391416D01*
Y206421D01*
X391561D01*
Y206384D01*
X391671D01*
Y206348D01*
X391780D01*
Y206312D01*
X391853D01*
Y206275D01*
X391926D01*
Y206239D01*
X391999D01*
Y206202D01*
X392072D01*
Y206166D01*
X392108D01*
Y206129D01*
X392181D01*
Y206093D01*
X392217D01*
Y206056D01*
X392254D01*
Y206020D01*
X392290D01*
Y205984D01*
X392327D01*
Y205947D01*
X392363D01*
Y205911D01*
X392400D01*
Y205874D01*
X392436D01*
Y205801D01*
X392473D01*
Y205728D01*
X392509D01*
Y205656D01*
X392546D01*
Y205583D01*
X392582D01*
Y205473D01*
X392618D01*
Y205327D01*
X392655D01*
Y205109D01*
X392691D01*
Y200589D01*
X392655D01*
Y200370D01*
X392618D01*
Y200224D01*
X392582D01*
Y200115D01*
X392546D01*
Y200042D01*
X392509D01*
Y199969D01*
X392473D01*
Y199896D01*
X392436D01*
Y199860D01*
X392400D01*
Y199823D01*
X392363D01*
Y199750D01*
X392327D01*
Y199714D01*
X392290D01*
Y199677D01*
X392254D01*
Y199641D01*
X392181D01*
Y199604D01*
X392145D01*
Y199568D01*
X392108D01*
Y199532D01*
X392035D01*
Y199495D01*
X391999D01*
Y199459D01*
X391926D01*
Y199422D01*
X391853D01*
Y199386D01*
X391744D01*
Y199349D01*
X391634D01*
Y199313D01*
X391525D01*
Y199276D01*
X391379D01*
Y199240D01*
X391088D01*
Y199204D01*
X390358D01*
Y199240D01*
X390103D01*
Y199276D01*
X389921D01*
Y199313D01*
X389812D01*
Y199349D01*
X389702D01*
Y199386D01*
X389630D01*
Y199422D01*
X389557D01*
Y199459D01*
X389484D01*
Y199495D01*
X389411D01*
Y199532D01*
X389374D01*
Y199568D01*
X389301D01*
Y199604D01*
X389265D01*
Y199641D01*
X389229D01*
Y199677D01*
X389192D01*
Y199714D01*
X389156D01*
Y199750D01*
X389119D01*
Y199787D01*
X389083D01*
Y199823D01*
X389046D01*
Y199896D01*
X389010D01*
Y199933D01*
X388973D01*
Y200006D01*
X388937D01*
Y200115D01*
X388900D01*
Y200224D01*
X388864D01*
Y200333D01*
X388827D01*
Y200589D01*
X388791D01*
Y205109D01*
X388827D01*
Y205364D01*
X388864D01*
Y205510D01*
X388900D01*
Y205583D01*
X388937D01*
Y205692D01*
X388973D01*
Y205765D01*
X389010D01*
Y205801D01*
X389046D01*
Y205874D01*
X389083D01*
Y205911D01*
X389119D01*
Y205947D01*
X389156D01*
Y205984D01*
X389192D01*
Y206020D01*
X389229D01*
Y206056D01*
X389265D01*
Y206093D01*
X389338D01*
Y206129D01*
X389374D01*
Y206166D01*
X389411D01*
Y206202D01*
X389484D01*
Y206239D01*
X389557D01*
Y206275D01*
X389630D01*
Y206312D01*
X389702D01*
Y206348D01*
X389812D01*
Y206384D01*
X389921D01*
Y206421D01*
X390067D01*
Y206457D01*
X390249D01*
Y206494D01*
X391233D01*
Y206457D01*
D02*
G37*
G36*
X449556Y191002D02*
X434137D01*
Y193699D01*
Y193736D01*
Y206421D01*
X449556D01*
Y191002D01*
D02*
G37*
G36*
X432205D02*
X430601D01*
Y191038D01*
X430382D01*
Y191075D01*
X430273D01*
Y191111D01*
X430200D01*
Y191148D01*
X430127D01*
Y191184D01*
X430091D01*
Y191221D01*
X430018D01*
Y191257D01*
X429982D01*
Y191294D01*
X429945D01*
Y191366D01*
X429909D01*
Y191403D01*
X429872D01*
Y191476D01*
X429836D01*
Y191549D01*
X429799D01*
Y191658D01*
X429763D01*
Y191804D01*
X429726D01*
Y194756D01*
X429763D01*
Y194902D01*
X429799D01*
Y194975D01*
X429836D01*
Y195085D01*
X429872D01*
Y195121D01*
X429909D01*
Y195157D01*
X429945D01*
Y195230D01*
X429982D01*
Y195267D01*
X430018D01*
Y195303D01*
X430055D01*
Y195340D01*
X430127D01*
Y195376D01*
X430164D01*
Y195413D01*
X430237D01*
Y195449D01*
X430310D01*
Y195485D01*
X430455D01*
Y195522D01*
X432205D01*
Y191002D01*
D02*
G37*
G36*
X429143D02*
X426883D01*
Y191731D01*
X428305D01*
Y193080D01*
X427065D01*
Y193116D01*
X427029D01*
Y193772D01*
X427065D01*
Y193809D01*
X428305D01*
Y194829D01*
X426956D01*
Y195522D01*
X429143D01*
Y191002D01*
D02*
G37*
G36*
X424295Y191038D02*
X424259D01*
Y191002D01*
X421087D01*
Y192095D01*
X422983D01*
Y193809D01*
Y193845D01*
Y198001D01*
X424295D01*
Y191038D01*
D02*
G37*
G36*
X420577Y191002D02*
X417078D01*
Y192095D01*
X419265D01*
Y194246D01*
X417296D01*
Y195303D01*
X419265D01*
Y196943D01*
X417151D01*
Y197636D01*
Y197673D01*
Y198001D01*
X420577D01*
Y191002D01*
D02*
G37*
G36*
X416458Y197891D02*
Y197855D01*
Y191038D01*
X416422D01*
Y191002D01*
X415146D01*
Y198001D01*
X416458D01*
Y197891D01*
D02*
G37*
G36*
X414161Y191002D02*
X412886D01*
Y194100D01*
X412375D01*
Y193991D01*
X412339D01*
Y193882D01*
X412302D01*
Y193772D01*
X412266D01*
Y193626D01*
X412230D01*
Y193517D01*
X412193D01*
Y193408D01*
X412157D01*
Y193298D01*
X412120D01*
Y193189D01*
X412084D01*
Y193080D01*
X412047D01*
Y192970D01*
X412011D01*
Y192861D01*
X411974D01*
Y192715D01*
X411938D01*
Y192606D01*
X411902D01*
Y192496D01*
X411865D01*
Y192387D01*
X411829D01*
Y192278D01*
X411792D01*
Y192168D01*
X411756D01*
Y192059D01*
X411719D01*
Y191913D01*
X411683D01*
Y191804D01*
X411646D01*
Y191694D01*
X411610D01*
Y191585D01*
X411573D01*
Y191476D01*
X411537D01*
Y191366D01*
X411501D01*
Y191257D01*
X411464D01*
Y191148D01*
X411428D01*
Y191038D01*
X411391D01*
Y191002D01*
X410079D01*
Y191111D01*
X410115D01*
Y191221D01*
X410152D01*
Y191330D01*
X410188D01*
Y191476D01*
X410225D01*
Y191585D01*
X410261D01*
Y191694D01*
X410298D01*
Y191804D01*
X410334D01*
Y191913D01*
X410370D01*
Y192023D01*
X410407D01*
Y192132D01*
X410443D01*
Y192241D01*
X410480D01*
Y192351D01*
X410516D01*
Y192460D01*
X410553D01*
Y192569D01*
X410589D01*
Y192679D01*
X410626D01*
Y192788D01*
X410662D01*
Y192897D01*
X410699D01*
Y193007D01*
X410735D01*
Y193116D01*
X410772D01*
Y193226D01*
X410808D01*
Y193335D01*
X410844D01*
Y193444D01*
X410881D01*
Y193553D01*
X410917D01*
Y193663D01*
X410954D01*
Y193772D01*
X410990D01*
Y193882D01*
X411027D01*
Y193991D01*
X411063D01*
Y194100D01*
X411100D01*
Y194210D01*
X411136D01*
Y194319D01*
X411027D01*
Y194355D01*
X410917D01*
Y194392D01*
X410844D01*
Y194428D01*
X410772D01*
Y194465D01*
X410735D01*
Y194501D01*
X410662D01*
Y194538D01*
X410626D01*
Y194574D01*
X410589D01*
Y194611D01*
X410553D01*
Y194684D01*
X410516D01*
Y194720D01*
X410480D01*
Y194793D01*
X410443D01*
Y194866D01*
X410407D01*
Y194975D01*
X410370D01*
Y195121D01*
X410334D01*
Y197089D01*
X410370D01*
Y197272D01*
X410407D01*
Y197381D01*
X410443D01*
Y197454D01*
X410480D01*
Y197527D01*
X410516D01*
Y197600D01*
X410553D01*
Y197636D01*
X410589D01*
Y197673D01*
X410626D01*
Y197709D01*
X410662D01*
Y197746D01*
X410699D01*
Y197782D01*
X410735D01*
Y197818D01*
X410808D01*
Y197855D01*
X410881D01*
Y197891D01*
X410954D01*
Y197928D01*
X411063D01*
Y197964D01*
X411209D01*
Y198001D01*
X414161D01*
Y191002D01*
D02*
G37*
G36*
X409423D02*
X408147D01*
Y194538D01*
Y194574D01*
Y198001D01*
X409423D01*
Y191002D01*
D02*
G37*
G36*
X406215Y197855D02*
X406251D01*
Y197673D01*
X406288D01*
Y197490D01*
X406324D01*
Y197308D01*
X406361D01*
Y197126D01*
X406397D01*
Y196907D01*
X406434D01*
Y196725D01*
X406470D01*
Y196543D01*
X406507D01*
Y196360D01*
X406543D01*
Y196178D01*
X406579D01*
Y195996D01*
X406616D01*
Y195814D01*
X406652D01*
Y195595D01*
X406689D01*
Y195413D01*
X406725D01*
Y195230D01*
X406762D01*
Y195048D01*
X406798D01*
Y194866D01*
X406835D01*
Y194684D01*
X406871D01*
Y194465D01*
X406908D01*
Y194282D01*
X406944D01*
Y194100D01*
X406981D01*
Y193918D01*
X407017D01*
Y193736D01*
X407053D01*
Y193553D01*
X407090D01*
Y193335D01*
X407126D01*
Y193152D01*
X407163D01*
Y192970D01*
X407199D01*
Y192788D01*
X407236D01*
Y192606D01*
X407272D01*
Y192423D01*
X407309D01*
Y192241D01*
X407345D01*
Y192023D01*
X407381D01*
Y191840D01*
X407418D01*
Y191658D01*
X407454D01*
Y191476D01*
X407491D01*
Y191294D01*
X407527D01*
Y191111D01*
X407564D01*
Y191002D01*
X406251D01*
Y191184D01*
X406215D01*
Y191221D01*
Y191403D01*
X406179D01*
Y191622D01*
X406142D01*
Y191840D01*
X406106D01*
Y192059D01*
X406069D01*
Y192132D01*
X404903D01*
Y192059D01*
X404866D01*
Y191840D01*
X404830D01*
Y191585D01*
X404793D01*
Y191330D01*
X404757D01*
Y191075D01*
X404720D01*
Y191002D01*
X403408D01*
Y191111D01*
X403445D01*
Y191330D01*
X403481D01*
Y191512D01*
X403518D01*
Y191694D01*
X403554D01*
Y191913D01*
X403590D01*
Y192095D01*
X403627D01*
Y192314D01*
X403663D01*
Y192496D01*
X403700D01*
Y192679D01*
X403736D01*
Y192897D01*
X403773D01*
Y193080D01*
X403809D01*
Y193262D01*
X403846D01*
Y193481D01*
X403882D01*
Y193663D01*
X403919D01*
Y193845D01*
X403955D01*
Y194064D01*
X403992D01*
Y194246D01*
X404028D01*
Y194428D01*
X404064D01*
Y194647D01*
X404101D01*
Y194829D01*
X404137D01*
Y195012D01*
X404174D01*
Y195230D01*
X404210D01*
Y195413D01*
X404247D01*
Y195595D01*
X404283D01*
Y195814D01*
X404319D01*
Y195996D01*
X404356D01*
Y196214D01*
X404392D01*
Y196397D01*
X404429D01*
Y196579D01*
X404465D01*
Y196798D01*
X404502D01*
Y196980D01*
X404538D01*
Y197162D01*
X404575D01*
Y197381D01*
X404611D01*
Y197563D01*
X404648D01*
Y197746D01*
X404684D01*
Y197964D01*
X404720D01*
Y198001D01*
X406215D01*
Y197855D01*
D02*
G37*
%LPC*%
G36*
X430893Y205327D02*
X430055D01*
Y205291D01*
X429945D01*
Y205255D01*
X429872D01*
Y205218D01*
X429836D01*
Y205182D01*
X429799D01*
Y205145D01*
X429763D01*
Y205072D01*
X429726D01*
Y204234D01*
Y204197D01*
Y203541D01*
X429763D01*
Y203432D01*
X429799D01*
Y203396D01*
X429836D01*
Y203359D01*
X429909D01*
Y203323D01*
X429982D01*
Y203286D01*
X430893D01*
Y205327D01*
D02*
G37*
G36*
X426008Y205510D02*
X425534D01*
Y205473D01*
X425462D01*
Y205437D01*
X425389D01*
Y205400D01*
X425352D01*
Y205364D01*
X425316D01*
Y205327D01*
X425279D01*
Y205255D01*
X425243D01*
Y205182D01*
X425206D01*
Y205072D01*
X425170D01*
Y200662D01*
X425206D01*
Y200552D01*
X425243D01*
Y200479D01*
X425279D01*
Y200443D01*
X425316D01*
Y200406D01*
X425352D01*
Y200370D01*
X425389D01*
Y200333D01*
X425462D01*
Y200297D01*
X425534D01*
Y200261D01*
X425680D01*
Y200224D01*
X425935D01*
Y200261D01*
X426081D01*
Y200297D01*
X426154D01*
Y200333D01*
X426227D01*
Y200370D01*
X426264D01*
Y200406D01*
X426300D01*
Y200443D01*
X426336D01*
Y200516D01*
X426373D01*
Y200625D01*
X426409D01*
Y204744D01*
X426446D01*
Y204817D01*
X426409D01*
Y204963D01*
Y204999D01*
Y205109D01*
X426373D01*
Y205218D01*
X426336D01*
Y205255D01*
X426300D01*
Y205327D01*
X426264D01*
Y205364D01*
X426191D01*
Y205400D01*
X426154D01*
Y205437D01*
X426081D01*
Y205473D01*
X426008D01*
Y205510D01*
D02*
G37*
G36*
X390942D02*
X390504D01*
Y205473D01*
X390395D01*
Y205437D01*
X390358D01*
Y205400D01*
X390286D01*
Y205327D01*
X390249D01*
Y205291D01*
X390213D01*
Y205218D01*
X390176D01*
Y205145D01*
X390140D01*
Y204999D01*
X390103D01*
Y200734D01*
X390140D01*
Y200589D01*
X390176D01*
Y200516D01*
X390213D01*
Y200443D01*
X390249D01*
Y200406D01*
X390286D01*
Y200370D01*
X390322D01*
Y200333D01*
X390395D01*
Y200297D01*
X390468D01*
Y200261D01*
X390614D01*
Y200224D01*
X390869D01*
Y200261D01*
X391015D01*
Y200297D01*
X391124D01*
Y200333D01*
X391160D01*
Y200370D01*
X391197D01*
Y200406D01*
X391233D01*
Y200443D01*
X391270D01*
Y200479D01*
X391306D01*
Y200589D01*
X391343D01*
Y200734D01*
X391379D01*
Y204926D01*
Y204963D01*
Y204999D01*
X391343D01*
Y205145D01*
X391306D01*
Y205218D01*
X391270D01*
Y205291D01*
X391233D01*
Y205327D01*
X391197D01*
Y205364D01*
X391160D01*
Y205400D01*
X391088D01*
Y205437D01*
X391051D01*
Y205473D01*
X390942D01*
Y205510D01*
D02*
G37*
G36*
X442193Y203797D02*
X441537D01*
Y203760D01*
X441172D01*
Y203724D01*
X440917D01*
Y203687D01*
X440735D01*
Y203651D01*
X440589D01*
Y203614D01*
X440480D01*
Y203578D01*
X440334D01*
Y203541D01*
X440225D01*
Y203505D01*
X440115D01*
Y203468D01*
X440042D01*
Y203432D01*
X439933D01*
Y203396D01*
X439860D01*
Y203359D01*
X439787D01*
Y203323D01*
X439678D01*
Y203286D01*
X439605D01*
Y203250D01*
X439532D01*
Y203213D01*
X439496D01*
Y203177D01*
X439423D01*
Y203140D01*
X439350D01*
Y203104D01*
X439277D01*
Y203067D01*
X439240D01*
Y203031D01*
X439167D01*
Y202994D01*
X439094D01*
Y202958D01*
X439058D01*
Y202922D01*
X438985D01*
Y202885D01*
X438949D01*
Y202849D01*
X438912D01*
Y202812D01*
X438839D01*
Y202776D01*
X438803D01*
Y202739D01*
X438766D01*
Y202703D01*
X438694D01*
Y202666D01*
X438657D01*
Y202630D01*
X438621D01*
Y202594D01*
X438584D01*
Y202557D01*
X438511D01*
Y202521D01*
X438475D01*
Y202484D01*
X438438D01*
Y202448D01*
X438402D01*
Y202411D01*
X438366D01*
Y202375D01*
X438329D01*
Y202338D01*
X438293D01*
Y202302D01*
X438256D01*
Y202266D01*
X438220D01*
Y202229D01*
X438183D01*
Y202193D01*
X438147D01*
Y202156D01*
X438110D01*
Y202120D01*
X438074D01*
Y202083D01*
X438037D01*
Y202010D01*
X438001D01*
Y201974D01*
X437964D01*
Y201937D01*
X437928D01*
Y201901D01*
X437892D01*
Y201828D01*
X437855D01*
Y201792D01*
X437819D01*
Y201755D01*
X437782D01*
Y201682D01*
X437746D01*
Y201646D01*
X437709D01*
Y201609D01*
X437673D01*
Y201536D01*
X437636D01*
Y201500D01*
X437600D01*
Y201427D01*
X437564D01*
Y201354D01*
X437527D01*
Y201318D01*
X437491D01*
Y201245D01*
X437454D01*
Y201172D01*
X437418D01*
Y201099D01*
X437381D01*
Y201063D01*
X437345D01*
Y200990D01*
X437308D01*
Y200917D01*
X437272D01*
Y200807D01*
X437235D01*
Y200734D01*
X437199D01*
Y200662D01*
X437163D01*
Y200552D01*
X437126D01*
Y200479D01*
X437090D01*
Y200370D01*
X437053D01*
Y200261D01*
X437017D01*
Y200151D01*
X436980D01*
Y200006D01*
X436944D01*
Y199860D01*
X436907D01*
Y199677D01*
X436871D01*
Y199459D01*
X436834D01*
Y199131D01*
X436798D01*
Y198329D01*
X436834D01*
Y198001D01*
X436871D01*
Y197782D01*
X436907D01*
Y197600D01*
X436944D01*
Y197454D01*
X436980D01*
Y197308D01*
X437017D01*
Y197199D01*
X437053D01*
Y197089D01*
X437090D01*
Y196980D01*
X437126D01*
Y196871D01*
X437163D01*
Y196798D01*
X437199D01*
Y196688D01*
X437235D01*
Y196616D01*
X437272D01*
Y196543D01*
X437308D01*
Y196470D01*
X437345D01*
Y196397D01*
X437381D01*
Y196324D01*
X437418D01*
Y196251D01*
X437454D01*
Y196178D01*
X437491D01*
Y196142D01*
X437527D01*
Y196069D01*
X437564D01*
Y195996D01*
X437600D01*
Y195959D01*
X437636D01*
Y195886D01*
X437673D01*
Y195850D01*
X437709D01*
Y195777D01*
X437746D01*
Y195741D01*
X437782D01*
Y195704D01*
X437819D01*
Y195631D01*
X437855D01*
Y195595D01*
X437892D01*
Y195558D01*
X437928D01*
Y195522D01*
X437964D01*
Y195449D01*
X438001D01*
Y195413D01*
X438037D01*
Y195376D01*
X438074D01*
Y195340D01*
X438110D01*
Y195303D01*
X438147D01*
Y195267D01*
X438183D01*
Y195230D01*
X438220D01*
Y195194D01*
X438256D01*
Y195157D01*
X438293D01*
Y195121D01*
X438329D01*
Y195085D01*
X438366D01*
Y195048D01*
X438402D01*
Y195012D01*
X438438D01*
Y194975D01*
X438475D01*
Y194939D01*
X438511D01*
Y194902D01*
X438548D01*
Y194866D01*
X438584D01*
Y194829D01*
X438657D01*
Y194793D01*
X438694D01*
Y194756D01*
X438730D01*
Y194720D01*
X438766D01*
Y194684D01*
X438839D01*
Y194647D01*
X438876D01*
Y194611D01*
X438912D01*
Y194574D01*
X438985D01*
Y194538D01*
X439022D01*
Y194501D01*
X439094D01*
Y194465D01*
X439131D01*
Y194428D01*
X439204D01*
Y194392D01*
X439277D01*
Y194355D01*
X439313D01*
Y194319D01*
X439386D01*
Y194282D01*
X439459D01*
Y194246D01*
X439532D01*
Y194210D01*
X439605D01*
Y194173D01*
X439678D01*
Y194137D01*
X439751D01*
Y194100D01*
X439824D01*
Y194064D01*
X439896D01*
Y194027D01*
X440006D01*
Y193991D01*
X440079D01*
Y193955D01*
X440188D01*
Y193918D01*
X440297D01*
Y193882D01*
X440407D01*
Y193845D01*
X440553D01*
Y193809D01*
X440698D01*
Y193772D01*
X440844D01*
Y193736D01*
X441063D01*
Y193699D01*
X441355D01*
Y193663D01*
X442375D01*
Y193699D01*
X442667D01*
Y193736D01*
X442849D01*
Y193772D01*
X443031D01*
Y193809D01*
X443177D01*
Y193845D01*
X443287D01*
Y193882D01*
X443432D01*
Y193918D01*
X443542D01*
Y193955D01*
X443614D01*
Y193991D01*
X443724D01*
Y194027D01*
X443797D01*
Y194064D01*
X443906D01*
Y194100D01*
X443979D01*
Y194137D01*
X444052D01*
Y194173D01*
X444125D01*
Y194210D01*
X444198D01*
Y194246D01*
X444271D01*
Y194282D01*
X444344D01*
Y194319D01*
X444380D01*
Y194355D01*
X444453D01*
Y194392D01*
X444526D01*
Y194428D01*
X444562D01*
Y194465D01*
X444635D01*
Y194501D01*
X444672D01*
Y194538D01*
X444744D01*
Y194574D01*
X444781D01*
Y194611D01*
X444854D01*
Y194647D01*
X444890D01*
Y194684D01*
X444927D01*
Y194720D01*
X445000D01*
Y194756D01*
X445036D01*
Y194793D01*
X445073D01*
Y194829D01*
X445109D01*
Y194866D01*
X445146D01*
Y194902D01*
X445218D01*
Y194939D01*
X445255D01*
Y194975D01*
X445291D01*
Y195012D01*
X445328D01*
Y195048D01*
X445364D01*
Y195085D01*
X445401D01*
Y195121D01*
X445437D01*
Y195157D01*
X445474D01*
Y195194D01*
X445510D01*
Y195230D01*
X445546D01*
Y195267D01*
X445583D01*
Y195303D01*
X445619D01*
Y195340D01*
X445656D01*
Y195413D01*
X445692D01*
Y195449D01*
X445729D01*
Y195485D01*
X445765D01*
Y195522D01*
X445802D01*
Y195558D01*
X445838D01*
Y195631D01*
X445875D01*
Y195668D01*
X445911D01*
Y195704D01*
X445948D01*
Y195777D01*
X445984D01*
Y195814D01*
X446020D01*
Y195886D01*
X446057D01*
Y195923D01*
X446093D01*
Y195996D01*
X446130D01*
Y196032D01*
X446166D01*
Y196105D01*
X446203D01*
Y196178D01*
X446239D01*
Y196214D01*
X446276D01*
Y196287D01*
X446312D01*
Y196360D01*
X446348D01*
Y196433D01*
X446385D01*
Y196506D01*
X446421D01*
Y196579D01*
X446458D01*
Y196652D01*
X446494D01*
Y196725D01*
X446531D01*
Y196834D01*
X446567D01*
Y196907D01*
X446604D01*
Y197016D01*
X446640D01*
Y197126D01*
X446676D01*
Y197235D01*
X446713D01*
Y197381D01*
X446749D01*
Y197527D01*
X446786D01*
Y197673D01*
X446822D01*
Y197855D01*
X446859D01*
Y198110D01*
X446895D01*
Y199313D01*
X446859D01*
Y199568D01*
X446822D01*
Y199787D01*
X446786D01*
Y199933D01*
X446749D01*
Y200078D01*
X446713D01*
Y200188D01*
X446676D01*
Y200333D01*
X446640D01*
Y200406D01*
X446604D01*
Y200516D01*
X446567D01*
Y200625D01*
X446531D01*
Y200698D01*
X446494D01*
Y200771D01*
X446458D01*
Y200880D01*
X446421D01*
Y200953D01*
X446385D01*
Y201026D01*
X446348D01*
Y201099D01*
X446312D01*
Y201135D01*
X446276D01*
Y201208D01*
X446239D01*
Y201281D01*
X446203D01*
Y201354D01*
X446166D01*
Y201391D01*
X446130D01*
Y201464D01*
X446093D01*
Y201500D01*
X446057D01*
Y201573D01*
X446020D01*
Y201609D01*
X445984D01*
Y201682D01*
X445948D01*
Y201719D01*
X445911D01*
Y201792D01*
X445875D01*
Y201828D01*
X445838D01*
Y201865D01*
X445802D01*
Y201901D01*
X445765D01*
Y201974D01*
X445729D01*
Y202010D01*
X445692D01*
Y202047D01*
X445656D01*
Y202083D01*
X445619D01*
Y202120D01*
X445583D01*
Y202156D01*
X445546D01*
Y202193D01*
X445510D01*
Y202229D01*
X445474D01*
Y202266D01*
X445437D01*
Y202302D01*
X445401D01*
Y202338D01*
X445364D01*
Y202375D01*
X445328D01*
Y202411D01*
X445291D01*
Y202448D01*
X445255D01*
Y202484D01*
X445218D01*
Y202521D01*
X445182D01*
Y202557D01*
X445146D01*
Y202594D01*
X445109D01*
Y202630D01*
X445036D01*
Y202666D01*
X445000D01*
Y202703D01*
X444963D01*
Y202739D01*
X444927D01*
Y202776D01*
X444854D01*
Y202812D01*
X444817D01*
Y202849D01*
X444781D01*
Y202885D01*
X444708D01*
Y202922D01*
X444672D01*
Y202958D01*
X444599D01*
Y202994D01*
X444562D01*
Y203031D01*
X444489D01*
Y203067D01*
X444417D01*
Y203104D01*
X444380D01*
Y203140D01*
X444307D01*
Y203177D01*
X444234D01*
Y203213D01*
X444161D01*
Y203250D01*
X444088D01*
Y203286D01*
X444016D01*
Y203323D01*
X443943D01*
Y203359D01*
X443870D01*
Y203396D01*
X443760D01*
Y203432D01*
X443687D01*
Y203468D01*
X443578D01*
Y203505D01*
X443469D01*
Y203541D01*
X443359D01*
Y203578D01*
X443250D01*
Y203614D01*
X443104D01*
Y203651D01*
X442958D01*
Y203687D01*
X442776D01*
Y203724D01*
X442557D01*
Y203760D01*
X442193D01*
Y203797D01*
D02*
G37*
%LPD*%
G36*
X442229Y202193D02*
X442485D01*
Y202156D01*
X442667D01*
Y202120D01*
X442813D01*
Y202083D01*
X442922D01*
Y202047D01*
X443031D01*
Y202010D01*
X443141D01*
Y201974D01*
X443214D01*
Y201937D01*
X443287D01*
Y201901D01*
X443396D01*
Y201865D01*
X443469D01*
Y201828D01*
X443505D01*
Y201792D01*
X443578D01*
Y201755D01*
X443651D01*
Y201719D01*
X443724D01*
Y201682D01*
X443760D01*
Y201646D01*
X443833D01*
Y201609D01*
X443870D01*
Y201573D01*
X443906D01*
Y201536D01*
X443979D01*
Y201500D01*
X444016D01*
Y201464D01*
X444052D01*
Y201427D01*
X444088D01*
Y201391D01*
X444161D01*
Y201354D01*
X444198D01*
Y201318D01*
X444234D01*
Y201281D01*
X444271D01*
Y201245D01*
X444307D01*
Y201208D01*
X444344D01*
Y201172D01*
X444380D01*
Y201135D01*
X444417D01*
Y201099D01*
X444453D01*
Y201063D01*
X444489D01*
Y201026D01*
X444526D01*
Y200953D01*
X444562D01*
Y200917D01*
X444599D01*
Y200880D01*
X444635D01*
Y200844D01*
X444672D01*
Y200771D01*
X444708D01*
Y200734D01*
X444744D01*
Y200662D01*
X444781D01*
Y200625D01*
X444817D01*
Y200552D01*
X444854D01*
Y200516D01*
X444890D01*
Y200443D01*
X444927D01*
Y200370D01*
X444963D01*
Y200297D01*
X445000D01*
Y200224D01*
X445036D01*
Y200151D01*
X445073D01*
Y200078D01*
X445109D01*
Y199969D01*
X445146D01*
Y199860D01*
X445182D01*
Y199750D01*
X445218D01*
Y199641D01*
X445255D01*
Y199495D01*
X445291D01*
Y199313D01*
X445328D01*
Y198985D01*
X445364D01*
Y198438D01*
X445328D01*
Y198146D01*
X445291D01*
Y197964D01*
X445255D01*
Y197818D01*
X445218D01*
Y197673D01*
X445182D01*
Y197563D01*
X445146D01*
Y197490D01*
X445109D01*
Y197381D01*
X445073D01*
Y197308D01*
X445036D01*
Y197199D01*
X445000D01*
Y197126D01*
X444963D01*
Y197053D01*
X444927D01*
Y197016D01*
X444890D01*
Y196943D01*
X444854D01*
Y196871D01*
X444817D01*
Y196834D01*
X444781D01*
Y196761D01*
X444744D01*
Y196725D01*
X444708D01*
Y196652D01*
X444672D01*
Y196616D01*
X444635D01*
Y196579D01*
X444599D01*
Y196506D01*
X444562D01*
Y196470D01*
X444526D01*
Y196433D01*
X444489D01*
Y196397D01*
X444453D01*
Y196360D01*
X444417D01*
Y196324D01*
X444380D01*
Y196287D01*
X444344D01*
Y196251D01*
X444307D01*
Y196214D01*
X444271D01*
Y196178D01*
X444234D01*
Y196142D01*
X444198D01*
Y196105D01*
X444161D01*
Y196069D01*
X444125D01*
Y196032D01*
X444088D01*
Y195996D01*
X444052D01*
Y195959D01*
X443979D01*
Y195923D01*
X443943D01*
Y195886D01*
X443906D01*
Y195850D01*
X443833D01*
Y195814D01*
X443797D01*
Y195777D01*
X443724D01*
Y195741D01*
X443687D01*
Y195704D01*
X443614D01*
Y195668D01*
X443542D01*
Y195631D01*
X443469D01*
Y195595D01*
X443396D01*
Y195558D01*
X443323D01*
Y195522D01*
X443250D01*
Y195485D01*
X443177D01*
Y195449D01*
X443068D01*
Y195413D01*
X442958D01*
Y195376D01*
X442849D01*
Y195340D01*
X442703D01*
Y195303D01*
X442557D01*
Y195267D01*
X442339D01*
Y195230D01*
X441355D01*
Y195267D01*
X441136D01*
Y195303D01*
X440990D01*
Y195340D01*
X440881D01*
Y195376D01*
X440735D01*
Y195413D01*
X440662D01*
Y195449D01*
X440553D01*
Y195485D01*
X440443D01*
Y195522D01*
X440370D01*
Y195558D01*
X440297D01*
Y195595D01*
X440225D01*
Y195631D01*
X440152D01*
Y195668D01*
X440115D01*
Y195704D01*
X440042D01*
Y195741D01*
X439969D01*
Y195777D01*
X439933D01*
Y195814D01*
X439860D01*
Y195850D01*
X439824D01*
Y195886D01*
X439787D01*
Y195923D01*
X439714D01*
Y195959D01*
X439678D01*
Y195996D01*
X439641D01*
Y196032D01*
X439605D01*
Y196069D01*
X439532D01*
Y196105D01*
X439496D01*
Y196142D01*
X439459D01*
Y196178D01*
X439423D01*
Y196214D01*
X439386D01*
Y196251D01*
X439350D01*
Y196287D01*
X439313D01*
Y196324D01*
X439277D01*
Y196360D01*
X439240D01*
Y196397D01*
X439204D01*
Y196470D01*
X439167D01*
Y196506D01*
X439131D01*
Y196543D01*
X439094D01*
Y196579D01*
X439058D01*
Y196652D01*
X439022D01*
Y196688D01*
X438985D01*
Y196725D01*
X438949D01*
Y196798D01*
X438912D01*
Y196834D01*
X438876D01*
Y196907D01*
X438839D01*
Y196980D01*
X438803D01*
Y197053D01*
X438766D01*
Y197089D01*
X438730D01*
Y197162D01*
X438694D01*
Y197272D01*
X438657D01*
Y197345D01*
X438621D01*
Y197417D01*
X438584D01*
Y197527D01*
X438548D01*
Y197636D01*
X438511D01*
Y197746D01*
X438475D01*
Y197891D01*
X438438D01*
Y198037D01*
X438402D01*
Y198256D01*
X438366D01*
Y199167D01*
X438402D01*
Y199386D01*
X438438D01*
Y199568D01*
X438475D01*
Y199677D01*
X438511D01*
Y199823D01*
X438548D01*
Y199933D01*
X438584D01*
Y200006D01*
X438621D01*
Y200115D01*
X438657D01*
Y200188D01*
X438694D01*
Y200261D01*
X438730D01*
Y200333D01*
X438766D01*
Y200406D01*
X438803D01*
Y200479D01*
X438839D01*
Y200552D01*
X438876D01*
Y200589D01*
X438912D01*
Y200662D01*
X438949D01*
Y200698D01*
X438985D01*
Y200771D01*
X439022D01*
Y200807D01*
X439058D01*
Y200844D01*
X439094D01*
Y200917D01*
X439131D01*
Y200953D01*
X439167D01*
Y200990D01*
X439204D01*
Y201026D01*
X439240D01*
Y201063D01*
X439277D01*
Y201099D01*
X439313D01*
Y201135D01*
X439350D01*
Y201172D01*
X439386D01*
Y201208D01*
X439423D01*
Y201245D01*
X439459D01*
Y201281D01*
X439496D01*
Y201318D01*
X439532D01*
Y201354D01*
X439568D01*
Y201391D01*
X439605D01*
Y201427D01*
X439641D01*
Y201464D01*
X439678D01*
Y201500D01*
X439751D01*
Y201536D01*
X439787D01*
Y201573D01*
X439824D01*
Y201609D01*
X439896D01*
Y201646D01*
X439933D01*
Y201682D01*
X440006D01*
Y201719D01*
X440079D01*
Y201755D01*
X440115D01*
Y201792D01*
X440188D01*
Y201828D01*
X440261D01*
Y201865D01*
X440334D01*
Y201901D01*
X440407D01*
Y201937D01*
X440480D01*
Y201974D01*
X440589D01*
Y202010D01*
X440698D01*
Y202047D01*
X440808D01*
Y202083D01*
X440917D01*
Y202120D01*
X441063D01*
Y202156D01*
X441245D01*
Y202193D01*
X441464D01*
Y202229D01*
X442229D01*
Y202193D01*
D02*
G37*
%LPC*%
G36*
X444088Y199604D02*
X443687D01*
Y199568D01*
X443578D01*
Y199532D01*
X443505D01*
Y199495D01*
X443432D01*
Y199459D01*
X443359D01*
Y199422D01*
X443323D01*
Y199386D01*
X443287D01*
Y199349D01*
X443250D01*
Y199313D01*
X443214D01*
Y199276D01*
X443177D01*
Y199204D01*
X443141D01*
Y199167D01*
X443104D01*
Y199094D01*
X443068D01*
Y198985D01*
X443031D01*
Y198839D01*
X442995D01*
Y198620D01*
X443031D01*
Y198438D01*
X443068D01*
Y198365D01*
X443104D01*
Y198292D01*
X443141D01*
Y198219D01*
X443177D01*
Y198183D01*
X443214D01*
Y198146D01*
X443250D01*
Y198110D01*
X443287D01*
Y198073D01*
X443323D01*
Y198037D01*
X443359D01*
Y198001D01*
X443396D01*
Y197964D01*
X443469D01*
Y197928D01*
X443542D01*
Y197891D01*
X443651D01*
Y197855D01*
X444125D01*
Y197891D01*
X444234D01*
Y197928D01*
X444307D01*
Y197964D01*
X444380D01*
Y198001D01*
X444417D01*
Y198037D01*
X444453D01*
Y198073D01*
X444526D01*
Y198110D01*
X444562D01*
Y198183D01*
X444599D01*
Y198219D01*
X444635D01*
Y198256D01*
Y198292D01*
X444672D01*
Y198365D01*
X444708D01*
Y198438D01*
X444744D01*
Y198584D01*
X444781D01*
Y198839D01*
X444744D01*
Y199021D01*
X444708D01*
Y199094D01*
X444672D01*
Y199167D01*
X444635D01*
Y199240D01*
X444599D01*
Y199276D01*
X444562D01*
Y199313D01*
X444526D01*
Y199349D01*
X444489D01*
Y199386D01*
X444453D01*
Y199422D01*
X444417D01*
Y199459D01*
X444344D01*
Y199495D01*
X444271D01*
Y199532D01*
X444198D01*
Y199568D01*
X444088D01*
Y199604D01*
D02*
G37*
G36*
X431367Y194866D02*
X430820D01*
Y194829D01*
X430711D01*
Y194793D01*
X430674D01*
Y194756D01*
X430638D01*
Y194720D01*
X430601D01*
Y194647D01*
X430565D01*
Y193553D01*
Y193517D01*
Y191950D01*
X430601D01*
Y191840D01*
X430638D01*
Y191804D01*
X430674D01*
Y191767D01*
X430711D01*
Y191731D01*
X430784D01*
Y191694D01*
X431367D01*
Y194866D01*
D02*
G37*
G36*
X412886Y197016D02*
X412084D01*
Y196980D01*
X411865D01*
Y196943D01*
X411792D01*
Y196907D01*
X411756D01*
Y196871D01*
X411719D01*
Y196834D01*
X411683D01*
Y196761D01*
X411646D01*
Y196616D01*
X411610D01*
Y195595D01*
X411646D01*
Y195449D01*
X411683D01*
Y195376D01*
X411719D01*
Y195303D01*
X411756D01*
Y195267D01*
X411792D01*
Y195230D01*
X411865D01*
Y195194D01*
X411974D01*
Y195157D01*
X412886D01*
Y197016D01*
D02*
G37*
G36*
X405486Y196105D02*
X405449D01*
Y196032D01*
X405413D01*
Y195777D01*
X405377D01*
Y195741D01*
Y195522D01*
X405340D01*
Y195267D01*
X405304D01*
Y195012D01*
X405267D01*
Y194720D01*
X405231D01*
Y194465D01*
X405194D01*
Y194210D01*
X405158D01*
Y193955D01*
X405122D01*
Y193699D01*
X405085D01*
Y193444D01*
X405049D01*
Y193262D01*
X405887D01*
Y193517D01*
X405851D01*
Y193736D01*
X405814D01*
Y193991D01*
X405778D01*
Y194210D01*
X405741D01*
Y194465D01*
X405705D01*
Y194684D01*
X405668D01*
Y194902D01*
X405632D01*
Y195157D01*
X405595D01*
Y195376D01*
X405559D01*
Y195631D01*
X405522D01*
Y195850D01*
X405486D01*
Y196105D01*
D02*
G37*
%LPD*%
D12*
X132900Y230610D02*
X132549Y231574D01*
X131660Y232087D01*
X130650Y231909D01*
X129990Y231123D01*
Y230097D01*
X130650Y229311D01*
X131660Y229133D01*
X132549Y229646D01*
X132900Y230610D01*
D15*
X437834Y492000D02*
X437704Y492988D01*
X437322Y493909D01*
X436715Y494700D01*
X435925Y495306D01*
X435004Y495688D01*
X434016Y495818D01*
X433028Y495688D01*
X432107Y495306D01*
X431316Y494700D01*
X430710Y493909D01*
X430328Y492988D01*
X430198Y492000D01*
X430328Y491012D01*
X430710Y490091D01*
X431316Y489300D01*
X432107Y488694D01*
X433028Y488312D01*
X434016Y488182D01*
X435004Y488312D01*
X435925Y488694D01*
X436715Y489300D01*
X437322Y490091D01*
X437704Y491012D01*
X437834Y492000D01*
X447834D02*
X447704Y492988D01*
X447322Y493909D01*
X446715Y494700D01*
X445925Y495306D01*
X445004Y495688D01*
X444016Y495818D01*
X443028Y495688D01*
X442107Y495306D01*
X441316Y494700D01*
X440709Y493909D01*
X440328Y492988D01*
X440198Y492000D01*
X440328Y491012D01*
X440709Y490091D01*
X441316Y489300D01*
X442107Y488694D01*
X443028Y488312D01*
X444016Y488182D01*
X445004Y488312D01*
X445925Y488694D01*
X446715Y489300D01*
X447322Y490091D01*
X447704Y491012D01*
X447834Y492000D01*
X437834Y502000D02*
X437704Y502988D01*
X437322Y503909D01*
X436715Y504700D01*
X435925Y505306D01*
X435004Y505688D01*
X434016Y505818D01*
X433028Y505688D01*
X432107Y505306D01*
X431316Y504700D01*
X430710Y503909D01*
X430328Y502988D01*
X430198Y502000D01*
X430328Y501012D01*
X430710Y500091D01*
X431316Y499300D01*
X432107Y498694D01*
X433028Y498312D01*
X434016Y498182D01*
X435004Y498312D01*
X435925Y498694D01*
X436715Y499300D01*
X437322Y500091D01*
X437704Y501012D01*
X437834Y502000D01*
X447834D02*
X447704Y502988D01*
X447322Y503909D01*
X446715Y504700D01*
X445925Y505306D01*
X445004Y505688D01*
X444016Y505818D01*
X443028Y505688D01*
X442107Y505306D01*
X441316Y504700D01*
X440709Y503909D01*
X440328Y502988D01*
X440198Y502000D01*
X440328Y501012D01*
X440709Y500091D01*
X441316Y499300D01*
X442107Y498694D01*
X443028Y498312D01*
X444016Y498182D01*
X445004Y498312D01*
X445925Y498694D01*
X446715Y499300D01*
X447322Y500091D01*
X447704Y501012D01*
X447834Y502000D01*
X412086Y492000D02*
X411955Y492988D01*
X411574Y493909D01*
X410967Y494700D01*
X410177Y495306D01*
X409256Y495688D01*
X408268Y495818D01*
X407280Y495688D01*
X406359Y495306D01*
X405568Y494700D01*
X404961Y493909D01*
X404580Y492988D01*
X404450Y492000D01*
X404580Y491012D01*
X404961Y490091D01*
X405568Y489300D01*
X406359Y488694D01*
X407280Y488312D01*
X408268Y488182D01*
X409256Y488312D01*
X410177Y488694D01*
X410967Y489300D01*
X411574Y490091D01*
X411955Y491012D01*
X412086Y492000D01*
X422086D02*
X421955Y492988D01*
X421574Y493909D01*
X420967Y494700D01*
X420177Y495306D01*
X419256Y495688D01*
X418268Y495818D01*
X417280Y495688D01*
X416359Y495306D01*
X415568Y494700D01*
X414961Y493909D01*
X414580Y492988D01*
X414450Y492000D01*
X414580Y491012D01*
X414961Y490091D01*
X415568Y489300D01*
X416359Y488694D01*
X417280Y488312D01*
X418268Y488182D01*
X419256Y488312D01*
X420177Y488694D01*
X420967Y489300D01*
X421574Y490091D01*
X421955Y491012D01*
X422086Y492000D01*
Y502000D02*
X421955Y502988D01*
X421574Y503909D01*
X420967Y504700D01*
X420177Y505306D01*
X419256Y505688D01*
X418268Y505818D01*
X417280Y505688D01*
X416359Y505306D01*
X415568Y504700D01*
X414961Y503909D01*
X414580Y502988D01*
X414450Y502000D01*
X414580Y501012D01*
X414961Y500091D01*
X415568Y499300D01*
X416359Y498694D01*
X417280Y498312D01*
X418268Y498182D01*
X419256Y498312D01*
X420177Y498694D01*
X420967Y499300D01*
X421574Y500091D01*
X421955Y501012D01*
X422086Y502000D01*
X412086D02*
X411955Y502988D01*
X411574Y503909D01*
X410967Y504700D01*
X410177Y505306D01*
X409256Y505688D01*
X408268Y505818D01*
X407280Y505688D01*
X406359Y505306D01*
X405568Y504700D01*
X404961Y503909D01*
X404580Y502988D01*
X404450Y502000D01*
X404580Y501012D01*
X404961Y500091D01*
X405568Y499300D01*
X406359Y498694D01*
X407280Y498312D01*
X408268Y498182D01*
X409256Y498312D01*
X410177Y498694D01*
X410967Y499300D01*
X411574Y500091D01*
X411955Y501012D01*
X412086Y502000D01*
X387582D02*
X387452Y502988D01*
X387070Y503909D01*
X386463Y504700D01*
X385673Y505306D01*
X384752Y505688D01*
X383764Y505818D01*
X382776Y505688D01*
X381855Y505306D01*
X381064Y504700D01*
X380457Y503909D01*
X380076Y502988D01*
X379946Y502000D01*
X380076Y501012D01*
X380457Y500091D01*
X381064Y499300D01*
X381855Y498694D01*
X382776Y498312D01*
X383764Y498182D01*
X384752Y498312D01*
X385673Y498694D01*
X386463Y499300D01*
X387070Y500091D01*
X387452Y501012D01*
X387582Y502000D01*
X397582D02*
X397451Y502988D01*
X397070Y503909D01*
X396463Y504700D01*
X395673Y505306D01*
X394752Y505688D01*
X393764Y505818D01*
X392776Y505688D01*
X391855Y505306D01*
X391064Y504700D01*
X390458Y503909D01*
X390076Y502988D01*
X389946Y502000D01*
X390076Y501012D01*
X390458Y500091D01*
X391064Y499300D01*
X391855Y498694D01*
X392776Y498312D01*
X393764Y498182D01*
X394752Y498312D01*
X395673Y498694D01*
X396463Y499300D01*
X397070Y500091D01*
X397451Y501012D01*
X397582Y502000D01*
Y492000D02*
X397451Y492988D01*
X397070Y493909D01*
X396463Y494700D01*
X395673Y495306D01*
X394752Y495688D01*
X393764Y495818D01*
X392776Y495688D01*
X391855Y495306D01*
X391064Y494700D01*
X390458Y493909D01*
X390076Y492988D01*
X389946Y492000D01*
X390076Y491012D01*
X390458Y490091D01*
X391064Y489300D01*
X391855Y488694D01*
X392776Y488312D01*
X393764Y488182D01*
X394752Y488312D01*
X395673Y488694D01*
X396463Y489300D01*
X397070Y490091D01*
X397451Y491012D01*
X397582Y492000D01*
X387582D02*
X387452Y492988D01*
X387070Y493909D01*
X386463Y494700D01*
X385673Y495306D01*
X384752Y495688D01*
X383764Y495818D01*
X382776Y495688D01*
X381855Y495306D01*
X381064Y494700D01*
X380457Y493909D01*
X380076Y492988D01*
X379946Y492000D01*
X380076Y491012D01*
X380457Y490091D01*
X381064Y489300D01*
X381855Y488694D01*
X382776Y488312D01*
X383764Y488182D01*
X384752Y488312D01*
X385673Y488694D01*
X386463Y489300D01*
X387070Y490091D01*
X387452Y491012D01*
X387582Y492000D01*
X238300Y205000D02*
X384900Y204900D01*
X437516Y503500D02*
Y504816D01*
X442456Y507344D02*
X445744D01*
X440044D02*
X442456D01*
X437516Y504816D02*
X440044Y507344D01*
X416700Y507816D02*
X418268Y506248D01*
X446500Y505500D02*
X450700Y509700D01*
X408268Y506248D02*
X413000Y510980D01*
X380600Y525400D02*
X387900D01*
X368516Y501000D02*
X369516Y502000D01*
X444016Y467500D02*
Y488000D01*
X434016Y470500D02*
Y488000D01*
X418300Y509000D02*
X447400D01*
X450700Y509700D02*
Y517000D01*
X441900D02*
X444016D01*
X446016Y505500D02*
X446500D01*
X444016Y517000D02*
X450700D01*
X445744Y507344D02*
X447400Y509000D01*
X418268Y470500D02*
Y488000D01*
X408268Y476000D02*
Y488000D01*
X387900Y525400D02*
X416700D01*
Y507816D02*
Y525400D01*
X413000Y510980D02*
Y517700D01*
X374400D02*
X413000D01*
X368516Y476200D02*
Y501000D01*
X369516Y502000D02*
X379516D01*
X393764Y506248D02*
Y511752D01*
X393016Y512500D02*
X393764Y511752D01*
X383764Y476000D02*
Y488000D01*
X376516Y512500D02*
X393016D01*
X361516Y497500D02*
X376516Y512500D01*
X356516Y464900D02*
Y497500D01*
X361516D01*
X393764Y446100D02*
Y488000D01*
X249776Y207504D02*
X252400D01*
X249776Y210128D01*
Y210784D01*
X250432Y211440D01*
X251744D01*
X252400Y210784D01*
X248464D02*
X247808Y211440D01*
X246496D01*
X245840Y210784D01*
Y208160D01*
X246496Y207504D01*
X247808D01*
X248464Y208160D01*
Y210784D01*
X241905Y207504D02*
X244529D01*
X241905Y210128D01*
Y210784D01*
X242561Y211440D01*
X243873D01*
X244529Y210784D01*
X238625Y207504D02*
Y211440D01*
X240593Y209472D01*
X237969D01*
X381776Y219437D02*
X384400D01*
Y215502D01*
X381776D01*
X384400Y217470D02*
X383088D01*
X380464Y215502D02*
Y218126D01*
X378496D01*
X377840Y217470D01*
Y215502D01*
X375217Y214190D02*
X374561D01*
X373905Y214846D01*
Y218126D01*
X375873D01*
X376529Y217470D01*
Y216158D01*
X375873Y215502D01*
X373905D01*
X370625D02*
X371937D01*
X372593Y216158D01*
Y217470D01*
X371937Y218126D01*
X370625D01*
X369969Y217470D01*
Y216814D01*
X372593D01*
X368657Y215502D02*
Y218126D01*
X366689D01*
X366033Y217470D01*
Y215502D01*
X364721Y219437D02*
Y215502D01*
Y217470D01*
X364065Y218126D01*
X362753D01*
X362098Y217470D01*
Y215502D01*
X360130Y218126D02*
X358818D01*
X358162Y217470D01*
Y215502D01*
X360130D01*
X360786Y216158D01*
X360130Y216814D01*
X358162D01*
X356850Y218126D02*
Y215502D01*
Y216814D01*
X356194Y217470D01*
X355538Y218126D01*
X354882D01*
X352914Y215502D02*
X351602D01*
X352258D01*
Y218126D01*
X352914D01*
X348978D02*
X347666D01*
X347010Y217470D01*
Y215502D01*
X348978D01*
X349634Y216158D01*
X348978Y216814D01*
X347010D01*
X339139Y219437D02*
X341763D01*
Y215502D01*
X339139D01*
X341763Y217470D02*
X340451D01*
X337827Y215502D02*
X336515D01*
X337171D01*
Y219437D01*
X337827D01*
X332579Y215502D02*
X333891D01*
X334547Y216158D01*
Y217470D01*
X333891Y218126D01*
X332579D01*
X331924Y217470D01*
Y216814D01*
X334547D01*
X329956Y218781D02*
Y218126D01*
X330612D01*
X329300D01*
X329956D01*
Y216158D01*
X329300Y215502D01*
X327332Y218126D02*
Y215502D01*
Y216814D01*
X326676Y217470D01*
X326020Y218126D01*
X325364D01*
X322740Y215502D02*
X321428D01*
X320772Y216158D01*
Y217470D01*
X321428Y218126D01*
X322740D01*
X323396Y217470D01*
Y216158D01*
X322740Y215502D01*
X318804Y218781D02*
Y218126D01*
X319460D01*
X318148D01*
X318804D01*
Y216158D01*
X318148Y215502D01*
X314213D02*
X315525D01*
X316180Y216158D01*
Y217470D01*
X315525Y218126D01*
X314213D01*
X313557Y217470D01*
Y216814D01*
X316180D01*
X309621Y218126D02*
X311589D01*
X312245Y217470D01*
Y216158D01*
X311589Y215502D01*
X309621D01*
X308309D02*
Y218126D01*
X306341D01*
X305685Y217470D01*
Y215502D01*
X304373D02*
X303061D01*
X303717D01*
Y218126D01*
X304373D01*
X298470D02*
X300438D01*
X301094Y217470D01*
Y216158D01*
X300438Y215502D01*
X298470D01*
X296502Y218126D02*
X295190D01*
X294534Y217470D01*
Y215502D01*
X296502D01*
X297158Y216158D01*
X296502Y216814D01*
X294534D01*
X287318Y215502D02*
X288630D01*
X289286Y216158D01*
Y217470D01*
X288630Y218126D01*
X287318D01*
X286663Y217470D01*
Y216814D01*
X289286D01*
X278791Y219437D02*
Y215502D01*
X280759D01*
X281415Y216158D01*
Y217470D01*
X280759Y218126D01*
X278791D01*
X275511Y215502D02*
X276823D01*
X277479Y216158D01*
Y217470D01*
X276823Y218126D01*
X275511D01*
X274855Y217470D01*
Y216814D01*
X277479D01*
X266984Y218781D02*
X267640Y219437D01*
X268952D01*
X269608Y218781D01*
Y216158D01*
X268952Y215502D01*
X267640D01*
X266984Y216158D01*
X265016Y215502D02*
X263704D01*
X263048Y216158D01*
Y217470D01*
X263704Y218126D01*
X265016D01*
X265672Y217470D01*
Y216158D01*
X265016Y215502D01*
X261736D02*
Y218126D01*
X261080D01*
X260424Y217470D01*
Y215502D01*
Y217470D01*
X259768Y218126D01*
X259112Y217470D01*
Y215502D01*
X257800Y214190D02*
Y218126D01*
X255833D01*
X255177Y217470D01*
Y216158D01*
X255833Y215502D01*
X257800D01*
X253865Y218126D02*
Y216158D01*
X253209Y215502D01*
X251241D01*
Y218126D01*
X249273Y218781D02*
Y218126D01*
X249929D01*
X248617D01*
X249273D01*
Y216158D01*
X248617Y215502D01*
X245993Y218126D02*
X244681D01*
X244025Y217470D01*
Y215502D01*
X245993D01*
X246649Y216158D01*
X245993Y216814D01*
X244025D01*
X240090Y219437D02*
Y215502D01*
X242057D01*
X242713Y216158D01*
Y217470D01*
X242057Y218126D01*
X240090D01*
X238122Y215502D02*
X236810D01*
X236154Y216158D01*
Y217470D01*
X236810Y218126D01*
X238122D01*
X238778Y217470D01*
Y216158D01*
X238122Y215502D01*
X234842Y218126D02*
Y215502D01*
Y216814D01*
X234186Y217470D01*
X233530Y218126D01*
X232874D01*
X228938Y215502D02*
X230250D01*
X230906Y216158D01*
Y217470D01*
X230250Y218126D01*
X228938D01*
X228282Y217470D01*
Y216814D01*
X230906D01*
X226970Y215502D02*
X225003D01*
X224347Y216158D01*
X225003Y216814D01*
X226314D01*
X226970Y217470D01*
X226314Y218126D01*
X224347D01*
X384400Y198193D02*
Y202129D01*
X382432D01*
X381776Y201473D01*
Y200161D01*
X382432Y199505D01*
X384400D01*
X380464Y200817D02*
Y198193D01*
Y199505D01*
X379808Y200161D01*
X379152Y200817D01*
X378496D01*
X375873Y198193D02*
X374561D01*
X373905Y198849D01*
Y200161D01*
X374561Y200817D01*
X375873D01*
X376529Y200161D01*
Y198849D01*
X375873Y198193D01*
X372593Y196881D02*
X371937D01*
X371281Y197537D01*
Y200817D01*
X366689Y198193D02*
X368001D01*
X368657Y198849D01*
Y200161D01*
X368001Y200817D01*
X366689D01*
X366033Y200161D01*
Y199505D01*
X368657D01*
X364065Y201473D02*
Y200817D01*
X364721D01*
X363409D01*
X364065D01*
Y198849D01*
X363409Y198193D01*
X360786D02*
X359474D01*
X358818Y198849D01*
Y200161D01*
X359474Y200817D01*
X360786D01*
X361441Y200161D01*
Y198849D01*
X360786Y198193D01*
X350946Y202129D02*
Y198193D01*
X352914D01*
X353570Y198849D01*
Y200161D01*
X352914Y200817D01*
X350946D01*
X347666Y198193D02*
X348978D01*
X349634Y198849D01*
Y200161D01*
X348978Y200817D01*
X347666D01*
X347010Y200161D01*
Y199505D01*
X349634D01*
X345699Y200817D02*
X345043D01*
Y200161D01*
X345699D01*
Y200817D01*
Y198849D02*
X345043D01*
Y198193D01*
X345699D01*
Y198849D01*
X335859Y201473D02*
X336515Y202129D01*
X337827D01*
X338483Y201473D01*
Y198849D01*
X337827Y198193D01*
X336515D01*
X335859Y198849D01*
Y200161D01*
X337171D01*
X334547Y200817D02*
Y198849D01*
X333891Y198193D01*
X331924D01*
Y200817D01*
X330612Y198193D02*
X329300D01*
X329956D01*
Y200817D01*
X330612D01*
X327332Y198193D02*
X326020D01*
X326676D01*
Y202129D01*
X327332D01*
X324052D02*
Y198193D01*
Y200161D01*
X323396Y200817D01*
X322084D01*
X321428Y200161D01*
Y198193D01*
X318148D02*
X319460D01*
X320116Y198849D01*
Y200161D01*
X319460Y200817D01*
X318148D01*
X317492Y200161D01*
Y199505D01*
X320116D01*
X316180Y200817D02*
Y198193D01*
Y199505D01*
X315525Y200161D01*
X314869Y200817D01*
X314213D01*
X312245Y198193D02*
Y200817D01*
X311589D01*
X310933Y200161D01*
Y198193D01*
Y200161D01*
X310277Y200817D01*
X309621Y200161D01*
Y198193D01*
X306341D02*
X307653D01*
X308309Y198849D01*
Y200161D01*
X307653Y200817D01*
X306341D01*
X305685Y200161D01*
Y199505D01*
X308309D01*
X297814Y201473D02*
X298470Y202129D01*
X299782D01*
X300438Y201473D01*
Y198849D01*
X299782Y198193D01*
X298470D01*
X297814Y198849D01*
X295846Y200817D02*
X294534D01*
X293878Y200161D01*
Y198193D01*
X295846D01*
X296502Y198849D01*
X295846Y199505D01*
X293878D01*
X292566Y198193D02*
Y200817D01*
X290598D01*
X289942Y200161D01*
Y198193D01*
X286006Y202129D02*
Y198193D01*
X287974D01*
X288630Y198849D01*
Y200161D01*
X287974Y200817D01*
X286006D01*
X284695Y198193D02*
X283383D01*
X284039D01*
Y200817D01*
X284695D01*
X278791Y202129D02*
Y198193D01*
X280759D01*
X281415Y198849D01*
Y200161D01*
X280759Y200817D01*
X278791D01*
X276823Y198193D02*
X275511D01*
X274855Y198849D01*
Y200161D01*
X275511Y200817D01*
X276823D01*
X277479Y200161D01*
Y198849D01*
X276823Y198193D01*
X384400Y224812D02*
Y228748D01*
X382432D01*
X381776Y228092D01*
Y226780D01*
X382432Y226124D01*
X384400D01*
X380464Y227436D02*
Y224812D01*
Y226124D01*
X379808Y226780D01*
X379152Y227436D01*
X378496D01*
X375873Y224812D02*
X374561D01*
X373905Y225468D01*
Y226780D01*
X374561Y227436D01*
X375873D01*
X376529Y226780D01*
Y225468D01*
X375873Y224812D01*
X372593Y223500D02*
X371937D01*
X371281Y224156D01*
Y227436D01*
X366689Y224812D02*
X368001D01*
X368657Y225468D01*
Y226780D01*
X368001Y227436D01*
X366689D01*
X366033Y226780D01*
Y226124D01*
X368657D01*
X364065Y228092D02*
Y227436D01*
X364721D01*
X363409D01*
X364065D01*
Y225468D01*
X363409Y224812D01*
X360786D02*
X359474D01*
X358818Y225468D01*
Y226780D01*
X359474Y227436D01*
X360786D01*
X361441Y226780D01*
Y225468D01*
X360786Y224812D01*
X350946Y228748D02*
X353570D01*
Y226780D01*
X352258D01*
X353570D01*
Y224812D01*
X349634D02*
X348322D01*
X348978D01*
Y227436D01*
X349634D01*
X346355Y224812D02*
Y227436D01*
X344387D01*
X343731Y226780D01*
Y224812D01*
X341763Y227436D02*
X340451D01*
X339795Y226780D01*
Y224812D01*
X341763D01*
X342419Y225468D01*
X341763Y226124D01*
X339795D01*
X338483Y224812D02*
X337171D01*
X337827D01*
Y228748D01*
X338483D01*
X328644D02*
Y224812D01*
X330612D01*
X331267Y225468D01*
Y226780D01*
X330612Y227436D01*
X328644D01*
X325364Y224812D02*
X326676D01*
X327332Y225468D01*
Y226780D01*
X326676Y227436D01*
X325364D01*
X324708Y226780D01*
Y226124D01*
X327332D01*
X316837Y228092D02*
X317492Y228748D01*
X318804D01*
X319460Y228092D01*
Y225468D01*
X318804Y224812D01*
X317492D01*
X316837Y225468D01*
X315525Y227436D02*
Y225468D01*
X314869Y224812D01*
X312901D01*
Y227436D01*
X311589D02*
Y224812D01*
Y226124D01*
X310933Y226780D01*
X310277Y227436D01*
X309621D01*
X307653Y224812D02*
X305685D01*
X305029Y225468D01*
X305685Y226124D01*
X306997D01*
X307653Y226780D01*
X306997Y227436D01*
X305029D01*
X303061Y224812D02*
X301749D01*
X301094Y225468D01*
Y226780D01*
X301749Y227436D01*
X303061D01*
X303717Y226780D01*
Y225468D01*
X303061Y224812D01*
X381776Y210783D02*
X382432Y211439D01*
X383744D01*
X384400Y210783D01*
Y208159D01*
X383744Y207503D01*
X382432D01*
X381776Y208159D01*
X379808Y207503D02*
X378496D01*
X377840Y208159D01*
Y209471D01*
X378496Y210127D01*
X379808D01*
X380464Y209471D01*
Y208159D01*
X379808Y207503D01*
X376529D02*
Y210127D01*
X374561D01*
X373905Y209471D01*
Y207503D01*
X372593Y210127D02*
X371281Y207503D01*
X369969Y210127D01*
X366689Y207503D02*
X368001D01*
X368657Y208159D01*
Y209471D01*
X368001Y210127D01*
X366689D01*
X366033Y209471D01*
Y208815D01*
X368657D01*
X364721Y210127D02*
Y207503D01*
Y208815D01*
X364065Y209471D01*
X363409Y210127D01*
X362753D01*
X360786Y207503D02*
X358818D01*
X358162Y208159D01*
X358818Y208815D01*
X360130D01*
X360786Y209471D01*
X360130Y210127D01*
X358162D01*
X356194Y207503D02*
X354882D01*
X354226Y208159D01*
Y209471D01*
X354882Y210127D01*
X356194D01*
X356850Y209471D01*
Y208159D01*
X356194Y207503D01*
X352914Y210127D02*
Y207503D01*
Y208815D01*
X352258Y209471D01*
X351602Y210127D01*
X350946D01*
X345043Y211439D02*
Y207503D01*
X343075D01*
X342419Y208159D01*
Y208815D01*
X343075Y209471D01*
X345043D01*
X343075D01*
X342419Y210127D01*
Y210783D01*
X343075Y211439D01*
X345043D01*
X341107Y207503D02*
X339795D01*
X340451D01*
Y210127D01*
X341107D01*
X337827Y209471D02*
X335203D01*
X333891Y211439D02*
Y207503D01*
X331924D01*
X331267Y208159D01*
Y210783D01*
X331924Y211439D01*
X333891D01*
X329956Y207503D02*
X328644D01*
X329300D01*
Y210127D01*
X329956D01*
X326676D02*
Y207503D01*
Y208815D01*
X326020Y209471D01*
X325364Y210127D01*
X324708D01*
X320772Y207503D02*
X322084D01*
X322740Y208159D01*
Y209471D01*
X322084Y210127D01*
X320772D01*
X320116Y209471D01*
Y208815D01*
X322740D01*
X316180Y210127D02*
X318148D01*
X318804Y209471D01*
Y208159D01*
X318148Y207503D01*
X316180D01*
X314869D02*
X313557D01*
X314213D01*
Y210127D01*
X314869D01*
X310933Y207503D02*
X309621D01*
X308965Y208159D01*
Y209471D01*
X309621Y210127D01*
X310933D01*
X311589Y209471D01*
Y208159D01*
X310933Y207503D01*
X307653D02*
Y210127D01*
X305685D01*
X305029Y209471D01*
Y207503D01*
X303061Y210127D02*
X301749D01*
X301094Y209471D01*
Y207503D01*
X303061D01*
X303717Y208159D01*
X303061Y208815D01*
X301094D01*
X299782Y207503D02*
X298470D01*
X299126D01*
Y211439D01*
X299782D01*
X292566Y209471D02*
X289942D01*
X284695Y211439D02*
X283383D01*
X284039D01*
Y207503D01*
X284695D01*
X283383D01*
X281415D02*
Y210127D01*
X279447D01*
X278791Y209471D01*
Y207503D01*
X277479Y210127D02*
X276167Y207503D01*
X274855Y210127D01*
X271575Y207503D02*
X272887D01*
X273543Y208159D01*
Y209471D01*
X272887Y210127D01*
X271575D01*
X270919Y209471D01*
Y208815D01*
X273543D01*
X269608Y210127D02*
Y207503D01*
Y208815D01*
X268952Y209471D01*
X268296Y210127D01*
X267640D01*
X265672Y207503D02*
X263704D01*
X263048Y208159D01*
X263704Y208815D01*
X265016D01*
X265672Y209471D01*
X265016Y210127D01*
X263048D01*
X261080Y207503D02*
X259768D01*
X259112Y208159D01*
Y209471D01*
X259768Y210127D01*
X261080D01*
X261736Y209471D01*
Y208159D01*
X261080Y207503D01*
X257800Y210127D02*
Y207503D01*
Y208815D01*
X257144Y209471D01*
X256488Y210127D01*
X255833D01*
X382432Y194131D02*
X383744D01*
X384400Y193475D01*
Y190851D01*
X383744Y190195D01*
X382432D01*
X381776Y190851D01*
Y193475D01*
X382432Y194131D01*
X380464Y192819D02*
Y190195D01*
Y191507D01*
X379808Y192163D01*
X379152Y192819D01*
X378496D01*
X376529Y190195D02*
X375217D01*
X375873D01*
Y192819D01*
X376529D01*
X371281Y190195D02*
X372593D01*
X373249Y190851D01*
Y192163D01*
X372593Y192819D01*
X371281D01*
X370625Y192163D01*
Y191507D01*
X373249D01*
X369313Y190195D02*
Y192819D01*
X367345D01*
X366689Y192163D01*
Y190195D01*
X364721Y193475D02*
Y192819D01*
X365377D01*
X364065D01*
X364721D01*
Y190851D01*
X364065Y190195D01*
X361441Y192819D02*
X360130D01*
X359474Y192163D01*
Y190195D01*
X361441D01*
X362098Y190851D01*
X361441Y191507D01*
X359474D01*
X355538Y194131D02*
Y190195D01*
X357506D01*
X358162Y190851D01*
Y192163D01*
X357506Y192819D01*
X355538D01*
X353570Y190195D02*
X352258D01*
X351602Y190851D01*
Y192163D01*
X352258Y192819D01*
X353570D01*
X354226Y192163D01*
Y190851D01*
X353570Y190195D01*
X346355D02*
Y194131D01*
X344387D01*
X343731Y193475D01*
Y192163D01*
X344387Y191507D01*
X346355D01*
X341763Y190195D02*
X340451D01*
X339795Y190851D01*
Y192163D01*
X340451Y192819D01*
X341763D01*
X342419Y192163D01*
Y190851D01*
X341763Y190195D01*
X338483Y192819D02*
Y190195D01*
Y191507D01*
X337827Y192163D01*
X337171Y192819D01*
X336515D01*
X334547D02*
X333891D01*
Y192163D01*
X334547D01*
Y192819D01*
Y190851D02*
X333891D01*
Y190195D01*
X334547D01*
Y190851D01*
X384400Y170136D02*
Y166200D01*
X382432D01*
X381776Y166856D01*
Y169480D01*
X382432Y170136D01*
X384400D01*
X379808Y166200D02*
X378496D01*
X377840Y166856D01*
Y168168D01*
X378496Y168824D01*
X379808D01*
X380464Y168168D01*
Y166856D01*
X379808Y166200D01*
X376529Y168824D02*
Y166856D01*
X375873Y166200D01*
X373905D01*
Y168824D01*
X371937Y169480D02*
Y168824D01*
X372593D01*
X371281D01*
X371937D01*
Y166856D01*
X371281Y166200D01*
X368657D02*
X367345D01*
X366689Y166856D01*
Y168168D01*
X367345Y168824D01*
X368657D01*
X369313Y168168D01*
Y166856D01*
X368657Y166200D01*
X365377Y168824D02*
Y166200D01*
Y167512D01*
X364721Y168168D01*
X364065Y168824D01*
X363409D01*
X357506Y166200D02*
Y170136D01*
X354882Y166200D01*
Y170136D01*
X353570Y168824D02*
Y166856D01*
X352914Y166200D01*
X350946D01*
Y168824D01*
X349634Y166200D02*
Y168824D01*
X347666D01*
X347010Y168168D01*
Y166200D01*
X345043D02*
X343731D01*
X343075Y166856D01*
Y168168D01*
X343731Y168824D01*
X345043D01*
X345699Y168168D01*
Y166856D01*
X345043Y166200D01*
X335203Y169480D02*
X335859Y170136D01*
X337171D01*
X337827Y169480D01*
Y166856D01*
X337171Y166200D01*
X335859D01*
X335203Y166856D01*
Y168168D01*
X336515D01*
X333891Y166200D02*
X332579D01*
X333235D01*
Y168824D01*
X333891D01*
X330612Y166200D02*
X329300D01*
X329956D01*
Y170136D01*
X330612D01*
X384400Y178134D02*
Y174198D01*
X382432D01*
X381776Y174854D01*
Y177478D01*
X382432Y178134D01*
X384400D01*
X379808Y174198D02*
X378496D01*
X377840Y174854D01*
Y176166D01*
X378496Y176822D01*
X379808D01*
X380464Y176166D01*
Y174854D01*
X379808Y174198D01*
X376529Y176822D02*
Y174854D01*
X375873Y174198D01*
X373905D01*
Y176822D01*
X371937Y177478D02*
Y176822D01*
X372593D01*
X371281D01*
X371937D01*
Y174854D01*
X371281Y174198D01*
X368657D02*
X367345D01*
X366689Y174854D01*
Y176166D01*
X367345Y176822D01*
X368657D01*
X369313Y176166D01*
Y174854D01*
X368657Y174198D01*
X365377Y176822D02*
Y174198D01*
Y175510D01*
X364721Y176166D01*
X364065Y176822D01*
X363409D01*
X360786D02*
X359474D01*
X358818Y176166D01*
Y174198D01*
X360786D01*
X361441Y174854D01*
X360786Y175510D01*
X358818D01*
X353570Y174198D02*
Y178134D01*
X350946Y174198D01*
Y178134D01*
X348978Y176822D02*
X347666D01*
X347010Y176166D01*
Y174198D01*
X348978D01*
X349634Y174854D01*
X348978Y175510D01*
X347010D01*
X345043Y177478D02*
Y176822D01*
X345699D01*
X344387D01*
X345043D01*
Y174854D01*
X344387Y174198D01*
X341763Y176822D02*
X340451D01*
X339795Y176166D01*
Y174198D01*
X341763D01*
X342419Y174854D01*
X341763Y175510D01*
X339795D01*
X338483Y174198D02*
X337171D01*
X337827D01*
Y178134D01*
X338483D01*
X335203Y174198D02*
X333891D01*
X334547D01*
Y176822D01*
X335203D01*
X331267D02*
X329956D01*
X329300Y176166D01*
Y174198D01*
X331267D01*
X331924Y174854D01*
X331267Y175510D01*
X329300D01*
X321428Y177478D02*
X322084Y178134D01*
X323396D01*
X324052Y177478D01*
Y174854D01*
X323396Y174198D01*
X322084D01*
X321428Y174854D01*
Y176166D01*
X322740D01*
X319460Y176822D02*
X318148D01*
X317492Y176166D01*
Y174198D01*
X319460D01*
X320116Y174854D01*
X319460Y175510D01*
X317492D01*
X316180Y174198D02*
Y176822D01*
X315525D01*
X314869Y176166D01*
Y174198D01*
Y176166D01*
X314213Y176822D01*
X313557Y176166D01*
Y174198D01*
X310277D02*
X311589D01*
X312245Y174854D01*
Y176166D01*
X311589Y176822D01*
X310277D01*
X309621Y176166D01*
Y175510D01*
X312245D01*
X308309Y174198D02*
X306997D01*
X307653D01*
Y176822D01*
X308309D01*
X305029D02*
Y174198D01*
Y175510D01*
X304373Y176166D01*
X303717Y176822D01*
X303061D01*
X300438Y174198D02*
X299126D01*
X298470Y174854D01*
Y176166D01*
X299126Y176822D01*
X300438D01*
X301094Y176166D01*
Y174854D01*
X300438Y174198D01*
X384400Y186132D02*
Y182197D01*
X382432D01*
X381776Y182852D01*
Y185476D01*
X382432Y186132D01*
X384400D01*
X379808Y182197D02*
X378496D01*
X377840Y182852D01*
Y184165D01*
X378496Y184820D01*
X379808D01*
X380464Y184165D01*
Y182852D01*
X379808Y182197D01*
X376529Y184820D02*
Y182852D01*
X375873Y182197D01*
X373905D01*
Y184820D01*
X371937Y185476D02*
Y184820D01*
X372593D01*
X371281D01*
X371937D01*
Y182852D01*
X371281Y182197D01*
X368657D02*
X367345D01*
X366689Y182852D01*
Y184165D01*
X367345Y184820D01*
X368657D01*
X369313Y184165D01*
Y182852D01*
X368657Y182197D01*
X365377Y184820D02*
Y182197D01*
Y183509D01*
X364721Y184165D01*
X364065Y184820D01*
X363409D01*
X357506Y186132D02*
Y182197D01*
X354882D01*
X353570Y184820D02*
Y182852D01*
X352914Y182197D01*
X350946D01*
Y184820D01*
X349634Y182197D02*
X348322D01*
X348978D01*
Y184820D01*
X349634D01*
X346355Y182197D02*
X344387D01*
X343731Y182852D01*
X344387Y183509D01*
X345699D01*
X346355Y184165D01*
X345699Y184820D01*
X343731D01*
X338483Y182197D02*
Y186132D01*
X335859Y182197D01*
Y186132D01*
X332579Y182197D02*
X333891D01*
X334547Y182852D01*
Y184165D01*
X333891Y184820D01*
X332579D01*
X331924Y184165D01*
Y183509D01*
X334547D01*
X330612Y184820D02*
X329300Y182197D01*
X327988Y184820D01*
X324708Y182197D02*
X326020D01*
X326676Y182852D01*
Y184165D01*
X326020Y184820D01*
X324708D01*
X324052Y184165D01*
Y183509D01*
X326676D01*
X322740Y182197D02*
X320772D01*
X320116Y182852D01*
X320772Y183509D01*
X322084D01*
X322740Y184165D01*
X322084Y184820D01*
X320116D01*
X438880Y478124D02*
X439536Y477468D01*
Y476156D01*
X438880Y475500D01*
X436256D01*
X435600Y476156D01*
Y477468D01*
X436256Y478124D01*
X437568D01*
Y476812D01*
X435600Y479436D02*
X439536D01*
X435600Y482060D01*
X439536D01*
Y483371D02*
X435600D01*
Y485339D01*
X436256Y485995D01*
X438880D01*
X439536Y485339D01*
Y483371D01*
X448068Y469500D02*
Y472124D01*
X449380Y470812D02*
X446756D01*
X446100Y476060D02*
Y473436D01*
X448724Y476060D01*
X449380D01*
X450036Y475404D01*
Y474092D01*
X449380Y473436D01*
X446100Y479339D02*
X450036D01*
X448068Y477372D01*
Y479995D01*
X450036Y481307D02*
X447412D01*
X446100Y482619D01*
X447412Y483931D01*
X450036D01*
X448800Y514736D02*
Y510800D01*
X446832D01*
X446176Y511456D01*
Y514080D01*
X446832Y514736D01*
X448800D01*
X444864Y510800D02*
Y514736D01*
X442896D01*
X442240Y514080D01*
Y512768D01*
X442896Y512112D01*
X444864D01*
X443552D02*
X442240Y510800D01*
X440929Y514736D02*
Y512112D01*
X439617Y510800D01*
X438305Y512112D01*
Y514736D01*
X436993Y510800D02*
Y514736D01*
X435025D01*
X434369Y514080D01*
Y512768D01*
X435025Y512112D01*
X436993D01*
X435681D02*
X434369Y510800D01*
X429121Y514736D02*
Y512112D01*
X427809Y510800D01*
X426498Y512112D01*
Y514736D01*
X422562Y514080D02*
X423218Y514736D01*
X424530D01*
X425186Y514080D01*
Y511456D01*
X424530Y510800D01*
X423218D01*
X422562Y511456D01*
X418626Y514080D02*
X419282Y514736D01*
X420594D01*
X421250Y514080D01*
Y511456D01*
X420594Y510800D01*
X419282D01*
X418626Y511456D01*
X449500Y521068D02*
X446876D01*
X448188Y522380D02*
Y519756D01*
X442940Y523036D02*
X445564D01*
Y521068D01*
X444252Y521724D01*
X443596D01*
X442940Y521068D01*
Y519756D01*
X443596Y519100D01*
X444908D01*
X445564Y519756D01*
X421968Y469000D02*
Y471624D01*
X423280Y470312D02*
X420656D01*
X423280Y472936D02*
X423936Y473592D01*
Y474904D01*
X423280Y475560D01*
X422624D01*
X421968Y474904D01*
Y474248D01*
Y474904D01*
X421312Y475560D01*
X420656D01*
X420000Y474904D01*
Y473592D01*
X420656Y472936D01*
X420000Y476871D02*
X420656D01*
Y477527D01*
X420000D01*
Y476871D01*
X423280Y480151D02*
X423936Y480807D01*
Y482119D01*
X423280Y482775D01*
X422624D01*
X421968Y482119D01*
Y481463D01*
Y482119D01*
X421312Y482775D01*
X420656D01*
X420000Y482119D01*
Y480807D01*
X420656Y480151D01*
X423936Y484087D02*
X421312D01*
X420000Y485399D01*
X421312Y486711D01*
X423936D01*
X413300Y478624D02*
X413955Y477968D01*
Y476656D01*
X413300Y476000D01*
X410676D01*
X410020Y476656D01*
Y477968D01*
X410676Y478624D01*
X411988D01*
Y477312D01*
X410020Y479936D02*
X413955D01*
X410020Y482560D01*
X413955D01*
Y483872D02*
X410020D01*
Y485839D01*
X410676Y486495D01*
X413300D01*
X413955Y485839D01*
Y483872D01*
X417700Y531336D02*
X416388D01*
X417044D01*
Y527400D01*
X417700D01*
X416388D01*
X414420D02*
Y531336D01*
X411796Y527400D01*
Y531336D01*
X410485D02*
Y528712D01*
X409173Y527400D01*
X407861Y528712D01*
Y531336D01*
X402613Y527400D02*
Y531336D01*
X400645D01*
X399989Y530680D01*
Y529368D01*
X400645Y528712D01*
X402613D01*
X396709Y531336D02*
X398021D01*
X398677Y530680D01*
Y528056D01*
X398021Y527400D01*
X396709D01*
X396053Y528056D01*
Y530680D01*
X396709Y531336D01*
X392118Y530680D02*
X392774Y531336D01*
X394086D01*
X394742Y530680D01*
Y530024D01*
X394086Y529368D01*
X392774D01*
X392118Y528712D01*
Y528056D01*
X392774Y527400D01*
X394086D01*
X394742Y528056D01*
X386870Y531336D02*
X385558D01*
X386214D01*
Y527400D01*
X386870D01*
X385558D01*
X383590D02*
Y531336D01*
X380966Y527400D01*
Y531336D01*
X412100Y523336D02*
X410788D01*
X411444D01*
Y519400D01*
X412100D01*
X410788D01*
X408820D02*
Y523336D01*
X406196Y519400D01*
Y523336D01*
X404884D02*
Y520712D01*
X403573Y519400D01*
X402261Y520712D01*
Y523336D01*
X397013Y519400D02*
Y523336D01*
X394389Y519400D01*
Y523336D01*
X390453D02*
X393077D01*
Y519400D01*
X390453D01*
X393077Y521368D02*
X391765D01*
X386518Y522680D02*
X387174Y523336D01*
X388486D01*
X389142Y522680D01*
Y520056D01*
X388486Y519400D01*
X387174D01*
X386518Y520056D01*
Y521368D01*
X387830D01*
X381270Y523336D02*
X379958D01*
X380614D01*
Y519400D01*
X381270D01*
X379958D01*
X377990D02*
Y523336D01*
X375366Y519400D01*
Y523336D01*
X385400Y479500D02*
X389336D01*
X385400Y482124D01*
X389336D01*
X388680Y486060D02*
X389336Y485404D01*
Y484092D01*
X388680Y483436D01*
X386056D01*
X385400Y484092D01*
Y485404D01*
X386056Y486060D01*
X358500Y465600D02*
X362436D01*
X361124Y466912D01*
X362436Y468224D01*
X358500D01*
X361124Y470192D02*
Y471504D01*
X360468Y472160D01*
X358500D01*
Y470192D01*
X359156Y469536D01*
X359812Y470192D01*
Y472160D01*
X358500Y473471D02*
Y474783D01*
Y474127D01*
X361124D01*
Y473471D01*
X358500Y476751D02*
X361124D01*
Y478719D01*
X360468Y479375D01*
X358500D01*
Y480687D02*
Y482655D01*
X359156Y483311D01*
X359812Y482655D01*
Y481343D01*
X360468Y480687D01*
X361124Y481343D01*
Y483311D01*
X362436Y488558D02*
Y491182D01*
X361780D01*
X359156Y488558D01*
X358500D01*
Y491182D01*
X361780Y495118D02*
X362436Y494462D01*
Y493150D01*
X361780Y492494D01*
X359156D01*
X358500Y493150D01*
Y494462D01*
X359156Y495118D01*
X370000Y477000D02*
X372624D01*
X373936Y478312D01*
X372624Y479624D01*
X370000D01*
X371968D01*
Y477000D01*
X373936Y480936D02*
X370000D01*
Y483560D01*
X373936Y484871D02*
Y487495D01*
Y486183D01*
X370000D01*
X373280Y495367D02*
X373936Y494711D01*
Y493399D01*
X373280Y492743D01*
X370656D01*
X370000Y493399D01*
Y494711D01*
X370656Y495367D01*
X373280Y499302D02*
X373936Y498647D01*
Y497335D01*
X373280Y496679D01*
X372624D01*
X371968Y497335D01*
Y498647D01*
X371312Y499302D01*
X370656D01*
X370000Y498647D01*
Y497335D01*
X370656Y496679D01*
X396312Y446400D02*
X400248D01*
X398936Y447712D01*
X400248Y449024D01*
X396312D01*
X398936Y450992D02*
Y452304D01*
X398280Y452960D01*
X396312D01*
Y450992D01*
X396968Y450336D01*
X397624Y450992D01*
Y452960D01*
X396312Y454272D02*
Y455583D01*
Y454927D01*
X398936D01*
Y454272D01*
X396312Y457551D02*
X398936D01*
Y459519D01*
X398280Y460175D01*
X396312D01*
Y461487D02*
Y463455D01*
X396968Y464111D01*
X397624Y463455D01*
Y462143D01*
X398280Y461487D01*
X398936Y462143D01*
Y464111D01*
X396312Y469358D02*
X400248D01*
Y471326D01*
X399592Y471982D01*
X398280D01*
X397624Y471326D01*
Y469358D01*
Y470670D02*
X396312Y471982D01*
Y475262D02*
Y473950D01*
X396968Y473294D01*
X398280D01*
X398936Y473950D01*
Y475262D01*
X398280Y475918D01*
X397624D01*
Y473294D01*
X396312Y477230D02*
Y478542D01*
Y477886D01*
X400248D01*
Y477230D01*
X398936Y481166D02*
Y482478D01*
X398280Y483134D01*
X396312D01*
Y481166D01*
X396968Y480510D01*
X397624Y481166D01*
Y483134D01*
X398936Y484445D02*
X396968D01*
X396312Y485101D01*
Y487069D01*
X395656D01*
X395000Y486413D01*
Y485757D01*
X396312Y487069D02*
X398936D01*
M02*
