G04*
G04 #@! TF.GenerationSoftware,Altium Limited,Altium Designer,23.8.1 (32)*
G04*
G04 Layer_Color=65535*
%FSLAX25Y25*%
%MOIN*%
G70*
G04*
G04 #@! TF.SameCoordinates,39E68628-0E6C-4B0E-937A-7B5971290EE0*
G04*
G04*
G04 #@! TF.FilePolarity,Positive*
G04*
G01*
G75*
%ADD10C,0.00709*%
%ADD11C,0.00500*%
%ADD12C,0.02000*%
%ADD13C,0.00787*%
%ADD14C,0.00600*%
%ADD15C,0.01000*%
D10*
X481098Y399410D02*
X480805Y400117D01*
X480098Y400410D01*
Y282300D02*
X480805Y282593D01*
X481098Y283300D01*
X442728Y400410D02*
X442021Y400117D01*
X441728Y399410D01*
Y283300D02*
X442021Y282593D01*
X442728Y282300D01*
X481098Y482600D02*
X480805Y483307D01*
X480098Y483600D01*
Y404860D02*
X480805Y405153D01*
X481098Y405860D01*
X442728Y483600D02*
X442021Y483307D01*
X441728Y482600D01*
Y405860D02*
X442021Y405153D01*
X442728Y404860D01*
Y282300D02*
X480098D01*
X442728Y400410D02*
X480098D01*
X481098Y283300D02*
Y399410D01*
X441728Y283300D02*
Y399410D01*
X442728Y404860D02*
X480098D01*
X442728Y483600D02*
X480098D01*
X481098Y405860D02*
Y482600D01*
X441728Y405860D02*
Y482600D01*
D11*
X448628Y509205D02*
X447792Y509687D01*
Y508722D01*
X448628Y509205D01*
X422880D02*
X422045Y509687D01*
Y508722D01*
X422880Y509205D01*
X398376D02*
X397540Y509687D01*
Y508722D01*
X398376Y509205D01*
X149997Y261622D02*
X150901Y262045D01*
X151754Y262563D01*
X152546Y263170D01*
X153268Y263858D01*
X153912Y264620D01*
X154470Y265447D01*
X154935Y266330D01*
X155303Y267257D01*
X155569Y268219D01*
X155730Y269204D01*
X155783Y270200D01*
X155730Y271196D01*
X155569Y272181D01*
X155303Y273143D01*
X154935Y274070D01*
X154470Y274953D01*
X153912Y275780D01*
X153268Y276542D01*
X152546Y277231D01*
X151754Y277837D01*
X150901Y278355D01*
X149997Y278778D01*
X346902Y480500D02*
X346861Y481498D01*
X346741Y482489D01*
X346541Y483468D01*
X346263Y484427D01*
X345909Y485361D01*
X345481Y486263D01*
X344982Y487128D01*
X344414Y487950D01*
X343783Y488724D01*
X343091Y489444D01*
X342343Y490106D01*
X341545Y490706D01*
X340701Y491240D01*
X339816Y491704D01*
X338898Y492096D01*
X337950Y492412D01*
X336981Y492651D01*
X335995Y492811D01*
X334999Y492892D01*
X334001D01*
X333005Y492811D01*
X332019Y492651D01*
X331050Y492412D01*
X330102Y492096D01*
X329184Y491704D01*
X328299Y491240D01*
X327455Y490706D01*
X326657Y490106D01*
X325909Y489444D01*
X325217Y488724D01*
X324586Y487950D01*
X324018Y487128D01*
X323519Y486263D01*
X323091Y485361D01*
X322737Y484427D01*
X322459Y483468D01*
X322259Y482489D01*
X322139Y481498D01*
X322098Y480500D01*
X322139Y479502D01*
X322259Y478511D01*
X322459Y477532D01*
X322737Y476573D01*
X323091Y475639D01*
X323519Y474737D01*
X324018Y473872D01*
X324586Y473050D01*
X325217Y472276D01*
X325909Y471556D01*
X326657Y470894D01*
X327455Y470294D01*
X328299Y469760D01*
X329184Y469296D01*
X330102Y468904D01*
X331050Y468588D01*
X332019Y468349D01*
X333005Y468189D01*
X334001Y468109D01*
X334999D01*
X335995Y468189D01*
X336981Y468349D01*
X337950Y468588D01*
X338898Y468904D01*
X339816Y469296D01*
X340701Y469760D01*
X341545Y470294D01*
X342343Y470894D01*
X343091Y471556D01*
X343783Y472276D01*
X344414Y473050D01*
X344982Y473872D01*
X345481Y474737D01*
X345909Y475639D01*
X346263Y476573D01*
X346541Y477532D01*
X346741Y478511D01*
X346861Y479502D01*
X346902Y480500D01*
X363496Y208000D02*
X363480Y208999D01*
X363433Y209998D01*
X363353Y210994D01*
X363243Y211987D01*
X363100Y212976D01*
X362927Y213961D01*
X362722Y214939D01*
X362487Y215910D01*
X362220Y216874D01*
X361924Y217828D01*
X361597Y218772D01*
X361240Y219706D01*
X360854Y220628D01*
X360439Y221537D01*
X359995Y222432D01*
X359523Y223313D01*
X359023Y224179D01*
X358496Y225028D01*
X357943Y225860D01*
X357363Y226674D01*
X356758Y227470D01*
X356127Y228245D01*
X355473Y229001D01*
X354795Y229735D01*
X354094Y230447D01*
X353370Y231137D01*
X352625Y231803D01*
X351860Y232446D01*
X351074Y233063D01*
X350270Y233656D01*
X349446Y234223D01*
X348605Y234763D01*
X347748Y235276D01*
X346875Y235762D01*
X345986Y236220D01*
X345084Y236650D01*
X344168Y237051D01*
X343240Y237422D01*
X342301Y237764D01*
X341352Y238076D01*
X340393Y238357D01*
X339425Y238608D01*
X338451Y238828D01*
X337469Y239018D01*
X336482Y239176D01*
X335491Y239302D01*
X334496Y239397D01*
X333499Y239460D01*
X332500Y239492D01*
X331500D01*
X330501Y239460D01*
X329504Y239397D01*
X328509Y239302D01*
X327518Y239176D01*
X326531Y239018D01*
X325549Y238828D01*
X324574Y238608D01*
X323607Y238357D01*
X322648Y238076D01*
X321699Y237764D01*
X320760Y237422D01*
X319832Y237051D01*
X318916Y236650D01*
X318014Y236220D01*
X317125Y235762D01*
X316252Y235276D01*
X315394Y234763D01*
X314554Y234223D01*
X313731Y233656D01*
X312926Y233063D01*
X312140Y232446D01*
X311374Y231803D01*
X310630Y231137D01*
X309906Y230447D01*
X309205Y229735D01*
X308527Y229001D01*
X307873Y228245D01*
X307242Y227470D01*
X306637Y226674D01*
X306057Y225860D01*
X305504Y225028D01*
X304977Y224179D01*
X304477Y223313D01*
X304005Y222432D01*
X303561Y221537D01*
X303146Y220628D01*
X302760Y219706D01*
X302403Y218772D01*
X302077Y217828D01*
X301780Y216874D01*
X301513Y215910D01*
X301278Y214939D01*
X301073Y213961D01*
X300900Y212977D01*
X300757Y211987D01*
X300647Y210994D01*
X300567Y209998D01*
X300520Y208999D01*
X300504Y208000D01*
X300520Y207001D01*
X300567Y206002D01*
X300646Y205006D01*
X300757Y204013D01*
X300900Y203024D01*
X301073Y202039D01*
X301278Y201061D01*
X301513Y200090D01*
X301780Y199127D01*
X302077Y198172D01*
X302403Y197228D01*
X302760Y196294D01*
X303146Y195372D01*
X303561Y194463D01*
X304005Y193568D01*
X304477Y192687D01*
X304977Y191821D01*
X305504Y190972D01*
X306057Y190140D01*
X306637Y189326D01*
X307242Y188531D01*
X307873Y187755D01*
X308527Y186999D01*
X309205Y186265D01*
X309906Y185553D01*
X310630Y184863D01*
X311374Y184197D01*
X312140Y183554D01*
X312926Y182937D01*
X313730Y182344D01*
X314554Y181777D01*
X315394Y181237D01*
X316252Y180724D01*
X317125Y180238D01*
X318014Y179780D01*
X318916Y179350D01*
X319831Y178949D01*
X320759Y178578D01*
X321698Y178236D01*
X322648Y177924D01*
X323607Y177643D01*
X324574Y177392D01*
X325549Y177172D01*
X326531Y176982D01*
X327517Y176824D01*
X328509Y176698D01*
X329504Y176603D01*
X330501Y176540D01*
X331500Y176508D01*
X332500Y176508D01*
X333498Y176540D01*
X334496Y176603D01*
X335491Y176698D01*
X336482Y176824D01*
X337469Y176982D01*
X338450Y177172D01*
X339425Y177392D01*
X340393Y177643D01*
X341352Y177924D01*
X342301Y178236D01*
X343240Y178578D01*
X344168Y178949D01*
X345084Y179350D01*
X345986Y179780D01*
X346874Y180238D01*
X347748Y180724D01*
X348605Y181237D01*
X349446Y181777D01*
X350269Y182344D01*
X351074Y182937D01*
X351860Y183554D01*
X352625Y184197D01*
X353370Y184863D01*
X354094Y185553D01*
X354795Y186265D01*
X355473Y186999D01*
X356127Y187754D01*
X356757Y188530D01*
X357363Y189325D01*
X357942Y190140D01*
X358496Y190972D01*
X359023Y191821D01*
X359523Y192686D01*
X359995Y193567D01*
X360438Y194463D01*
X360854Y195372D01*
X361240Y196294D01*
X361596Y197227D01*
X361923Y198172D01*
X362220Y199126D01*
X362487Y200090D01*
X362722Y201061D01*
X362927Y202039D01*
X363100Y203023D01*
X363243Y204012D01*
X363353Y205006D01*
X363433Y206002D01*
X363480Y207000D01*
X363496Y208000D01*
X296996Y208000D02*
X296980Y208999D01*
X296933Y209998D01*
X296853Y210994D01*
X296743Y211987D01*
X296600Y212976D01*
X296427Y213961D01*
X296222Y214939D01*
X295987Y215910D01*
X295720Y216874D01*
X295424Y217828D01*
X295097Y218772D01*
X294740Y219706D01*
X294354Y220628D01*
X293939Y221537D01*
X293495Y222432D01*
X293023Y223313D01*
X292523Y224179D01*
X291996Y225028D01*
X291443Y225860D01*
X290863Y226674D01*
X290258Y227470D01*
X289627Y228245D01*
X288973Y229001D01*
X288295Y229735D01*
X287594Y230447D01*
X286870Y231137D01*
X286125Y231803D01*
X285360Y232446D01*
X284574Y233063D01*
X283769Y233656D01*
X282946Y234223D01*
X282105Y234763D01*
X281248Y235276D01*
X280375Y235762D01*
X279486Y236220D01*
X278584Y236650D01*
X277668Y237051D01*
X276741Y237422D01*
X275801Y237764D01*
X274852Y238076D01*
X273893Y238357D01*
X272925Y238608D01*
X271951Y238828D01*
X270969Y239018D01*
X269982Y239176D01*
X268991Y239302D01*
X267996Y239397D01*
X266999Y239460D01*
X266000Y239492D01*
X265000D01*
X264001Y239460D01*
X263004Y239397D01*
X262009Y239302D01*
X261018Y239176D01*
X260031Y239018D01*
X259049Y238828D01*
X258074Y238608D01*
X257107Y238357D01*
X256148Y238076D01*
X255199Y237764D01*
X254259Y237422D01*
X253332Y237051D01*
X252416Y236650D01*
X251514Y236220D01*
X250625Y235762D01*
X249752Y235276D01*
X248895Y234763D01*
X248054Y234223D01*
X247231Y233656D01*
X246426Y233063D01*
X245640Y232446D01*
X244875Y231803D01*
X244130Y231137D01*
X243406Y230447D01*
X242705Y229735D01*
X242027Y229001D01*
X241373Y228245D01*
X240742Y227470D01*
X240137Y226674D01*
X239557Y225860D01*
X239004Y225028D01*
X238477Y224179D01*
X237977Y223313D01*
X237505Y222432D01*
X237061Y221537D01*
X236646Y220628D01*
X236260Y219706D01*
X235903Y218772D01*
X235577Y217828D01*
X235280Y216874D01*
X235013Y215910D01*
X234778Y214939D01*
X234573Y213961D01*
X234400Y212977D01*
X234257Y211987D01*
X234147Y210994D01*
X234067Y209998D01*
X234020Y208999D01*
X234004Y208000D01*
X234020Y207001D01*
X234067Y206002D01*
X234146Y205006D01*
X234257Y204013D01*
X234400Y203024D01*
X234573Y202039D01*
X234778Y201061D01*
X235013Y200090D01*
X235280Y199127D01*
X235577Y198172D01*
X235903Y197228D01*
X236260Y196294D01*
X236646Y195372D01*
X237061Y194463D01*
X237505Y193568D01*
X237977Y192687D01*
X238477Y191821D01*
X239004Y190972D01*
X239557Y190140D01*
X240137Y189326D01*
X240742Y188531D01*
X241372Y187755D01*
X242027Y186999D01*
X242705Y186265D01*
X243406Y185553D01*
X244129Y184863D01*
X244874Y184197D01*
X245640Y183554D01*
X246426Y182937D01*
X247230Y182344D01*
X248054Y181777D01*
X248894Y181237D01*
X249752Y180724D01*
X250625Y180238D01*
X251514Y179780D01*
X252416Y179350D01*
X253331Y178949D01*
X254259Y178578D01*
X255199Y178236D01*
X256148Y177924D01*
X257107Y177643D01*
X258074Y177392D01*
X259049Y177172D01*
X260031Y176982D01*
X261017Y176824D01*
X262009Y176698D01*
X263004Y176603D01*
X264001Y176540D01*
X265000Y176508D01*
X266000Y176508D01*
X266998Y176540D01*
X267996Y176603D01*
X268991Y176698D01*
X269982Y176824D01*
X270969Y176982D01*
X271950Y177172D01*
X272925Y177392D01*
X273893Y177643D01*
X274852Y177924D01*
X275801Y178236D01*
X276740Y178578D01*
X277668Y178949D01*
X278584Y179350D01*
X279486Y179780D01*
X280374Y180238D01*
X281248Y180724D01*
X282105Y181237D01*
X282946Y181777D01*
X283769Y182344D01*
X284574Y182937D01*
X285360Y183554D01*
X286125Y184197D01*
X286870Y184863D01*
X287594Y185553D01*
X288295Y186265D01*
X288973Y186999D01*
X289627Y187754D01*
X290257Y188530D01*
X290863Y189325D01*
X291442Y190140D01*
X291996Y190972D01*
X292523Y191821D01*
X293023Y192686D01*
X293495Y193567D01*
X293938Y194463D01*
X294354Y195372D01*
X294740Y196294D01*
X295096Y197227D01*
X295423Y198172D01*
X295720Y199126D01*
X295987Y200090D01*
X296222Y201061D01*
X296427Y202039D01*
X296600Y203023D01*
X296743Y204012D01*
X296853Y205006D01*
X296933Y206002D01*
X296980Y207000D01*
X296996Y208000D01*
X209502Y480500D02*
X209461Y481498D01*
X209341Y482489D01*
X209141Y483468D01*
X208863Y484427D01*
X208509Y485361D01*
X208081Y486263D01*
X207582Y487128D01*
X207014Y487950D01*
X206383Y488724D01*
X205691Y489444D01*
X204943Y490106D01*
X204145Y490706D01*
X203301Y491240D01*
X202416Y491704D01*
X201498Y492096D01*
X200550Y492412D01*
X199581Y492651D01*
X198595Y492811D01*
X197599Y492892D01*
X196601D01*
X195605Y492811D01*
X194619Y492651D01*
X193650Y492412D01*
X192702Y492096D01*
X191783Y491704D01*
X190899Y491240D01*
X190055Y490706D01*
X189257Y490106D01*
X188509Y489444D01*
X187817Y488724D01*
X187186Y487950D01*
X186618Y487128D01*
X186119Y486263D01*
X185691Y485361D01*
X185337Y484427D01*
X185059Y483468D01*
X184859Y482489D01*
X184739Y481498D01*
X184698Y480500D01*
X184739Y479502D01*
X184859Y478511D01*
X185059Y477532D01*
X185337Y476573D01*
X185691Y475639D01*
X186119Y474737D01*
X186618Y473872D01*
X187186Y473050D01*
X187817Y472276D01*
X188509Y471556D01*
X189257Y470894D01*
X190055Y470294D01*
X190899Y469760D01*
X191783Y469296D01*
X192702Y468904D01*
X193650Y468588D01*
X194619Y468349D01*
X195605Y468189D01*
X196601Y468109D01*
X197599D01*
X198595Y468189D01*
X199581Y468349D01*
X200550Y468588D01*
X201498Y468904D01*
X202416Y469296D01*
X203301Y469760D01*
X204145Y470294D01*
X204943Y470894D01*
X205691Y471556D01*
X206383Y472276D01*
X207014Y473050D01*
X207582Y473872D01*
X208081Y474737D01*
X208509Y475639D01*
X208863Y476573D01*
X209141Y477532D01*
X209341Y478511D01*
X209461Y479502D01*
X209502Y480500D01*
X303500Y492069D02*
Y496714D01*
Y523486D02*
Y528132D01*
X308618Y496714D02*
Y523486D01*
X303500Y496714D02*
X308618D01*
X298382D02*
X303500D01*
X298382D02*
Y523486D01*
X303500D01*
X308618D01*
X450000Y507354D02*
Y540819D01*
X428032Y507354D02*
Y540819D01*
X450000D01*
X428032Y507354D02*
X450000D01*
X424252D02*
Y540819D01*
X402283Y507354D02*
Y540819D01*
X424252D01*
X402283Y507354D02*
X424252D01*
X399748D02*
Y540819D01*
X377780Y507354D02*
Y540819D01*
X399748D01*
X377780Y507354D02*
X399748D01*
X141217Y262627D02*
Y277773D01*
Y262627D02*
Y277773D01*
X177126Y323621D02*
X192874D01*
X177126Y313779D02*
X192874D01*
Y322224D02*
Y323621D01*
X177126Y322224D02*
Y323621D01*
X192874Y313779D02*
Y315176D01*
X177126Y313779D02*
Y315176D01*
X175186Y293700D02*
X289339D01*
Y243700D02*
Y293700D01*
X175166Y243700D02*
X289339D01*
X175166D02*
Y293700D01*
X211332Y296480D02*
Y301598D01*
Y306717D01*
X184561D02*
X211332D01*
X184561Y301598D02*
Y306717D01*
Y296480D02*
Y301598D01*
Y296480D02*
X211332D01*
Y301598D02*
X215978D01*
X179915D02*
X184561D01*
X257614D02*
X264504D01*
X232496D02*
X239386D01*
Y296923D02*
X257614D01*
X239386D02*
Y301598D01*
Y306274D01*
X257614D01*
Y301598D02*
Y306274D01*
Y296923D02*
Y301598D01*
X254500Y297098D02*
Y306098D01*
X395686Y295681D02*
Y300799D01*
Y305917D01*
X368914D02*
X395686D01*
X368914Y300799D02*
Y305917D01*
Y295681D02*
Y300799D01*
Y295681D02*
X395686D01*
Y300799D02*
X400332D01*
X364269D02*
X368914D01*
X305414Y300700D02*
Y305818D01*
Y295582D02*
Y300700D01*
Y295582D02*
X332186D01*
Y300700D01*
Y305818D01*
X305414D02*
X332186D01*
X300769Y300700D02*
X305414D01*
X332186D02*
X336832D01*
X288821Y302626D02*
Y318374D01*
X278979Y302626D02*
Y318374D01*
X287424Y302626D02*
X288821D01*
X287424Y318374D02*
X288821D01*
X278979Y302626D02*
X280376D01*
X278979Y318374D02*
X280376D01*
X355921Y306126D02*
Y321874D01*
X346079Y306126D02*
Y321874D01*
X354524Y306126D02*
X355921D01*
X354524Y321874D02*
X355921D01*
X346079Y306126D02*
X347476D01*
X346079Y321874D02*
X347476D01*
X333314Y286200D02*
X340204D01*
X308196D02*
X315086D01*
Y281525D02*
X333314D01*
X315086D02*
Y286200D01*
Y290875D01*
X333314D01*
Y286200D02*
Y290875D01*
Y281525D02*
Y286200D01*
X330200Y281700D02*
Y290700D01*
X316126Y256559D02*
X331874D01*
X316126Y276441D02*
X331874D01*
X413114Y284900D02*
X420004D01*
X387996D02*
X394886D01*
Y280225D02*
X413114D01*
X394886D02*
Y284900D01*
Y289575D01*
X413114D01*
Y284900D02*
Y289575D01*
Y280225D02*
Y284900D01*
X410000Y280400D02*
Y289400D01*
X397900Y266386D02*
X403018D01*
X392782D02*
X397900D01*
X392782Y239614D02*
Y266386D01*
Y239614D02*
X397900D01*
X403018D01*
Y266386D01*
X397900D02*
Y271032D01*
Y234969D02*
Y239614D01*
X134500Y397634D02*
X139618D01*
X129382D02*
X134500D01*
X129382Y370862D02*
Y397634D01*
Y370862D02*
X134500D01*
X139618D01*
Y397634D01*
X134500D02*
Y402280D01*
Y366217D02*
Y370862D01*
X163000Y368894D02*
Y374012D01*
Y394484D02*
Y399602D01*
Y374012D02*
X168315D01*
X157685D02*
X163000D01*
X157685Y394484D02*
X163000D01*
X168315D01*
X157685Y391236D02*
X168315D01*
X157685Y374012D02*
Y391236D01*
Y394484D01*
X168315Y391236D02*
Y394484D01*
Y374012D02*
Y391236D01*
X128331Y308713D02*
X169669D01*
Y326783D01*
X128331D02*
X169669D01*
X128331Y308713D02*
Y326783D01*
X169502Y339309D02*
Y356809D01*
X128498Y339309D02*
X169502D01*
X128498D02*
Y356809D01*
X169502D01*
X148650Y397634D02*
X153768D01*
X143532D02*
X148650D01*
X143532Y370862D02*
Y397634D01*
Y370862D02*
X148650D01*
X153768D01*
Y397634D01*
X148650D02*
Y402280D01*
Y366217D02*
Y370862D01*
X170014Y234500D02*
Y239618D01*
Y229382D02*
Y234500D01*
Y229382D02*
X196786D01*
Y234500D01*
Y239618D01*
X170014D02*
X196786D01*
X165369Y234500D02*
X170014D01*
X196786D02*
X201432D01*
X440615Y248752D02*
X479985D01*
Y278280D01*
X440615D02*
X479985D01*
X440615Y248752D02*
Y278280D01*
X127782Y256814D02*
X132900D01*
X138018D01*
Y283586D01*
X132900D02*
X138018D01*
X127782D02*
X132900D01*
X127782Y256814D02*
Y283586D01*
X132900Y252169D02*
Y256814D01*
Y283586D02*
Y288232D01*
X113782Y256814D02*
X118900D01*
X124018D01*
Y283586D01*
X118900D02*
X124018D01*
X113782D02*
X118900D01*
X113782Y256814D02*
Y283586D01*
X118900Y252169D02*
Y256814D01*
Y283586D02*
Y288232D01*
X164600Y254195D02*
Y261085D01*
Y279313D02*
Y286203D01*
X159925Y261085D02*
Y279313D01*
X164600D01*
X169275D01*
Y261085D02*
Y279313D01*
X164600Y261085D02*
X169275D01*
X159925D02*
X164600D01*
X160100Y264199D02*
X169100D01*
X325360Y531500D02*
Y536618D01*
Y526382D02*
Y531500D01*
Y526382D02*
X352132D01*
Y531500D01*
Y536618D01*
X325360D02*
X352132D01*
X320714Y531500D02*
X325360D01*
X352132D02*
X356777D01*
X197400Y200487D02*
Y207377D01*
Y175369D02*
Y182259D01*
X202075D02*
Y200487D01*
X197400Y182259D02*
X202075D01*
X192725D02*
X197400D01*
X192725D02*
Y200487D01*
X197400D01*
X202075D01*
X192900Y197373D02*
X201900D01*
X213767Y175369D02*
Y182259D01*
Y200487D02*
Y207377D01*
X209091Y182259D02*
Y200487D01*
X213767D01*
X218442D01*
Y182259D02*
Y200487D01*
X213767Y182259D02*
X218442D01*
X209091D02*
X213767D01*
X209267Y185373D02*
X218267D01*
X162433Y175369D02*
Y182259D01*
Y200487D02*
Y207377D01*
X157758Y182259D02*
Y200487D01*
X162433D01*
X167109D01*
Y182259D02*
Y200487D01*
X162433Y182259D02*
X167109D01*
X157758D02*
X162433D01*
X157933Y185373D02*
X166933D01*
X178800Y200487D02*
Y207377D01*
Y175369D02*
Y182259D01*
X183475D02*
Y200487D01*
X178800Y182259D02*
X183475D01*
X174125D02*
X178800D01*
X174125D02*
Y200487D01*
X178800D01*
X183475D01*
X174300Y197373D02*
X183300D01*
X431302Y339309D02*
Y356809D01*
X390298Y339309D02*
X431302D01*
X390298D02*
Y356809D01*
X431302D01*
X343102Y339309D02*
Y356809D01*
X302098Y339309D02*
X343102D01*
X302098D02*
Y356809D01*
X343102D01*
X301931Y308713D02*
X343269D01*
Y326783D01*
X301931D02*
X343269D01*
X301931Y308713D02*
Y326783D01*
X390131Y308713D02*
X431469D01*
Y326783D01*
X390131D02*
X431469D01*
X390131Y308713D02*
Y326783D01*
X337700Y368992D02*
Y374110D01*
Y394583D02*
Y399701D01*
Y374110D02*
X343015D01*
X332385D02*
X337700D01*
X332385Y394583D02*
X337700D01*
X343015D01*
X332385Y391335D02*
X343015D01*
X332385Y374110D02*
Y391335D01*
Y394583D01*
X343015Y391335D02*
Y394583D01*
Y374110D02*
Y391335D01*
X309175Y397559D02*
X314293D01*
X304057D02*
X309175D01*
X304057Y370787D02*
Y397559D01*
Y370787D02*
X309175D01*
X314293D01*
Y397559D01*
X309175D02*
Y402204D01*
Y366141D02*
Y370787D01*
X323339Y397483D02*
X328457D01*
X318221D02*
X323339D01*
X318221Y370712D02*
Y397483D01*
Y370712D02*
X323339D01*
X328457D01*
Y397483D01*
X323339D02*
Y402129D01*
Y366066D02*
Y370712D01*
X411749Y397634D02*
X416867D01*
X406631D02*
X411749D01*
X406631Y370862D02*
Y397634D01*
Y370862D02*
X411749D01*
X416867D01*
Y397634D01*
X411749D02*
Y402280D01*
Y366217D02*
Y370862D01*
X397900Y397634D02*
X403018D01*
X392782D02*
X397900D01*
X392782Y370862D02*
Y397634D01*
Y370862D02*
X397900D01*
X403018D01*
Y397634D01*
X397900D02*
Y402280D01*
Y366217D02*
Y370862D01*
X425900Y368894D02*
Y374012D01*
Y394484D02*
Y399602D01*
Y374012D02*
X431215D01*
X420585D02*
X425900D01*
X420585Y394484D02*
X425900D01*
X431215D01*
X420585Y391236D02*
X431215D01*
X420585Y374012D02*
Y391236D01*
Y394484D01*
X431215Y391236D02*
Y394484D01*
Y374012D02*
Y391236D01*
X325950Y519355D02*
X351541D01*
X325950Y501245D02*
X351541D01*
X147236Y428484D02*
X153311D01*
X147236D02*
Y456516D01*
X153311D01*
X220689D02*
X226764D01*
Y428484D02*
Y456516D01*
X220689Y428484D02*
X226764D01*
X109260Y428996D02*
Y435886D01*
Y454114D02*
Y461004D01*
X104585Y435886D02*
Y454114D01*
X109260D01*
X113935D01*
Y435886D02*
Y454114D01*
X109260Y435886D02*
X113935D01*
X104585D02*
X109260D01*
X104760Y439000D02*
X113760D01*
X117142Y431114D02*
X122260D01*
X127378D01*
Y457886D01*
X122260D02*
X127378D01*
X117142D02*
X122260D01*
X117142Y431114D02*
Y457886D01*
X122260Y426469D02*
Y431114D01*
Y457886D02*
Y462532D01*
X135260Y428996D02*
Y435886D01*
Y454114D02*
Y461004D01*
X130585Y435886D02*
Y454114D01*
X135260D01*
X139935D01*
Y435886D02*
Y454114D01*
X135260Y435886D02*
X139935D01*
X130585D02*
X135260D01*
X130760Y439000D02*
X139760D01*
X148126Y463579D02*
X163874D01*
X148126Y473421D02*
X163874D01*
X148126Y463579D02*
Y464976D01*
X163874Y463579D02*
Y464976D01*
X148126Y472024D02*
Y473421D01*
X163874Y472024D02*
Y473421D01*
X282536Y428484D02*
X288611D01*
X282536D02*
Y456516D01*
X288611D01*
X355989D02*
X362064D01*
Y428484D02*
Y456516D01*
X355989Y428484D02*
X362064D01*
X242100Y428996D02*
Y435886D01*
Y454114D02*
Y461004D01*
X237425Y435886D02*
Y454114D01*
X242100D01*
X246775D01*
Y435886D02*
Y454114D01*
X242100Y435886D02*
X246775D01*
X237425D02*
X242100D01*
X237600Y439000D02*
X246600D01*
X251482Y431122D02*
X256600D01*
X261718D01*
Y457894D01*
X256600D02*
X261718D01*
X251482D02*
X256600D01*
X251482Y431122D02*
Y457894D01*
X256600Y426476D02*
Y431122D01*
Y457894D02*
Y462539D01*
X270500Y428996D02*
Y435886D01*
Y454114D02*
Y461004D01*
X265825Y435886D02*
Y454114D01*
X270500D01*
X275175D01*
Y435886D02*
Y454114D01*
X270500Y435886D02*
X275175D01*
X265825D02*
X270500D01*
X266000Y439000D02*
X275000D01*
X284326Y463579D02*
X300074D01*
X284326Y473421D02*
X300074D01*
X284326Y463579D02*
Y464976D01*
X300074Y463579D02*
Y464976D01*
X284326Y472024D02*
Y473421D01*
X300074Y472024D02*
Y473421D01*
X154720Y301500D02*
X161610D01*
X129602D02*
X136492D01*
Y296825D02*
X154720D01*
X136492D02*
Y301500D01*
Y306175D01*
X154720D01*
Y301500D02*
Y306175D01*
Y296825D02*
Y301500D01*
X151606Y297000D02*
Y306000D01*
X99982Y267814D02*
X105100D01*
X110218D01*
Y294586D01*
X105100D02*
X110218D01*
X99982D02*
X105100D01*
X99982Y267814D02*
Y294586D01*
X105100Y263169D02*
Y267814D01*
Y294586D02*
Y299232D01*
X263002Y339309D02*
Y356809D01*
X221998Y339309D02*
X263002D01*
X221998D02*
Y356809D01*
X263002D01*
X221831Y308713D02*
X263169D01*
Y326783D01*
X221831D02*
X263169D01*
X221831Y308713D02*
Y326783D01*
X243150Y397634D02*
X248268D01*
X238032D02*
X243150D01*
X238032Y370862D02*
Y397634D01*
Y370862D02*
X243150D01*
X248268D01*
Y397634D01*
X243150D02*
Y402280D01*
Y366217D02*
Y370862D01*
X257500Y368992D02*
Y374110D01*
Y394583D02*
Y399701D01*
Y374110D02*
X262815D01*
X252185D02*
X257500D01*
X252185Y394583D02*
X257500D01*
X262815D01*
X252185Y391335D02*
X262815D01*
X252185Y374110D02*
Y391335D01*
Y394583D01*
X262815Y391335D02*
Y394583D01*
Y374110D02*
Y391335D01*
X229000Y397634D02*
X234118D01*
X223882D02*
X229000D01*
X223882Y370862D02*
Y397634D01*
Y370862D02*
X229000D01*
X234118D01*
Y397634D01*
X229000D02*
Y402280D01*
Y366217D02*
Y370862D01*
X350179Y251726D02*
Y267474D01*
X360021Y251726D02*
Y267474D01*
X350179D02*
X351576D01*
X350179Y251726D02*
X351576D01*
X358624Y267474D02*
X360021D01*
X358624Y251726D02*
X360021D01*
X414826Y295878D02*
X430574D01*
X414826Y305720D02*
X430574D01*
X414826Y295878D02*
Y297276D01*
X430574Y295878D02*
Y297276D01*
X414826Y304323D02*
Y305720D01*
X430574Y304323D02*
Y305720D01*
X408652Y434815D02*
Y474185D01*
Y434815D02*
X438180D01*
Y474185D01*
X408652D02*
X438180D01*
D12*
X132900Y230610D02*
X132549Y231574D01*
X131660Y232087D01*
X130650Y231909D01*
X129990Y231123D01*
Y230097D01*
X130650Y229311D01*
X131660Y229133D01*
X132549Y229646D01*
X132900Y230610D01*
D13*
X153120Y248056D02*
X152488Y248873D01*
X151749Y249596D01*
X150918Y250209D01*
X150011Y250703D01*
X149044Y251067D01*
X148036Y251294D01*
X147006Y251380D01*
X145975Y251323D01*
X144961Y251125D01*
X143984Y250789D01*
X143063Y250321D01*
X142215Y249731D01*
X141456Y249030D01*
X140801Y248231D01*
Y239569D02*
X141456Y238770D01*
X142215Y238069D01*
X143063Y237479D01*
X143984Y237011D01*
X144961Y236675D01*
X145975Y236477D01*
X147006Y236420D01*
X148036Y236506D01*
X149044Y236733D01*
X150011Y237097D01*
X150918Y237591D01*
X151749Y238204D01*
X152488Y238927D01*
X153120Y239744D01*
X146315Y286735D02*
X145528D01*
X146315D01*
X276354Y301598D02*
X275567D01*
X276354D01*
X352054Y286200D02*
X351267D01*
X352054D01*
X306894Y276362D02*
X306106D01*
X306894D01*
X431854Y284900D02*
X431067D01*
X431854D01*
X125782Y315965D02*
X124994D01*
X125782D01*
X172848Y351248D02*
X172061D01*
X172848D01*
X350248Y480500D02*
X349461D01*
X350248D01*
X482741Y264500D02*
X481953D01*
X482741D01*
X164994Y242739D02*
X164206D01*
X164994D01*
X332394Y242449D02*
X331606D01*
X332394D01*
X265894D02*
X265106D01*
X265894D01*
X197794Y218834D02*
X197006D01*
X197794D01*
X214160Y163913D02*
X213373D01*
X214160D01*
X162827D02*
X162040D01*
X162827D01*
X179194Y218834D02*
X178406D01*
X179194D01*
X434648Y351248D02*
X433861D01*
X434648D01*
X346448D02*
X345661D01*
X346448D01*
X299381Y315965D02*
X298594D01*
X299381D01*
X387581D02*
X386794D01*
X387581D01*
X358470Y505300D02*
X357683D01*
X358470D01*
X157079Y421240D02*
X156291D01*
X157079D01*
X109653Y417539D02*
X108866D01*
X109653D01*
X135653D02*
X134866D01*
X135653D01*
X212848Y480500D02*
X212061D01*
X212848D01*
X292379Y421240D02*
X291591D01*
X292379D01*
X242494Y417539D02*
X241706D01*
X242494D01*
X270894D02*
X270106D01*
X270894D01*
X173461Y301500D02*
X172673D01*
X173461D01*
X266348Y351248D02*
X265561D01*
X266348D01*
X219282Y315965D02*
X218494D01*
X219282D01*
X424794Y432453D02*
X424006D01*
X424794D01*
X414344Y259620D02*
X413527Y258988D01*
X412804Y258249D01*
X412191Y257418D01*
X411697Y256511D01*
X411333Y255544D01*
X411106Y254536D01*
X411020Y253506D01*
X411077Y252475D01*
X411275Y251461D01*
X411611Y250484D01*
X412079Y249563D01*
X412669Y248715D01*
X413370Y247956D01*
X414169Y247301D01*
X422831D02*
X423630Y247956D01*
X424331Y248715D01*
X424921Y249563D01*
X425389Y250484D01*
X425725Y251461D01*
X425923Y252475D01*
X425980Y253506D01*
X425894Y254536D01*
X425667Y255544D01*
X425303Y256511D01*
X424809Y257418D01*
X424196Y258249D01*
X423473Y258988D01*
X422656Y259620D01*
X135601Y243900D02*
X137569D01*
X136585Y242916D02*
Y244884D01*
X418500Y242101D02*
Y244069D01*
X417516Y243085D02*
X419484D01*
D14*
X98224Y163210D02*
Y223610D01*
Y163210D02*
X136624D01*
Y223610D01*
X98224D02*
X136624D01*
D15*
X454124Y160380D02*
X453468Y161036D01*
X452156D01*
X451500Y160380D01*
Y157756D01*
X452156Y157100D01*
X453468D01*
X454124Y157756D01*
Y159068D01*
X452812D01*
X455436Y157100D02*
Y161036D01*
X458060Y157100D01*
Y161036D01*
X459372D02*
Y157100D01*
X461339D01*
X461995Y157756D01*
Y160380D01*
X461339Y161036D01*
X459372D01*
X101100Y156200D02*
Y160136D01*
X103724Y156200D01*
Y160136D01*
X107660D02*
X105036D01*
Y156200D01*
X107660D01*
X105036Y158168D02*
X106348D01*
X108972Y160136D02*
Y156856D01*
X109627Y156200D01*
X110939D01*
X111595Y156856D01*
Y160136D01*
X112907D02*
X115531D01*
X114219D01*
Y156200D01*
X116843D02*
Y160136D01*
X118811D01*
X119467Y159480D01*
Y158168D01*
X118811Y157512D01*
X116843D01*
X118155D02*
X119467Y156200D01*
X120779D02*
Y158824D01*
X122091Y160136D01*
X123403Y158824D01*
Y156200D01*
Y158168D01*
X120779D01*
X124714Y160136D02*
Y156200D01*
X127338D01*
X100800Y225700D02*
Y229636D01*
X102768D01*
X103424Y228980D01*
Y227668D01*
X102768Y227012D01*
X100800D01*
X104736Y229636D02*
Y225700D01*
Y227668D01*
X107360D01*
Y229636D01*
Y225700D01*
X108671D02*
Y228324D01*
X109983Y229636D01*
X111295Y228324D01*
Y225700D01*
Y227668D01*
X108671D01*
X115231Y228980D02*
X114575Y229636D01*
X113263D01*
X112607Y228980D01*
Y228324D01*
X113263Y227668D01*
X114575D01*
X115231Y227012D01*
Y226356D01*
X114575Y225700D01*
X113263D01*
X112607Y226356D01*
X119167Y229636D02*
X116543D01*
Y225700D01*
X119167D01*
X116543Y227668D02*
X117855D01*
X447100Y242968D02*
X449724D01*
X448412Y244280D02*
Y241656D01*
X453660Y241000D02*
X451036D01*
X453660Y243624D01*
Y244280D01*
X453004Y244936D01*
X451692D01*
X451036Y244280D01*
X456939Y241000D02*
Y244936D01*
X454972Y242968D01*
X457595D01*
X462843Y244936D02*
Y242312D01*
X464155Y241000D01*
X465467Y242312D01*
Y244936D01*
X321100Y527336D02*
Y524056D01*
X321756Y523400D01*
X323068D01*
X323724Y524056D01*
Y527336D01*
X325036Y526680D02*
X325692Y527336D01*
X327004D01*
X327660Y526680D01*
Y526024D01*
X327004Y525368D01*
X327660Y524712D01*
Y524056D01*
X327004Y523400D01*
X325692D01*
X325036Y524056D01*
Y524712D01*
X325692Y525368D01*
X325036Y526024D01*
Y526680D01*
X325692Y525368D02*
X327004D01*
X147200Y468036D02*
Y464756D01*
X147856Y464100D01*
X149168D01*
X149824Y464756D01*
Y468036D01*
X153104Y464100D02*
Y468036D01*
X151136Y466068D01*
X153760D01*
X282500Y468036D02*
Y464756D01*
X283156Y464100D01*
X284468D01*
X285124Y464756D01*
Y468036D01*
X286436Y467380D02*
X287092Y468036D01*
X288404D01*
X289060Y467380D01*
Y466724D01*
X288404Y466068D01*
X287748D01*
X288404D01*
X289060Y465412D01*
Y464756D01*
X288404Y464100D01*
X287092D01*
X286436Y464756D01*
X307776Y252568D02*
Y249288D01*
X308432Y248632D01*
X309744D01*
X310400Y249288D01*
Y252568D01*
X311712Y248632D02*
X313024D01*
X312368D01*
Y252568D01*
X311712Y251912D01*
X175452Y223532D02*
Y227468D01*
X177420D01*
X178076Y226812D01*
Y225500D01*
X177420Y224844D01*
X175452D01*
X176764D02*
X178076Y223532D01*
X182012Y227468D02*
X179388D01*
Y225500D01*
X180700Y226156D01*
X181356D01*
X182012Y225500D01*
Y224188D01*
X181356Y223532D01*
X180044D01*
X179388Y224188D01*
X185948Y223532D02*
X183324D01*
X185948Y226156D01*
Y226812D01*
X185292Y227468D01*
X183980D01*
X183324Y226812D01*
X367132Y536048D02*
X371068D01*
Y534080D01*
X370412Y533424D01*
X369100D01*
X368444Y534080D01*
Y536048D01*
Y534736D02*
X367132Y533424D01*
Y530144D02*
X371068D01*
X369100Y532112D01*
Y529488D01*
X371068Y528176D02*
Y525552D01*
X370412D01*
X367788Y528176D01*
X367132D01*
X298768Y527352D02*
X294832D01*
Y529320D01*
X295488Y529976D01*
X296800D01*
X297456Y529320D01*
Y527352D01*
Y528664D02*
X298768Y529976D01*
Y533256D02*
X294832D01*
X296800Y531288D01*
Y533912D01*
X294832Y537848D02*
X295488Y536536D01*
X296800Y535224D01*
X298112D01*
X298768Y535880D01*
Y537192D01*
X298112Y537848D01*
X297456D01*
X296800Y537192D01*
Y535224D01*
X114068Y286253D02*
X110132D01*
Y288221D01*
X110788Y288877D01*
X112100D01*
X112756Y288221D01*
Y286253D01*
Y287565D02*
X114068Y288877D01*
Y292157D02*
X110132D01*
X112100Y290189D01*
Y292813D01*
X114068Y296093D02*
X110132D01*
X112100Y294125D01*
Y296748D01*
X128668Y285753D02*
X124732D01*
Y287721D01*
X125388Y288377D01*
X126700D01*
X127356Y287721D01*
Y285753D01*
Y287065D02*
X128668Y288377D01*
Y291657D02*
X124732D01*
X126700Y289689D01*
Y292313D01*
X128668Y296248D02*
Y293625D01*
X126044Y296248D01*
X125388D01*
X124732Y295592D01*
Y294281D01*
X125388Y293625D01*
X389068Y257908D02*
X385132D01*
Y259876D01*
X385788Y260532D01*
X387100D01*
X387756Y259876D01*
Y257908D01*
Y259220D02*
X389068Y260532D01*
X385788Y261844D02*
X385132Y262500D01*
Y263812D01*
X385788Y264468D01*
X386444D01*
X387100Y263812D01*
Y263156D01*
Y263812D01*
X387756Y264468D01*
X388412D01*
X389068Y263812D01*
Y262500D01*
X388412Y261844D01*
X389068Y265780D02*
Y267092D01*
Y266436D01*
X385132D01*
X385788Y265780D01*
X392779Y412832D02*
Y416768D01*
X394747D01*
X395403Y416112D01*
Y414800D01*
X394747Y414144D01*
X392779D01*
X394091D02*
X395403Y412832D01*
X396714D02*
X398026D01*
X397371D01*
Y416768D01*
X396714Y416112D01*
X402618Y416768D02*
X399994D01*
Y414800D01*
X401306Y415456D01*
X401962D01*
X402618Y414800D01*
Y413488D01*
X401962Y412832D01*
X400650D01*
X399994Y413488D01*
X304000Y412300D02*
Y416236D01*
X305968D01*
X306624Y415580D01*
Y414268D01*
X305968Y413612D01*
X304000D01*
X305312D02*
X306624Y412300D01*
X307936D02*
X309248D01*
X308592D01*
Y416236D01*
X307936Y415580D01*
X313183Y412300D02*
Y416236D01*
X311215Y414268D01*
X313839D01*
X404029Y412932D02*
Y416868D01*
X405997D01*
X406653Y416212D01*
Y414900D01*
X405997Y414244D01*
X404029D01*
X405341D02*
X406653Y412932D01*
X407965D02*
X409277D01*
X408621D01*
Y416868D01*
X407965Y416212D01*
X411245D02*
X411901Y416868D01*
X413213D01*
X413869Y416212D01*
Y415556D01*
X413213Y414900D01*
X412557D01*
X413213D01*
X413869Y414244D01*
Y413588D01*
X413213Y412932D01*
X411901D01*
X411245Y413588D01*
X318680Y411732D02*
Y415668D01*
X320648D01*
X321304Y415012D01*
Y413700D01*
X320648Y413044D01*
X318680D01*
X319992D02*
X321304Y411732D01*
X322616D02*
X323928D01*
X323272D01*
Y415668D01*
X322616Y415012D01*
X328520Y411732D02*
X325896D01*
X328520Y414356D01*
Y415012D01*
X327864Y415668D01*
X326552D01*
X325896Y415012D01*
X374136Y308932D02*
Y312868D01*
X376104D01*
X376760Y312212D01*
Y310900D01*
X376104Y310244D01*
X374136D01*
X375448D02*
X376760Y308932D01*
X378072D02*
X379384D01*
X378728D01*
Y312868D01*
X378072Y312212D01*
X381352Y308932D02*
X382664D01*
X382008D01*
Y312868D01*
X381352Y312212D01*
X345280Y294632D02*
Y298568D01*
X347248D01*
X347904Y297912D01*
Y296600D01*
X347248Y295944D01*
X345280D01*
X346592D02*
X347904Y294632D01*
X349216D02*
X350528D01*
X349872D01*
Y298568D01*
X349216Y297912D01*
X352496D02*
X353152Y298568D01*
X354464D01*
X355120Y297912D01*
Y295288D01*
X354464Y294632D01*
X353152D01*
X352496Y295288D01*
Y297912D01*
X223800Y412300D02*
Y416236D01*
X225768D01*
X226424Y415580D01*
Y414268D01*
X225768Y413612D01*
X223800D01*
X225112D02*
X226424Y412300D01*
X227736Y412956D02*
X228392Y412300D01*
X229704D01*
X230360Y412956D01*
Y415580D01*
X229704Y416236D01*
X228392D01*
X227736Y415580D01*
Y414924D01*
X228392Y414268D01*
X230360D01*
X129300Y412300D02*
Y416236D01*
X131268D01*
X131924Y415580D01*
Y414268D01*
X131268Y413612D01*
X129300D01*
X130612D02*
X131924Y412300D01*
X133236Y415580D02*
X133892Y416236D01*
X135204D01*
X135860Y415580D01*
Y414924D01*
X135204Y414268D01*
X135860Y413612D01*
Y412956D01*
X135204Y412300D01*
X133892D01*
X133236Y412956D01*
Y413612D01*
X133892Y414268D01*
X133236Y414924D01*
Y415580D01*
X133892Y414268D02*
X135204D01*
X237900Y412300D02*
Y416236D01*
X239868D01*
X240524Y415580D01*
Y414268D01*
X239868Y413612D01*
X237900D01*
X239212D02*
X240524Y412300D01*
X241836Y416236D02*
X244460D01*
Y415580D01*
X241836Y412956D01*
Y412300D01*
X143400D02*
Y416236D01*
X145368D01*
X146024Y415580D01*
Y414268D01*
X145368Y413612D01*
X143400D01*
X144712D02*
X146024Y412300D01*
X149960Y416236D02*
X148648Y415580D01*
X147336Y414268D01*
Y412956D01*
X147992Y412300D01*
X149304D01*
X149960Y412956D01*
Y413612D01*
X149304Y414268D01*
X147336D01*
X211220Y308532D02*
Y312468D01*
X213188D01*
X213844Y311812D01*
Y310500D01*
X213188Y309844D01*
X211220D01*
X212532D02*
X213844Y308532D01*
X217780Y312468D02*
X215156D01*
Y310500D01*
X216468Y311156D01*
X217124D01*
X217780Y310500D01*
Y309188D01*
X217124Y308532D01*
X215812D01*
X215156Y309188D01*
X99900Y309300D02*
Y313236D01*
X101868D01*
X102524Y312580D01*
Y311268D01*
X101868Y310612D01*
X99900D01*
X101212D02*
X102524Y309300D01*
X105804D02*
Y313236D01*
X103836Y311268D01*
X106460D01*
X251400Y472600D02*
Y476536D01*
X253368D01*
X254024Y475880D01*
Y474568D01*
X253368Y473912D01*
X251400D01*
X252712D02*
X254024Y472600D01*
X255336Y475880D02*
X255992Y476536D01*
X257304D01*
X257960Y475880D01*
Y475224D01*
X257304Y474568D01*
X256648D01*
X257304D01*
X257960Y473912D01*
Y473256D01*
X257304Y472600D01*
X255992D01*
X255336Y473256D01*
X117100Y472600D02*
Y476536D01*
X119068D01*
X119724Y475880D01*
Y474568D01*
X119068Y473912D01*
X117100D01*
X118412D02*
X119724Y472600D01*
X123660D02*
X121036D01*
X123660Y475224D01*
Y475880D01*
X123004Y476536D01*
X121692D01*
X121036Y475880D01*
X143660Y288789D02*
Y291413D01*
X143004Y292069D01*
X141692D01*
X141036Y291413D01*
Y288789D01*
X141692Y288133D01*
X143004D01*
X142348Y289445D02*
X143660Y288133D01*
X143004D02*
X143660Y288789D01*
X144972Y288133D02*
X146284D01*
X145628D01*
Y292069D01*
X144972Y291413D01*
X148252Y288133D02*
X149564D01*
X148908D01*
Y292069D01*
X148252Y291413D01*
X304624Y361556D02*
Y364180D01*
X303968Y364836D01*
X302656D01*
X302000Y364180D01*
Y361556D01*
X302656Y360900D01*
X303968D01*
X303312Y362212D02*
X304624Y360900D01*
X303968D02*
X304624Y361556D01*
X308560Y364836D02*
X305936D01*
Y362868D01*
X307248Y363524D01*
X307904D01*
X308560Y362868D01*
Y361556D01*
X307904Y360900D01*
X306592D01*
X305936Y361556D01*
X392824D02*
Y364180D01*
X392168Y364836D01*
X390856D01*
X390200Y364180D01*
Y361556D01*
X390856Y360900D01*
X392168D01*
X391512Y362212D02*
X392824Y360900D01*
X392168D02*
X392824Y361556D01*
X396104Y360900D02*
Y364836D01*
X394136Y362868D01*
X396760D01*
X131024Y361556D02*
Y364180D01*
X130368Y364836D01*
X129056D01*
X128400Y364180D01*
Y361556D01*
X129056Y360900D01*
X130368D01*
X129712Y362212D02*
X131024Y360900D01*
X130368D02*
X131024Y361556D01*
X132336Y364180D02*
X132992Y364836D01*
X134304D01*
X134960Y364180D01*
Y363524D01*
X134304Y362868D01*
X133648D01*
X134304D01*
X134960Y362212D01*
Y361556D01*
X134304Y360900D01*
X132992D01*
X132336Y361556D01*
X224524D02*
Y364180D01*
X223868Y364836D01*
X222556D01*
X221900Y364180D01*
Y361556D01*
X222556Y360900D01*
X223868D01*
X223212Y362212D02*
X224524Y360900D01*
X223868D02*
X224524Y361556D01*
X228460Y360900D02*
X225836D01*
X228460Y363524D01*
Y364180D01*
X227804Y364836D01*
X226492D01*
X225836Y364180D01*
X223320Y240968D02*
Y237032D01*
Y238344D01*
X225944Y240968D01*
X223976Y239000D01*
X225944Y237032D01*
X229880D02*
X227256D01*
X229880Y239656D01*
Y240312D01*
X229224Y240968D01*
X227912D01*
X227256Y240312D01*
X432832Y265344D02*
Y264032D01*
Y264688D01*
X436112D01*
X436768Y264032D01*
Y263376D01*
X436112Y262720D01*
X432832Y266656D02*
Y269280D01*
X433488D01*
X436112Y266656D01*
X436768D01*
X453044Y506768D02*
X451732D01*
X452388D01*
Y503488D01*
X451732Y502832D01*
X451076D01*
X450420Y503488D01*
X456980Y506768D02*
X454356D01*
Y504800D01*
X455668Y505456D01*
X456324D01*
X456980Y504800D01*
Y503488D01*
X456324Y502832D01*
X455012D01*
X454356Y503488D01*
X425044Y506068D02*
X423732D01*
X424388D01*
Y502788D01*
X423732Y502132D01*
X423076D01*
X422420Y502788D01*
X428324Y502132D02*
Y506068D01*
X426356Y504100D01*
X428980D01*
X141644Y221168D02*
X140332D01*
X140988D01*
Y217888D01*
X140332Y217232D01*
X139676D01*
X139020Y217888D01*
X142956Y220512D02*
X143612Y221168D01*
X144924D01*
X145580Y220512D01*
Y219856D01*
X144924Y219200D01*
X144268D01*
X144924D01*
X145580Y218544D01*
Y217888D01*
X144924Y217232D01*
X143612D01*
X142956Y217888D01*
X410324Y482236D02*
X409012D01*
X409668D01*
Y478956D01*
X409012Y478300D01*
X408356D01*
X407700Y478956D01*
X414260Y478300D02*
X411636D01*
X414260Y480924D01*
Y481580D01*
X413604Y482236D01*
X412292D01*
X411636Y481580D01*
X373700Y511668D02*
X372388D01*
X373044D01*
Y508388D01*
X372388Y507732D01*
X371732D01*
X371076Y508388D01*
X375012Y507732D02*
X376324D01*
X375668D01*
Y511668D01*
X375012Y511012D01*
X144752Y234168D02*
Y230232D01*
X146720D01*
X147376Y230888D01*
Y233512D01*
X146720Y234168D01*
X144752D01*
X151312Y233512D02*
X150656Y234168D01*
X149344D01*
X148688Y233512D01*
Y232856D01*
X149344Y232200D01*
X150656D01*
X151312Y231544D01*
Y230888D01*
X150656Y230232D01*
X149344D01*
X148688Y230888D01*
X152624Y233512D02*
X153280Y234168D01*
X154592D01*
X155248Y233512D01*
Y232856D01*
X154592Y232200D01*
X155248Y231544D01*
Y230888D01*
X154592Y230232D01*
X153280D01*
X152624Y230888D01*
Y231544D01*
X153280Y232200D01*
X152624Y232856D01*
Y233512D01*
X153280Y232200D02*
X154592D01*
X410700Y269136D02*
Y265200D01*
X412668D01*
X413324Y265856D01*
Y268480D01*
X412668Y269136D01*
X410700D01*
X417260Y268480D02*
X416604Y269136D01*
X415292D01*
X414636Y268480D01*
Y267824D01*
X415292Y267168D01*
X416604D01*
X417260Y266512D01*
Y265856D01*
X416604Y265200D01*
X415292D01*
X414636Y265856D01*
X421195Y265200D02*
X418572D01*
X421195Y267824D01*
Y268480D01*
X420539Y269136D01*
X419227D01*
X418572Y268480D01*
X157252Y223968D02*
Y220032D01*
X159220D01*
X159876Y220688D01*
Y223312D01*
X159220Y223968D01*
X157252D01*
X161188Y223312D02*
X161844Y223968D01*
X163156D01*
X163812Y223312D01*
Y222656D01*
X163156Y222000D01*
X162500D01*
X163156D01*
X163812Y221344D01*
Y220688D01*
X163156Y220032D01*
X161844D01*
X161188Y220688D01*
X165124Y223312D02*
X165780Y223968D01*
X167092D01*
X167748Y223312D01*
Y222656D01*
X167092Y222000D01*
X167748Y221344D01*
Y220688D01*
X167092Y220032D01*
X165780D01*
X165124Y220688D01*
Y221344D01*
X165780Y222000D01*
X165124Y222656D01*
Y223312D01*
X165780Y222000D02*
X167092D01*
X173552Y162968D02*
Y159032D01*
X175520D01*
X176176Y159688D01*
Y162312D01*
X175520Y162968D01*
X173552D01*
X177488Y162312D02*
X178144Y162968D01*
X179456D01*
X180112Y162312D01*
Y161656D01*
X179456Y161000D01*
X178800D01*
X179456D01*
X180112Y160344D01*
Y159688D01*
X179456Y159032D01*
X178144D01*
X177488Y159688D01*
X181424Y162968D02*
X184048D01*
Y162312D01*
X181424Y159688D01*
Y159032D01*
X208352Y223968D02*
Y220032D01*
X210320D01*
X210976Y220688D01*
Y223312D01*
X210320Y223968D01*
X208352D01*
X212288Y223312D02*
X212944Y223968D01*
X214256D01*
X214912Y223312D01*
Y222656D01*
X214256Y222000D01*
X213600D01*
X214256D01*
X214912Y221344D01*
Y220688D01*
X214256Y220032D01*
X212944D01*
X212288Y220688D01*
X218848Y223968D02*
X217536Y223312D01*
X216224Y222000D01*
Y220688D01*
X216880Y220032D01*
X218192D01*
X218848Y220688D01*
Y221344D01*
X218192Y222000D01*
X216224D01*
X192952Y162268D02*
Y158332D01*
X194920D01*
X195576Y158988D01*
Y161612D01*
X194920Y162268D01*
X192952D01*
X196888Y161612D02*
X197544Y162268D01*
X198856D01*
X199512Y161612D01*
Y160956D01*
X198856Y160300D01*
X198200D01*
X198856D01*
X199512Y159644D01*
Y158988D01*
X198856Y158332D01*
X197544D01*
X196888Y158988D01*
X203448Y162268D02*
X200824D01*
Y160300D01*
X202136Y160956D01*
X202792D01*
X203448Y160300D01*
Y158988D01*
X202792Y158332D01*
X201480D01*
X200824Y158988D01*
X154032Y283252D02*
X157968D01*
Y285220D01*
X157312Y285876D01*
X154688D01*
X154032Y285220D01*
Y283252D01*
X154688Y287188D02*
X154032Y287844D01*
Y289156D01*
X154688Y289812D01*
X155344D01*
X156000Y289156D01*
Y288500D01*
Y289156D01*
X156656Y289812D01*
X157312D01*
X157968Y289156D01*
Y287844D01*
X157312Y287188D01*
X154688Y291124D02*
X154032Y291780D01*
Y293092D01*
X154688Y293748D01*
X155344D01*
X156000Y293092D01*
Y292436D01*
Y293092D01*
X156656Y293748D01*
X157312D01*
X157968Y293092D01*
Y291780D01*
X157312Y291124D01*
X387400Y334836D02*
Y330900D01*
X389368D01*
X390024Y331556D01*
Y334180D01*
X389368Y334836D01*
X387400D01*
X393960Y330900D02*
X391336D01*
X393960Y333524D01*
Y334180D01*
X393304Y334836D01*
X391992D01*
X391336Y334180D01*
X395271Y330900D02*
X396583D01*
X395927D01*
Y334836D01*
X395271Y334180D01*
X299200Y334836D02*
Y330900D01*
X301168D01*
X301824Y331556D01*
Y334180D01*
X301168Y334836D01*
X299200D01*
X305760Y330900D02*
X303136D01*
X305760Y333524D01*
Y334180D01*
X305104Y334836D01*
X303792D01*
X303136Y334180D01*
X307071D02*
X307727Y334836D01*
X309039D01*
X309695Y334180D01*
Y331556D01*
X309039Y330900D01*
X307727D01*
X307071Y331556D01*
Y334180D01*
X365480Y286768D02*
Y282832D01*
X367448D01*
X368104Y283488D01*
Y286112D01*
X367448Y286768D01*
X365480D01*
X369416Y282832D02*
X370728D01*
X370072D01*
Y286768D01*
X369416Y286112D01*
X372696Y283488D02*
X373352Y282832D01*
X374664D01*
X375320Y283488D01*
Y286112D01*
X374664Y286768D01*
X373352D01*
X372696Y286112D01*
Y285456D01*
X373352Y284800D01*
X375320D01*
X423680Y416569D02*
Y412634D01*
X425648D01*
X426304Y413290D01*
Y415913D01*
X425648Y416569D01*
X423680D01*
X427616Y412634D02*
X428928D01*
X428272D01*
Y416569D01*
X427616Y415913D01*
X430896D02*
X431552Y416569D01*
X432864D01*
X433520Y415913D01*
Y415258D01*
X432864Y414602D01*
X433520Y413946D01*
Y413290D01*
X432864Y412634D01*
X431552D01*
X430896Y413290D01*
Y413946D01*
X431552Y414602D01*
X430896Y415258D01*
Y415913D01*
X431552Y414602D02*
X432864D01*
X333080Y415768D02*
Y411832D01*
X335048D01*
X335704Y412488D01*
Y415112D01*
X335048Y415768D01*
X333080D01*
X337016Y411832D02*
X338328D01*
X337672D01*
Y415768D01*
X337016Y415112D01*
X340296Y415768D02*
X342920D01*
Y415112D01*
X340296Y412488D01*
Y411832D01*
X352380Y292768D02*
Y288832D01*
X354348D01*
X355004Y289488D01*
Y292112D01*
X354348Y292768D01*
X352380D01*
X356316Y288832D02*
X357628D01*
X356972D01*
Y292768D01*
X356316Y292112D01*
X362220Y292768D02*
X360908Y292112D01*
X359596Y290800D01*
Y289488D01*
X360252Y288832D01*
X361564D01*
X362220Y289488D01*
Y290144D01*
X361564Y290800D01*
X359596D01*
X252100Y416436D02*
Y412500D01*
X254068D01*
X254724Y413156D01*
Y415780D01*
X254068Y416436D01*
X252100D01*
X256036Y412500D02*
X257348D01*
X256692D01*
Y416436D01*
X256036Y415780D01*
X261939Y416436D02*
X259315D01*
Y414468D01*
X260627Y415124D01*
X261283D01*
X261939Y414468D01*
Y413156D01*
X261283Y412500D01*
X259971D01*
X259315Y413156D01*
X157600Y416336D02*
Y412400D01*
X159568D01*
X160224Y413056D01*
Y415680D01*
X159568Y416336D01*
X157600D01*
X161536Y412400D02*
X162848D01*
X162192D01*
Y416336D01*
X161536Y415680D01*
X166783Y412400D02*
Y416336D01*
X164815Y414368D01*
X167439D01*
X219100Y334836D02*
Y330900D01*
X221068D01*
X221724Y331556D01*
Y334180D01*
X221068Y334836D01*
X219100D01*
X223036Y330900D02*
X224348D01*
X223692D01*
Y334836D01*
X223036Y334180D01*
X226315D02*
X226972Y334836D01*
X228283D01*
X228939Y334180D01*
Y333524D01*
X228283Y332868D01*
X227627D01*
X228283D01*
X228939Y332212D01*
Y331556D01*
X228283Y330900D01*
X226972D01*
X226315Y331556D01*
X125600Y334836D02*
Y330900D01*
X127568D01*
X128224Y331556D01*
Y334180D01*
X127568Y334836D01*
X125600D01*
X129536Y330900D02*
X130848D01*
X130192D01*
Y334836D01*
X129536Y334180D01*
X135439Y330900D02*
X132816D01*
X135439Y333524D01*
Y334180D01*
X134783Y334836D01*
X133472D01*
X132816Y334180D01*
X264736Y313168D02*
Y309232D01*
X266704D01*
X267360Y309888D01*
Y312512D01*
X266704Y313168D01*
X264736D01*
X268672Y309232D02*
X269984D01*
X269328D01*
Y313168D01*
X268672Y312512D01*
X271952Y309232D02*
X273264D01*
X272608D01*
Y313168D01*
X271952Y312512D01*
X122000Y314236D02*
Y310300D01*
X123968D01*
X124624Y310956D01*
Y313580D01*
X123968Y314236D01*
X122000D01*
X125936Y310300D02*
X127248D01*
X126592D01*
Y314236D01*
X125936Y313580D01*
X129216D02*
X129871Y314236D01*
X131183D01*
X131839Y313580D01*
Y310956D01*
X131183Y310300D01*
X129871D01*
X129216Y310956D01*
Y313580D01*
X265700Y476536D02*
Y472600D01*
X267668D01*
X268324Y473256D01*
Y475880D01*
X267668Y476536D01*
X265700D01*
X269636Y473256D02*
X270292Y472600D01*
X271604D01*
X272260Y473256D01*
Y475880D01*
X271604Y476536D01*
X270292D01*
X269636Y475880D01*
Y475224D01*
X270292Y474568D01*
X272260D01*
X237300Y476536D02*
Y472600D01*
X239268D01*
X239924Y473256D01*
Y475880D01*
X239268Y476536D01*
X237300D01*
X241236Y475880D02*
X241892Y476536D01*
X243204D01*
X243860Y475880D01*
Y475224D01*
X243204Y474568D01*
X243860Y473912D01*
Y473256D01*
X243204Y472600D01*
X241892D01*
X241236Y473256D01*
Y473912D01*
X241892Y474568D01*
X241236Y475224D01*
Y475880D01*
X241892Y474568D02*
X243204D01*
X130500Y476536D02*
Y472600D01*
X132468D01*
X133124Y473256D01*
Y475880D01*
X132468Y476536D01*
X130500D01*
X134436D02*
X137060D01*
Y475880D01*
X134436Y473256D01*
Y472600D01*
X104500Y476536D02*
Y472600D01*
X106468D01*
X107124Y473256D01*
Y475880D01*
X106468Y476536D01*
X104500D01*
X111060D02*
X109748Y475880D01*
X108436Y474568D01*
Y473256D01*
X109092Y472600D01*
X110404D01*
X111060Y473256D01*
Y473912D01*
X110404Y474568D01*
X108436D01*
X413124Y313080D02*
X412468Y313736D01*
X411156D01*
X410500Y313080D01*
Y310456D01*
X411156Y309800D01*
X412468D01*
X413124Y310456D01*
X414436Y309800D02*
X415748D01*
X415092D01*
Y313736D01*
X414436Y313080D01*
X417716Y313736D02*
X420339D01*
Y313080D01*
X417716Y310456D01*
Y309800D01*
X362104Y319412D02*
X361448Y320068D01*
X360136D01*
X359480Y319412D01*
Y316788D01*
X360136Y316132D01*
X361448D01*
X362104Y316788D01*
X363416Y316132D02*
X364728D01*
X364072D01*
Y320068D01*
X363416Y319412D01*
X369320Y320068D02*
X368008Y319412D01*
X366696Y318100D01*
Y316788D01*
X367352Y316132D01*
X368664D01*
X369320Y316788D01*
Y317444D01*
X368664Y318100D01*
X366696D01*
X269504Y321712D02*
X268848Y322368D01*
X267536D01*
X266880Y321712D01*
Y319088D01*
X267536Y318432D01*
X268848D01*
X269504Y319088D01*
X270816Y318432D02*
X272128D01*
X271472D01*
Y322368D01*
X270816Y321712D01*
X276720Y322368D02*
X274096D01*
Y320400D01*
X275408Y321056D01*
X276064D01*
X276720Y320400D01*
Y319088D01*
X276064Y318432D01*
X274752D01*
X274096Y319088D01*
X204204Y320812D02*
X203548Y321468D01*
X202236D01*
X201580Y320812D01*
Y318188D01*
X202236Y317532D01*
X203548D01*
X204204Y318188D01*
X205516Y317532D02*
X206828D01*
X206172D01*
Y321468D01*
X205516Y320812D01*
X210764Y317532D02*
Y321468D01*
X208796Y319500D01*
X211420D01*
X239504Y172912D02*
X238848Y173568D01*
X237536D01*
X236880Y172912D01*
Y170288D01*
X237536Y169632D01*
X238848D01*
X239504Y170288D01*
X240816Y169632D02*
X242128D01*
X241472D01*
Y173568D01*
X240816Y172912D01*
X244096D02*
X244752Y173568D01*
X246064D01*
X246720Y172912D01*
Y172256D01*
X246064Y171600D01*
X245408D01*
X246064D01*
X246720Y170944D01*
Y170288D01*
X246064Y169632D01*
X244752D01*
X244096Y170288D01*
X307504Y172612D02*
X306848Y173268D01*
X305536D01*
X304880Y172612D01*
Y169988D01*
X305536Y169332D01*
X306848D01*
X307504Y169988D01*
X308816Y169332D02*
X310128D01*
X309472D01*
Y173268D01*
X308816Y172612D01*
X314720Y169332D02*
X312096D01*
X314720Y171956D01*
Y172612D01*
X314064Y173268D01*
X312752D01*
X312096Y172612D01*
X282624Y480780D02*
X281968Y481436D01*
X280656D01*
X280000Y480780D01*
Y478156D01*
X280656Y477500D01*
X281968D01*
X282624Y478156D01*
X283936Y477500D02*
X285248D01*
X284592D01*
Y481436D01*
X283936Y480780D01*
X287215Y477500D02*
X288527D01*
X287872D01*
Y481436D01*
X287215Y480780D01*
X187224Y500280D02*
X186568Y500936D01*
X185256D01*
X184600Y500280D01*
Y497656D01*
X185256Y497000D01*
X186568D01*
X187224Y497656D01*
X188536Y497000D02*
X189848D01*
X189192D01*
Y500936D01*
X188536Y500280D01*
X191815D02*
X192472Y500936D01*
X193783D01*
X194439Y500280D01*
Y497656D01*
X193783Y497000D01*
X192472D01*
X191815Y497656D01*
Y500280D01*
X146424Y480780D02*
X145768Y481436D01*
X144456D01*
X143800Y480780D01*
Y478156D01*
X144456Y477500D01*
X145768D01*
X146424Y478156D01*
X147736D02*
X148392Y477500D01*
X149704D01*
X150360Y478156D01*
Y480780D01*
X149704Y481436D01*
X148392D01*
X147736Y480780D01*
Y480124D01*
X148392Y479468D01*
X150360D01*
X325344Y499412D02*
X324688Y500068D01*
X323376D01*
X322720Y499412D01*
Y496788D01*
X323376Y496132D01*
X324688D01*
X325344Y496788D01*
X326656Y499412D02*
X327312Y500068D01*
X328624D01*
X329280Y499412D01*
Y498756D01*
X328624Y498100D01*
X329280Y497444D01*
Y496788D01*
X328624Y496132D01*
X327312D01*
X326656Y496788D01*
Y497444D01*
X327312Y498100D01*
X326656Y498756D01*
Y499412D01*
X327312Y498100D02*
X328624D01*
X352724Y279080D02*
X352068Y279736D01*
X350756D01*
X350100Y279080D01*
Y276456D01*
X350756Y275800D01*
X352068D01*
X352724Y276456D01*
X354036Y275800D02*
X355348D01*
X354692D01*
Y279736D01*
X354036Y279080D01*
X180600Y386700D02*
X181912D01*
X181256D01*
Y390636D01*
X180600Y389980D01*
M02*
