G04*
G04 #@! TF.GenerationSoftware,Altium Limited,Altium Designer,23.8.1 (32)*
G04*
G04 Layer_Color=8388736*
%FSLAX25Y25*%
%MOIN*%
G70*
G04*
G04 #@! TF.SameCoordinates,CA3F4A39-35F6-43B6-803E-031CCE665758*
G04*
G04*
G04 #@! TF.FilePolarity,Negative*
G04*
G01*
G75*
G04:AMPARAMS|DCode=17|XSize=85.56mil|YSize=31.62mil|CornerRadius=6.95mil|HoleSize=0mil|Usage=FLASHONLY|Rotation=0.000|XOffset=0mil|YOffset=0mil|HoleType=Round|Shape=RoundedRectangle|*
%AMROUNDEDRECTD17*
21,1,0.08556,0.01772,0,0,0.0*
21,1,0.07165,0.03162,0,0,0.0*
1,1,0.01391,0.03583,-0.00886*
1,1,0.01391,-0.03583,-0.00886*
1,1,0.01391,-0.03583,0.00886*
1,1,0.01391,0.03583,0.00886*
%
%ADD17ROUNDEDRECTD17*%
%ADD18C,0.05524*%
%ADD19C,0.06883*%
%ADD20C,0.07500*%
%ADD21R,0.06312X0.06312*%
%ADD22C,0.06312*%
%ADD23R,0.06312X0.06312*%
%ADD24C,0.05328*%
%ADD25C,0.08477*%
%ADD26R,0.07060X0.07060*%
%ADD27C,0.07060*%
%ADD28R,0.07296X0.07296*%
%ADD29C,0.07296*%
%ADD30C,0.08438*%
%ADD31R,0.08438X0.08438*%
%ADD32R,0.08064X0.08064*%
%ADD33C,0.08064*%
%ADD34R,0.05131X0.05131*%
%ADD35C,0.05131*%
%ADD36R,0.09068X0.09068*%
%ADD37C,0.09068*%
%ADD38R,0.07060X0.07060*%
%ADD39C,0.18517*%
%ADD40C,0.05761*%
%ADD41R,0.05761X0.05761*%
%ADD42R,0.05721X0.05721*%
%ADD43C,0.05721*%
%ADD44R,0.09068X0.09068*%
D17*
X333744Y274000D02*
D03*
Y269000D02*
D03*
Y264000D02*
D03*
Y259000D02*
D03*
X314256D02*
D03*
Y264000D02*
D03*
Y269000D02*
D03*
Y274000D02*
D03*
D18*
X303500Y488446D02*
D03*
Y531754D02*
D03*
X219600Y301598D02*
D03*
X176293D02*
D03*
X403954Y300799D02*
D03*
X360646D02*
D03*
X297146Y300700D02*
D03*
X340454D02*
D03*
X397900Y274654D02*
D03*
Y231346D02*
D03*
X134500Y405902D02*
D03*
Y362594D02*
D03*
X148650Y405902D02*
D03*
Y362594D02*
D03*
X161746Y234500D02*
D03*
X205054D02*
D03*
X132900Y248546D02*
D03*
Y291854D02*
D03*
X118900Y248546D02*
D03*
Y291854D02*
D03*
X317092Y531500D02*
D03*
X360399D02*
D03*
X309175Y405826D02*
D03*
Y362519D02*
D03*
X323339Y405751D02*
D03*
Y362444D02*
D03*
X411749Y405902D02*
D03*
Y362594D02*
D03*
X397900Y405902D02*
D03*
Y362594D02*
D03*
X122260Y422846D02*
D03*
Y466154D02*
D03*
X256600Y422854D02*
D03*
Y466161D02*
D03*
X105100Y259546D02*
D03*
Y302854D02*
D03*
X243150Y405902D02*
D03*
Y362594D02*
D03*
X229000Y405902D02*
D03*
Y362594D02*
D03*
D19*
X434016Y502000D02*
D03*
Y492000D02*
D03*
X444016D02*
D03*
Y502000D02*
D03*
X408268D02*
D03*
Y492000D02*
D03*
X418268D02*
D03*
Y502000D02*
D03*
X383764D02*
D03*
Y492000D02*
D03*
X393764D02*
D03*
Y502000D02*
D03*
D20*
X131400Y214079D02*
D03*
Y200300D02*
D03*
Y186520D02*
D03*
Y172741D02*
D03*
D21*
X141900Y243900D02*
D03*
D22*
X151900D02*
D03*
X145921Y270200D02*
D03*
Y260357D02*
D03*
X332000Y193236D02*
D03*
X265500D02*
D03*
X418500Y258400D02*
D03*
D23*
X145921Y280043D02*
D03*
X332000Y222764D02*
D03*
X265500D02*
D03*
X418500Y248400D02*
D03*
D24*
X175157Y318700D02*
D03*
X194843D02*
D03*
X283900Y320343D02*
D03*
Y300657D02*
D03*
X351000Y323843D02*
D03*
Y304157D02*
D03*
X165843Y468500D02*
D03*
X146157D02*
D03*
X302043D02*
D03*
X282357D02*
D03*
X355100Y249757D02*
D03*
Y269443D02*
D03*
X432543Y300799D02*
D03*
X412857D02*
D03*
D25*
X184418Y283464D02*
D03*
Y253936D02*
D03*
X264339Y283464D02*
D03*
Y253936D02*
D03*
X244497Y283464D02*
D03*
Y253936D02*
D03*
X284182Y283464D02*
D03*
Y253936D02*
D03*
D26*
X268894Y301598D02*
D03*
X344594Y286200D02*
D03*
X424394Y284900D02*
D03*
X166000Y301500D02*
D03*
D27*
X228106Y301598D02*
D03*
X303806Y286200D02*
D03*
X383606Y284900D02*
D03*
X164600Y290593D02*
D03*
X197400Y170980D02*
D03*
X213767Y211767D02*
D03*
X162433D02*
D03*
X178800Y170980D02*
D03*
X109260Y465394D02*
D03*
X135260D02*
D03*
X242100D02*
D03*
X270500D02*
D03*
X125213Y301500D02*
D03*
D28*
X163000Y405114D02*
D03*
X337700Y405213D02*
D03*
X425900Y405114D02*
D03*
X257500Y405213D02*
D03*
D29*
X163000Y363382D02*
D03*
X337700Y363480D02*
D03*
X425900Y363382D02*
D03*
X257500Y363480D02*
D03*
D30*
X159000Y315965D02*
D03*
X332600D02*
D03*
X420800D02*
D03*
X252500D02*
D03*
D31*
X139000D02*
D03*
X312600D02*
D03*
X400800D02*
D03*
X232500D02*
D03*
D32*
X159000Y351248D02*
D03*
X420800D02*
D03*
X332600D02*
D03*
X252500D02*
D03*
D33*
X149000D02*
D03*
X139000D02*
D03*
X410800D02*
D03*
X400800D02*
D03*
X322600D02*
D03*
X312600D02*
D03*
X242500D02*
D03*
X232500D02*
D03*
D34*
X339421Y480500D02*
D03*
X202021D02*
D03*
D35*
X329579D02*
D03*
X192179D02*
D03*
D36*
X470143Y264500D02*
D03*
D37*
X450457D02*
D03*
X424400Y464343D02*
D03*
D38*
X164600Y249806D02*
D03*
X197400Y211767D02*
D03*
X213767Y170980D02*
D03*
X162433D02*
D03*
X178800Y211767D02*
D03*
X109260Y424606D02*
D03*
X135260D02*
D03*
X242100D02*
D03*
X270500D02*
D03*
D39*
X468122Y179500D02*
D03*
Y223000D02*
D03*
X194200Y382400D02*
D03*
X119000Y513500D02*
D03*
X395600Y185700D02*
D03*
X462000Y517500D02*
D03*
X444500Y179500D02*
D03*
Y223000D02*
D03*
D40*
X323746Y505300D02*
D03*
Y515300D02*
D03*
X353746D02*
D03*
D41*
Y505300D02*
D03*
D42*
X157000Y427500D02*
D03*
X292300D02*
D03*
D43*
X167000D02*
D03*
X177000D02*
D03*
X187000D02*
D03*
X197000D02*
D03*
X207000D02*
D03*
X217000D02*
D03*
Y457500D02*
D03*
X207000D02*
D03*
X197000D02*
D03*
X187000D02*
D03*
X177000D02*
D03*
X167000D02*
D03*
X157000D02*
D03*
X302300Y427500D02*
D03*
X312300D02*
D03*
X322300D02*
D03*
X332300D02*
D03*
X342300D02*
D03*
X352300D02*
D03*
Y457500D02*
D03*
X342300D02*
D03*
X332300D02*
D03*
X322300D02*
D03*
X312300D02*
D03*
X302300D02*
D03*
X292300D02*
D03*
D44*
X424400Y444657D02*
D03*
M02*
