M48
;Layer_Color=9474304
;FILE_FORMAT=2:4
INCH,TZ
;TYPE=PLATED
T01F00S00C0.0118
T02F00S00C0.0280
T03F00S00C0.0295
T04F00S00C0.0315
T05F00S00C0.0327
T06F00S00C0.0331
T07F00S00C0.0354
T08F00S00C0.0366
T09F00S00C0.0406
T10F00S00C0.0413
T11F00S00C0.0417
T12F00S00C0.0433
T13F00S00C0.0484
T14F00S00C0.0508
T15F00S00C0.0512
T16F00S00C0.0550
T17F00S00C0.0551
T18F00S00C0.1378
%
T01
X10565Y16290
X11746
X11156Y17471
X12337
Y19833
X11746Y21014
X10565
X11156Y22195
X12337
X11746Y23376
X10565
X11156Y24557
X12337
X11746Y25739
X12337Y26920
X13518
X14109Y25739
Y23376
X12928
X14109Y21014
Y16290
X10565Y18652
Y28101
X11746
X11156Y29282
X14109Y30463
X15880Y29282
X17061
X16471Y28101
X15290Y25739
Y23376
X17652
X18833
X20014
X21195
X22376
X21786Y24557
X22967
X24148
X25329
Y26920
X26510
X24148
X22967
X21786
X20605
X19424
X20014Y28101
X21195
X22376
X23557
Y25739
X22376
X21195
X19424Y24557
X18243
X20605Y22195
X20014Y18652
X18833
X17652
X16471
X15290
X14699Y17471
X15290Y16290
X16471
X17061Y19833
X21195Y18652
X22376
X23557
X24739
X25920
X27101
X28282
X29463
X28872Y19833
X27691
X26510
X25329
X24739Y21014
X25920
X27101
X28282
X29463
X30054Y19833
Y17471
X28872
X27691
X26510
X25329
X24148
X22967
X22376Y16290
X21195
X20605Y17471
X23557Y16290
X24739
X25920
X27101
X28282
X29463
Y23376
X28282
X28872Y24557
X30054
Y26920
X29463Y28101
X28872Y29282
X30054
X27691
X26510
X25329
X21195Y30463
X20014
X18833
X33597Y29282
X33006Y28101
X32416Y26920
Y24557
X31235
X31825Y23376
X33006
X34187
X35368
X36550
X37731
X38912
X39502Y24557
X38321
X37140
X35959
X34778
X33597
X34187Y25739
X35368
X36550
X37731
X38912
X40093
X41274
X42455
X43636
X44817
X44227Y26920
X43046
X41865
X41274Y28101
X40093
X38912
X39502Y29282
X40683
X43046
X44227
X45408
X44817Y28101
X43636
Y30463
X42455
X44817
X45408Y26920
Y24557
X44227
X43046
X42455Y23376
X41274
X40683Y24557
X39502Y26920
X38321
X37140
X36550Y28101
X35959Y29282
X38321
X37731Y21014
X36550
X35368
X34187
X33006
X31825
X30644
X31235Y19833
X32416
X33597
X34778
X35959
X37140
X38321
X37731Y18652
X36550
X35368
X34187
X33006
X31825
X30644
X31235Y17471
X32416
X33597
X34778
X35959
X37140
X38321
X38912Y16290
X40093
X41274
X42455
X43636
X43046Y17471
X41865
X40683
X41274Y18652
X42455
X43636
X44227Y19833
X45408
X44817Y21014
X43636
X42455
X41274
X40093
X38912
X40683Y19833
X41865
X43046
X45408Y17471
X37731Y16290
X36550
X35368
X34187
X33006
X31825
X30644
Y23376
X45998
Y25739
Y28101
X47180
X46589Y29282
X47180Y30463
X45998
Y21014
X47180
X46589Y19833
X45998Y18652
X46589Y31644
X47180Y32825
X45998
X46589Y34006
X47180Y35187
X45998
X46589Y36368
X47180Y37550
X45998
X46589Y38731
X47180Y39912
X45998
X46589Y41093
X45998Y42274
X47180
X46589Y43455
X45998Y44636
X47180
X46589Y45817
X43046
X41865
X40683
X39502
X38321
X37140
X35959
X34187Y44636
X31235Y43455
Y41093
X31825Y39912
X33006
X34187
X35368
X36550
X37731
X38912
X40093
X41274
X42455
X43636
X44227Y38731
X43636Y37550
X44227Y36368
X43636Y35187
X44227Y34006
X43046
X41865
X41274Y32825
X42455
X43636
X44227Y31644
X45408
X38321
X37140
X35959
X36550Y32825
X37731
X38912
X38321Y34006
X37140
X37731Y35187
X36550
X35368
X34187
X34778Y34006
X33597
X34187Y32825
X33006
X32416Y31644
X31235Y34006
X30644Y35187
Y37550
X31825
X33006
X34187
X35368
X34778Y36368
X35959
X37731Y37550
X38912
X39502Y38731
X40683
X41865
Y41093
X43046
X44227
X43636Y42274
X42455
X41274
X40093
X38912
X37731
X36550
X35959Y41093
X37140
X38321
X39502
X40683
Y43455
X39502
X38321
X41865
X43046
X44227
X43636Y44636
X40683Y36368
X38912Y35187
X39502Y34006
X35368Y32825
X34778Y38731
X33597
X32416
X31235
X38321
X28872
X27691
X26510
X25329
X24148
X22967
X21786
X20605
X20014Y39912
X18833
X17652
X16471
X15290
X14699Y41093
X15880
X17061
X18243
Y38731
X17061
X15880
X14699
X15290Y37550
X16471
X17652
X17061Y36368
X18243
X19424
X20605
X21786
X21195Y37550
X22376
Y39912
X23557
X24739
X25920
X27101
X28282
X29463
Y37550
X28872Y36368
X30054
X29463Y35187
X28282
X27691Y34006
X28872
X30054
X25329
X25920Y35187
X26510Y36368
X21195Y35187
X20014
X18833
X19424Y34006
X18243
X17061
X15880
X20605
X21786
Y31644
X20605
X24148
X22967Y41093
X21786
X21195Y39912
X22376Y42274
X22967Y43455
X24148
X25329
X26510
X27691
Y45817
X26510
X22967
X17652Y44636
X15290
X14109
X13518Y45817
X11746Y44636
X10565
X11156Y43455
Y41093
X11746Y39912
X10565
X11156Y38731
X11746Y37550
X10565
X11156Y36368
X10565Y35187
X11746
X12337Y34006
X11156
X11746Y32825
X10565
X11156Y31644
X12337
X12928Y32825
X14109Y37550
X13518Y38731
X14109Y39912
X13518Y41093
X10565Y46998
Y49361
X11746
X12928
X14109Y51723
X13518Y52904
X12337
X11156
X10565Y51723
X15290
X16471
X17652
X18833
X20014
X21195
X22376
X23557
X24739
X25920
X27101
X28282
X29463
X28872Y50542
X27691
X26510
X25329
X24148
X22967
X21786
X20605
X19424
X18243
X17061
X15880
X14699
Y52904
X15880
X17061
X18243
X19424
X20605
X21786
X22967
X24148
X25329
X26510
X27691
X28872
X30054Y50542
X29463Y49361
X28282
X27101
X25920
X24739
X23557
X22376
X21195
X20014
X18833
X17652
X17061Y48180
X15880
X14699
X21786
X22967
X24148
X25329
X26510
X27691
X28872
X30054
X24739Y46998
X31235Y48180
X30644Y49361
X31825
X31235Y50542
X30644Y51723
X31825
X33006
X34187
X34778Y52904
X33597
X32416
X31235
X33597Y50542
X34778
X36550Y51723
X37731
X38912
X40093
X41274
X42455
X43636
X44817
X43046Y48180
X41865
X40683
X40093Y46998
X38912
X37731
X36550
X42455
X43636
X37140Y52904
X46589Y50542
X47180Y49361
X45998
X46589Y48180
X45998Y46998
X47180
T02
X34280Y26900
X47880Y16280
X35254Y46886
X27800Y42150
X47720Y53260
T03
X19218Y48050
X20202
X32958
X33942
T04
X10510Y25955
X11890Y24855
X13290
Y29185
X11890
X10510Y30285
X17629Y30160
X21960
X28390Y30066
X29715Y30070
X20505Y23450
X16175
X35510Y24976
Y26944
X36065Y30080
X35100Y30416
X34045Y30070
X40395Y30080
X41286
X43254
X39790Y27465
Y23135
Y36259
X41175
Y40590
X39790
X32334Y40575
X30918Y40583
Y36252
X32334Y36244
X35100Y32384
X28390Y32034
X24315Y36259
X22900
Y40590
X24315
X25660Y42285
Y46616
X28236Y46850
X30204
X16584
X14865Y40590
Y36259
X17516Y31870
X19484
X13450Y36259
Y40590
X12226Y42285
Y46615
X14616Y46850
X30350Y48845
Y53175
X31709Y53150
X36040
T05
X31230Y42750
X32230
X33230
X34230
X35230
Y45750
X34230
X33230
X32230
X31230
X30230
X29230
Y42750
X30230
X21700
X20700
X19700
X18700
X17700
X16700
X15700
Y45750
X16700
X17700
X18700
X19700
X20700
X21700
T06
X32375Y50530
Y51530
X35375
Y50530
T07
X14190Y24390
X15190
X41850Y24840
Y25840
T08
X14592Y26036
Y27020
Y28004
T09
X38376Y49200
Y50200
X39376
Y49200
X40827
Y50200
X41827
Y49200
X43402
Y50200
X44402
Y49200
T10
X26550Y19324
Y22276
X33200
Y19324
T11
X12521Y30150
X16600
X16460Y29059
Y24981
X16243Y21177
X17880
X19740
X21377
Y17098
X19740
X17880
X16243
X22811Y30160
X26889
X30381Y28620
X34459
X38361Y28490
X42439
X27050Y42461
X24210
Y46539
X27050
X13526
X10926
Y42461
X13526
T12
X33770Y36348
Y40521
X42590Y40511
Y36338
X25750Y36348
Y40521
X16300Y40511
Y36338
T13
X31260Y35125
X32260
X33260
X40080
X41080
X42080
X25250
X24250
X23250
X15900
X14900
X13900
T14
X31260Y31596
X33260
X40080
X42080
X25250
X23250
X15900
X13900
T15
X18442Y25394
Y28346
X24450
X26434
X28418
Y25394
X26434
X24450
T16
X13140Y17274
Y18652
Y20030
Y21408
T17
X45046Y26450
X47014
X42440Y44466
Y46434
T18
X39560Y18570
X44450Y17950
Y22300
X46812
Y17950
X19420Y38240
X11900Y51350
X46200Y51750
M30
