G04*
G04 #@! TF.GenerationSoftware,Altium Limited,Altium Designer,23.8.1 (32)*
G04*
G04 Layer_Physical_Order=1*
G04 Layer_Color=255*
%FSLAX25Y25*%
%MOIN*%
G70*
G04*
G04 #@! TF.SameCoordinates,39E68628-0E6C-4B0E-937A-7B5971290EE0*
G04*
G04*
G04 #@! TF.FilePolarity,Positive*
G04*
G01*
G75*
G04:AMPARAMS|DCode=16|XSize=77.56mil|YSize=23.62mil|CornerRadius=2.95mil|HoleSize=0mil|Usage=FLASHONLY|Rotation=0.000|XOffset=0mil|YOffset=0mil|HoleType=Round|Shape=RoundedRectangle|*
%AMROUNDEDRECTD16*
21,1,0.07756,0.01772,0,0,0.0*
21,1,0.07165,0.02362,0,0,0.0*
1,1,0.00591,0.03583,-0.00886*
1,1,0.00591,-0.03583,-0.00886*
1,1,0.00591,-0.03583,0.00886*
1,1,0.00591,0.03583,0.00886*
%
%ADD16ROUNDEDRECTD16*%
%ADD20C,0.07500*%
%ADD45C,0.03937*%
%ADD46C,0.09843*%
%ADD47C,0.01968*%
%ADD48C,0.04724*%
%ADD49C,0.06083*%
%ADD50R,0.05512X0.05512*%
%ADD51C,0.05512*%
%ADD52R,0.05512X0.05512*%
%ADD53C,0.04528*%
%ADD54C,0.07677*%
%ADD55R,0.06260X0.06260*%
%ADD56C,0.06260*%
%ADD57R,0.06496X0.06496*%
%ADD58C,0.06496*%
%ADD59C,0.07638*%
%ADD60R,0.07638X0.07638*%
%ADD61R,0.07264X0.07264*%
%ADD62C,0.07264*%
%ADD63R,0.04331X0.04331*%
%ADD64C,0.04331*%
%ADD65R,0.08268X0.08268*%
%ADD66C,0.08268*%
%ADD67R,0.06260X0.06260*%
%ADD68C,0.17717*%
%ADD69C,0.04961*%
%ADD70R,0.04961X0.04961*%
%ADD71R,0.04921X0.04921*%
%ADD72C,0.04921*%
%ADD73R,0.08268X0.08268*%
%ADD74C,0.01968*%
%ADD75C,0.05000*%
G36*
X480700Y538975D02*
X481959Y538593D01*
X483120Y537973D01*
X484138Y537138D01*
X484973Y536120D01*
X485593Y534959D01*
X485975Y533700D01*
X486103Y532406D01*
X486100Y532390D01*
Y158374D01*
X486103Y158358D01*
X485975Y157064D01*
X485593Y155804D01*
X484973Y154644D01*
X484138Y153626D01*
X483120Y152791D01*
X481959Y152171D01*
X480700Y151788D01*
X479406Y151661D01*
X479390Y151664D01*
X105374D01*
X105358Y151661D01*
X104064Y151788D01*
X102804Y152171D01*
X101644Y152791D01*
X100626Y153626D01*
X99791Y154644D01*
X99171Y155804D01*
X98788Y157064D01*
X98661Y158358D01*
X98664Y158374D01*
Y532390D01*
X98661Y532406D01*
X98788Y533700D01*
X99171Y534959D01*
X99791Y536120D01*
X100626Y537138D01*
X101644Y537973D01*
X102804Y538593D01*
X104064Y538975D01*
X105358Y539103D01*
X105374Y539100D01*
X479390D01*
X479406Y539103D01*
X480700Y538975D01*
D02*
G37*
%LPC*%
G36*
X317507Y534650D02*
X316678D01*
X315877Y534435D01*
X315158Y534020D01*
X314572Y533434D01*
X314157Y532716D01*
X313943Y531915D01*
Y531085D01*
X314157Y530284D01*
X314572Y529566D01*
X315158Y528980D01*
X315877Y528565D01*
X316678Y528350D01*
X317507D01*
X318308Y528565D01*
X319026Y528980D01*
X319613Y529566D01*
X320027Y530284D01*
X320242Y531085D01*
Y531915D01*
X320027Y532716D01*
X319613Y533434D01*
X319026Y534020D01*
X318308Y534435D01*
X317507Y534650D01*
D02*
G37*
G36*
X354176Y518568D02*
X353315D01*
X352484Y518345D01*
X351739Y517915D01*
X351131Y517306D01*
X350701Y516561D01*
X350478Y515730D01*
Y514870D01*
X350701Y514039D01*
X351131Y513294D01*
X351739Y512685D01*
X352484Y512255D01*
X353315Y512032D01*
X354176D01*
X355007Y512255D01*
X355752Y512685D01*
X356360Y513294D01*
X356791Y514039D01*
X357013Y514870D01*
Y515730D01*
X356791Y516561D01*
X356360Y517306D01*
X355752Y517915D01*
X355007Y518345D01*
X354176Y518568D01*
D02*
G37*
G36*
X462950Y527146D02*
X461050D01*
X459187Y526775D01*
X457431Y526048D01*
X455851Y524992D01*
X454508Y523649D01*
X453452Y522069D01*
X452725Y520314D01*
X452354Y518450D01*
Y516550D01*
X452725Y514686D01*
X453452Y512931D01*
X454508Y511351D01*
X455851Y510008D01*
X457431Y508952D01*
X459187Y508225D01*
X461050Y507854D01*
X462950D01*
X464814Y508225D01*
X466569Y508952D01*
X468149Y510008D01*
X469492Y511351D01*
X470548Y512931D01*
X471275Y514686D01*
X471646Y516550D01*
Y518450D01*
X471275Y520314D01*
X470548Y522069D01*
X469492Y523649D01*
X468149Y524992D01*
X466569Y526048D01*
X464814Y526775D01*
X462950Y527146D01*
D02*
G37*
G36*
X119950Y523146D02*
X118050D01*
X116186Y522775D01*
X114431Y522048D01*
X112851Y520992D01*
X111508Y519649D01*
X110452Y518069D01*
X109725Y516314D01*
X109354Y514450D01*
Y512550D01*
X109725Y510686D01*
X110452Y508931D01*
X111508Y507351D01*
X112851Y506008D01*
X114431Y504952D01*
X116186Y504225D01*
X118050Y503854D01*
X119950D01*
X121813Y504225D01*
X123569Y504952D01*
X125149Y506008D01*
X126492Y507351D01*
X127548Y508931D01*
X128275Y510686D01*
X128646Y512550D01*
Y514450D01*
X128275Y516314D01*
X127548Y518069D01*
X126492Y519649D01*
X125149Y520992D01*
X123569Y522048D01*
X121813Y522775D01*
X119950Y523146D01*
D02*
G37*
G36*
X303915Y534903D02*
X303085D01*
X302284Y534689D01*
X301566Y534274D01*
X300980Y533687D01*
X300565Y532969D01*
X300350Y532168D01*
Y531339D01*
X300565Y530538D01*
X300980Y529820D01*
X301566Y529233D01*
X301694Y529160D01*
Y525546D01*
X301831Y524854D01*
X302223Y524268D01*
X320538Y505953D01*
X320478Y505730D01*
Y504870D01*
X320701Y504039D01*
X321131Y503294D01*
X321739Y502685D01*
X322484Y502255D01*
X323315Y502032D01*
X324176D01*
X325007Y502255D01*
X325752Y502685D01*
X326360Y503294D01*
X326791Y504039D01*
X327013Y504870D01*
Y505730D01*
X326791Y506561D01*
X326360Y507306D01*
X325752Y507915D01*
X325007Y508345D01*
X324176Y508568D01*
X323315D01*
X323092Y508508D01*
X305306Y526294D01*
Y529160D01*
X305434Y529233D01*
X306020Y529820D01*
X306435Y530538D01*
X306650Y531339D01*
Y532168D01*
X306435Y532969D01*
X306020Y533687D01*
X305434Y534274D01*
X304716Y534689D01*
X303915Y534903D01*
D02*
G37*
G36*
X434520Y505829D02*
X433512D01*
X432538Y505568D01*
X431665Y505064D01*
X430952Y504351D01*
X430448Y503478D01*
X430187Y502504D01*
Y501496D01*
X430350Y500889D01*
X426523Y497061D01*
X426131Y496476D01*
X425994Y495784D01*
Y485648D01*
X377652Y437306D01*
X320300D01*
X319609Y437169D01*
X319023Y436777D01*
X312937Y430692D01*
X312728Y430748D01*
X311872D01*
X311663Y430692D01*
X308377Y433977D01*
X307791Y434369D01*
X307100Y434506D01*
X289200D01*
X288509Y434369D01*
X287923Y433977D01*
X278669Y424724D01*
X278433Y424787D01*
X277567D01*
X276731Y424563D01*
X275981Y424131D01*
X275369Y423519D01*
X274937Y422769D01*
X274917Y422697D01*
X274417Y422763D01*
Y428524D01*
X266583D01*
Y420689D01*
X274296D01*
X274417Y420689D01*
X274854Y420538D01*
X274937Y420231D01*
X275369Y419482D01*
X275981Y418869D01*
X276731Y418437D01*
X277567Y418213D01*
X278433D01*
X279269Y418437D01*
X280018Y418869D01*
X280631Y419482D01*
X281063Y420231D01*
X281287Y421067D01*
Y421933D01*
X281224Y422169D01*
X288590Y429535D01*
X289052Y429344D01*
Y424252D01*
X291617D01*
X297434Y418434D01*
X298010Y417993D01*
X298681Y417715D01*
X299400Y417620D01*
X333649D01*
X341521Y409748D01*
X341314Y409248D01*
X333665D01*
Y408531D01*
X324824D01*
X324555Y408686D01*
X323754Y408901D01*
X322924D01*
X322124Y408686D01*
X321855Y408531D01*
X310790D01*
X310391Y408761D01*
X310091Y408842D01*
X303067Y415866D01*
X302491Y416307D01*
X301821Y416585D01*
X301102Y416680D01*
X242451D01*
X238904Y420227D01*
X239095Y420689D01*
X246017D01*
Y428524D01*
X238183D01*
Y421602D01*
X237721Y421410D01*
X224449Y434682D01*
X223873Y435124D01*
X223203Y435402D01*
X222483Y435496D01*
X162217D01*
X161497Y435402D01*
X160827Y435124D01*
X160251Y434682D01*
X156317Y430748D01*
X153752D01*
Y424252D01*
X160248D01*
Y426817D01*
X163368Y429937D01*
X174218D01*
X174222Y429926D01*
X174368Y429437D01*
X173973Y428754D01*
X173752Y427928D01*
Y427072D01*
X173973Y426246D01*
X174401Y425506D01*
X175006Y424901D01*
X175746Y424473D01*
X176572Y424252D01*
X177428D01*
X178254Y424473D01*
X178994Y424901D01*
X179599Y425506D01*
X180027Y426246D01*
X180248Y427072D01*
Y427928D01*
X180027Y428754D01*
X179632Y429437D01*
X179778Y429926D01*
X179782Y429937D01*
X184218D01*
X184222Y429926D01*
X184368Y429437D01*
X183973Y428754D01*
X183752Y427928D01*
Y427072D01*
X183973Y426246D01*
X184401Y425506D01*
X185006Y424901D01*
X185746Y424473D01*
X186572Y424252D01*
X187428D01*
X188254Y424473D01*
X188994Y424901D01*
X189599Y425506D01*
X190027Y426246D01*
X190248Y427072D01*
Y427928D01*
X190027Y428754D01*
X189632Y429437D01*
X189778Y429926D01*
X189782Y429937D01*
X194218D01*
X194222Y429926D01*
X194368Y429437D01*
X193973Y428754D01*
X193752Y427928D01*
Y427072D01*
X193973Y426246D01*
X194401Y425506D01*
X195006Y424901D01*
X195746Y424473D01*
X196572Y424252D01*
X197428D01*
X198254Y424473D01*
X198994Y424901D01*
X199599Y425506D01*
X200027Y426246D01*
X200248Y427072D01*
Y427928D01*
X200027Y428754D01*
X199632Y429437D01*
X199778Y429926D01*
X199782Y429937D01*
X204218D01*
X204222Y429926D01*
X204368Y429437D01*
X203973Y428754D01*
X203752Y427928D01*
Y427072D01*
X203973Y426246D01*
X204401Y425506D01*
X205006Y424901D01*
X205746Y424473D01*
X206572Y424252D01*
X207428D01*
X208254Y424473D01*
X208994Y424901D01*
X209599Y425506D01*
X210027Y426246D01*
X210248Y427072D01*
Y427928D01*
X210027Y428754D01*
X209632Y429437D01*
X209778Y429926D01*
X209782Y429937D01*
X214218D01*
X214222Y429926D01*
X214368Y429437D01*
X213973Y428754D01*
X213845Y428276D01*
X193463Y407894D01*
X167035D01*
Y409150D01*
X158965D01*
Y408531D01*
X150395D01*
X149865Y408837D01*
X149064Y409051D01*
X148235D01*
X147434Y408837D01*
X146904Y408531D01*
X136246D01*
X135716Y408837D01*
X134915Y409051D01*
X134085D01*
X133284Y408837D01*
X132606Y408445D01*
X132324Y408522D01*
X132106Y408612D01*
Y420689D01*
X139177D01*
Y425969D01*
X147435Y434227D01*
X147826Y434813D01*
X147964Y435504D01*
Y466020D01*
X148031Y466058D01*
X148599Y466627D01*
X149001Y467322D01*
X149209Y468098D01*
Y468902D01*
X149001Y469678D01*
X148599Y470373D01*
X148031Y470942D01*
X147335Y471343D01*
X146559Y471551D01*
X145756D01*
X144980Y471343D01*
X144284Y470942D01*
X143716Y470373D01*
X143314Y469678D01*
X143106Y468902D01*
Y468098D01*
X143314Y467322D01*
X143716Y466627D01*
X144284Y466058D01*
X144351Y466020D01*
Y436252D01*
X136623Y428524D01*
X132106D01*
Y459686D01*
X134076Y461656D01*
X134744Y461477D01*
X135775D01*
X136772Y461743D01*
X137665Y462259D01*
X138394Y462989D01*
X138910Y463882D01*
X139177Y464878D01*
Y465909D01*
X138910Y466906D01*
X138394Y467799D01*
X137665Y468528D01*
X136772Y469044D01*
X135775Y469311D01*
X134744D01*
X133748Y469044D01*
X132854Y468528D01*
X132125Y467799D01*
X131609Y466906D01*
X131342Y465909D01*
Y464878D01*
X131521Y464210D01*
X129023Y461711D01*
X128706Y461238D01*
X128206Y461358D01*
Y462013D01*
X128069Y462705D01*
X127677Y463291D01*
X125371Y465597D01*
X125409Y465739D01*
Y466568D01*
X125195Y467369D01*
X124780Y468087D01*
X124194Y468674D01*
X123476Y469089D01*
X122675Y469303D01*
X121845D01*
X121044Y469089D01*
X120326Y468674D01*
X119739Y468087D01*
X119325Y467369D01*
X119110Y466568D01*
Y465739D01*
X119325Y464938D01*
X119739Y464220D01*
X120326Y463633D01*
X121044Y463219D01*
X121845Y463004D01*
X122675D01*
X122817Y463042D01*
X124594Y461265D01*
Y425604D01*
X124094Y425424D01*
X123476Y425781D01*
X122675Y425996D01*
X121845D01*
X121044Y425781D01*
X120326Y425367D01*
X119739Y424780D01*
X119325Y424062D01*
X119110Y423261D01*
Y422432D01*
X119325Y421631D01*
X119739Y420913D01*
X120326Y420326D01*
X121044Y419911D01*
X121845Y419697D01*
X122675D01*
X123476Y419911D01*
X124094Y420268D01*
X124594Y420088D01*
Y349600D01*
X124731Y348909D01*
X125123Y348323D01*
X136652Y336793D01*
X134929Y335069D01*
X134013Y333877D01*
X133438Y332488D01*
X133242Y330998D01*
Y318350D01*
X122150Y307258D01*
X108738D01*
X107979Y307840D01*
X106590Y308415D01*
X105100Y308611D01*
X103610Y308415D01*
X102221Y307840D01*
X101029Y306925D01*
X100113Y305733D01*
X99538Y304344D01*
X99342Y302854D01*
X99538Y301363D01*
X100113Y299975D01*
X101029Y298782D01*
X102382Y297428D01*
X103575Y296514D01*
X104963Y295938D01*
X106454Y295742D01*
X125213D01*
X126703Y295938D01*
X128092Y296514D01*
X129284Y297428D01*
X130199Y298621D01*
X130482Y299303D01*
X142537Y311358D01*
X143606D01*
Y312428D01*
X152093Y320915D01*
X157744D01*
X157810Y320414D01*
X157222Y320257D01*
X156172Y319651D01*
X155314Y318793D01*
X154708Y317743D01*
X154394Y316571D01*
Y315358D01*
X154708Y314187D01*
X155314Y313136D01*
X156172Y312279D01*
X157222Y311672D01*
X158394Y311358D01*
X159606D01*
X160778Y311672D01*
X161828Y312279D01*
X162686Y313136D01*
X163292Y314187D01*
X163606Y315358D01*
Y315638D01*
X163888Y315920D01*
X173870D01*
X173980Y315857D01*
X174756Y315649D01*
X175511D01*
X175608Y315531D01*
X175752Y315183D01*
X165986Y305417D01*
X162083D01*
Y304280D01*
X156053D01*
X155333Y304185D01*
X154663Y303907D01*
X154087Y303466D01*
X140137Y289515D01*
X135652D01*
X135475Y290015D01*
X135835Y290638D01*
X136050Y291439D01*
Y292268D01*
X135835Y293069D01*
X135420Y293788D01*
X134834Y294374D01*
X134116Y294789D01*
X133315Y295003D01*
X132485D01*
X131684Y294789D01*
X131415Y294633D01*
X120385D01*
X120116Y294789D01*
X119315Y295003D01*
X118485D01*
X117684Y294789D01*
X116966Y294374D01*
X116380Y293788D01*
X115965Y293069D01*
X115750Y292268D01*
Y291439D01*
X115965Y290638D01*
X116380Y289920D01*
X116966Y289333D01*
X117684Y288919D01*
X118485Y288704D01*
X119315D01*
X120116Y288919D01*
X120385Y289074D01*
X130017D01*
X130196Y288574D01*
X104184Y262562D01*
X103884Y262481D01*
X103166Y262067D01*
X102580Y261480D01*
X102165Y260762D01*
X101950Y259961D01*
Y259132D01*
X102165Y258331D01*
X102580Y257612D01*
X103166Y257026D01*
X103884Y256611D01*
X104685Y256397D01*
X105515D01*
X106316Y256611D01*
X107034Y257026D01*
X107620Y257612D01*
X108035Y258331D01*
X108115Y258631D01*
X133440Y283956D01*
X141288D01*
X142007Y284050D01*
X142678Y284328D01*
X143254Y284770D01*
X157204Y298720D01*
X162083D01*
Y297583D01*
X169917D01*
Y301486D01*
X184351Y315920D01*
X193555D01*
X193665Y315857D01*
X194441Y315649D01*
X195244D01*
X196020Y315857D01*
X196716Y316258D01*
X197284Y316827D01*
X197686Y317522D01*
X197894Y318298D01*
Y319102D01*
X197686Y319878D01*
X197376Y320414D01*
X197599Y320915D01*
X219407D01*
X227894Y312428D01*
Y311358D01*
X229126D01*
X229621Y310978D01*
X229720Y310937D01*
Y307392D01*
X227845Y305516D01*
X227591D01*
X226594Y305249D01*
X225701Y304733D01*
X224972Y304004D01*
X224456Y303110D01*
X224235Y302287D01*
X223250Y301301D01*
X222750Y301508D01*
Y302013D01*
X222535Y302814D01*
X222120Y303532D01*
X221534Y304119D01*
X220816Y304533D01*
X220015Y304748D01*
X219185D01*
X218384Y304533D01*
X217666Y304119D01*
X217080Y303532D01*
X216665Y302814D01*
X216450Y302013D01*
Y301184D01*
X216665Y300383D01*
X217024Y299760D01*
X216848Y299260D01*
X182775D01*
X179230Y302805D01*
X179228Y302814D01*
X178813Y303532D01*
X178227Y304119D01*
X177509Y304533D01*
X176708Y304748D01*
X175878D01*
X175077Y304533D01*
X174359Y304119D01*
X173773Y303532D01*
X173358Y302814D01*
X173143Y302013D01*
Y301184D01*
X173358Y300383D01*
X173773Y299664D01*
X174359Y299078D01*
X175077Y298663D01*
X175668Y298505D01*
X179659Y294515D01*
X180234Y294073D01*
X180234Y294073D01*
X180905Y293795D01*
X181624Y293701D01*
X222360D01*
X223079Y293795D01*
X223749Y294073D01*
X224325Y294515D01*
X227512Y297702D01*
X227591Y297681D01*
X228622D01*
X229618Y297948D01*
X230512Y298464D01*
X231241Y299193D01*
X231757Y300086D01*
X232024Y301083D01*
Y301833D01*
X234466Y304275D01*
X234707Y304589D01*
X234907Y304850D01*
X235185Y305521D01*
X235280Y306240D01*
Y310937D01*
X235379Y310978D01*
X235875Y311358D01*
X237106D01*
Y312590D01*
X237487Y313086D01*
X238062Y314474D01*
X238258Y315965D01*
Y326221D01*
X246571Y334535D01*
X247486Y335727D01*
X248062Y337116D01*
X248258Y338606D01*
Y346829D01*
X256919D01*
Y355667D01*
X255280D01*
Y357329D01*
X257396Y359445D01*
X258031D01*
X259058Y359720D01*
X259978Y360251D01*
X260729Y361003D01*
X261260Y361923D01*
X261535Y362949D01*
Y364012D01*
X261260Y365038D01*
X260729Y365958D01*
X259978Y366709D01*
X259058Y367241D01*
X258031Y367516D01*
X256969D01*
X255942Y367241D01*
X255022Y366709D01*
X254573Y366260D01*
X244249D01*
X243529Y366165D01*
X242859Y365888D01*
X242637Y365718D01*
X241934Y365529D01*
X241216Y365115D01*
X240629Y364528D01*
X240215Y363810D01*
X240000Y363009D01*
Y362180D01*
X240215Y361379D01*
X240629Y360661D01*
X241216Y360074D01*
X241934Y359659D01*
X242735Y359445D01*
X243564D01*
X244365Y359659D01*
X245083Y360074D01*
X245670Y360661D01*
X245693Y360701D01*
X250100D01*
X250346Y360201D01*
X250093Y359870D01*
X249815Y359200D01*
X249720Y358480D01*
Y355667D01*
X248081D01*
Y353999D01*
X247581Y353900D01*
X247486Y354127D01*
X246571Y355319D01*
X245379Y356235D01*
X243990Y356810D01*
X242500Y357006D01*
X241010Y356810D01*
X239621Y356235D01*
X238428Y355319D01*
X237513Y354127D01*
X236973Y354128D01*
X236611Y355003D01*
X235696Y356195D01*
X234758Y357133D01*
Y362594D01*
Y366715D01*
X238985Y370942D01*
X264649D01*
X267042Y368549D01*
Y349485D01*
X248429Y330872D01*
X247514Y329679D01*
X246938Y328290D01*
X246742Y326800D01*
Y318350D01*
X240425Y312033D01*
X239510Y310840D01*
X238935Y309452D01*
X238739Y307961D01*
Y283464D01*
X238935Y281974D01*
X239510Y280585D01*
X240425Y279392D01*
X241618Y278477D01*
X243006Y277902D01*
X244497Y277706D01*
X264339D01*
X265830Y277902D01*
X267218Y278477D01*
X268411Y279392D01*
X269326Y280585D01*
X269901Y281974D01*
X270097Y283464D01*
X269901Y284954D01*
X269326Y286343D01*
X268411Y287535D01*
X267218Y288450D01*
X265830Y289025D01*
X264339Y289222D01*
X250255D01*
Y305576D01*
X256572Y311893D01*
X257487Y313086D01*
X257528Y313185D01*
X279362D01*
X280082Y313280D01*
X280752Y313557D01*
X281328Y313999D01*
X284737Y317408D01*
X285078Y317499D01*
X285773Y317901D01*
X286342Y318469D01*
X286743Y319165D01*
X286951Y319941D01*
Y320744D01*
X286743Y321520D01*
X286342Y322216D01*
X285773Y322784D01*
X285078Y323186D01*
X284302Y323394D01*
X283498D01*
X282722Y323186D01*
X282027Y322784D01*
X281458Y322216D01*
X281152Y321686D01*
X278211Y318744D01*
X258258D01*
Y324415D01*
X276871Y343028D01*
X277786Y344221D01*
X278362Y345610D01*
X278558Y347100D01*
Y370934D01*
X278362Y372425D01*
X277786Y373813D01*
X276871Y375006D01*
X271106Y380771D01*
X269913Y381686D01*
X268525Y382262D01*
X267034Y382458D01*
X236600D01*
X235110Y382262D01*
X233721Y381686D01*
X232528Y380771D01*
X224928Y373171D01*
X224013Y371979D01*
X223438Y370590D01*
X223242Y369100D01*
Y362594D01*
Y354748D01*
X223438Y353258D01*
X224013Y351869D01*
X224928Y350676D01*
X227553Y348053D01*
X228745Y347137D01*
X230134Y346562D01*
X231624Y346366D01*
X233114Y346562D01*
X234503Y347137D01*
X235696Y348053D01*
X236242Y348765D01*
X236742Y348595D01*
Y348045D01*
X224104Y335406D01*
X152205D01*
X152014Y335868D01*
X153071Y336926D01*
X153987Y338119D01*
X154562Y339507D01*
X154758Y340998D01*
Y346829D01*
X163419D01*
Y355667D01*
X161780D01*
Y358230D01*
X162896Y359346D01*
X163531D01*
X164558Y359621D01*
X165478Y360153D01*
X166229Y360904D01*
X166760Y361824D01*
X167035Y362850D01*
Y363913D01*
X166760Y364939D01*
X166229Y365860D01*
X165478Y366611D01*
X164558Y367142D01*
X163531Y367417D01*
X162469D01*
X161442Y367142D01*
X160522Y366611D01*
X160073Y366161D01*
X149650D01*
X148931Y366067D01*
X148260Y365789D01*
X148183Y365730D01*
X147434Y365529D01*
X146716Y365115D01*
X146129Y364528D01*
X145715Y363810D01*
X145500Y363009D01*
Y362180D01*
X145715Y361379D01*
X146129Y360661D01*
X146716Y360074D01*
X147434Y359659D01*
X148235Y359445D01*
X149064D01*
X149865Y359659D01*
X150584Y360074D01*
X151111Y360602D01*
X156072D01*
X156350Y360186D01*
X156315Y360101D01*
X156220Y359382D01*
Y355667D01*
X154581D01*
Y353999D01*
X154081Y353900D01*
X153987Y354127D01*
X153071Y355319D01*
X151879Y356235D01*
X150490Y356810D01*
X149000Y357006D01*
X147510Y356810D01*
X146121Y356235D01*
X144929Y355319D01*
X144014Y354127D01*
X143588Y353100D01*
X143469Y353063D01*
X143041Y353087D01*
X142536Y353961D01*
X141714Y354784D01*
X140706Y355366D01*
X139582Y355667D01*
X138418D01*
X137406Y355396D01*
X136306Y356496D01*
Y360000D01*
X136434Y360074D01*
X137020Y360661D01*
X137435Y361379D01*
X137650Y362180D01*
Y363009D01*
X137435Y363810D01*
X137020Y364528D01*
X136434Y365115D01*
X135716Y365529D01*
X134915Y365744D01*
X134085D01*
X133943Y365706D01*
X132106Y367543D01*
Y403191D01*
X132324Y403281D01*
X132606Y403358D01*
X133284Y402967D01*
X134085Y402752D01*
X134915D01*
X135716Y402967D01*
X135724Y402971D01*
X147426D01*
X147434Y402967D01*
X148235Y402752D01*
X149064D01*
X149865Y402967D01*
X149873Y402971D01*
X158965D01*
Y401079D01*
X167035D01*
Y402334D01*
X194614D01*
X195334Y402429D01*
X196004Y402707D01*
X196580Y403149D01*
X217776Y424345D01*
X218254Y424473D01*
X218994Y424901D01*
X219599Y425506D01*
X220027Y426246D01*
X220248Y427072D01*
Y427928D01*
X220027Y428754D01*
X219632Y429437D01*
X219778Y429926D01*
X219782Y429937D01*
X221332D01*
X239335Y411935D01*
X239910Y411493D01*
X240581Y411215D01*
X241300Y411120D01*
X299950D01*
X306160Y404911D01*
X306240Y404610D01*
X306655Y403892D01*
X307242Y403306D01*
X307960Y402891D01*
X308761Y402677D01*
X309590D01*
X310391Y402891D01*
X310530Y402971D01*
X321855D01*
X322124Y402816D01*
X322924Y402601D01*
X323754D01*
X324555Y402816D01*
X324824Y402971D01*
X333665D01*
Y401177D01*
X341735D01*
Y408826D01*
X342235Y409034D01*
X347333Y403936D01*
X347909Y403494D01*
X348579Y403217D01*
X349299Y403122D01*
X396415D01*
X396684Y402967D01*
X397434Y402766D01*
X397511Y402707D01*
X398181Y402429D01*
X398900Y402334D01*
X421865D01*
Y401079D01*
X429935D01*
Y409150D01*
X421865D01*
Y407894D01*
X414211D01*
X413683Y408422D01*
X412965Y408837D01*
X412164Y409051D01*
X411335D01*
X410534Y408837D01*
X409815Y408422D01*
X409287Y407894D01*
X400362D01*
X399834Y408422D01*
X399116Y408837D01*
X398315Y409051D01*
X397485D01*
X396684Y408837D01*
X396415Y408681D01*
X350450D01*
X336766Y422366D01*
X336190Y422807D01*
X335520Y423085D01*
X334800Y423180D01*
X300551D01*
X295548Y428183D01*
Y430748D01*
X295988Y430894D01*
X306352D01*
X309108Y428137D01*
X309052Y427928D01*
Y427072D01*
X309273Y426246D01*
X309701Y425506D01*
X310306Y424901D01*
X311046Y424473D01*
X311872Y424252D01*
X312728D01*
X313554Y424473D01*
X314294Y424901D01*
X314899Y425506D01*
X315327Y426246D01*
X315548Y427072D01*
Y427928D01*
X315492Y428137D01*
X321048Y433694D01*
X378400D01*
X379091Y433831D01*
X379677Y434223D01*
X429077Y483623D01*
X429469Y484209D01*
X429606Y484900D01*
Y495036D01*
X432904Y498334D01*
X433512Y498171D01*
X434520D01*
X435494Y498432D01*
X436367Y498936D01*
X437080Y499649D01*
X437584Y500522D01*
X437845Y501496D01*
Y502504D01*
X437584Y503478D01*
X437080Y504351D01*
X436367Y505064D01*
X435494Y505568D01*
X434520Y505829D01*
D02*
G37*
G36*
X360814Y534650D02*
X359984D01*
X359184Y534435D01*
X358465Y534020D01*
X357879Y533434D01*
X357464Y532716D01*
X357250Y531915D01*
Y531085D01*
X357464Y530284D01*
X357879Y529566D01*
X358465Y528980D01*
X358593Y528906D01*
Y512702D01*
X354459Y508568D01*
X350478D01*
Y502032D01*
X356579D01*
X356794Y502032D01*
X357001Y501532D01*
X353416Y497948D01*
X337287D01*
X336567Y497853D01*
X335897Y497575D01*
X335321Y497133D01*
X310334Y472147D01*
X309893Y471571D01*
X309615Y470900D01*
X309520Y470181D01*
Y459181D01*
X309273Y458754D01*
X309243Y458640D01*
X302882Y452280D01*
X206418D01*
X200057Y458640D01*
X200027Y458754D01*
X199599Y459494D01*
X198994Y460099D01*
X198254Y460527D01*
X197428Y460748D01*
X196572D01*
X195746Y460527D01*
X195006Y460099D01*
X194401Y459494D01*
X193973Y458754D01*
X193752Y457928D01*
Y457072D01*
X193973Y456246D01*
X194401Y455506D01*
X195006Y454901D01*
X195746Y454473D01*
X196572Y454252D01*
X196583D01*
X203301Y447535D01*
X203877Y447093D01*
X204547Y446815D01*
X205266Y446720D01*
X304034D01*
X304753Y446815D01*
X305423Y447093D01*
X305999Y447535D01*
X312717Y454252D01*
X312728D01*
X313554Y454473D01*
X314294Y454901D01*
X314899Y455506D01*
X315327Y456246D01*
X315548Y457072D01*
Y457928D01*
X315327Y458754D01*
X315080Y459181D01*
Y469030D01*
X338438Y492388D01*
X354568D01*
X355287Y492483D01*
X355958Y492761D01*
X356533Y493202D01*
X368349Y505018D01*
X380713D01*
X380905Y504556D01*
X380700Y504351D01*
X380196Y503478D01*
X379935Y502504D01*
Y501496D01*
X380196Y500522D01*
X380700Y499649D01*
X381413Y498936D01*
X382286Y498432D01*
X383260Y498171D01*
X384268D01*
X385242Y498432D01*
X386115Y498936D01*
X386828Y499649D01*
X387332Y500522D01*
X387593Y501496D01*
Y502504D01*
X387332Y503478D01*
X386828Y504351D01*
X386623Y504556D01*
X386814Y505018D01*
X390713D01*
X390905Y504556D01*
X390700Y504351D01*
X390196Y503478D01*
X389935Y502504D01*
Y501496D01*
X390196Y500522D01*
X390700Y499649D01*
X391413Y498936D01*
X392286Y498432D01*
X393260Y498171D01*
X394268D01*
X395242Y498432D01*
X396115Y498936D01*
X396828Y499649D01*
X397332Y500522D01*
X397592Y501496D01*
Y502504D01*
X397332Y503478D01*
X396828Y504351D01*
X396623Y504556D01*
X396814Y505018D01*
X405217D01*
X405409Y504556D01*
X405204Y504351D01*
X404700Y503478D01*
X404439Y502504D01*
Y501963D01*
X400046Y497569D01*
X399604Y496994D01*
X399326Y496323D01*
X399232Y495604D01*
Y493200D01*
X398055Y492023D01*
X397592Y492214D01*
Y492504D01*
X397332Y493478D01*
X396828Y494351D01*
X396115Y495064D01*
X395242Y495568D01*
X394268Y495829D01*
X393260D01*
X392286Y495568D01*
X391413Y495064D01*
X390700Y494351D01*
X390196Y493478D01*
X389935Y492504D01*
Y491496D01*
X390196Y490522D01*
X390700Y489649D01*
X391413Y488936D01*
X392286Y488432D01*
X393260Y488171D01*
X393549D01*
X393741Y487709D01*
X383679Y477648D01*
X349669D01*
X348949Y477554D01*
X348279Y477276D01*
X347703Y476834D01*
X331523Y460654D01*
X331046Y460527D01*
X330306Y460099D01*
X329701Y459494D01*
X329273Y458754D01*
X329243Y458640D01*
X316482Y445880D01*
X192818D01*
X180057Y458640D01*
X180027Y458754D01*
X179599Y459494D01*
X178994Y460099D01*
X178254Y460527D01*
X177428Y460748D01*
X176572D01*
X175746Y460527D01*
X175006Y460099D01*
X174401Y459494D01*
X173973Y458754D01*
X173752Y457928D01*
Y457072D01*
X173973Y456246D01*
X174401Y455506D01*
X175006Y454901D01*
X175746Y454473D01*
X176572Y454252D01*
X176583D01*
X189701Y441135D01*
X190277Y440693D01*
X190947Y440415D01*
X191666Y440320D01*
X317634D01*
X318353Y440415D01*
X319023Y440693D01*
X319599Y441135D01*
X332717Y454252D01*
X332728D01*
X333554Y454473D01*
X334294Y454901D01*
X334899Y455506D01*
X335327Y456246D01*
X335455Y456723D01*
X348992Y470261D01*
X349439Y470000D01*
X349249Y469293D01*
Y468427D01*
X349473Y467591D01*
X349606Y467361D01*
X342937Y460692D01*
X342728Y460748D01*
X341872D01*
X341046Y460527D01*
X340306Y460099D01*
X339701Y459494D01*
X339273Y458754D01*
X339052Y457928D01*
Y457072D01*
X339273Y456246D01*
X339701Y455506D01*
X340306Y454901D01*
X341046Y454473D01*
X341872Y454252D01*
X342728D01*
X343554Y454473D01*
X344294Y454901D01*
X344899Y455506D01*
X345327Y456246D01*
X345548Y457072D01*
Y457928D01*
X345492Y458137D01*
X352927Y465573D01*
X352969D01*
X353805Y465797D01*
X354555Y466230D01*
X355167Y466842D01*
X355600Y467591D01*
X355824Y468427D01*
Y469293D01*
X355600Y470129D01*
X355167Y470879D01*
X354555Y471491D01*
X354385Y471589D01*
X354519Y472089D01*
X384831D01*
X385550Y472184D01*
X386221Y472461D01*
X386796Y472903D01*
X403977Y490083D01*
X404419Y490659D01*
X404696Y491329D01*
X404791Y492049D01*
Y494452D01*
X408510Y498171D01*
X408772D01*
X409746Y498432D01*
X410619Y498936D01*
X411332Y499649D01*
X411836Y500522D01*
X412097Y501496D01*
Y502504D01*
X411932Y503117D01*
X412381Y503375D01*
X414504Y501252D01*
X414700Y500522D01*
X415204Y499649D01*
X415917Y498936D01*
X416790Y498432D01*
X417764Y498171D01*
X418772D01*
X419746Y498432D01*
X420619Y498936D01*
X421332Y499649D01*
X421836Y500522D01*
X422096Y501496D01*
Y502504D01*
X421836Y503478D01*
X421332Y504351D01*
X420619Y505064D01*
X419746Y505568D01*
X418772Y505829D01*
X417790D01*
X413855Y509763D01*
X413280Y510205D01*
X412609Y510482D01*
X411890Y510577D01*
X367197D01*
X366478Y510482D01*
X365807Y510205D01*
X365232Y509763D01*
X357513Y502044D01*
X357013Y502251D01*
X357013Y502442D01*
Y506013D01*
X361677Y510676D01*
X362068Y511262D01*
X362206Y511954D01*
Y528906D01*
X362333Y528980D01*
X362919Y529566D01*
X363334Y530284D01*
X363549Y531085D01*
Y531915D01*
X363334Y532716D01*
X362919Y533434D01*
X362333Y534020D01*
X361615Y534435D01*
X360814Y534650D01*
D02*
G37*
G36*
X418772Y495829D02*
X417764D01*
X416790Y495568D01*
X415917Y495064D01*
X415204Y494351D01*
X414700Y493478D01*
X414439Y492504D01*
Y491496D01*
X414700Y490522D01*
X415204Y489649D01*
X415917Y488936D01*
X416790Y488432D01*
X417764Y488171D01*
X418772D01*
X419746Y488432D01*
X420619Y488936D01*
X421332Y489649D01*
X421836Y490522D01*
X422096Y491496D01*
Y492504D01*
X421836Y493478D01*
X421332Y494351D01*
X420619Y495064D01*
X419746Y495568D01*
X418772Y495829D01*
D02*
G37*
G36*
X384268D02*
X383260D01*
X382286Y495568D01*
X381413Y495064D01*
X380700Y494351D01*
X380196Y493478D01*
X379935Y492504D01*
Y491496D01*
X380196Y490522D01*
X380700Y489649D01*
X381413Y488936D01*
X382286Y488432D01*
X383260Y488171D01*
X384268D01*
X385242Y488432D01*
X386115Y488936D01*
X386828Y489649D01*
X387332Y490522D01*
X387593Y491496D01*
Y492504D01*
X387332Y493478D01*
X386828Y494351D01*
X386115Y495064D01*
X385242Y495568D01*
X384268Y495829D01*
D02*
G37*
G36*
X303915Y491596D02*
X303085D01*
X302284Y491381D01*
X301566Y490967D01*
X300980Y490380D01*
X300565Y489662D01*
X300350Y488861D01*
Y488032D01*
X300565Y487231D01*
X300980Y486513D01*
X301566Y485926D01*
X302284Y485511D01*
X303085Y485297D01*
X303915D01*
X304716Y485511D01*
X305434Y485926D01*
X306020Y486513D01*
X306435Y487231D01*
X306650Y488032D01*
Y488861D01*
X306435Y489662D01*
X306020Y490380D01*
X305434Y490967D01*
X304716Y491381D01*
X303915Y491596D01*
D02*
G37*
G36*
X342374Y483453D02*
X336468D01*
Y477547D01*
X342374D01*
Y483453D01*
D02*
G37*
G36*
X302444Y471551D02*
X301641D01*
X300865Y471343D01*
X300169Y470942D01*
X299601Y470373D01*
X299199Y469678D01*
X298991Y468902D01*
Y468098D01*
X299199Y467322D01*
X299601Y466627D01*
X300169Y466058D01*
X300865Y465657D01*
X301641Y465449D01*
X302444D01*
X303220Y465657D01*
X303916Y466058D01*
X304484Y466627D01*
X304886Y467322D01*
X305094Y468098D01*
Y468902D01*
X304886Y469678D01*
X304484Y470373D01*
X303916Y470942D01*
X303220Y471343D01*
X302444Y471551D01*
D02*
G37*
G36*
X282759D02*
X281956D01*
X281180Y471343D01*
X280484Y470942D01*
X279916Y470373D01*
X279514Y469678D01*
X279306Y468902D01*
Y468098D01*
X279514Y467322D01*
X279916Y466627D01*
X280484Y466058D01*
X281180Y465657D01*
X281956Y465449D01*
X282759D01*
X283535Y465657D01*
X284231Y466058D01*
X284799Y466627D01*
X285201Y467322D01*
X285409Y468098D01*
Y468902D01*
X285201Y469678D01*
X284799Y470373D01*
X284231Y470942D01*
X283535Y471343D01*
X282759Y471551D01*
D02*
G37*
G36*
X166244D02*
X165441D01*
X164665Y471343D01*
X163969Y470942D01*
X163401Y470373D01*
X162999Y469678D01*
X162791Y468902D01*
Y468098D01*
X162999Y467322D01*
X163401Y466627D01*
X163969Y466058D01*
X164665Y465657D01*
X165441Y465449D01*
X166244D01*
X167020Y465657D01*
X167716Y466058D01*
X168284Y466627D01*
X168686Y467322D01*
X168894Y468098D01*
Y468902D01*
X168686Y469678D01*
X168284Y470373D01*
X167716Y470942D01*
X167020Y471343D01*
X166244Y471551D01*
D02*
G37*
G36*
X257015Y469311D02*
X256185D01*
X255384Y469096D01*
X254666Y468682D01*
X254080Y468095D01*
X253665Y467377D01*
X253450Y466576D01*
Y465747D01*
X253665Y464946D01*
X254080Y464227D01*
X254666Y463641D01*
X255384Y463226D01*
X256185Y463012D01*
X257015D01*
X257816Y463226D01*
X258534Y463641D01*
X259120Y464227D01*
X259535Y464946D01*
X259750Y465747D01*
Y466576D01*
X259535Y467377D01*
X259120Y468095D01*
X258534Y468682D01*
X257816Y469096D01*
X257015Y469311D01*
D02*
G37*
G36*
X271016Y469311D02*
X269984D01*
X268988Y469044D01*
X268095Y468528D01*
X267365Y467799D01*
X266850Y466906D01*
X266583Y465909D01*
Y464878D01*
X266850Y463882D01*
X267365Y462989D01*
X268095Y462259D01*
X268988Y461743D01*
X269984Y461477D01*
X271016D01*
X272012Y461743D01*
X272905Y462259D01*
X273635Y462989D01*
X274150Y463882D01*
X274417Y464878D01*
Y465909D01*
X274150Y466906D01*
X273635Y467799D01*
X272905Y468528D01*
X272012Y469044D01*
X271016Y469311D01*
D02*
G37*
G36*
X242616D02*
X241584D01*
X240588Y469044D01*
X239695Y468528D01*
X238965Y467799D01*
X238450Y466906D01*
X238183Y465909D01*
Y464878D01*
X238450Y463882D01*
X238965Y462989D01*
X239695Y462259D01*
X240588Y461743D01*
X241584Y461477D01*
X242616D01*
X243612Y461743D01*
X244505Y462259D01*
X245235Y462989D01*
X245750Y463882D01*
X246017Y464878D01*
Y465909D01*
X245750Y466906D01*
X245235Y467799D01*
X244505Y468528D01*
X243612Y469044D01*
X242616Y469311D01*
D02*
G37*
G36*
X109775D02*
X108744D01*
X107748Y469044D01*
X106854Y468528D01*
X106125Y467799D01*
X105609Y466906D01*
X105342Y465909D01*
Y464878D01*
X105609Y463882D01*
X106125Y462989D01*
X106854Y462259D01*
X107748Y461743D01*
X108744Y461477D01*
X109775D01*
X110772Y461743D01*
X111665Y462259D01*
X112394Y462989D01*
X112910Y463882D01*
X113177Y464878D01*
Y465909D01*
X112910Y466906D01*
X112394Y467799D01*
X111665Y468528D01*
X110772Y469044D01*
X109775Y469311D01*
D02*
G37*
G36*
X352728Y460748D02*
X351872D01*
X351046Y460527D01*
X350306Y460099D01*
X349701Y459494D01*
X349273Y458754D01*
X349052Y457928D01*
Y457072D01*
X349273Y456246D01*
X349701Y455506D01*
X350306Y454901D01*
X351046Y454473D01*
X351872Y454252D01*
X352728D01*
X353554Y454473D01*
X354294Y454901D01*
X354899Y455506D01*
X355327Y456246D01*
X355548Y457072D01*
Y457928D01*
X355327Y458754D01*
X354899Y459494D01*
X354294Y460099D01*
X353554Y460527D01*
X352728Y460748D01*
D02*
G37*
G36*
X292728D02*
X291872D01*
X291046Y460527D01*
X290306Y460099D01*
X289701Y459494D01*
X289273Y458754D01*
X289052Y457928D01*
Y457072D01*
X289273Y456246D01*
X289701Y455506D01*
X290306Y454901D01*
X291046Y454473D01*
X291872Y454252D01*
X292728D01*
X293554Y454473D01*
X294294Y454901D01*
X294899Y455506D01*
X295327Y456246D01*
X295548Y457072D01*
Y457928D01*
X295327Y458754D01*
X294899Y459494D01*
X294294Y460099D01*
X293554Y460527D01*
X292728Y460748D01*
D02*
G37*
G36*
X217428D02*
X216572D01*
X215746Y460527D01*
X215006Y460099D01*
X214401Y459494D01*
X213973Y458754D01*
X213752Y457928D01*
Y457072D01*
X213973Y456246D01*
X214401Y455506D01*
X215006Y454901D01*
X215746Y454473D01*
X216572Y454252D01*
X217428D01*
X218254Y454473D01*
X218994Y454901D01*
X219599Y455506D01*
X220027Y456246D01*
X220248Y457072D01*
Y457928D01*
X220027Y458754D01*
X219599Y459494D01*
X218994Y460099D01*
X218254Y460527D01*
X217428Y460748D01*
D02*
G37*
G36*
X204974Y483453D02*
X199068D01*
Y477547D01*
X200215D01*
Y462479D01*
X200352Y461788D01*
X200744Y461201D01*
X203808Y458137D01*
X203752Y457928D01*
Y457072D01*
X203973Y456246D01*
X204401Y455506D01*
X205006Y454901D01*
X205746Y454473D01*
X206572Y454252D01*
X207428D01*
X208254Y454473D01*
X208994Y454901D01*
X209599Y455506D01*
X210027Y456246D01*
X210248Y457072D01*
Y457928D01*
X210027Y458754D01*
X209599Y459494D01*
X208994Y460099D01*
X208254Y460527D01*
X207428Y460748D01*
X206572D01*
X206363Y460692D01*
X203828Y463227D01*
Y477547D01*
X204974D01*
Y483453D01*
D02*
G37*
G36*
X157428Y460748D02*
X156572D01*
X155746Y460527D01*
X155006Y460099D01*
X154401Y459494D01*
X153973Y458754D01*
X153752Y457928D01*
Y457072D01*
X153973Y456246D01*
X154401Y455506D01*
X155006Y454901D01*
X155746Y454473D01*
X156572Y454252D01*
X157428D01*
X158254Y454473D01*
X158994Y454901D01*
X159599Y455506D01*
X160027Y456246D01*
X160248Y457072D01*
Y457928D01*
X160027Y458754D01*
X159599Y459494D01*
X158994Y460099D01*
X158254Y460527D01*
X157428Y460748D01*
D02*
G37*
G36*
X352728Y430748D02*
X351872D01*
X351046Y430527D01*
X350306Y430099D01*
X349701Y429494D01*
X349273Y428754D01*
X349052Y427928D01*
Y427072D01*
X349273Y426246D01*
X349701Y425506D01*
X350306Y424901D01*
X351046Y424473D01*
X351872Y424252D01*
X352728D01*
X353554Y424473D01*
X354294Y424901D01*
X354899Y425506D01*
X355327Y426246D01*
X355548Y427072D01*
Y427928D01*
X355327Y428754D01*
X354899Y429494D01*
X354294Y430099D01*
X353554Y430527D01*
X352728Y430748D01*
D02*
G37*
G36*
X342728D02*
X341872D01*
X341046Y430527D01*
X340306Y430099D01*
X339701Y429494D01*
X339273Y428754D01*
X339052Y427928D01*
Y427072D01*
X339273Y426246D01*
X339701Y425506D01*
X340306Y424901D01*
X341046Y424473D01*
X341872Y424252D01*
X342728D01*
X343554Y424473D01*
X344294Y424901D01*
X344899Y425506D01*
X345327Y426246D01*
X345548Y427072D01*
Y427928D01*
X345327Y428754D01*
X344899Y429494D01*
X344294Y430099D01*
X343554Y430527D01*
X342728Y430748D01*
D02*
G37*
G36*
X332728D02*
X331872D01*
X331046Y430527D01*
X330306Y430099D01*
X329701Y429494D01*
X329273Y428754D01*
X329052Y427928D01*
Y427072D01*
X329273Y426246D01*
X329701Y425506D01*
X330306Y424901D01*
X331046Y424473D01*
X331872Y424252D01*
X332728D01*
X333554Y424473D01*
X334294Y424901D01*
X334899Y425506D01*
X335327Y426246D01*
X335548Y427072D01*
Y427928D01*
X335327Y428754D01*
X334899Y429494D01*
X334294Y430099D01*
X333554Y430527D01*
X332728Y430748D01*
D02*
G37*
G36*
X322728D02*
X321872D01*
X321046Y430527D01*
X320306Y430099D01*
X319701Y429494D01*
X319273Y428754D01*
X319052Y427928D01*
Y427072D01*
X319273Y426246D01*
X319701Y425506D01*
X320306Y424901D01*
X321046Y424473D01*
X321872Y424252D01*
X322728D01*
X323554Y424473D01*
X324294Y424901D01*
X324899Y425506D01*
X325327Y426246D01*
X325548Y427072D01*
Y427928D01*
X325327Y428754D01*
X324899Y429494D01*
X324294Y430099D01*
X323554Y430527D01*
X322728Y430748D01*
D02*
G37*
G36*
X113177Y428524D02*
X105342D01*
Y420689D01*
X113177D01*
Y428524D01*
D02*
G37*
G36*
X257015Y426004D02*
X256185D01*
X255384Y425789D01*
X254666Y425375D01*
X254080Y424788D01*
X253665Y424070D01*
X253450Y423269D01*
Y422440D01*
X253665Y421639D01*
X254080Y420921D01*
X254666Y420334D01*
X255384Y419919D01*
X256185Y419705D01*
X257015D01*
X257816Y419919D01*
X258534Y420334D01*
X259120Y420921D01*
X259535Y421639D01*
X259750Y422440D01*
Y423269D01*
X259535Y424070D01*
X259120Y424788D01*
X258534Y425375D01*
X257816Y425789D01*
X257015Y426004D01*
D02*
G37*
G36*
X261535Y409248D02*
X253465D01*
Y408531D01*
X244895D01*
X244365Y408837D01*
X243564Y409051D01*
X242735D01*
X241934Y408837D01*
X241404Y408531D01*
X230746D01*
X230216Y408837D01*
X229415Y409051D01*
X228585D01*
X227784Y408837D01*
X227066Y408422D01*
X226480Y407835D01*
X226065Y407117D01*
X225850Y406316D01*
Y405487D01*
X226065Y404686D01*
X226480Y403968D01*
X227066Y403381D01*
X227784Y402967D01*
X228585Y402752D01*
X229415D01*
X230216Y402967D01*
X230224Y402971D01*
X241926D01*
X241934Y402967D01*
X242735Y402752D01*
X243564D01*
X244365Y402967D01*
X244373Y402971D01*
X253465D01*
Y401177D01*
X261535D01*
Y409248D01*
D02*
G37*
G36*
X195150Y392046D02*
X193250D01*
X191386Y391675D01*
X189631Y390948D01*
X188051Y389892D01*
X186708Y388549D01*
X185652Y386969D01*
X184925Y385213D01*
X184554Y383350D01*
Y381450D01*
X184925Y379587D01*
X185652Y377831D01*
X186708Y376251D01*
X188051Y374908D01*
X189631Y373852D01*
X191386Y373125D01*
X193250Y372754D01*
X195150D01*
X197013Y373125D01*
X198769Y373852D01*
X200349Y374908D01*
X201692Y376251D01*
X202748Y377831D01*
X203475Y379587D01*
X203846Y381450D01*
Y383350D01*
X203475Y385213D01*
X202748Y386969D01*
X201692Y388549D01*
X200349Y389892D01*
X198769Y390948D01*
X197013Y391675D01*
X195150Y392046D01*
D02*
G37*
G36*
X426431Y367417D02*
X425369D01*
X424342Y367142D01*
X423422Y366611D01*
X422973Y366161D01*
X412750D01*
X412030Y366067D01*
X411360Y365789D01*
X411283Y365730D01*
X410534Y365529D01*
X409815Y365115D01*
X409229Y364528D01*
X408814Y363810D01*
X408600Y363009D01*
Y362180D01*
X408814Y361379D01*
X409229Y360661D01*
X409815Y360074D01*
X410534Y359659D01*
X411335Y359445D01*
X412164D01*
X412965Y359659D01*
X413683Y360074D01*
X414211Y360602D01*
X419549D01*
X419826Y360186D01*
X419778Y360071D01*
X419684Y359351D01*
Y355667D01*
X416381D01*
Y353999D01*
X415881Y353900D01*
X415787Y354127D01*
X414872Y355319D01*
X413679Y356235D01*
X412290Y356810D01*
X410800Y357006D01*
X409310Y356810D01*
X407921Y356235D01*
X406729Y355319D01*
X405814Y354127D01*
X405238Y352738D01*
X405042Y351248D01*
Y340991D01*
X396728Y332678D01*
X395813Y331485D01*
X395238Y330097D01*
X395042Y328606D01*
Y315965D01*
X395238Y314474D01*
X395279Y314375D01*
X384483Y303579D01*
X362131D01*
X361862Y303734D01*
X361061Y303949D01*
X360232D01*
X359431Y303734D01*
X358713Y303320D01*
X358126Y302733D01*
X357711Y302015D01*
X357497Y301214D01*
Y300384D01*
X357711Y299584D01*
X358126Y298865D01*
X358713Y298279D01*
X359431Y297864D01*
X359731Y297784D01*
X374580Y282934D01*
X375156Y282493D01*
X375826Y282215D01*
X376546Y282120D01*
X380846D01*
X381201Y281765D01*
X382094Y281250D01*
X383091Y280983D01*
X384122D01*
X385118Y281250D01*
X386012Y281765D01*
X386741Y282495D01*
X387257Y283388D01*
X387524Y284384D01*
Y285416D01*
X387257Y286412D01*
X386741Y287305D01*
X386012Y288035D01*
X385118Y288550D01*
X384122Y288817D01*
X383091D01*
X382094Y288550D01*
X381201Y288035D01*
X380846Y287680D01*
X377697D01*
X367819Y297558D01*
X368010Y298020D01*
X385635D01*
X386354Y298114D01*
X387024Y298392D01*
X387600Y298834D01*
X399211Y310444D01*
X399310Y310403D01*
X400800Y310207D01*
X402290Y310403D01*
X403679Y310978D01*
X404174Y311358D01*
X405406D01*
Y312590D01*
X405787Y313086D01*
X406362Y314474D01*
X406558Y315965D01*
Y326221D01*
X414872Y334535D01*
X415787Y335727D01*
X416362Y337116D01*
X416558Y338606D01*
Y346829D01*
X425219D01*
Y352731D01*
X425243Y352911D01*
Y358200D01*
X426390Y359346D01*
X426431D01*
X427458Y359621D01*
X428378Y360153D01*
X429129Y360904D01*
X429660Y361824D01*
X429935Y362850D01*
Y363913D01*
X429660Y364939D01*
X429129Y365860D01*
X428378Y366611D01*
X427458Y367142D01*
X426431Y367417D01*
D02*
G37*
G36*
X272811Y305516D02*
X264977D01*
Y297681D01*
X272811D01*
Y297991D01*
X282417D01*
X282722Y297814D01*
X283498Y297606D01*
X284302D01*
X285078Y297814D01*
X285773Y298216D01*
X286342Y298784D01*
X286743Y299480D01*
X286951Y300256D01*
Y301059D01*
X286743Y301835D01*
X286342Y302531D01*
X285773Y303099D01*
X285078Y303501D01*
X284302Y303709D01*
X283498D01*
X282907Y303550D01*
X272811D01*
Y305516D01*
D02*
G37*
G36*
X297561Y303850D02*
X296732D01*
X295931Y303635D01*
X295213Y303220D01*
X294626Y302634D01*
X294211Y301916D01*
X293997Y301115D01*
Y300285D01*
X294211Y299484D01*
X294626Y298766D01*
X295213Y298180D01*
X295931Y297765D01*
X296732Y297550D01*
X297561D01*
X298362Y297765D01*
X299080Y298180D01*
X299667Y298766D01*
X300081Y299484D01*
X300296Y300285D01*
Y301115D01*
X300081Y301916D01*
X299667Y302634D01*
X299080Y303220D01*
X298362Y303635D01*
X297561Y303850D01*
D02*
G37*
G36*
X404368Y303949D02*
X403539D01*
X402738Y303734D01*
X402020Y303320D01*
X401433Y302733D01*
X401019Y302015D01*
X400804Y301214D01*
Y300384D01*
X401019Y299584D01*
X401433Y298865D01*
X402020Y298279D01*
X402738Y297864D01*
X403539Y297650D01*
X404368D01*
X405169Y297864D01*
X405438Y298020D01*
X410191D01*
Y296323D01*
X410285Y295604D01*
X410563Y294933D01*
X411005Y294358D01*
X420476Y284886D01*
Y280983D01*
X428311D01*
Y288817D01*
X424407D01*
X415750Y297475D01*
Y299806D01*
X415909Y300397D01*
Y301201D01*
X415701Y301977D01*
X415299Y302673D01*
X414731Y303241D01*
X414035Y303643D01*
X413259Y303850D01*
X412456D01*
X411680Y303643D01*
X411570Y303579D01*
X405438D01*
X405169Y303734D01*
X404368Y303949D01*
D02*
G37*
G36*
X284791Y288090D02*
X283573D01*
X282396Y287774D01*
X281341Y287165D01*
X280480Y286304D01*
X279871Y285249D01*
X279556Y284073D01*
Y282855D01*
X279871Y281678D01*
X280480Y280623D01*
X281341Y279762D01*
X282396Y279153D01*
X283573Y278838D01*
X284791D01*
X285967Y279153D01*
X287022Y279762D01*
X287883Y280623D01*
X288492Y281678D01*
X288808Y282855D01*
Y284073D01*
X288492Y285249D01*
X287883Y286304D01*
X287022Y287165D01*
X285967Y287774D01*
X284791Y288090D01*
D02*
G37*
G36*
X165116Y294510D02*
X164084D01*
X163088Y294243D01*
X162195Y293728D01*
X161465Y292998D01*
X160950Y292105D01*
X160683Y291109D01*
Y290607D01*
X152898Y282822D01*
X149464D01*
Y283586D01*
X142378D01*
Y276499D01*
X149464D01*
Y277263D01*
X151206D01*
X159535Y268934D01*
X160110Y268493D01*
X160781Y268215D01*
X161500Y268120D01*
X183349D01*
X202274Y249195D01*
Y235985D01*
X202119Y235716D01*
X201904Y234915D01*
Y234085D01*
X202119Y233284D01*
X202533Y232566D01*
X203120Y231980D01*
X203838Y231565D01*
X204639Y231350D01*
X205468D01*
X206269Y231565D01*
X206988Y231980D01*
X207574Y232566D01*
X207989Y233284D01*
X208203Y234085D01*
Y234915D01*
X207989Y235716D01*
X207833Y235985D01*
Y250346D01*
X207739Y251066D01*
X207461Y251736D01*
X207019Y252312D01*
X186466Y272866D01*
X185890Y273307D01*
X185219Y273585D01*
X184500Y273680D01*
X162651D01*
X157135Y279197D01*
X164600Y286662D01*
X169764Y281498D01*
X170339Y281056D01*
X171010Y280779D01*
X171729Y280684D01*
X180681D01*
X180717Y280623D01*
X181578Y279762D01*
X182633Y279153D01*
X183809Y278838D01*
X185027D01*
X186204Y279153D01*
X187259Y279762D01*
X188120Y280623D01*
X188729Y281678D01*
X189044Y282855D01*
Y284073D01*
X188729Y285249D01*
X188120Y286304D01*
X187259Y287165D01*
X186204Y287774D01*
X185027Y288090D01*
X183809D01*
X182633Y287774D01*
X181578Y287165D01*
X180717Y286304D01*
X180681Y286244D01*
X172881D01*
X168517Y290607D01*
Y291109D01*
X168250Y292105D01*
X167735Y292998D01*
X167005Y293728D01*
X166112Y294243D01*
X165116Y294510D01*
D02*
G37*
G36*
X477633Y535887D02*
X476767D01*
X475931Y535663D01*
X475181Y535231D01*
X474569Y534619D01*
X474137Y533869D01*
X473913Y533033D01*
Y532167D01*
X474137Y531331D01*
X474569Y530582D01*
X475181Y529969D01*
X475931Y529537D01*
X476767Y529313D01*
X476994D01*
Y227984D01*
X476494Y227833D01*
X475614Y229149D01*
X474271Y230492D01*
X472691Y231548D01*
X470935Y232275D01*
X469928Y232475D01*
Y241952D01*
X471420Y243443D01*
X471811Y244029D01*
X471949Y244721D01*
Y259579D01*
X475064D01*
Y269421D01*
X465221D01*
Y259579D01*
X468336D01*
Y245469D01*
X466845Y243977D01*
X466453Y243391D01*
X466316Y242700D01*
Y232475D01*
X465309Y232275D01*
X463553Y231548D01*
X461973Y230492D01*
X460630Y229149D01*
X460369Y228758D01*
X452253D01*
X451992Y229149D01*
X450649Y230492D01*
X449069Y231548D01*
X447313Y232275D01*
X445450Y232646D01*
X443550D01*
X441686Y232275D01*
X439931Y231548D01*
X438351Y230492D01*
X437008Y229149D01*
X436747Y228758D01*
X267681D01*
X267521Y229231D01*
X267947Y229558D01*
X288253Y249865D01*
X289168Y251057D01*
X289743Y252446D01*
X289940Y253936D01*
X289743Y255427D01*
X289168Y256815D01*
X288253Y258008D01*
X287827Y258335D01*
X287988Y258808D01*
X291517D01*
X293596Y256729D01*
X294789Y255814D01*
X296178Y255238D01*
X297668Y255042D01*
X316800D01*
X318290Y255238D01*
X319679Y255814D01*
X320871Y256729D01*
X321786Y257921D01*
X322362Y259310D01*
X322558Y260800D01*
X322362Y262290D01*
X321786Y263679D01*
X320871Y264872D01*
X319679Y265787D01*
X318290Y266362D01*
X317162Y266510D01*
X317195Y267010D01*
X317839D01*
X318261Y267094D01*
X318619Y267334D01*
X318859Y267692D01*
X318943Y268114D01*
Y269886D01*
X318859Y270308D01*
X318747Y270475D01*
X319243Y271121D01*
X319818Y272510D01*
X320014Y274000D01*
Y303966D01*
X320476Y304158D01*
X325899Y298734D01*
X326475Y298293D01*
X327145Y298015D01*
X327865Y297920D01*
X338969D01*
X339238Y297765D01*
X340039Y297550D01*
X340868D01*
X341669Y297765D01*
X342223Y298085D01*
X342530Y297685D01*
X338323Y293477D01*
X337931Y292891D01*
X337794Y292200D01*
Y276348D01*
X337417Y275972D01*
X337327Y275990D01*
X330161D01*
X329739Y275906D01*
X329381Y275666D01*
X329141Y275308D01*
X329057Y274886D01*
Y273114D01*
X329141Y272692D01*
X329381Y272334D01*
X329739Y272094D01*
X330161Y272010D01*
X337327D01*
X337749Y272094D01*
X337898Y272194D01*
X338000D01*
X338691Y272331D01*
X339277Y272723D01*
X340877Y274323D01*
X341269Y274909D01*
X341406Y275600D01*
Y282283D01*
X348511D01*
Y286186D01*
X352966Y290641D01*
X353407Y291217D01*
X353685Y291887D01*
X353780Y292606D01*
Y302870D01*
X353843Y302980D01*
X354051Y303756D01*
Y304559D01*
X353843Y305335D01*
X353442Y306031D01*
X352873Y306599D01*
X352178Y307001D01*
X351402Y307209D01*
X350598D01*
X349822Y307001D01*
X349206Y306645D01*
X348706Y306810D01*
Y327352D01*
X391548Y370194D01*
X415800D01*
X416491Y370331D01*
X417077Y370723D01*
X450177Y403823D01*
X450569Y404409D01*
X450706Y405100D01*
Y497116D01*
X450569Y497807D01*
X450177Y498393D01*
X447682Y500889D01*
X447845Y501496D01*
Y502504D01*
X447584Y503478D01*
X447080Y504351D01*
X446367Y505064D01*
X445494Y505568D01*
X444520Y505829D01*
X443512D01*
X442538Y505568D01*
X441665Y505064D01*
X440952Y504351D01*
X440448Y503478D01*
X440187Y502504D01*
Y501496D01*
X440448Y500522D01*
X440952Y499649D01*
X441665Y498936D01*
X442538Y498432D01*
X443512Y498171D01*
X444520D01*
X445127Y498334D01*
X447094Y496368D01*
Y495044D01*
X446594Y494837D01*
X446367Y495064D01*
X445494Y495568D01*
X444520Y495829D01*
X443512D01*
X442538Y495568D01*
X441665Y495064D01*
X440952Y494351D01*
X440448Y493478D01*
X440187Y492504D01*
Y491496D01*
X440448Y490522D01*
X440952Y489649D01*
X441665Y488936D01*
X442209Y488622D01*
Y465021D01*
X426767Y449579D01*
X419479D01*
Y439736D01*
X429321D01*
Y447024D01*
X445293Y462996D01*
X445685Y463582D01*
X445822Y464273D01*
Y488622D01*
X446367Y488936D01*
X446594Y489163D01*
X447094Y488956D01*
Y405848D01*
X415052Y373806D01*
X390800D01*
X390109Y373669D01*
X389523Y373277D01*
X345623Y329377D01*
X345231Y328791D01*
X345094Y328100D01*
Y300248D01*
X343469Y298623D01*
X343069Y298931D01*
X343389Y299484D01*
X343603Y300285D01*
Y301115D01*
X343389Y301916D01*
X342974Y302634D01*
X342388Y303220D01*
X341669Y303635D01*
X340868Y303850D01*
X340039D01*
X339238Y303635D01*
X338969Y303480D01*
X329016D01*
X320014Y312482D01*
Y314309D01*
X319818Y315799D01*
X319243Y317188D01*
X318358Y318340D01*
Y326221D01*
X326672Y334535D01*
X327587Y335727D01*
X328162Y337116D01*
X328358Y338606D01*
Y346829D01*
X337019D01*
Y352731D01*
X337043Y352911D01*
Y358200D01*
X338309Y359466D01*
X339258Y359720D01*
X340178Y360251D01*
X340929Y361003D01*
X341460Y361923D01*
X341735Y362949D01*
Y364012D01*
X341460Y365038D01*
X340929Y365958D01*
X340178Y366709D01*
X339258Y367241D01*
X338231Y367516D01*
X337169D01*
X336142Y367241D01*
X335222Y366709D01*
X334773Y366260D01*
X324589D01*
X324589Y366260D01*
X324588Y366260D01*
X324230Y366213D01*
X323869Y366165D01*
X323869Y366165D01*
X323869Y366165D01*
X323563Y366038D01*
X323199Y365888D01*
X323199Y365888D01*
X323199Y365887D01*
X322938Y365688D01*
X322757Y365548D01*
X322124Y365379D01*
X321405Y364964D01*
X320819Y364378D01*
X320404Y363660D01*
X320190Y362858D01*
Y362029D01*
X320404Y361228D01*
X320819Y360510D01*
X321405Y359924D01*
X322124Y359509D01*
X322924Y359294D01*
X323754D01*
X324555Y359509D01*
X325273Y359924D01*
X325859Y360510D01*
X325970Y360701D01*
X331389D01*
X331667Y360285D01*
X331578Y360071D01*
X331484Y359351D01*
Y355667D01*
X328181D01*
Y353999D01*
X327681Y353900D01*
X327587Y354127D01*
X326672Y355319D01*
X325479Y356235D01*
X324090Y356810D01*
X322600Y357006D01*
X321110Y356810D01*
X319721Y356235D01*
X318529Y355319D01*
X317614Y354127D01*
X317038Y352738D01*
X316842Y351248D01*
Y340991D01*
X308528Y332678D01*
X307613Y331485D01*
X307038Y330097D01*
X306842Y328606D01*
Y315965D01*
X307038Y314474D01*
X307613Y313086D01*
X307994Y312590D01*
Y311358D01*
X308498D01*
Y284716D01*
X308036Y284525D01*
X307545Y285016D01*
X307724Y285684D01*
Y286716D01*
X307457Y287712D01*
X306941Y288605D01*
X306212Y289335D01*
X305318Y289850D01*
X304322Y290117D01*
X303291D01*
X302294Y289850D01*
X301401Y289335D01*
X300672Y288605D01*
X300156Y287712D01*
X299889Y286716D01*
Y285684D01*
X300156Y284688D01*
X300672Y283795D01*
X301401Y283065D01*
X302294Y282550D01*
X303291Y282283D01*
X304322D01*
X304990Y282462D01*
X308394Y279058D01*
Y277096D01*
X307613Y276079D01*
X307038Y274690D01*
X306842Y273200D01*
X307038Y271710D01*
X307613Y270321D01*
X308528Y269128D01*
X309228Y268428D01*
X309569Y268167D01*
Y268114D01*
X309653Y267692D01*
X309893Y267334D01*
X310251Y267094D01*
X310434Y267058D01*
X310385Y266558D01*
X300053D01*
X297973Y268638D01*
X296781Y269553D01*
X295392Y270128D01*
X293902Y270324D01*
X274969D01*
X273479Y270128D01*
X272090Y269553D01*
X270898Y268638D01*
X260268Y258008D01*
X259353Y256815D01*
X258778Y255426D01*
X258581Y253936D01*
X258778Y252446D01*
X259353Y251057D01*
X260268Y249865D01*
X261460Y248950D01*
X262849Y248375D01*
X264339Y248178D01*
X265830Y248375D01*
X267218Y248950D01*
X268411Y249865D01*
X277354Y258808D01*
X280376D01*
X280537Y258335D01*
X280110Y258008D01*
X261491Y239388D01*
X235630D01*
X234139Y239192D01*
X232751Y238616D01*
X231558Y237702D01*
X211382Y217525D01*
X202274D01*
X201471Y218571D01*
X191672Y228372D01*
X190479Y229287D01*
X189090Y229862D01*
X187600Y230058D01*
X141621D01*
X140130Y229862D01*
X138742Y229287D01*
X137549Y228372D01*
X127329Y218151D01*
X126414Y216958D01*
X125838Y215570D01*
X125642Y214079D01*
Y198060D01*
X125838Y196570D01*
X126414Y195181D01*
X127329Y193989D01*
X128521Y193074D01*
X129140Y192817D01*
X129210Y192247D01*
X128238Y191502D01*
X127329Y190592D01*
X126414Y189399D01*
X125838Y188011D01*
X125642Y186520D01*
Y172741D01*
Y168667D01*
X125838Y167177D01*
X126414Y165788D01*
X127329Y164596D01*
X128521Y163681D01*
X129910Y163106D01*
X131400Y162909D01*
X132890Y163106D01*
X134279Y163681D01*
X135471Y164596D01*
X136387Y165788D01*
X136962Y167177D01*
X137158Y168667D01*
Y172741D01*
Y181672D01*
X138097D01*
X139587Y181869D01*
X140976Y182444D01*
X142168Y183359D01*
X164818Y206009D01*
X178800D01*
X180290Y206205D01*
X181679Y206781D01*
X182871Y207696D01*
X183786Y208888D01*
X184362Y210277D01*
X184558Y211767D01*
X184362Y213257D01*
X183786Y214646D01*
X182871Y215839D01*
X181679Y216754D01*
X180290Y217329D01*
X178800Y217525D01*
X163767D01*
X163100Y217437D01*
X162433Y217525D01*
X160943Y217329D01*
X159554Y216754D01*
X158362Y215839D01*
X135712Y193188D01*
X135206D01*
X135045Y193662D01*
X135471Y193989D01*
X136387Y195181D01*
X136962Y196570D01*
X137158Y198060D01*
Y211694D01*
X144006Y218542D01*
X185215D01*
X191642Y212115D01*
Y211767D01*
X191838Y210277D01*
X192413Y208888D01*
X193328Y207696D01*
X194521Y206781D01*
X195910Y206205D01*
X197400Y206009D01*
X213767D01*
X215257Y206205D01*
X216646Y206781D01*
X217838Y207696D01*
X238015Y227872D01*
X261930D01*
X262091Y227399D01*
X261665Y227071D01*
X261428Y226835D01*
X260513Y225643D01*
X259938Y224254D01*
X259742Y222764D01*
X259938Y221273D01*
X260513Y219885D01*
X261428Y218692D01*
X262621Y217777D01*
X264010Y217202D01*
X265500Y217006D01*
X266990Y217202D01*
X267087Y217242D01*
X436747D01*
X437008Y216851D01*
X438351Y215508D01*
X439931Y214452D01*
X441686Y213725D01*
X443550Y213354D01*
X445450D01*
X447313Y213725D01*
X449069Y214452D01*
X450649Y215508D01*
X451992Y216851D01*
X452253Y217242D01*
X460369D01*
X460630Y216851D01*
X461973Y215508D01*
X463553Y214452D01*
X465309Y213725D01*
X467172Y213354D01*
X469072D01*
X470935Y213725D01*
X472691Y214452D01*
X474271Y215508D01*
X475614Y216851D01*
X476494Y218167D01*
X476994Y218016D01*
Y165553D01*
X476782Y165431D01*
X476169Y164819D01*
X475737Y164069D01*
X475513Y163233D01*
Y162367D01*
X475737Y161531D01*
X476169Y160782D01*
X476782Y160169D01*
X477531Y159737D01*
X478367Y159513D01*
X479233D01*
X480069Y159737D01*
X480819Y160169D01*
X481431Y160782D01*
X481863Y161531D01*
X482087Y162367D01*
Y163233D01*
X481863Y164069D01*
X481431Y164819D01*
X480819Y165431D01*
X480606Y165553D01*
Y531000D01*
X480469Y531691D01*
X480391Y531808D01*
X480487Y532167D01*
Y533033D01*
X480263Y533869D01*
X479831Y534619D01*
X479218Y535231D01*
X478469Y535663D01*
X477633Y535887D01*
D02*
G37*
G36*
X398315Y277803D02*
X397485D01*
X396684Y277589D01*
X395966Y277174D01*
X395380Y276588D01*
X394965Y275869D01*
X394750Y275068D01*
Y274239D01*
X394965Y273438D01*
X395380Y272720D01*
X395966Y272133D01*
X396684Y271719D01*
X397485Y271504D01*
X398315D01*
X399116Y271719D01*
X399834Y272133D01*
X400420Y272720D01*
X400835Y273438D01*
X401050Y274239D01*
Y275068D01*
X400835Y275869D01*
X400420Y276588D01*
X399834Y277174D01*
X399116Y277589D01*
X398315Y277803D01*
D02*
G37*
G36*
X355502Y272494D02*
X354698D01*
X353922Y272286D01*
X353226Y271884D01*
X352658Y271316D01*
X352257Y270620D01*
X352049Y269844D01*
Y269041D01*
X352069Y268966D01*
X348909Y265806D01*
X344843D01*
X344709Y266306D01*
X344818Y266369D01*
X345431Y266982D01*
X345863Y267731D01*
X346087Y268567D01*
Y269433D01*
X345863Y270269D01*
X345431Y271019D01*
X344818Y271631D01*
X344069Y272063D01*
X343233Y272287D01*
X342367D01*
X341531Y272063D01*
X340781Y271631D01*
X340169Y271019D01*
X340047Y270806D01*
X337898D01*
X337749Y270906D01*
X337327Y270990D01*
X330161D01*
X329739Y270906D01*
X329381Y270666D01*
X329141Y270308D01*
X329057Y269886D01*
Y268114D01*
X329141Y267692D01*
X329381Y267334D01*
X329739Y267094D01*
X330161Y267010D01*
X337327D01*
X337749Y267094D01*
X337898Y267194D01*
X340047D01*
X340169Y266982D01*
X340781Y266369D01*
X340891Y266306D01*
X340757Y265806D01*
X337898D01*
X337749Y265906D01*
X337327Y265990D01*
X330161D01*
X329739Y265906D01*
X329381Y265666D01*
X329141Y265308D01*
X329057Y264886D01*
Y263114D01*
X329141Y262692D01*
X329381Y262334D01*
X329739Y262094D01*
X330161Y262010D01*
X337327D01*
X337749Y262094D01*
X337898Y262194D01*
X349657D01*
X350349Y262331D01*
X350935Y262723D01*
X354624Y266411D01*
X354698Y266391D01*
X355502D01*
X356278Y266599D01*
X356974Y267001D01*
X357542Y267569D01*
X357943Y268265D01*
X358151Y269041D01*
Y269844D01*
X357943Y270620D01*
X357542Y271316D01*
X356974Y271884D01*
X356278Y272286D01*
X355502Y272494D01*
D02*
G37*
G36*
X418966Y261943D02*
X418034D01*
X417132Y261702D01*
X416324Y261235D01*
X415665Y260576D01*
X415198Y259768D01*
X414957Y258867D01*
Y257933D01*
X415198Y257032D01*
X415665Y256224D01*
X416324Y255565D01*
X417132Y255098D01*
X418034Y254857D01*
X418966D01*
X419868Y255098D01*
X420676Y255565D01*
X421335Y256224D01*
X421802Y257032D01*
X422043Y257933D01*
Y258867D01*
X421802Y259768D01*
X421335Y260576D01*
X420676Y261235D01*
X419868Y261702D01*
X418966Y261943D01*
D02*
G37*
G36*
X185027Y258562D02*
X183809D01*
X182633Y258247D01*
X181578Y257638D01*
X180717Y256777D01*
X180107Y255722D01*
X179792Y254545D01*
Y254254D01*
X178124Y252585D01*
X168517D01*
Y253723D01*
X160683D01*
Y252585D01*
X147806D01*
X147086Y252491D01*
X146416Y252213D01*
X145840Y251771D01*
X141512Y247443D01*
X138357D01*
Y240357D01*
X145443D01*
Y243512D01*
X148846Y246915D01*
X149157Y246875D01*
X149347Y246357D01*
X149065Y246076D01*
X148598Y245268D01*
X148357Y244367D01*
Y243433D01*
X148598Y242532D01*
X149065Y241724D01*
X149724Y241065D01*
X150532Y240598D01*
X151434Y240357D01*
X151746D01*
X158809Y233293D01*
X158811Y233284D01*
X159226Y232566D01*
X159812Y231980D01*
X160531Y231565D01*
X161332Y231350D01*
X162161D01*
X162962Y231565D01*
X163680Y231980D01*
X164267Y232566D01*
X164681Y233284D01*
X164896Y234085D01*
Y234915D01*
X164681Y235716D01*
X164267Y236434D01*
X163680Y237020D01*
X162962Y237435D01*
X162371Y237593D01*
X155387Y244578D01*
X155202Y245268D01*
X154735Y246076D01*
X154285Y246526D01*
X154492Y247026D01*
X160683D01*
Y245888D01*
X168517D01*
Y247026D01*
X179275D01*
X179995Y247121D01*
X180665Y247398D01*
X181241Y247840D01*
X182943Y249542D01*
X183809Y249310D01*
X185027D01*
X186204Y249625D01*
X187259Y250235D01*
X188120Y251096D01*
X188729Y252151D01*
X189044Y253327D01*
Y254545D01*
X188729Y255722D01*
X188120Y256777D01*
X187259Y257638D01*
X186204Y258247D01*
X185027Y258562D01*
D02*
G37*
G36*
X245106D02*
X243888D01*
X242711Y258247D01*
X241656Y257638D01*
X240795Y256777D01*
X240186Y255722D01*
X239871Y254545D01*
Y253327D01*
X240186Y252151D01*
X240795Y251096D01*
X241656Y250235D01*
X242711Y249625D01*
X243888Y249310D01*
X245106D01*
X246282Y249625D01*
X247337Y250235D01*
X248199Y251096D01*
X248808Y252151D01*
X249123Y253327D01*
Y254545D01*
X248808Y255722D01*
X248199Y256777D01*
X247337Y257638D01*
X246282Y258247D01*
X245106Y258562D01*
D02*
G37*
G36*
X146388Y273743D02*
X145455D01*
X144553Y273502D01*
X143746Y273035D01*
X143086Y272376D01*
X142619Y271568D01*
X142378Y270667D01*
Y270588D01*
X130996Y259206D01*
X130554Y258630D01*
X130277Y257960D01*
X130182Y257240D01*
Y250138D01*
X129965Y249762D01*
X129750Y248961D01*
Y248132D01*
X129965Y247331D01*
X130380Y246613D01*
X130966Y246026D01*
X131684Y245611D01*
X132485Y245397D01*
X133315D01*
X134116Y245611D01*
X134834Y246026D01*
X135420Y246613D01*
X135835Y247331D01*
X136050Y248132D01*
Y248961D01*
X135835Y249762D01*
X135741Y249924D01*
Y256089D01*
X146309Y266657D01*
X146388D01*
X147289Y266898D01*
X148097Y267365D01*
X148757Y268024D01*
X149223Y268832D01*
X149464Y269734D01*
Y270667D01*
X149223Y271568D01*
X148757Y272376D01*
X148097Y273035D01*
X147289Y273502D01*
X146388Y273743D01*
D02*
G37*
G36*
X422043Y251943D02*
X414957D01*
Y244857D01*
X422043D01*
Y251943D01*
D02*
G37*
G36*
X396550Y195346D02*
X394650D01*
X392787Y194975D01*
X391031Y194248D01*
X389451Y193192D01*
X388108Y191849D01*
X387052Y190269D01*
X386325Y188514D01*
X385954Y186650D01*
Y184750D01*
X386325Y182887D01*
X387052Y181131D01*
X388108Y179551D01*
X389451Y178208D01*
X391031Y177152D01*
X392787Y176425D01*
X394650Y176054D01*
X396550D01*
X398413Y176425D01*
X400169Y177152D01*
X401749Y178208D01*
X403092Y179551D01*
X404148Y181131D01*
X404875Y182887D01*
X405246Y184750D01*
Y186650D01*
X404875Y188514D01*
X404148Y190269D01*
X403092Y191849D01*
X401749Y193192D01*
X400169Y194248D01*
X398413Y194975D01*
X396550Y195346D01*
D02*
G37*
G36*
X217684Y174897D02*
X209849D01*
Y167062D01*
X217684D01*
Y174897D01*
D02*
G37*
G36*
X197916D02*
X196884D01*
X195888Y174630D01*
X194995Y174114D01*
X194265Y173385D01*
X193750Y172492D01*
X193483Y171495D01*
Y170464D01*
X193750Y169468D01*
X194265Y168574D01*
X194995Y167845D01*
X195888Y167329D01*
X196884Y167062D01*
X197916D01*
X198912Y167329D01*
X199805Y167845D01*
X200535Y168574D01*
X201050Y169468D01*
X201317Y170464D01*
Y171495D01*
X201050Y172492D01*
X200535Y173385D01*
X199805Y174114D01*
X198912Y174630D01*
X197916Y174897D01*
D02*
G37*
G36*
X179316D02*
X178284D01*
X177288Y174630D01*
X176395Y174114D01*
X175665Y173385D01*
X175150Y172492D01*
X174883Y171495D01*
Y170464D01*
X175150Y169468D01*
X175665Y168574D01*
X176395Y167845D01*
X177288Y167329D01*
X178284Y167062D01*
X179316D01*
X180312Y167329D01*
X181205Y167845D01*
X181935Y168574D01*
X182450Y169468D01*
X182717Y170464D01*
Y171495D01*
X182450Y172492D01*
X181935Y173385D01*
X181205Y174114D01*
X180312Y174630D01*
X179316Y174897D01*
D02*
G37*
G36*
X166351D02*
X158516D01*
Y167062D01*
X166351D01*
Y174897D01*
D02*
G37*
%LPD*%
D16*
X333744Y274000D02*
D03*
Y269000D02*
D03*
Y264000D02*
D03*
Y259000D02*
D03*
X314256D02*
D03*
Y264000D02*
D03*
Y269000D02*
D03*
Y274000D02*
D03*
D20*
X131400Y214079D02*
D03*
Y200300D02*
D03*
Y186520D02*
D03*
Y172741D02*
D03*
D45*
X354568Y495168D02*
X367197Y507797D01*
X411890D01*
X337287Y495168D02*
X354568D01*
X241300Y413900D02*
X301102D01*
X162217Y432717D02*
X222483D01*
X241300Y413900D01*
X411749Y405114D02*
X425900D01*
X334800Y420400D02*
X349299Y405902D01*
X398900Y405114D02*
X411749D01*
X349299Y405902D02*
X397900D01*
X299400Y420400D02*
X334800D01*
X134651Y405751D02*
X162363D01*
X229151D02*
X256962D01*
X152357Y280043D02*
X154050D01*
X145921D02*
X152357D01*
X292300Y427500D02*
X299400Y420400D01*
X323339Y405751D02*
X337162D01*
X301102Y413900D02*
X309175Y405826D01*
X309251Y405751D02*
X323339D01*
X309175Y405826D02*
X309251Y405751D01*
X157000Y427500D02*
X162217Y432717D01*
X163000Y405114D02*
X194614D01*
X217000Y427500D01*
X425900Y362788D02*
Y363382D01*
X411962Y362594D02*
X412750Y363382D01*
X425900D01*
X411749Y362594D02*
X411962D01*
X397900Y405902D02*
X398113D01*
X398900Y405114D01*
X324589Y363480D02*
X337700D01*
X323552Y362444D02*
X324589Y363480D01*
X323339Y362444D02*
X323552D01*
X334263Y352911D02*
Y359351D01*
X332600Y351248D02*
X334263Y352911D01*
Y359351D02*
X337700Y362788D01*
Y363480D01*
X422463Y359351D02*
X425900Y362788D01*
X420800Y351248D02*
X422463Y352911D01*
Y359351D01*
X337162Y405751D02*
X337700Y405213D01*
X243363Y362594D02*
X244249Y363480D01*
X257500D01*
X243150Y362594D02*
X243363D01*
X252500Y358480D02*
X257500Y363480D01*
X252500Y351248D02*
Y358480D01*
X256962Y405751D02*
X257500Y405213D01*
X229000Y405902D02*
X229151Y405751D01*
X148863Y362594D02*
X149650Y363382D01*
X163000D01*
X148650Y362594D02*
X148863D01*
X159000Y351248D02*
Y359382D01*
X163000Y363382D01*
X134500Y405902D02*
X134651Y405751D01*
X162363D02*
X163000Y405114D01*
X360646Y300799D02*
X376546Y284900D01*
X360646Y300799D02*
X385635D01*
X376546Y284900D02*
X383606D01*
X412857Y300799D02*
X412970Y300686D01*
Y296323D02*
X424394Y284900D01*
X412970Y296323D02*
Y300686D01*
X403954Y300799D02*
X412857D01*
X385635D02*
X400800Y315965D01*
X344594Y286200D02*
X351000Y292606D01*
Y304157D01*
X314256Y314309D02*
X327865Y300700D01*
X312600Y315965D02*
X314256Y314309D01*
X327865Y300700D02*
X340454D01*
X269722Y300770D02*
X283787D01*
X268894Y301598D02*
X269722Y300770D01*
X283787D02*
X283900Y300657D01*
X283740Y320343D02*
X283900D01*
X252500Y315965D02*
X279362D01*
X283740Y320343D01*
X228106Y301598D02*
Y301846D01*
X232500Y306240D01*
Y315965D01*
X181624Y296480D02*
X222360D01*
X176506Y301598D02*
X181624Y296480D01*
X176293Y301598D02*
X176506D01*
X227478D02*
X228106D01*
X222360Y296480D02*
X227478Y301598D01*
X183200Y318700D02*
X194843D01*
X166000Y301500D02*
X183200Y318700D01*
X162737D02*
X175157D01*
X160001Y315965D02*
X162737Y318700D01*
X159000Y315965D02*
X160001D01*
X161500Y270900D02*
X184500D01*
X152357Y280043D02*
X161500Y270900D01*
X184500D02*
X205054Y250346D01*
Y234500D02*
Y250346D01*
X152133Y243900D02*
X161533Y234500D01*
X161746D01*
X151900Y243900D02*
X152133D01*
X147806Y249806D02*
X164600D01*
X141900Y243900D02*
X147806Y249806D01*
X164600Y290593D02*
X171729Y283464D01*
X184418D01*
X179275Y249806D02*
X183406Y253936D01*
X184418D01*
X164600Y249806D02*
X179275D01*
X154050Y280043D02*
X164600Y290593D01*
X132900Y248546D02*
X132962Y248608D01*
Y257240D01*
X145921Y270200D01*
X118900Y291854D02*
X132900D01*
X141288Y286735D02*
X156053Y301500D01*
X105100Y259546D02*
X132289Y286735D01*
X141288D01*
X156053Y301500D02*
X166000D01*
X332300Y457500D02*
X349669Y474869D01*
X384831D01*
X205266Y449500D02*
X304034D01*
X197266Y457500D02*
X205266Y449500D01*
X304034D02*
X312034Y457500D01*
X197000D02*
X197266D01*
X312034D02*
X312300D01*
X177266D02*
X191666Y443100D01*
X317634D02*
X332034Y457500D01*
X191666Y443100D02*
X317634D01*
X177000Y457500D02*
X177266D01*
X332034D02*
X332300D01*
X312300D02*
Y470181D01*
X337287Y495168D01*
X411890Y507797D02*
X417687Y502000D01*
X418268D01*
X384831Y474869D02*
X402011Y492049D01*
Y495604D01*
X408268Y501860D01*
Y502000D01*
D46*
X138097Y187430D02*
X162433Y211767D01*
X132310Y187430D02*
X138097D01*
X131400Y172741D02*
Y186520D01*
X132310Y187430D01*
X131400Y168667D02*
Y172741D01*
Y198060D02*
Y214079D01*
X141621Y224300D02*
X187600D01*
X131400Y214079D02*
X141621Y224300D01*
X265736Y223000D02*
X444500D01*
X139000Y330998D02*
X149000Y340998D01*
X312600Y273200D02*
X313300Y272500D01*
X297668Y260800D02*
X316800D01*
X229000Y362594D02*
Y369100D01*
Y354748D02*
Y362594D01*
X105100Y302854D02*
X106454Y301500D01*
X125213D01*
Y302177D02*
X139000Y315965D01*
X125213Y301500D02*
Y302177D01*
X314256Y274000D02*
Y314309D01*
X312600Y315965D02*
Y328606D01*
X293902Y264566D02*
X297668Y260800D01*
X274969Y264566D02*
X293902D01*
X264339Y253936D02*
X274969Y264566D01*
X187600Y224300D02*
X197400Y214500D01*
Y211767D02*
Y214500D01*
X163767Y211767D02*
X178800D01*
X229000Y369100D02*
X236600Y376700D01*
X267034D01*
X229000Y354748D02*
X231624Y352124D01*
X272800Y347100D02*
Y370934D01*
X267034Y376700D02*
X272800Y370934D01*
X252500Y326800D02*
X272800Y347100D01*
X252500Y315965D02*
Y326800D01*
X149000Y340998D02*
Y351248D01*
X139000Y315965D02*
Y330998D01*
X400800Y315965D02*
Y328606D01*
X410800Y338606D01*
Y351248D01*
X322600Y338606D02*
Y351248D01*
X312600Y328606D02*
X322600Y338606D01*
X221792Y326672D02*
X232500Y315965D01*
X149708Y326672D02*
X221792D01*
X232500Y315965D02*
Y328606D01*
X242500Y338606D01*
Y351248D01*
X139000Y315965D02*
X149708Y326672D01*
X244497Y307961D02*
X252500Y315965D01*
X244497Y283464D02*
X264339D01*
X244497D02*
Y307961D01*
X197400Y211767D02*
X213767D01*
X235630Y233630D02*
X263876D01*
X213767Y211767D02*
X235630Y233630D01*
X263876D02*
X284182Y253936D01*
X265500Y222764D02*
X265736Y223000D01*
X444500D02*
X468122D01*
D47*
X126400Y349600D02*
X142400Y333600D01*
X310200Y274000D02*
Y279806D01*
X312600Y273200D02*
Y274000D01*
X311600Y269000D02*
Y272500D01*
X310200Y274000D02*
X312600D01*
X311078Y261078D02*
X314256Y264256D01*
X311078Y261078D02*
X313156Y259000D01*
X316800D02*
Y260800D01*
X202021Y462479D02*
Y480500D01*
Y462479D02*
X207000Y457500D01*
X444016Y464273D02*
Y492000D01*
X424400Y444657D02*
X444016Y464273D01*
X224852Y333600D02*
X242500Y351248D01*
X142400Y333600D02*
X224852D01*
X126400Y349600D02*
Y462013D01*
X122260Y466154D02*
X126400Y462013D01*
X397900Y354148D02*
Y362594D01*
Y354148D02*
X400800Y351248D01*
X432543Y282415D02*
Y300799D01*
Y282415D02*
X450457Y264500D01*
X420800Y312542D02*
Y315965D01*
Y312542D02*
X432543Y300799D01*
X192179Y462679D02*
Y480500D01*
X187000Y457500D02*
X192179Y462679D01*
X434016Y473958D02*
Y492000D01*
X424400Y464343D02*
X434016Y473958D01*
Y492000D02*
X439000Y496984D01*
Y504800D01*
X441600Y507400D01*
X446200D01*
X451700Y501900D01*
Y346865D02*
Y501900D01*
X420800Y315965D02*
X451700Y346865D01*
X309175Y354673D02*
Y362519D01*
Y354673D02*
X312600Y351248D01*
X134500Y355748D02*
Y362594D01*
Y355748D02*
X139000Y351248D01*
X135260Y424606D02*
X146157Y435504D01*
Y468500D01*
X314256Y264000D02*
Y264256D01*
X313156Y259000D02*
X314256D01*
X360399Y511954D02*
Y531500D01*
X353746Y505300D02*
X360399Y511954D01*
X333744Y269000D02*
X342800D01*
X307100Y432700D02*
X312300Y427500D01*
X289200Y432700D02*
X307100D01*
X278000Y421500D02*
X289200Y432700D01*
X329579Y464779D02*
Y480500D01*
X322300Y457500D02*
X329579Y464779D01*
X478800Y162800D02*
Y531000D01*
X477200Y532600D02*
X478800Y531000D01*
X312300Y427500D02*
X320300Y435500D01*
X378400D01*
X427800Y484900D01*
Y495784D01*
X434016Y502000D01*
X355100Y249757D02*
X360900Y255557D01*
Y292000D01*
X355800Y297100D02*
X360900Y292000D01*
X355800Y297100D02*
Y319043D01*
X351000Y323843D02*
X355800Y319043D01*
X444016Y502000D02*
X448900Y497116D01*
Y405100D02*
Y497116D01*
X415800Y372000D02*
X448900Y405100D01*
X390800Y372000D02*
X415800D01*
X346900Y328100D02*
X390800Y372000D01*
X346900Y299500D02*
Y328100D01*
X339600Y292200D02*
X346900Y299500D01*
X339600Y275600D02*
Y292200D01*
X338000Y274000D02*
X339600Y275600D01*
X333744Y274000D02*
X338000D01*
X352536Y467736D02*
Y468860D01*
X342300Y457500D02*
X352536Y467736D01*
X333744Y264000D02*
X349657D01*
X355100Y269443D01*
X323746Y515300D02*
X328000Y511046D01*
Y491170D02*
Y511046D01*
X308500Y471670D02*
X328000Y491170D01*
X308500Y463700D02*
Y471670D01*
X302300Y457500D02*
X308500Y463700D01*
X160600Y421100D02*
X167000Y427500D01*
X154800Y421100D02*
X160600D01*
X152700Y423200D02*
X154800Y421100D01*
X152700Y423200D02*
Y443200D01*
X167000Y457500D01*
X303806Y286200D02*
X310200Y279806D01*
X303500Y525546D02*
Y531754D01*
Y525546D02*
X323746Y505300D01*
X314256Y259000D02*
X316800D01*
X312600Y274000D02*
X314256D01*
X333744Y259000D02*
X345857D01*
X355100Y249757D01*
X311600Y272500D02*
X313300D01*
X311600Y269000D02*
X314256D01*
X130300Y460434D02*
X135260Y465394D01*
X130300Y366794D02*
Y460434D01*
Y366794D02*
X134500Y362594D01*
X470143Y244721D02*
Y264500D01*
X468122Y242700D02*
X470143Y244721D01*
X468122Y223000D02*
Y242700D01*
D48*
X303500Y488446D02*
D03*
Y531754D02*
D03*
X219600Y301598D02*
D03*
X176293D02*
D03*
X403954Y300799D02*
D03*
X360646D02*
D03*
X297146Y300700D02*
D03*
X340454D02*
D03*
X397900Y274654D02*
D03*
Y231346D02*
D03*
X134500Y405902D02*
D03*
Y362594D02*
D03*
X148650Y405902D02*
D03*
Y362594D02*
D03*
X161746Y234500D02*
D03*
X205054D02*
D03*
X132900Y248546D02*
D03*
Y291854D02*
D03*
X118900Y248546D02*
D03*
Y291854D02*
D03*
X317092Y531500D02*
D03*
X360399D02*
D03*
X309175Y405826D02*
D03*
Y362519D02*
D03*
X323339Y405751D02*
D03*
Y362444D02*
D03*
X411749Y405902D02*
D03*
Y362594D02*
D03*
X397900Y405902D02*
D03*
Y362594D02*
D03*
X122260Y422846D02*
D03*
Y466154D02*
D03*
X256600Y422854D02*
D03*
Y466161D02*
D03*
X105100Y259546D02*
D03*
Y302854D02*
D03*
X243150Y405902D02*
D03*
Y362594D02*
D03*
X229000Y405902D02*
D03*
Y362594D02*
D03*
D49*
X434016Y502000D02*
D03*
Y492000D02*
D03*
X444016D02*
D03*
Y502000D02*
D03*
X408268D02*
D03*
Y492000D02*
D03*
X418268D02*
D03*
Y502000D02*
D03*
X383764D02*
D03*
Y492000D02*
D03*
X393764D02*
D03*
Y502000D02*
D03*
D50*
X141900Y243900D02*
D03*
D51*
X151900D02*
D03*
X145921Y270200D02*
D03*
Y260357D02*
D03*
X332000Y193236D02*
D03*
X265500D02*
D03*
X418500Y258400D02*
D03*
D52*
X145921Y280043D02*
D03*
X332000Y222764D02*
D03*
X265500D02*
D03*
X418500Y248400D02*
D03*
D53*
X175157Y318700D02*
D03*
X194843D02*
D03*
X283900Y320343D02*
D03*
Y300657D02*
D03*
X351000Y323843D02*
D03*
Y304157D02*
D03*
X165843Y468500D02*
D03*
X146157D02*
D03*
X302043D02*
D03*
X282357D02*
D03*
X355100Y249757D02*
D03*
Y269443D02*
D03*
X432543Y300799D02*
D03*
X412857D02*
D03*
D54*
X184418Y283464D02*
D03*
Y253936D02*
D03*
X264339Y283464D02*
D03*
Y253936D02*
D03*
X244497Y283464D02*
D03*
Y253936D02*
D03*
X284182Y283464D02*
D03*
Y253936D02*
D03*
D55*
X268894Y301598D02*
D03*
X344594Y286200D02*
D03*
X424394Y284900D02*
D03*
X166000Y301500D02*
D03*
D56*
X228106Y301598D02*
D03*
X303806Y286200D02*
D03*
X383606Y284900D02*
D03*
X164600Y290593D02*
D03*
X197400Y170980D02*
D03*
X213767Y211767D02*
D03*
X162433D02*
D03*
X178800Y170980D02*
D03*
X109260Y465394D02*
D03*
X135260D02*
D03*
X242100D02*
D03*
X270500D02*
D03*
X125213Y301500D02*
D03*
D57*
X163000Y405114D02*
D03*
X337700Y405213D02*
D03*
X425900Y405114D02*
D03*
X257500Y405213D02*
D03*
D58*
X163000Y363382D02*
D03*
X337700Y363480D02*
D03*
X425900Y363382D02*
D03*
X257500Y363480D02*
D03*
D59*
X159000Y315965D02*
D03*
X332600D02*
D03*
X420800D02*
D03*
X252500D02*
D03*
D60*
X139000D02*
D03*
X312600D02*
D03*
X400800D02*
D03*
X232500D02*
D03*
D61*
X159000Y351248D02*
D03*
X420800D02*
D03*
X332600D02*
D03*
X252500D02*
D03*
D62*
X149000D02*
D03*
X139000D02*
D03*
X410800D02*
D03*
X400800D02*
D03*
X322600D02*
D03*
X312600D02*
D03*
X242500D02*
D03*
X232500D02*
D03*
D63*
X339421Y480500D02*
D03*
X202021D02*
D03*
D64*
X329579D02*
D03*
X192179D02*
D03*
D65*
X470143Y264500D02*
D03*
D66*
X450457D02*
D03*
X424400Y464343D02*
D03*
D67*
X164600Y249806D02*
D03*
X197400Y211767D02*
D03*
X213767Y170980D02*
D03*
X162433D02*
D03*
X178800Y211767D02*
D03*
X109260Y424606D02*
D03*
X135260D02*
D03*
X242100D02*
D03*
X270500D02*
D03*
D68*
X468122Y179500D02*
D03*
Y223000D02*
D03*
X194200Y382400D02*
D03*
X119000Y513500D02*
D03*
X395600Y185700D02*
D03*
X462000Y517500D02*
D03*
X444500Y179500D02*
D03*
Y223000D02*
D03*
D69*
X323746Y505300D02*
D03*
Y515300D02*
D03*
X353746D02*
D03*
D70*
Y505300D02*
D03*
D71*
X157000Y427500D02*
D03*
X292300D02*
D03*
D72*
X167000D02*
D03*
X177000D02*
D03*
X187000D02*
D03*
X197000D02*
D03*
X207000D02*
D03*
X217000D02*
D03*
Y457500D02*
D03*
X207000D02*
D03*
X197000D02*
D03*
X187000D02*
D03*
X177000D02*
D03*
X167000D02*
D03*
X157000D02*
D03*
X302300Y427500D02*
D03*
X312300D02*
D03*
X322300D02*
D03*
X332300D02*
D03*
X342300D02*
D03*
X352300D02*
D03*
Y457500D02*
D03*
X342300D02*
D03*
X332300D02*
D03*
X322300D02*
D03*
X312300D02*
D03*
X302300D02*
D03*
X292300D02*
D03*
D73*
X424400Y444657D02*
D03*
D74*
X152898Y233764D02*
D03*
X288724Y198331D02*
D03*
X105654Y233764D02*
D03*
X176520Y517228D02*
D03*
X217858Y363685D02*
D03*
X206047Y221953D02*
D03*
X271008Y517228D02*
D03*
X418645Y340063D02*
D03*
X430456Y292819D02*
D03*
X471795Y351874D02*
D03*
X294630Y162898D02*
D03*
X105654D02*
D03*
X306441Y493606D02*
D03*
X105654Y469984D02*
D03*
X164709Y281008D02*
D03*
X448173D02*
D03*
X395023Y245575D02*
D03*
X383212D02*
D03*
X436362Y281008D02*
D03*
X371401Y198331D02*
D03*
X282819Y186520D02*
D03*
X436362Y399118D02*
D03*
X430456Y458173D02*
D03*
X117464Y233764D02*
D03*
X217858Y505417D02*
D03*
X253291Y198331D02*
D03*
X265102Y363685D02*
D03*
X389118Y281008D02*
D03*
X324157Y245575D02*
D03*
X347779Y529039D02*
D03*
X105654Y351874D02*
D03*
X312346Y434551D02*
D03*
X318252Y233764D02*
D03*
X389118Y257386D02*
D03*
X170614Y387307D02*
D03*
X389118Y422740D02*
D03*
X459984Y186520D02*
D03*
X465890Y292819D02*
D03*
X335968Y174709D02*
D03*
X324157Y198331D02*
D03*
X371401Y174709D02*
D03*
X158803Y292819D02*
D03*
X424551Y233764D02*
D03*
X312346Y245575D02*
D03*
X300535Y174709D02*
D03*
X288724Y505417D02*
D03*
X206047Y174709D02*
D03*
X424551Y422740D02*
D03*
X465890Y410929D02*
D03*
X377307Y375496D02*
D03*
X170614Y481795D02*
D03*
X123370Y316441D02*
D03*
X158803Y340063D02*
D03*
X253291Y269197D02*
D03*
X389118Y517228D02*
D03*
X300535Y269197D02*
D03*
X365496Y422740D02*
D03*
X400929D02*
D03*
X347779Y340063D02*
D03*
X436362Y375496D02*
D03*
X123370Y340063D02*
D03*
X400929Y162898D02*
D03*
X395023Y410929D02*
D03*
X105654Y186520D02*
D03*
X176520D02*
D03*
X288724Y245575D02*
D03*
X347779Y363685D02*
D03*
X200142Y493606D02*
D03*
X188331Y517228D02*
D03*
X211953Y493606D02*
D03*
X294630Y517228D02*
D03*
X383212Y316441D02*
D03*
X430456Y481795D02*
D03*
X194236Y505417D02*
D03*
X365496Y328252D02*
D03*
X459984Y281008D02*
D03*
X271008Y162898D02*
D03*
X200142Y399118D02*
D03*
X353685Y210142D02*
D03*
X117464Y257386D02*
D03*
X164709Y186520D02*
D03*
Y517228D02*
D03*
X312346Y505417D02*
D03*
X259197Y399118D02*
D03*
X318252Y493606D02*
D03*
X141086Y399118D02*
D03*
X105654Y210142D02*
D03*
X400929Y281008D02*
D03*
X276913Y458173D02*
D03*
X418645D02*
D03*
X288724Y363685D02*
D03*
X442268Y387307D02*
D03*
X170614Y292819D02*
D03*
X395023D02*
D03*
X211953Y162898D02*
D03*
X217858Y387307D02*
D03*
X430456Y269197D02*
D03*
X158803Y505417D02*
D03*
X223764Y493606D02*
D03*
X389118Y375496D02*
D03*
X176520Y493606D02*
D03*
X158803Y529039D02*
D03*
X383212Y174709D02*
D03*
X194236Y245575D02*
D03*
X377307Y351874D02*
D03*
X406835Y458173D02*
D03*
X365496Y281008D02*
D03*
X465890Y340063D02*
D03*
X335968Y245575D02*
D03*
X465890Y434551D02*
D03*
X111559D02*
D03*
X170614Y198331D02*
D03*
X217858Y245575D02*
D03*
X424551Y399118D02*
D03*
X141086Y233764D02*
D03*
X471795Y493606D02*
D03*
X111559Y387307D02*
D03*
X424551Y304630D02*
D03*
X200142D02*
D03*
X430456Y410929D02*
D03*
X188331Y304630D02*
D03*
X341874Y328252D02*
D03*
X111559Y410929D02*
D03*
X353685Y233764D02*
D03*
X448173Y257386D02*
D03*
X465890Y458173D02*
D03*
X247386Y186520D02*
D03*
X359590Y410929D02*
D03*
X424551Y469984D02*
D03*
X211953Y375496D02*
D03*
X377307Y210142D02*
D03*
X335968Y387307D02*
D03*
X442268Y340063D02*
D03*
X406835Y174709D02*
D03*
X430456Y434551D02*
D03*
X442268Y363685D02*
D03*
X471795Y375496D02*
D03*
X365496Y351874D02*
D03*
X152898Y517228D02*
D03*
X341874Y351874D02*
D03*
X282819Y210142D02*
D03*
X117464Y399118D02*
D03*
X312346Y529039D02*
D03*
X454078Y292819D02*
D03*
X282819Y351874D02*
D03*
X377307Y233764D02*
D03*
X335968Y198331D02*
D03*
X170614Y363685D02*
D03*
X188331Y233764D02*
D03*
X265102Y387307D02*
D03*
X395023Y434551D02*
D03*
X359590Y316441D02*
D03*
Y245575D02*
D03*
X312346Y198331D02*
D03*
X146992Y174709D02*
D03*
X135181Y458173D02*
D03*
X111559Y340063D02*
D03*
X371401Y529039D02*
D03*
X135181D02*
D03*
X347779Y387307D02*
D03*
X335968Y292819D02*
D03*
X347779Y174709D02*
D03*
X194236Y340063D02*
D03*
X365496Y162898D02*
D03*
X259197Y351874D02*
D03*
X253291Y481795D02*
D03*
X146992Y529039D02*
D03*
X365496Y233764D02*
D03*
X406835Y481795D02*
D03*
X259197Y517228D02*
D03*
X306441Y351874D02*
D03*
X418645Y481795D02*
D03*
X365496Y517228D02*
D03*
X412740Y162898D02*
D03*
X141086Y257386D02*
D03*
X217858Y410929D02*
D03*
X436362Y162898D02*
D03*
X383212Y458173D02*
D03*
X259197Y162898D02*
D03*
X341874Y186520D02*
D03*
X406835Y292819D02*
D03*
X330063Y162898D02*
D03*
X146992Y481795D02*
D03*
X206047Y529039D02*
D03*
X182425Y340063D02*
D03*
X217858D02*
D03*
X371401Y316441D02*
D03*
X377307Y399118D02*
D03*
X471795D02*
D03*
X459984Y351874D02*
D03*
X105654Y517228D02*
D03*
X111559Y174709D02*
D03*
X294630Y281008D02*
D03*
X353685Y399118D02*
D03*
X359590Y198331D02*
D03*
X412740Y422740D02*
D03*
X111559Y221953D02*
D03*
X282819Y517228D02*
D03*
X341874Y446362D02*
D03*
X170614Y529039D02*
D03*
X395023Y458173D02*
D03*
X424551Y162898D02*
D03*
X152898Y399118D02*
D03*
X265102Y174709D02*
D03*
Y269197D02*
D03*
X377307Y469984D02*
D03*
X324157Y269197D02*
D03*
X229669Y434551D02*
D03*
X206047Y505417D02*
D03*
X330063Y328252D02*
D03*
X117464D02*
D03*
X436362Y210142D02*
D03*
X454078Y198331D02*
D03*
X247386Y493606D02*
D03*
X271008Y186520D02*
D03*
X471795Y281008D02*
D03*
X188331Y493606D02*
D03*
X105654Y328252D02*
D03*
X170614Y410929D02*
D03*
X465890Y363685D02*
D03*
X229669Y387307D02*
D03*
X471795Y328252D02*
D03*
X123370Y529039D02*
D03*
X211953Y233764D02*
D03*
X436362Y469984D02*
D03*
X200142Y351874D02*
D03*
X253291Y340063D02*
D03*
X347779Y245575D02*
D03*
X247386Y210142D02*
D03*
X123370Y221953D02*
D03*
X241480Y269197D02*
D03*
X206047Y316441D02*
D03*
X418645Y198331D02*
D03*
X335968Y505417D02*
D03*
X471795Y210142D02*
D03*
X271008Y399118D02*
D03*
X152898Y162898D02*
D03*
X223764Y399118D02*
D03*
X418645Y410929D02*
D03*
X383212Y292819D02*
D03*
X448173Y517228D02*
D03*
X330063D02*
D03*
X235575Y257386D02*
D03*
X117464Y351874D02*
D03*
X430456Y340063D02*
D03*
X152898Y375496D02*
D03*
X223764D02*
D03*
X371401Y245575D02*
D03*
X265102Y434551D02*
D03*
X135181Y269197D02*
D03*
X288724Y292819D02*
D03*
X436362Y304630D02*
D03*
X389118Y162898D02*
D03*
X235575Y186520D02*
D03*
X341874Y162898D02*
D03*
X129276Y493606D02*
D03*
X406835Y363685D02*
D03*
Y245575D02*
D03*
X276913Y481795D02*
D03*
X353685Y351874D02*
D03*
X253291Y387307D02*
D03*
X300535Y363685D02*
D03*
X341874Y233764D02*
D03*
X442268Y269197D02*
D03*
X300535Y245575D02*
D03*
X265102Y198331D02*
D03*
X288724Y174709D02*
D03*
X170614Y505417D02*
D03*
X359590Y363685D02*
D03*
X282819Y399118D02*
D03*
X135181Y387307D02*
D03*
X164709Y162898D02*
D03*
X123370Y174709D02*
D03*
Y245575D02*
D03*
X271008Y493606D02*
D03*
X389118Y399118D02*
D03*
X300535Y292819D02*
D03*
X454078Y269197D02*
D03*
X253291Y434551D02*
D03*
X146992Y410929D02*
D03*
X211953Y257386D02*
D03*
X223764Y281008D02*
D03*
X306441Y210142D02*
D03*
X412740Y517228D02*
D03*
X341874D02*
D03*
X353685Y375496D02*
D03*
X400929Y469984D02*
D03*
X235575Y493606D02*
D03*
X188331Y351874D02*
D03*
X152898Y186520D02*
D03*
X442268Y434551D02*
D03*
X117464Y210142D02*
D03*
X294630Y375496D02*
D03*
X247386Y162898D02*
D03*
X105654Y399118D02*
D03*
X282819Y162898D02*
D03*
X395023Y387307D02*
D03*
X235575Y399118D02*
D03*
X229669Y410929D02*
D03*
X135181D02*
D03*
X158803Y387307D02*
D03*
X141086Y446362D02*
D03*
X241480Y245575D02*
D03*
X442268Y316441D02*
D03*
X448173Y210142D02*
D03*
X436362Y422740D02*
D03*
X465890Y198331D02*
D03*
X211953Y517228D02*
D03*
X471795Y304630D02*
D03*
X188331Y399118D02*
D03*
X365496Y257386D02*
D03*
X389118Y351874D02*
D03*
X318252Y375496D02*
D03*
X123370Y198331D02*
D03*
X424551Y210142D02*
D03*
X206047Y363685D02*
D03*
X459984Y422740D02*
D03*
X176520Y399118D02*
D03*
X211953D02*
D03*
X371401Y340063D02*
D03*
X389118Y469984D02*
D03*
X353685Y257386D02*
D03*
X377307Y517228D02*
D03*
X389118Y328252D02*
D03*
X330063Y233764D02*
D03*
X353685Y186520D02*
D03*
X271008Y210142D02*
D03*
X330063Y186520D02*
D03*
X141086Y375496D02*
D03*
X424551Y186520D02*
D03*
X294630Y351874D02*
D03*
X465890Y505417D02*
D03*
X276913Y292819D02*
D03*
X223764Y186520D02*
D03*
X111559Y316441D02*
D03*
X265102Y292819D02*
D03*
X412740Y399118D02*
D03*
Y328252D02*
D03*
X459984Y233764D02*
D03*
X412740D02*
D03*
X418645Y434551D02*
D03*
X194236Y529039D02*
D03*
X223764Y257386D02*
D03*
X424551D02*
D03*
X459984D02*
D03*
X365496Y399118D02*
D03*
X194236Y363685D02*
D03*
X294630Y186520D02*
D03*
X141086Y304630D02*
D03*
X253291Y245575D02*
D03*
X200142Y186520D02*
D03*
X105654Y281008D02*
D03*
X377307Y328252D02*
D03*
X442268Y245575D02*
D03*
X347779Y505417D02*
D03*
X418645Y387307D02*
D03*
X459984Y493606D02*
D03*
X253291Y292819D02*
D03*
X282819Y493606D02*
D03*
X229669Y529039D02*
D03*
X111559Y292819D02*
D03*
X117464Y281008D02*
D03*
X182425Y387307D02*
D03*
X412740Y186520D02*
D03*
X448173Y304630D02*
D03*
X164709Y375496D02*
D03*
X235575Y517228D02*
D03*
X365496Y186520D02*
D03*
X371401Y269197D02*
D03*
X412740Y281008D02*
D03*
X253291Y505417D02*
D03*
X300535Y340063D02*
D03*
X430456Y245575D02*
D03*
X424551Y328252D02*
D03*
X200142Y517228D02*
D03*
X306441Y233764D02*
D03*
X400929Y399118D02*
D03*
X152898Y446362D02*
D03*
X241480Y316441D02*
D03*
X294630Y493606D02*
D03*
X400929Y210142D02*
D03*
X341874Y375496D02*
D03*
X265102Y481795D02*
D03*
X389118Y233764D02*
D03*
X300535Y481795D02*
D03*
X105654Y446362D02*
D03*
X306441Y162898D02*
D03*
X459984Y304630D02*
D03*
X306441Y375496D02*
D03*
X223764Y517228D02*
D03*
X330063Y375496D02*
D03*
X276913Y198331D02*
D03*
X400929Y517228D02*
D03*
X465890Y387307D02*
D03*
X223764Y162898D02*
D03*
X312346Y481795D02*
D03*
X341874Y210142D02*
D03*
X335968Y340063D02*
D03*
X164709Y399118D02*
D03*
X241480Y529039D02*
D03*
X276913Y505417D02*
D03*
Y387307D02*
D03*
X282819Y233764D02*
D03*
X312346Y410929D02*
D03*
X229669Y505417D02*
D03*
X294630Y210142D02*
D03*
X235575Y281008D02*
D03*
X276913Y174709D02*
D03*
X406835Y198331D02*
D03*
X436362Y257386D02*
D03*
X459984Y446362D02*
D03*
X377307Y162898D02*
D03*
X200142Y233764D02*
D03*
X241480Y505417D02*
D03*
X324157Y174709D02*
D03*
X395023Y269197D02*
D03*
X418645D02*
D03*
X318252Y399118D02*
D03*
X129276Y328252D02*
D03*
X442268Y198331D02*
D03*
X359590Y292819D02*
D03*
X454078Y316441D02*
D03*
X158803Y481795D02*
D03*
X123370Y269197D02*
D03*
X229669D02*
D03*
X365496Y210142D02*
D03*
X406835Y434551D02*
D03*
X129276Y233764D02*
D03*
X265102Y458173D02*
D03*
X288724Y529039D02*
D03*
X365496Y469984D02*
D03*
X241480Y387307D02*
D03*
Y481795D02*
D03*
X259197Y210142D02*
D03*
X182425Y529039D02*
D03*
X436362Y186520D02*
D03*
X418645Y174709D02*
D03*
X383212Y340063D02*
D03*
X188331Y186520D02*
D03*
X217858Y316441D02*
D03*
X412740Y257386D02*
D03*
X235575Y162898D02*
D03*
X454078Y174709D02*
D03*
X206047Y340063D02*
D03*
X312346D02*
D03*
X377307Y422740D02*
D03*
X294630Y233764D02*
D03*
X436362Y328252D02*
D03*
X324157Y387307D02*
D03*
X146992Y505417D02*
D03*
X436362Y351874D02*
D03*
X377307Y186520D02*
D03*
X353685Y328252D02*
D03*
X176520Y375496D02*
D03*
X247386Y399118D02*
D03*
X442268Y292819D02*
D03*
X347779Y198331D02*
D03*
X400929Y257386D02*
D03*
X117464Y375496D02*
D03*
X341874Y399118D02*
D03*
X217858Y481795D02*
D03*
X442268Y410929D02*
D03*
X459984Y210142D02*
D03*
X141086Y517228D02*
D03*
X406835Y387307D02*
D03*
X182425Y410929D02*
D03*
X330063Y210142D02*
D03*
X335968Y529039D02*
D03*
X383212Y269197D02*
D03*
X306441Y517228D02*
D03*
X389118Y210142D02*
D03*
X276913Y340063D02*
D03*
X359590Y458173D02*
D03*
X436362Y446362D02*
D03*
Y517228D02*
D03*
X265102Y505417D02*
D03*
X141086Y162898D02*
D03*
X318252Y517228D02*
D03*
X330063Y281008D02*
D03*
X383212Y434551D02*
D03*
X454078Y245575D02*
D03*
X471795Y446362D02*
D03*
X111559Y363685D02*
D03*
X117464Y493606D02*
D03*
X211953Y304630D02*
D03*
X229669Y174709D02*
D03*
X371401Y410929D02*
D03*
X459984Y469984D02*
D03*
X176520Y446362D02*
D03*
X459984Y328252D02*
D03*
X241480Y434551D02*
D03*
X105654Y493606D02*
D03*
X229669Y458173D02*
D03*
X288724Y387307D02*
D03*
X424551Y517228D02*
D03*
X300535Y198331D02*
D03*
X288724Y340063D02*
D03*
X176520Y233764D02*
D03*
X324157Y316441D02*
D03*
X247386Y517228D02*
D03*
X312346Y174709D02*
D03*
X459984Y399118D02*
D03*
X471795Y422740D02*
D03*
X465890Y481795D02*
D03*
X223764Y233764D02*
D03*
X247386Y469984D02*
D03*
X276913Y529039D02*
D03*
X312346Y387307D02*
D03*
X170614Y340063D02*
D03*
X229669Y245575D02*
D03*
X330063Y399118D02*
D03*
X341874Y257386D02*
D03*
X359590Y174709D02*
D03*
X111559Y529039D02*
D03*
X406835Y410929D02*
D03*
X182425Y245575D02*
D03*
X211953Y281008D02*
D03*
X259197Y186520D02*
D03*
X383212Y198331D02*
D03*
X377307Y257386D02*
D03*
X294630Y399118D02*
D03*
X217858Y529039D02*
D03*
X465890Y316441D02*
D03*
X306441Y186520D02*
D03*
X318252Y162898D02*
D03*
X259197Y493606D02*
D03*
X395023Y340063D02*
D03*
X211953Y186520D02*
D03*
X318252D02*
D03*
X182425Y363685D02*
D03*
X459984Y375496D02*
D03*
X229669Y481795D02*
D03*
X253291Y529039D02*
D03*
Y174709D02*
D03*
X206047Y387307D02*
D03*
X117464Y446362D02*
D03*
X324157Y529039D02*
D03*
X430456Y174709D02*
D03*
X318252Y210142D02*
D03*
X276913Y434551D02*
D03*
X117464Y162898D02*
D03*
X217858Y269197D02*
D03*
X152898Y257386D02*
D03*
X200142Y281008D02*
D03*
X206047Y269197D02*
D03*
X300535Y505417D02*
D03*
X412740Y210142D02*
D03*
X430456Y198331D02*
D03*
X471795Y469984D02*
D03*
X158803Y410929D02*
D03*
X146992Y387307D02*
D03*
X288724Y481795D02*
D03*
X383212Y387307D02*
D03*
X211953Y351874D02*
D03*
X241480Y174709D02*
D03*
X105654Y375496D02*
D03*
X265102Y529039D02*
D03*
X223764Y422740D02*
D03*
X194236Y269197D02*
D03*
X141086Y210142D02*
D03*
X383212Y410929D02*
D03*
X111559Y245575D02*
D03*
X353685Y162898D02*
D03*
X371401Y458173D02*
D03*
X182425Y505417D02*
D03*
D75*
X342800Y269000D02*
D03*
X278000Y421500D02*
D03*
X478800Y162800D02*
D03*
X477200Y532600D02*
D03*
X352536Y468860D02*
D03*
M02*
