G04*
G04 #@! TF.GenerationSoftware,Altium Limited,Altium Designer,23.8.1 (32)*
G04*
G04 Layer_Color=2752767*
%FSLAX25Y25*%
%MOIN*%
G70*
G04*
G04 #@! TF.SameCoordinates,CA3F4A39-35F6-43B6-803E-031CCE665758*
G04*
G04*
G04 #@! TF.FilePolarity,Positive*
G04*
G01*
G75*
%ADD11C,0.00500*%
%ADD79C,0.00667*%
%ADD80C,0.00400*%
D11*
X301500Y486446D02*
Y490446D01*
X305500D01*
Y486446D01*
X301500D01*
Y529754D02*
Y533754D01*
X305500D01*
Y529754D01*
X301500D01*
X433016Y501000D02*
Y500000D01*
X435016D01*
Y501000D01*
X436016D01*
Y503000D01*
X435016D01*
Y504000D01*
X433016D01*
Y503000D01*
X432016D01*
Y501000D01*
X433016D01*
X433416Y501400D02*
Y500800D01*
X434616D01*
Y501400D01*
X435216D01*
Y502600D01*
X434616D01*
Y503200D01*
X433416D01*
Y502600D01*
X432816D01*
Y501400D01*
X433416D01*
X433016Y491000D02*
Y490000D01*
X435016D01*
Y491000D01*
X436016D01*
Y493000D01*
X435016D01*
Y494000D01*
X433016D01*
Y493000D01*
X432016D01*
Y491000D01*
X433016D01*
X433416Y491400D02*
Y490800D01*
X434616D01*
Y491400D01*
X435216D01*
Y492600D01*
X434616D01*
Y493200D01*
X433416D01*
Y492600D01*
X432816D01*
Y491400D01*
X433416D01*
X443016Y491000D02*
Y490000D01*
X445016D01*
Y491000D01*
X446016D01*
Y493000D01*
X445016D01*
Y494000D01*
X443016D01*
Y493000D01*
X442016D01*
Y491000D01*
X443016D01*
X443416Y491400D02*
Y490800D01*
X444616D01*
Y491400D01*
X445216D01*
Y492600D01*
X444616D01*
Y493200D01*
X443416D01*
Y492600D01*
X442816D01*
Y491400D01*
X443416D01*
X443016Y501000D02*
Y500000D01*
X445016D01*
Y501000D01*
X446016D01*
Y503000D01*
X445016D01*
Y504000D01*
X443016D01*
Y503000D01*
X442016D01*
Y501000D01*
X443016D01*
X443416Y501400D02*
Y500800D01*
X444616D01*
Y501400D01*
X445216D01*
Y502600D01*
X444616D01*
Y503200D01*
X443416D01*
Y502600D01*
X442816D01*
Y501400D01*
X443416D01*
X407268Y501000D02*
Y500000D01*
X409268D01*
Y501000D01*
X410268D01*
Y503000D01*
X409268D01*
Y504000D01*
X407268D01*
Y503000D01*
X406268D01*
Y501000D01*
X407268D01*
X407668Y501400D02*
Y500800D01*
X408868D01*
Y501400D01*
X409468D01*
Y502600D01*
X408868D01*
Y503200D01*
X407668D01*
Y502600D01*
X407068D01*
Y501400D01*
X407668D01*
X407268Y491000D02*
Y490000D01*
X409268D01*
Y491000D01*
X410268D01*
Y493000D01*
X409268D01*
Y494000D01*
X407268D01*
Y493000D01*
X406268D01*
Y491000D01*
X407268D01*
X407668Y491400D02*
Y490800D01*
X408868D01*
Y491400D01*
X409468D01*
Y492600D01*
X408868D01*
Y493200D01*
X407668D01*
Y492600D01*
X407068D01*
Y491400D01*
X407668D01*
X417268Y491000D02*
Y490000D01*
X419268D01*
Y491000D01*
X420268D01*
Y493000D01*
X419268D01*
Y494000D01*
X417268D01*
Y493000D01*
X416268D01*
Y491000D01*
X417268D01*
X417668Y491400D02*
Y490800D01*
X418868D01*
Y491400D01*
X419468D01*
Y492600D01*
X418868D01*
Y493200D01*
X417668D01*
Y492600D01*
X417068D01*
Y491400D01*
X417668D01*
X417268Y501000D02*
Y500000D01*
X419268D01*
Y501000D01*
X420268D01*
Y503000D01*
X419268D01*
Y504000D01*
X417268D01*
Y503000D01*
X416268D01*
Y501000D01*
X417268D01*
X417668Y501400D02*
Y500800D01*
X418868D01*
Y501400D01*
X419468D01*
Y502600D01*
X418868D01*
Y503200D01*
X417668D01*
Y502600D01*
X417068D01*
Y501400D01*
X417668D01*
X382764Y501000D02*
Y500000D01*
X384764D01*
Y501000D01*
X385764D01*
Y503000D01*
X384764D01*
Y504000D01*
X382764D01*
Y503000D01*
X381764D01*
Y501000D01*
X382764D01*
X383164Y501400D02*
Y500800D01*
X384364D01*
Y501400D01*
X384964D01*
Y502600D01*
X384364D01*
Y503200D01*
X383164D01*
Y502600D01*
X382564D01*
Y501400D01*
X383164D01*
X382764Y491000D02*
Y490000D01*
X384764D01*
Y491000D01*
X385764D01*
Y493000D01*
X384764D01*
Y494000D01*
X382764D01*
Y493000D01*
X381764D01*
Y491000D01*
X382764D01*
X383164Y491400D02*
Y490800D01*
X384364D01*
Y491400D01*
X384964D01*
Y492600D01*
X384364D01*
Y493200D01*
X383164D01*
Y492600D01*
X382564D01*
Y491400D01*
X383164D01*
X392764Y491000D02*
Y490000D01*
X394764D01*
Y491000D01*
X395764D01*
Y493000D01*
X394764D01*
Y494000D01*
X392764D01*
Y493000D01*
X391764D01*
Y491000D01*
X392764D01*
X393164Y491400D02*
Y490800D01*
X394364D01*
Y491400D01*
X394964D01*
Y492600D01*
X394364D01*
Y493200D01*
X393164D01*
Y492600D01*
X392564D01*
Y491400D01*
X393164D01*
X392764Y501000D02*
Y500000D01*
X394764D01*
Y501000D01*
X395764D01*
Y503000D01*
X394764D01*
Y504000D01*
X392764D01*
Y503000D01*
X391764D01*
Y501000D01*
X392764D01*
X393164Y501400D02*
Y500800D01*
X394364D01*
Y501400D01*
X394964D01*
Y502600D01*
X394364D01*
Y503200D01*
X393164D01*
Y502600D01*
X392564D01*
Y501400D01*
X393164D01*
X129400Y212079D02*
X130400D01*
X131400Y213079D01*
X132400Y212079D01*
X133400D01*
Y213079D01*
X132400Y214079D01*
X133400Y215079D01*
Y216079D01*
X132400D01*
X131400Y215079D01*
X130400Y216079D01*
X129400D01*
Y215079D01*
X130400Y214079D01*
X129400Y213079D01*
Y212079D01*
X130200Y212879D02*
X130800D01*
X131400Y213479D01*
X132000Y212879D01*
X132600D01*
Y213479D01*
X132000Y214079D01*
X132600Y214679D01*
Y215279D01*
X132000D01*
X131400Y214679D01*
X130800Y215279D01*
X130200D01*
Y214679D01*
X130800Y214079D01*
X130200Y213479D01*
Y212879D01*
X129400Y198300D02*
X130400D01*
X131400Y199300D01*
X132400Y198300D01*
X133400D01*
Y199300D01*
X132400Y200300D01*
X133400Y201300D01*
Y202300D01*
X132400D01*
X131400Y201300D01*
X130400Y202300D01*
X129400D01*
Y201300D01*
X130400Y200300D01*
X129400Y199300D01*
Y198300D01*
X130200Y199100D02*
X130800D01*
X131400Y199700D01*
X132000Y199100D01*
X132600D01*
Y199700D01*
X132000Y200300D01*
X132600Y200900D01*
Y201500D01*
X132000D01*
X131400Y200900D01*
X130800Y201500D01*
X130200D01*
Y200900D01*
X130800Y200300D01*
X130200Y199700D01*
Y199100D01*
X129400Y184520D02*
X130400D01*
X131400Y185520D01*
X132400Y184520D01*
X133400D01*
Y185520D01*
X132400Y186520D01*
X133400Y187520D01*
Y188520D01*
X132400D01*
X131400Y187520D01*
X130400Y188520D01*
X129400D01*
Y187520D01*
X130400Y186520D01*
X129400Y185520D01*
Y184520D01*
X130200Y185320D02*
X130800D01*
X131400Y185920D01*
X132000Y185320D01*
X132600D01*
Y185920D01*
X132000Y186520D01*
X132600Y187120D01*
Y187720D01*
X132000D01*
X131400Y187120D01*
X130800Y187720D01*
X130200D01*
Y187120D01*
X130800Y186520D01*
X130200Y185920D01*
Y185320D01*
X129400Y170741D02*
X130400D01*
X131400Y171741D01*
X132400Y170741D01*
X133400D01*
Y171741D01*
X132400Y172741D01*
X133400Y173741D01*
Y174741D01*
X132400D01*
X131400Y173741D01*
X130400Y174741D01*
X129400D01*
Y173741D01*
X130400Y172741D01*
X129400Y171741D01*
Y170741D01*
X130200Y171541D02*
X130800D01*
X131400Y172141D01*
X132000Y171541D01*
X132600D01*
Y172141D01*
X132000Y172741D01*
X132600Y173341D01*
Y173941D01*
X132000D01*
X131400Y173341D01*
X130800Y173941D01*
X130200D01*
Y173341D01*
X130800Y172741D01*
X130200Y172141D01*
Y171541D01*
X139900Y241900D02*
X140900Y243900D01*
X139900Y245900D01*
X141900Y244900D01*
X143900Y245900D01*
X142900Y243900D01*
X143900Y241900D01*
X141900Y242900D01*
X139900Y241900D01*
X149900D02*
X150900Y243900D01*
X149900Y245900D01*
X151900Y244900D01*
X153900Y245900D01*
X152900Y243900D01*
X153900Y241900D01*
X151900Y242900D01*
X149900Y241900D01*
X144921Y279043D02*
Y278043D01*
X146921D01*
Y279043D01*
X147921D01*
Y281043D01*
X146921D01*
Y282043D01*
X144921D01*
Y281043D01*
X143921D01*
Y279043D01*
X144921D01*
Y269200D02*
Y268200D01*
X146921D01*
Y269200D01*
X147921D01*
Y271200D01*
X146921D01*
Y272200D01*
X144921D01*
Y271200D01*
X143921D01*
Y269200D01*
X144921D01*
Y259357D02*
Y258357D01*
X146921D01*
Y259357D01*
X147921D01*
Y261357D01*
X146921D01*
Y262357D01*
X144921D01*
Y261357D01*
X143921D01*
Y259357D01*
X144921D01*
X173157Y316700D02*
Y320700D01*
X177157D01*
Y316700D01*
X173157D01*
X192843D02*
Y320700D01*
X196843D01*
Y316700D01*
X192843D01*
X184418Y281464D02*
X185418Y282464D01*
X186418D01*
X185418Y283464D01*
X186418Y284464D01*
X185418D01*
X184418Y285464D01*
X183418Y284464D01*
X182418D01*
X183418Y283464D01*
X182418Y282464D01*
X183418D01*
X184418Y281464D01*
Y251936D02*
X185418Y252936D01*
X186418D01*
X185418Y253936D01*
X186418Y254936D01*
X185418D01*
X184418Y255936D01*
X183418Y254936D01*
X182418D01*
X183418Y253936D01*
X182418Y252936D01*
X183418D01*
X184418Y251936D01*
X264339Y281464D02*
X265339Y282464D01*
X266339D01*
X265339Y283464D01*
X266339Y284464D01*
X265339D01*
X264339Y285464D01*
X263339Y284464D01*
X262339D01*
X263339Y283464D01*
X262339Y282464D01*
X263339D01*
X264339Y281464D01*
Y251936D02*
X265339Y252936D01*
X266339D01*
X265339Y253936D01*
X266339Y254936D01*
X265339D01*
X264339Y255936D01*
X263339Y254936D01*
X262339D01*
X263339Y253936D01*
X262339Y252936D01*
X263339D01*
X264339Y251936D01*
X244497Y281464D02*
X245497Y282464D01*
X246497D01*
X245497Y283464D01*
X246497Y284464D01*
X245497D01*
X244497Y285464D01*
X243497Y284464D01*
X242497D01*
X243497Y283464D01*
X242497Y282464D01*
X243497D01*
X244497Y281464D01*
Y251936D02*
X245497Y252936D01*
X246497D01*
X245497Y253936D01*
X246497Y254936D01*
X245497D01*
X244497Y255936D01*
X243497Y254936D01*
X242497D01*
X243497Y253936D01*
X242497Y252936D01*
X243497D01*
X244497Y251936D01*
X284182Y281464D02*
X285182Y282464D01*
X286182D01*
X285182Y283464D01*
X286182Y284464D01*
X285182D01*
X284182Y285464D01*
X283182Y284464D01*
X282182D01*
X283182Y283464D01*
X282182Y282464D01*
X283182D01*
X284182Y281464D01*
Y251936D02*
X285182Y252936D01*
X286182D01*
X285182Y253936D01*
X286182Y254936D01*
X285182D01*
X284182Y255936D01*
X283182Y254936D01*
X282182D01*
X283182Y253936D01*
X282182Y252936D01*
X283182D01*
X284182Y251936D01*
X217600Y299598D02*
Y303598D01*
X221600D01*
Y299598D01*
X217600D01*
X174293D02*
Y303598D01*
X178293D01*
Y299598D01*
X174293D01*
X401954Y298799D02*
Y302799D01*
X405954D01*
Y298799D01*
X401954D01*
X358646D02*
Y302799D01*
X362646D01*
Y298799D01*
X358646D01*
X295146Y298700D02*
Y302700D01*
X299146D01*
Y298700D01*
X295146D01*
X338454D02*
Y302700D01*
X342454D01*
Y298700D01*
X338454D01*
X281900Y318343D02*
Y322343D01*
X285900D01*
Y318343D01*
X281900D01*
Y298657D02*
Y302657D01*
X285900D01*
Y298657D01*
X281900D01*
X349000Y321843D02*
Y325843D01*
X353000D01*
Y321843D01*
X349000D01*
Y302157D02*
Y306157D01*
X353000D01*
Y302157D01*
X349000D01*
X395900Y272654D02*
Y276654D01*
X399900D01*
Y272654D01*
X395900D01*
Y229346D02*
Y233346D01*
X399900D01*
Y229346D01*
X395900D01*
X132500Y403902D02*
Y407902D01*
X136500D01*
Y403902D01*
X132500D01*
Y360594D02*
Y364594D01*
X136500D01*
Y360594D01*
X132500D01*
X163000Y403114D02*
X164000Y404114D01*
X165000D01*
X164000Y405114D01*
X165000Y406114D01*
X164000D01*
X163000Y407114D01*
X162000Y406114D01*
X161000D01*
X162000Y405114D01*
X161000Y404114D01*
X162000D01*
X163000Y403114D01*
Y403914D02*
X163600Y404514D01*
X164200D01*
X163600Y405114D01*
X164200Y405714D01*
X163600D01*
X163000Y406314D01*
X162400Y405714D01*
X161800D01*
X162400Y405114D01*
X161800Y404514D01*
X162400D01*
X163000Y403914D01*
Y361382D02*
X164000Y362382D01*
X165000D01*
X164000Y363382D01*
X165000Y364382D01*
X164000D01*
X163000Y365382D01*
X162000Y364382D01*
X161000D01*
X162000Y363382D01*
X161000Y362382D01*
X162000D01*
X163000Y361382D01*
Y362182D02*
X163600Y362782D01*
X164200D01*
X163600Y363382D01*
X164200Y363982D01*
X163600D01*
X163000Y364582D01*
X162400Y363982D01*
X161800D01*
X162400Y363382D01*
X161800Y362782D01*
X162400D01*
X163000Y362182D01*
X159000Y313965D02*
X157000Y317965D01*
X161000D01*
X159000Y313965D01*
Y314765D02*
X157800Y317165D01*
X160200D01*
X159000Y314765D01*
X139000Y313965D02*
X137000Y317965D01*
X141000D01*
X139000Y313965D01*
Y314765D02*
X137800Y317165D01*
X140200D01*
X139000Y314765D01*
X146650Y403902D02*
Y407902D01*
X150650D01*
Y403902D01*
X146650D01*
Y360594D02*
Y364594D01*
X150650D01*
Y360594D01*
X146650D01*
X337421Y478500D02*
X338421D01*
X339421Y479500D01*
X340421Y478500D01*
X341421D01*
Y479500D01*
X340421Y480500D01*
X341421Y481500D01*
Y482500D01*
X340421D01*
X339421Y481500D01*
X338421Y482500D01*
X337421D01*
Y481500D01*
X338421Y480500D01*
X337421Y479500D01*
Y478500D01*
X327579D02*
X328579D01*
X329579Y479500D01*
X330579Y478500D01*
X331579D01*
Y479500D01*
X330579Y480500D01*
X331579Y481500D01*
Y482500D01*
X330579D01*
X329579Y481500D01*
X328579Y482500D01*
X327579D01*
Y481500D01*
X328579Y480500D01*
X327579Y479500D01*
Y478500D01*
X159746Y232500D02*
Y236500D01*
X163746D01*
Y232500D01*
X159746D01*
X203054D02*
Y236500D01*
X207054D01*
Y232500D01*
X203054D01*
X468143Y262500D02*
X469143Y264500D01*
X468143Y266500D01*
X470143Y265500D01*
X472143Y266500D01*
X471143Y264500D01*
X472143Y262500D01*
X470143Y263500D01*
X468143Y262500D01*
X468943Y263300D02*
X469543Y264500D01*
X468943Y265700D01*
X470143Y265100D01*
X471343Y265700D01*
X470743Y264500D01*
X471343Y263300D01*
X470143Y263900D01*
X468943Y263300D01*
X448457Y262500D02*
X449457Y264500D01*
X448457Y266500D01*
X450457Y265500D01*
X452457Y266500D01*
X451457Y264500D01*
X452457Y262500D01*
X450457Y263500D01*
X448457Y262500D01*
X449257Y263300D02*
X449857Y264500D01*
X449257Y265700D01*
X450457Y265100D01*
X451657Y265700D01*
X451057Y264500D01*
X451657Y263300D01*
X450457Y263900D01*
X449257Y263300D01*
X130900Y246546D02*
Y250546D01*
X134900D01*
Y246546D01*
X130900D01*
Y289854D02*
Y293854D01*
X134900D01*
Y289854D01*
X130900D01*
X116900Y246546D02*
Y250546D01*
X120900D01*
Y246546D01*
X116900D01*
Y289854D02*
Y293854D01*
X120900D01*
Y289854D01*
X116900D01*
X330000Y191236D02*
Y195236D01*
X334000D01*
Y191236D01*
X330000D01*
X330800Y192036D02*
Y194436D01*
X333200D01*
Y192036D01*
X330800D01*
X330000Y220764D02*
Y224764D01*
X334000D01*
Y220764D01*
X330000D01*
X330800Y221564D02*
Y223964D01*
X333200D01*
Y221564D01*
X330800D01*
X263500Y191236D02*
Y195236D01*
X267500D01*
Y191236D01*
X263500D01*
X264300Y192036D02*
Y194436D01*
X266700D01*
Y192036D01*
X264300D01*
X263500Y220764D02*
Y224764D01*
X267500D01*
Y220764D01*
X263500D01*
X264300Y221564D02*
Y223964D01*
X266700D01*
Y221564D01*
X264300D01*
X315092Y529500D02*
Y533500D01*
X319092D01*
Y529500D01*
X315092D01*
X358399D02*
Y533500D01*
X362399D01*
Y529500D01*
X358399D01*
X332600Y313965D02*
X330600Y317965D01*
X334600D01*
X332600Y313965D01*
Y314765D02*
X331400Y317165D01*
X333800D01*
X332600Y314765D01*
X312600Y313965D02*
X310600Y317965D01*
X314600D01*
X312600Y313965D01*
Y314765D02*
X311400Y317165D01*
X313800D01*
X312600Y314765D01*
X420800Y313965D02*
X418800Y317965D01*
X422800D01*
X420800Y313965D01*
Y314765D02*
X419600Y317165D01*
X422000D01*
X420800Y314765D01*
X400800Y313965D02*
X398800Y317965D01*
X402800D01*
X400800Y313965D01*
Y314765D02*
X399600Y317165D01*
X402000D01*
X400800Y314765D01*
X337700Y403213D02*
X338700Y404213D01*
X339700D01*
X338700Y405213D01*
X339700Y406213D01*
X338700D01*
X337700Y407213D01*
X336700Y406213D01*
X335700D01*
X336700Y405213D01*
X335700Y404213D01*
X336700D01*
X337700Y403213D01*
Y404013D02*
X338300Y404613D01*
X338900D01*
X338300Y405213D01*
X338900Y405813D01*
X338300D01*
X337700Y406413D01*
X337100Y405813D01*
X336500D01*
X337100Y405213D01*
X336500Y404613D01*
X337100D01*
X337700Y404013D01*
Y361480D02*
X338700Y362480D01*
X339700D01*
X338700Y363480D01*
X339700Y364480D01*
X338700D01*
X337700Y365480D01*
X336700Y364480D01*
X335700D01*
X336700Y363480D01*
X335700Y362480D01*
X336700D01*
X337700Y361480D01*
Y362280D02*
X338300Y362880D01*
X338900D01*
X338300Y363480D01*
X338900Y364080D01*
X338300D01*
X337700Y364680D01*
X337100Y364080D01*
X336500D01*
X337100Y363480D01*
X336500Y362880D01*
X337100D01*
X337700Y362280D01*
X307175Y403826D02*
Y407826D01*
X311175D01*
Y403826D01*
X307175D01*
Y360519D02*
Y364519D01*
X311175D01*
Y360519D01*
X307175D01*
X321339Y403751D02*
Y407751D01*
X325339D01*
Y403751D01*
X321339D01*
Y360444D02*
Y364444D01*
X325339D01*
Y360444D01*
X321339D01*
X409749Y403902D02*
Y407902D01*
X413749D01*
Y403902D01*
X409749D01*
Y360594D02*
Y364594D01*
X413749D01*
Y360594D01*
X409749D01*
X395900Y403902D02*
Y407902D01*
X399900D01*
Y403902D01*
X395900D01*
Y360594D02*
Y364594D01*
X399900D01*
Y360594D01*
X395900D01*
X425900Y403114D02*
X426900Y404114D01*
X427900D01*
X426900Y405114D01*
X427900Y406114D01*
X426900D01*
X425900Y407114D01*
X424900Y406114D01*
X423900D01*
X424900Y405114D01*
X423900Y404114D01*
X424900D01*
X425900Y403114D01*
Y403914D02*
X426500Y404514D01*
X427100D01*
X426500Y405114D01*
X427100Y405714D01*
X426500D01*
X425900Y406314D01*
X425300Y405714D01*
X424700D01*
X425300Y405114D01*
X424700Y404514D01*
X425300D01*
X425900Y403914D01*
Y361382D02*
X426900Y362382D01*
X427900D01*
X426900Y363382D01*
X427900Y364382D01*
X426900D01*
X425900Y365382D01*
X424900Y364382D01*
X423900D01*
X424900Y363382D01*
X423900Y362382D01*
X424900D01*
X425900Y361382D01*
Y362182D02*
X426500Y362782D01*
X427100D01*
X426500Y363382D01*
X427100Y363982D01*
X426500D01*
X425900Y364582D01*
X425300Y363982D01*
X424700D01*
X425300Y363382D01*
X424700Y362782D01*
X425300D01*
X425900Y362182D01*
X468122Y179500D02*
Y182832D01*
X469788Y184498D01*
X471454Y182832D01*
Y179500D01*
Y181999D01*
X468122D01*
Y223000D02*
Y226332D01*
X469788Y227998D01*
X471454Y226332D01*
Y223000D01*
Y225499D01*
X468122D01*
X323746Y503300D02*
X321746Y507300D01*
X325746D01*
X323746Y503300D01*
Y513300D02*
X321746Y517300D01*
X325746D01*
X323746Y513300D01*
X353746D02*
X351746Y517300D01*
X355746D01*
X353746Y513300D01*
Y503300D02*
X351746Y507300D01*
X355746D01*
X353746Y503300D01*
X155000Y427500D02*
X157000Y429500D01*
X159000Y427500D01*
X157000Y425500D01*
X155000Y427500D01*
X165000D02*
X167000Y429500D01*
X169000Y427500D01*
X167000Y425500D01*
X165000Y427500D01*
X175000D02*
X177000Y429500D01*
X179000Y427500D01*
X177000Y425500D01*
X175000Y427500D01*
X185000D02*
X187000Y429500D01*
X189000Y427500D01*
X187000Y425500D01*
X185000Y427500D01*
X195000D02*
X197000Y429500D01*
X199000Y427500D01*
X197000Y425500D01*
X195000Y427500D01*
X205000D02*
X207000Y429500D01*
X209000Y427500D01*
X207000Y425500D01*
X205000Y427500D01*
X215000D02*
X217000Y429500D01*
X219000Y427500D01*
X217000Y425500D01*
X215000Y427500D01*
Y457500D02*
X217000Y459500D01*
X219000Y457500D01*
X217000Y455500D01*
X215000Y457500D01*
X205000D02*
X207000Y459500D01*
X209000Y457500D01*
X207000Y455500D01*
X205000Y457500D01*
X195000D02*
X197000Y459500D01*
X199000Y457500D01*
X197000Y455500D01*
X195000Y457500D01*
X185000D02*
X187000Y459500D01*
X189000Y457500D01*
X187000Y455500D01*
X185000Y457500D01*
X175000D02*
X177000Y459500D01*
X179000Y457500D01*
X177000Y455500D01*
X175000Y457500D01*
X165000D02*
X167000Y459500D01*
X169000Y457500D01*
X167000Y455500D01*
X165000Y457500D01*
X155000D02*
X157000Y459500D01*
X159000Y457500D01*
X157000Y455500D01*
X155000Y457500D01*
X120260Y420846D02*
Y424846D01*
X124260D01*
Y420846D01*
X120260D01*
Y464154D02*
Y468154D01*
X124260D01*
Y464154D01*
X120260D01*
X163843Y466500D02*
Y470500D01*
X167843D01*
Y466500D01*
X163843D01*
X144157D02*
Y470500D01*
X148157D01*
Y466500D01*
X144157D01*
X200021Y478500D02*
X201021D01*
X202021Y479500D01*
X203021Y478500D01*
X204021D01*
Y479500D01*
X203021Y480500D01*
X204021Y481500D01*
Y482500D01*
X203021D01*
X202021Y481500D01*
X201021Y482500D01*
X200021D01*
Y481500D01*
X201021Y480500D01*
X200021Y479500D01*
Y478500D01*
X190179D02*
X191179D01*
X192179Y479500D01*
X193179Y478500D01*
X194179D01*
Y479500D01*
X193179Y480500D01*
X194179Y481500D01*
Y482500D01*
X193179D01*
X192179Y481500D01*
X191179Y482500D01*
X190179D01*
Y481500D01*
X191179Y480500D01*
X190179Y479500D01*
Y478500D01*
X290300Y427500D02*
X292300Y429500D01*
X294300Y427500D01*
X292300Y425500D01*
X290300Y427500D01*
X300300D02*
X302300Y429500D01*
X304300Y427500D01*
X302300Y425500D01*
X300300Y427500D01*
X310300D02*
X312300Y429500D01*
X314300Y427500D01*
X312300Y425500D01*
X310300Y427500D01*
X320300D02*
X322300Y429500D01*
X324300Y427500D01*
X322300Y425500D01*
X320300Y427500D01*
X330300D02*
X332300Y429500D01*
X334300Y427500D01*
X332300Y425500D01*
X330300Y427500D01*
X340300D02*
X342300Y429500D01*
X344300Y427500D01*
X342300Y425500D01*
X340300Y427500D01*
X350300D02*
X352300Y429500D01*
X354300Y427500D01*
X352300Y425500D01*
X350300Y427500D01*
Y457500D02*
X352300Y459500D01*
X354300Y457500D01*
X352300Y455500D01*
X350300Y457500D01*
X340300D02*
X342300Y459500D01*
X344300Y457500D01*
X342300Y455500D01*
X340300Y457500D01*
X330300D02*
X332300Y459500D01*
X334300Y457500D01*
X332300Y455500D01*
X330300Y457500D01*
X320300D02*
X322300Y459500D01*
X324300Y457500D01*
X322300Y455500D01*
X320300Y457500D01*
X310300D02*
X312300Y459500D01*
X314300Y457500D01*
X312300Y455500D01*
X310300Y457500D01*
X300300D02*
X302300Y459500D01*
X304300Y457500D01*
X302300Y455500D01*
X300300Y457500D01*
X290300D02*
X292300Y459500D01*
X294300Y457500D01*
X292300Y455500D01*
X290300Y457500D01*
X254600Y420854D02*
Y424854D01*
X258600D01*
Y420854D01*
X254600D01*
Y464161D02*
Y468161D01*
X258600D01*
Y464161D01*
X254600D01*
X300043Y466500D02*
Y470500D01*
X304043D01*
Y466500D01*
X300043D01*
X280357D02*
Y470500D01*
X284357D01*
Y466500D01*
X280357D01*
X103100Y257546D02*
Y261546D01*
X107100D01*
Y257546D01*
X103100D01*
Y300854D02*
Y304854D01*
X107100D01*
Y300854D01*
X103100D01*
X252500Y313965D02*
X250500Y317965D01*
X254500D01*
X252500Y313965D01*
Y314765D02*
X251300Y317165D01*
X253700D01*
X252500Y314765D01*
X232500Y313965D02*
X230500Y317965D01*
X234500D01*
X232500Y313965D01*
Y314765D02*
X231300Y317165D01*
X233700D01*
X232500Y314765D01*
X241150Y403902D02*
Y407902D01*
X245150D01*
Y403902D01*
X241150D01*
Y360594D02*
Y364594D01*
X245150D01*
Y360594D01*
X241150D01*
X257500Y403213D02*
X258500Y404213D01*
X259500D01*
X258500Y405213D01*
X259500Y406213D01*
X258500D01*
X257500Y407213D01*
X256500Y406213D01*
X255500D01*
X256500Y405213D01*
X255500Y404213D01*
X256500D01*
X257500Y403213D01*
Y404013D02*
X258100Y404613D01*
X258700D01*
X258100Y405213D01*
X258700Y405813D01*
X258100D01*
X257500Y406413D01*
X256900Y405813D01*
X256300D01*
X256900Y405213D01*
X256300Y404613D01*
X256900D01*
X257500Y404013D01*
Y361480D02*
X258500Y362480D01*
X259500D01*
X258500Y363480D01*
X259500Y364480D01*
X258500D01*
X257500Y365480D01*
X256500Y364480D01*
X255500D01*
X256500Y363480D01*
X255500Y362480D01*
X256500D01*
X257500Y361480D01*
Y362280D02*
X258100Y362880D01*
X258700D01*
X258100Y363480D01*
X258700Y364080D01*
X258100D01*
X257500Y364680D01*
X256900Y364080D01*
X256300D01*
X256900Y363480D01*
X256300Y362880D01*
X256900D01*
X257500Y362280D01*
X227000Y403902D02*
Y407902D01*
X231000D01*
Y403902D01*
X227000D01*
Y360594D02*
Y364594D01*
X231000D01*
Y360594D01*
X227000D01*
X353100Y247757D02*
Y251757D01*
X357100D01*
Y247757D01*
X353100D01*
Y267443D02*
Y271443D01*
X357100D01*
Y267443D01*
X353100D01*
X430543Y298799D02*
Y302799D01*
X434543D01*
Y298799D01*
X430543D01*
X410857D02*
Y302799D01*
X414857D01*
Y298799D01*
X410857D01*
X422400Y442657D02*
X423400Y444657D01*
X422400Y446657D01*
X424400Y445657D01*
X426400Y446657D01*
X425400Y444657D01*
X426400Y442657D01*
X424400Y443657D01*
X422400Y442657D01*
X423200Y443457D02*
X423800Y444657D01*
X423200Y445857D01*
X424400Y445257D01*
X425600Y445857D01*
X425000Y444657D01*
X425600Y443457D01*
X424400Y444057D01*
X423200Y443457D01*
X422400Y462343D02*
X423400Y464343D01*
X422400Y466343D01*
X424400Y465343D01*
X426400Y466343D01*
X425400Y464343D01*
X426400Y462343D01*
X424400Y463343D01*
X422400Y462343D01*
X423200Y463143D02*
X423800Y464343D01*
X423200Y465543D01*
X424400Y464943D01*
X425600Y465543D01*
X425000Y464343D01*
X425600Y463143D01*
X424400Y463743D01*
X423200Y463143D01*
X416500Y246400D02*
X417500Y248400D01*
X416500Y250400D01*
X418500Y249400D01*
X420500Y250400D01*
X419500Y248400D01*
X420500Y246400D01*
X418500Y247400D01*
X416500Y246400D01*
Y256400D02*
X417500Y258400D01*
X416500Y260400D01*
X418500Y259400D01*
X420500Y260400D01*
X419500Y258400D01*
X420500Y256400D01*
X418500Y257400D01*
X416500Y256400D01*
X194200Y382400D02*
Y385732D01*
X195866Y387398D01*
X197532Y385732D01*
Y382400D01*
Y384899D01*
X194200D01*
X119000Y513500D02*
Y516832D01*
X120666Y518498D01*
X122332Y516832D01*
Y513500D01*
Y515999D01*
X119000D01*
X395600Y185700D02*
Y189032D01*
X397266Y190698D01*
X398932Y189032D01*
Y185700D01*
Y188199D01*
X395600D01*
X462000Y517500D02*
Y520832D01*
X463666Y522498D01*
X465332Y520832D01*
Y517500D01*
Y519999D01*
X462000D01*
X444500Y179500D02*
Y182832D01*
X446166Y184498D01*
X447832Y182832D01*
Y179500D01*
Y181999D01*
X444500D01*
Y223000D02*
Y226332D01*
X446166Y227998D01*
X447832Y226332D01*
Y223000D01*
Y225499D01*
X444500D01*
X156230Y237929D02*
X155397Y238762D01*
X153731D01*
X152898Y237929D01*
Y234597D01*
X153731Y233764D01*
X155397D01*
X156230Y234597D01*
X292056Y202496D02*
X291224Y203329D01*
X289557D01*
X288724Y202496D01*
Y199164D01*
X289557Y198331D01*
X291224D01*
X292056Y199164D01*
X108986Y237929D02*
X108153Y238762D01*
X106486D01*
X105654Y237929D01*
Y234597D01*
X106486Y233764D01*
X108153D01*
X108986Y234597D01*
X179852Y521393D02*
X179019Y522226D01*
X177353D01*
X176520Y521393D01*
Y518061D01*
X177353Y517228D01*
X179019D01*
X179852Y518061D01*
X221190Y367850D02*
X220357Y368683D01*
X218691D01*
X217858Y367850D01*
Y364518D01*
X218691Y363685D01*
X220357D01*
X221190Y364518D01*
X209379Y226118D02*
X208546Y226951D01*
X206880D01*
X206047Y226118D01*
Y222786D01*
X206880Y221953D01*
X208546D01*
X209379Y222786D01*
X274340Y521393D02*
X273507Y522226D01*
X271841D01*
X271008Y521393D01*
Y518061D01*
X271841Y517228D01*
X273507D01*
X274340Y518061D01*
X421978Y344228D02*
X421145Y345061D01*
X419479D01*
X418645Y344228D01*
Y340896D01*
X419479Y340063D01*
X421145D01*
X421978Y340896D01*
X433789Y296984D02*
X432956Y297817D01*
X431290D01*
X430456Y296984D01*
Y293652D01*
X431290Y292819D01*
X432956D01*
X433789Y293652D01*
X475127Y356039D02*
X474294Y356872D01*
X472628D01*
X471795Y356039D01*
Y352707D01*
X472628Y351874D01*
X474294D01*
X475127Y352707D01*
X297962Y167063D02*
X297129Y167896D01*
X295463D01*
X294630Y167063D01*
Y163731D01*
X295463Y162898D01*
X297129D01*
X297962Y163731D01*
X108986Y167063D02*
X108153Y167896D01*
X106486D01*
X105654Y167063D01*
Y163731D01*
X106486Y162898D01*
X108153D01*
X108986Y163731D01*
X309773Y497771D02*
X308940Y498604D01*
X307274D01*
X306441Y497771D01*
Y494439D01*
X307274Y493606D01*
X308940D01*
X309773Y494439D01*
X108986Y474149D02*
X108153Y474982D01*
X106486D01*
X105654Y474149D01*
Y470817D01*
X106486Y469984D01*
X108153D01*
X108986Y470817D01*
X168041Y285173D02*
X167208Y286006D01*
X165542D01*
X164709Y285173D01*
Y281841D01*
X165542Y281008D01*
X167208D01*
X168041Y281841D01*
X451505Y285173D02*
X450672Y286006D01*
X449006D01*
X448173Y285173D01*
Y281841D01*
X449006Y281008D01*
X450672D01*
X451505Y281841D01*
X398356Y249740D02*
X397523Y250573D01*
X395856D01*
X395023Y249740D01*
Y246408D01*
X395856Y245575D01*
X397523D01*
X398356Y246408D01*
X386545Y249740D02*
X385712Y250573D01*
X384046D01*
X383212Y249740D01*
Y246408D01*
X384046Y245575D01*
X385712D01*
X386545Y246408D01*
X439694Y285173D02*
X438861Y286006D01*
X437195D01*
X436362Y285173D01*
Y281841D01*
X437195Y281008D01*
X438861D01*
X439694Y281841D01*
X374734Y202496D02*
X373901Y203329D01*
X372235D01*
X371401Y202496D01*
Y199164D01*
X372235Y198331D01*
X373901D01*
X374734Y199164D01*
X286151Y190685D02*
X285318Y191518D01*
X283652D01*
X282819Y190685D01*
Y187353D01*
X283652Y186520D01*
X285318D01*
X286151Y187353D01*
X439694Y403283D02*
X438861Y404116D01*
X437195D01*
X436362Y403283D01*
Y399951D01*
X437195Y399118D01*
X438861D01*
X439694Y399951D01*
X433789Y462338D02*
X432956Y463171D01*
X431290D01*
X430456Y462338D01*
Y459006D01*
X431290Y458173D01*
X432956D01*
X433789Y459006D01*
X120797Y237929D02*
X119964Y238762D01*
X118298D01*
X117464Y237929D01*
Y234597D01*
X118298Y233764D01*
X119964D01*
X120797Y234597D01*
X221190Y509582D02*
X220357Y510416D01*
X218691D01*
X217858Y509582D01*
Y506250D01*
X218691Y505417D01*
X220357D01*
X221190Y506250D01*
X256624Y202496D02*
X255790Y203329D01*
X254124D01*
X253291Y202496D01*
Y199164D01*
X254124Y198331D01*
X255790D01*
X256624Y199164D01*
X268435Y367850D02*
X267601Y368683D01*
X265935D01*
X265102Y367850D01*
Y364518D01*
X265935Y363685D01*
X267601D01*
X268435Y364518D01*
X392450Y285173D02*
X391617Y286006D01*
X389951D01*
X389118Y285173D01*
Y281841D01*
X389951Y281008D01*
X391617D01*
X392450Y281841D01*
X327490Y249740D02*
X326657Y250573D01*
X324990D01*
X324157Y249740D01*
Y246408D01*
X324990Y245575D01*
X326657D01*
X327490Y246408D01*
X351112Y533205D02*
X350279Y534037D01*
X348612D01*
X347779Y533205D01*
Y529872D01*
X348612Y529039D01*
X350279D01*
X351112Y529872D01*
X108986Y356039D02*
X108153Y356872D01*
X106486D01*
X105654Y356039D01*
Y352707D01*
X106486Y351874D01*
X108153D01*
X108986Y352707D01*
X315679Y438716D02*
X314845Y439549D01*
X313179D01*
X312346Y438716D01*
Y435384D01*
X313179Y434551D01*
X314845D01*
X315679Y435384D01*
X321584Y237929D02*
X320751Y238762D01*
X319085D01*
X318252Y237929D01*
Y234597D01*
X319085Y233764D01*
X320751D01*
X321584Y234597D01*
X392450Y261551D02*
X391617Y262384D01*
X389951D01*
X389118Y261551D01*
Y258219D01*
X389951Y257386D01*
X391617D01*
X392450Y258219D01*
X173946Y391472D02*
X173113Y392305D01*
X171447D01*
X170614Y391472D01*
Y388140D01*
X171447Y387307D01*
X173113D01*
X173946Y388140D01*
X392450Y426905D02*
X391617Y427738D01*
X389951D01*
X389118Y426905D01*
Y423573D01*
X389951Y422740D01*
X391617D01*
X392450Y423573D01*
X463316Y190685D02*
X462483Y191518D01*
X460817D01*
X459984Y190685D01*
Y187353D01*
X460817Y186520D01*
X462483D01*
X463316Y187353D01*
X469222Y296984D02*
X468389Y297817D01*
X466723D01*
X465890Y296984D01*
Y293652D01*
X466723Y292819D01*
X468389D01*
X469222Y293652D01*
X339301Y178874D02*
X338468Y179707D01*
X336801D01*
X335968Y178874D01*
Y175542D01*
X336801Y174709D01*
X338468D01*
X339301Y175542D01*
X327490Y202496D02*
X326657Y203329D01*
X324990D01*
X324157Y202496D01*
Y199164D01*
X324990Y198331D01*
X326657D01*
X327490Y199164D01*
X374734Y178874D02*
X373901Y179707D01*
X372235D01*
X371401Y178874D01*
Y175542D01*
X372235Y174709D01*
X373901D01*
X374734Y175542D01*
X162135Y296984D02*
X161302Y297817D01*
X159636D01*
X158803Y296984D01*
Y293652D01*
X159636Y292819D01*
X161302D01*
X162135Y293652D01*
X427883Y237929D02*
X427050Y238762D01*
X425384D01*
X424551Y237929D01*
Y234597D01*
X425384Y233764D01*
X427050D01*
X427883Y234597D01*
X315679Y249740D02*
X314845Y250573D01*
X313179D01*
X312346Y249740D01*
Y246408D01*
X313179Y245575D01*
X314845D01*
X315679Y246408D01*
X303868Y178874D02*
X303034Y179707D01*
X301368D01*
X300535Y178874D01*
Y175542D01*
X301368Y174709D01*
X303034D01*
X303868Y175542D01*
X292056Y509582D02*
X291224Y510416D01*
X289557D01*
X288724Y509582D01*
Y506250D01*
X289557Y505417D01*
X291224D01*
X292056Y506250D01*
X209379Y178874D02*
X208546Y179707D01*
X206880D01*
X206047Y178874D01*
Y175542D01*
X206880Y174709D01*
X208546D01*
X209379Y175542D01*
X427883Y426905D02*
X427050Y427738D01*
X425384D01*
X424551Y426905D01*
Y423573D01*
X425384Y422740D01*
X427050D01*
X427883Y423573D01*
X469222Y415094D02*
X468389Y415927D01*
X466723D01*
X465890Y415094D01*
Y411762D01*
X466723Y410929D01*
X468389D01*
X469222Y411762D01*
X380639Y379661D02*
X379806Y380494D01*
X378140D01*
X377307Y379661D01*
Y376329D01*
X378140Y375496D01*
X379806D01*
X380639Y376329D01*
X173946Y485960D02*
X173113Y486794D01*
X171447D01*
X170614Y485960D01*
Y482628D01*
X171447Y481795D01*
X173113D01*
X173946Y482628D01*
X126702Y320606D02*
X125869Y321439D01*
X124203D01*
X123370Y320606D01*
Y317274D01*
X124203Y316441D01*
X125869D01*
X126702Y317274D01*
X162135Y344228D02*
X161302Y345061D01*
X159636D01*
X158803Y344228D01*
Y340896D01*
X159636Y340063D01*
X161302D01*
X162135Y340896D01*
X256624Y273362D02*
X255790Y274195D01*
X254124D01*
X253291Y273362D01*
Y270030D01*
X254124Y269197D01*
X255790D01*
X256624Y270030D01*
X392450Y521393D02*
X391617Y522226D01*
X389951D01*
X389118Y521393D01*
Y518061D01*
X389951Y517228D01*
X391617D01*
X392450Y518061D01*
X303868Y273362D02*
X303034Y274195D01*
X301368D01*
X300535Y273362D01*
Y270030D01*
X301368Y269197D01*
X303034D01*
X303868Y270030D01*
X368828Y426905D02*
X367995Y427738D01*
X366329D01*
X365496Y426905D01*
Y423573D01*
X366329Y422740D01*
X367995D01*
X368828Y423573D01*
X404261Y426905D02*
X403428Y427738D01*
X401762D01*
X400929Y426905D01*
Y423573D01*
X401762Y422740D01*
X403428D01*
X404261Y423573D01*
X351112Y344228D02*
X350279Y345061D01*
X348612D01*
X347779Y344228D01*
Y340896D01*
X348612Y340063D01*
X350279D01*
X351112Y340896D01*
X439694Y379661D02*
X438861Y380494D01*
X437195D01*
X436362Y379661D01*
Y376329D01*
X437195Y375496D01*
X438861D01*
X439694Y376329D01*
X126702Y344228D02*
X125869Y345061D01*
X124203D01*
X123370Y344228D01*
Y340896D01*
X124203Y340063D01*
X125869D01*
X126702Y340896D01*
X404261Y167063D02*
X403428Y167896D01*
X401762D01*
X400929Y167063D01*
Y163731D01*
X401762Y162898D01*
X403428D01*
X404261Y163731D01*
X398356Y415094D02*
X397523Y415927D01*
X395856D01*
X395023Y415094D01*
Y411762D01*
X395856Y410929D01*
X397523D01*
X398356Y411762D01*
X108986Y190685D02*
X108153Y191518D01*
X106486D01*
X105654Y190685D01*
Y187353D01*
X106486Y186520D01*
X108153D01*
X108986Y187353D01*
X179852Y190685D02*
X179019Y191518D01*
X177353D01*
X176520Y190685D01*
Y187353D01*
X177353Y186520D01*
X179019D01*
X179852Y187353D01*
X292056Y249740D02*
X291224Y250573D01*
X289557D01*
X288724Y249740D01*
Y246408D01*
X289557Y245575D01*
X291224D01*
X292056Y246408D01*
X351112Y367850D02*
X350279Y368683D01*
X348612D01*
X347779Y367850D01*
Y364518D01*
X348612Y363685D01*
X350279D01*
X351112Y364518D01*
X203474Y497771D02*
X202641Y498604D01*
X200975D01*
X200142Y497771D01*
Y494439D01*
X200975Y493606D01*
X202641D01*
X203474Y494439D01*
X191663Y521393D02*
X190830Y522226D01*
X189164D01*
X188331Y521393D01*
Y518061D01*
X189164Y517228D01*
X190830D01*
X191663Y518061D01*
X215285Y497771D02*
X214452Y498604D01*
X212786D01*
X211953Y497771D01*
Y494439D01*
X212786Y493606D01*
X214452D01*
X215285Y494439D01*
X297962Y521393D02*
X297129Y522226D01*
X295463D01*
X294630Y521393D01*
Y518061D01*
X295463Y517228D01*
X297129D01*
X297962Y518061D01*
X386545Y320606D02*
X385712Y321439D01*
X384046D01*
X383212Y320606D01*
Y317274D01*
X384046Y316441D01*
X385712D01*
X386545Y317274D01*
X433789Y485960D02*
X432956Y486794D01*
X431290D01*
X430456Y485960D01*
Y482628D01*
X431290Y481795D01*
X432956D01*
X433789Y482628D01*
X197568Y509582D02*
X196735Y510416D01*
X195069D01*
X194236Y509582D01*
Y506250D01*
X195069Y505417D01*
X196735D01*
X197568Y506250D01*
X368828Y332417D02*
X367995Y333250D01*
X366329D01*
X365496Y332417D01*
Y329085D01*
X366329Y328252D01*
X367995D01*
X368828Y329085D01*
X463316Y285173D02*
X462483Y286006D01*
X460817D01*
X459984Y285173D01*
Y281841D01*
X460817Y281008D01*
X462483D01*
X463316Y281841D01*
X274340Y167063D02*
X273507Y167896D01*
X271841D01*
X271008Y167063D01*
Y163731D01*
X271841Y162898D01*
X273507D01*
X274340Y163731D01*
X203474Y403283D02*
X202641Y404116D01*
X200975D01*
X200142Y403283D01*
Y399951D01*
X200975Y399118D01*
X202641D01*
X203474Y399951D01*
X357017Y214307D02*
X356184Y215140D01*
X354518D01*
X353685Y214307D01*
Y210975D01*
X354518Y210142D01*
X356184D01*
X357017Y210975D01*
X120797Y261551D02*
X119964Y262384D01*
X118298D01*
X117464Y261551D01*
Y258219D01*
X118298Y257386D01*
X119964D01*
X120797Y258219D01*
X168041Y190685D02*
X167208Y191518D01*
X165542D01*
X164709Y190685D01*
Y187353D01*
X165542Y186520D01*
X167208D01*
X168041Y187353D01*
Y521393D02*
X167208Y522226D01*
X165542D01*
X164709Y521393D01*
Y518061D01*
X165542Y517228D01*
X167208D01*
X168041Y518061D01*
X315679Y509582D02*
X314845Y510416D01*
X313179D01*
X312346Y509582D01*
Y506250D01*
X313179Y505417D01*
X314845D01*
X315679Y506250D01*
X262529Y403283D02*
X261696Y404116D01*
X260030D01*
X259197Y403283D01*
Y399951D01*
X260030Y399118D01*
X261696D01*
X262529Y399951D01*
X321584Y497771D02*
X320751Y498604D01*
X319085D01*
X318252Y497771D01*
Y494439D01*
X319085Y493606D01*
X320751D01*
X321584Y494439D01*
X144419Y403283D02*
X143586Y404116D01*
X141920D01*
X141086Y403283D01*
Y399951D01*
X141920Y399118D01*
X143586D01*
X144419Y399951D01*
X108986Y214307D02*
X108153Y215140D01*
X106486D01*
X105654Y214307D01*
Y210975D01*
X106486Y210142D01*
X108153D01*
X108986Y210975D01*
X404261Y285173D02*
X403428Y286006D01*
X401762D01*
X400929Y285173D01*
Y281841D01*
X401762Y281008D01*
X403428D01*
X404261Y281841D01*
X280245Y462338D02*
X279412Y463171D01*
X277746D01*
X276913Y462338D01*
Y459006D01*
X277746Y458173D01*
X279412D01*
X280245Y459006D01*
X421978Y462338D02*
X421145Y463171D01*
X419479D01*
X418645Y462338D01*
Y459006D01*
X419479Y458173D01*
X421145D01*
X421978Y459006D01*
X292056Y367850D02*
X291224Y368683D01*
X289557D01*
X288724Y367850D01*
Y364518D01*
X289557Y363685D01*
X291224D01*
X292056Y364518D01*
X445600Y391472D02*
X444767Y392305D01*
X443101D01*
X442268Y391472D01*
Y388140D01*
X443101Y387307D01*
X444767D01*
X445600Y388140D01*
X173946Y296984D02*
X173113Y297817D01*
X171447D01*
X170614Y296984D01*
Y293652D01*
X171447Y292819D01*
X173113D01*
X173946Y293652D01*
X398356Y296984D02*
X397523Y297817D01*
X395856D01*
X395023Y296984D01*
Y293652D01*
X395856Y292819D01*
X397523D01*
X398356Y293652D01*
X215285Y167063D02*
X214452Y167896D01*
X212786D01*
X211953Y167063D01*
Y163731D01*
X212786Y162898D01*
X214452D01*
X215285Y163731D01*
X221190Y391472D02*
X220357Y392305D01*
X218691D01*
X217858Y391472D01*
Y388140D01*
X218691Y387307D01*
X220357D01*
X221190Y388140D01*
X433789Y273362D02*
X432956Y274195D01*
X431290D01*
X430456Y273362D01*
Y270030D01*
X431290Y269197D01*
X432956D01*
X433789Y270030D01*
X162135Y509582D02*
X161302Y510416D01*
X159636D01*
X158803Y509582D01*
Y506250D01*
X159636Y505417D01*
X161302D01*
X162135Y506250D01*
X227096Y497771D02*
X226263Y498604D01*
X224597D01*
X223764Y497771D01*
Y494439D01*
X224597Y493606D01*
X226263D01*
X227096Y494439D01*
X392450Y379661D02*
X391617Y380494D01*
X389951D01*
X389118Y379661D01*
Y376329D01*
X389951Y375496D01*
X391617D01*
X392450Y376329D01*
X179852Y497771D02*
X179019Y498604D01*
X177353D01*
X176520Y497771D01*
Y494439D01*
X177353Y493606D01*
X179019D01*
X179852Y494439D01*
X162135Y533205D02*
X161302Y534037D01*
X159636D01*
X158803Y533205D01*
Y529872D01*
X159636Y529039D01*
X161302D01*
X162135Y529872D01*
X386545Y178874D02*
X385712Y179707D01*
X384046D01*
X383212Y178874D01*
Y175542D01*
X384046Y174709D01*
X385712D01*
X386545Y175542D01*
X197568Y249740D02*
X196735Y250573D01*
X195069D01*
X194236Y249740D01*
Y246408D01*
X195069Y245575D01*
X196735D01*
X197568Y246408D01*
X380639Y356039D02*
X379806Y356872D01*
X378140D01*
X377307Y356039D01*
Y352707D01*
X378140Y351874D01*
X379806D01*
X380639Y352707D01*
X410167Y462338D02*
X409334Y463171D01*
X407667D01*
X406835Y462338D01*
Y459006D01*
X407667Y458173D01*
X409334D01*
X410167Y459006D01*
X368828Y285173D02*
X367995Y286006D01*
X366329D01*
X365496Y285173D01*
Y281841D01*
X366329Y281008D01*
X367995D01*
X368828Y281841D01*
X469222Y344228D02*
X468389Y345061D01*
X466723D01*
X465890Y344228D01*
Y340896D01*
X466723Y340063D01*
X468389D01*
X469222Y340896D01*
X339301Y249740D02*
X338468Y250573D01*
X336801D01*
X335968Y249740D01*
Y246408D01*
X336801Y245575D01*
X338468D01*
X339301Y246408D01*
X469222Y438716D02*
X468389Y439549D01*
X466723D01*
X465890Y438716D01*
Y435384D01*
X466723Y434551D01*
X468389D01*
X469222Y435384D01*
X114891Y438716D02*
X114058Y439549D01*
X112392D01*
X111559Y438716D01*
Y435384D01*
X112392Y434551D01*
X114058D01*
X114891Y435384D01*
X173946Y202496D02*
X173113Y203329D01*
X171447D01*
X170614Y202496D01*
Y199164D01*
X171447Y198331D01*
X173113D01*
X173946Y199164D01*
X221190Y249740D02*
X220357Y250573D01*
X218691D01*
X217858Y249740D01*
Y246408D01*
X218691Y245575D01*
X220357D01*
X221190Y246408D01*
X427883Y403283D02*
X427050Y404116D01*
X425384D01*
X424551Y403283D01*
Y399951D01*
X425384Y399118D01*
X427050D01*
X427883Y399951D01*
X144419Y237929D02*
X143586Y238762D01*
X141920D01*
X141086Y237929D01*
Y234597D01*
X141920Y233764D01*
X143586D01*
X144419Y234597D01*
X475127Y497771D02*
X474294Y498604D01*
X472628D01*
X471795Y497771D01*
Y494439D01*
X472628Y493606D01*
X474294D01*
X475127Y494439D01*
X114891Y391472D02*
X114058Y392305D01*
X112392D01*
X111559Y391472D01*
Y388140D01*
X112392Y387307D01*
X114058D01*
X114891Y388140D01*
X427883Y308795D02*
X427050Y309628D01*
X425384D01*
X424551Y308795D01*
Y305463D01*
X425384Y304630D01*
X427050D01*
X427883Y305463D01*
X203474Y308795D02*
X202641Y309628D01*
X200975D01*
X200142Y308795D01*
Y305463D01*
X200975Y304630D01*
X202641D01*
X203474Y305463D01*
X433789Y415094D02*
X432956Y415927D01*
X431290D01*
X430456Y415094D01*
Y411762D01*
X431290Y410929D01*
X432956D01*
X433789Y411762D01*
X191663Y308795D02*
X190830Y309628D01*
X189164D01*
X188331Y308795D01*
Y305463D01*
X189164Y304630D01*
X190830D01*
X191663Y305463D01*
X345206Y332417D02*
X344373Y333250D01*
X342707D01*
X341874Y332417D01*
Y329085D01*
X342707Y328252D01*
X344373D01*
X345206Y329085D01*
X114891Y415094D02*
X114058Y415927D01*
X112392D01*
X111559Y415094D01*
Y411762D01*
X112392Y410929D01*
X114058D01*
X114891Y411762D01*
X357017Y237929D02*
X356184Y238762D01*
X354518D01*
X353685Y237929D01*
Y234597D01*
X354518Y233764D01*
X356184D01*
X357017Y234597D01*
X451505Y261551D02*
X450672Y262384D01*
X449006D01*
X448173Y261551D01*
Y258219D01*
X449006Y257386D01*
X450672D01*
X451505Y258219D01*
X469222Y462338D02*
X468389Y463171D01*
X466723D01*
X465890Y462338D01*
Y459006D01*
X466723Y458173D01*
X468389D01*
X469222Y459006D01*
X250718Y190685D02*
X249885Y191518D01*
X248219D01*
X247386Y190685D01*
Y187353D01*
X248219Y186520D01*
X249885D01*
X250718Y187353D01*
X362923Y415094D02*
X362090Y415927D01*
X360423D01*
X359590Y415094D01*
Y411762D01*
X360423Y410929D01*
X362090D01*
X362923Y411762D01*
X427883Y474149D02*
X427050Y474982D01*
X425384D01*
X424551Y474149D01*
Y470817D01*
X425384Y469984D01*
X427050D01*
X427883Y470817D01*
X215285Y379661D02*
X214452Y380494D01*
X212786D01*
X211953Y379661D01*
Y376329D01*
X212786Y375496D01*
X214452D01*
X215285Y376329D01*
X380639Y214307D02*
X379806Y215140D01*
X378140D01*
X377307Y214307D01*
Y210975D01*
X378140Y210142D01*
X379806D01*
X380639Y210975D01*
X339301Y391472D02*
X338468Y392305D01*
X336801D01*
X335968Y391472D01*
Y388140D01*
X336801Y387307D01*
X338468D01*
X339301Y388140D01*
X445600Y344228D02*
X444767Y345061D01*
X443101D01*
X442268Y344228D01*
Y340896D01*
X443101Y340063D01*
X444767D01*
X445600Y340896D01*
X410167Y178874D02*
X409334Y179707D01*
X407667D01*
X406835Y178874D01*
Y175542D01*
X407667Y174709D01*
X409334D01*
X410167Y175542D01*
X433789Y438716D02*
X432956Y439549D01*
X431290D01*
X430456Y438716D01*
Y435384D01*
X431290Y434551D01*
X432956D01*
X433789Y435384D01*
X445600Y367850D02*
X444767Y368683D01*
X443101D01*
X442268Y367850D01*
Y364518D01*
X443101Y363685D01*
X444767D01*
X445600Y364518D01*
X475127Y379661D02*
X474294Y380494D01*
X472628D01*
X471795Y379661D01*
Y376329D01*
X472628Y375496D01*
X474294D01*
X475127Y376329D01*
X368828Y356039D02*
X367995Y356872D01*
X366329D01*
X365496Y356039D01*
Y352707D01*
X366329Y351874D01*
X367995D01*
X368828Y352707D01*
X156230Y521393D02*
X155397Y522226D01*
X153731D01*
X152898Y521393D01*
Y518061D01*
X153731Y517228D01*
X155397D01*
X156230Y518061D01*
X345206Y356039D02*
X344373Y356872D01*
X342707D01*
X341874Y356039D01*
Y352707D01*
X342707Y351874D01*
X344373D01*
X345206Y352707D01*
X286151Y214307D02*
X285318Y215140D01*
X283652D01*
X282819Y214307D01*
Y210975D01*
X283652Y210142D01*
X285318D01*
X286151Y210975D01*
X120797Y403283D02*
X119964Y404116D01*
X118298D01*
X117464Y403283D01*
Y399951D01*
X118298Y399118D01*
X119964D01*
X120797Y399951D01*
X315679Y533205D02*
X314845Y534037D01*
X313179D01*
X312346Y533205D01*
Y529872D01*
X313179Y529039D01*
X314845D01*
X315679Y529872D01*
X457411Y296984D02*
X456578Y297817D01*
X454912D01*
X454078Y296984D01*
Y293652D01*
X454912Y292819D01*
X456578D01*
X457411Y293652D01*
X286151Y356039D02*
X285318Y356872D01*
X283652D01*
X282819Y356039D01*
Y352707D01*
X283652Y351874D01*
X285318D01*
X286151Y352707D01*
X380639Y237929D02*
X379806Y238762D01*
X378140D01*
X377307Y237929D01*
Y234597D01*
X378140Y233764D01*
X379806D01*
X380639Y234597D01*
X339301Y202496D02*
X338468Y203329D01*
X336801D01*
X335968Y202496D01*
Y199164D01*
X336801Y198331D01*
X338468D01*
X339301Y199164D01*
X173946Y367850D02*
X173113Y368683D01*
X171447D01*
X170614Y367850D01*
Y364518D01*
X171447Y363685D01*
X173113D01*
X173946Y364518D01*
X191663Y237929D02*
X190830Y238762D01*
X189164D01*
X188331Y237929D01*
Y234597D01*
X189164Y233764D01*
X190830D01*
X191663Y234597D01*
X268435Y391472D02*
X267601Y392305D01*
X265935D01*
X265102Y391472D01*
Y388140D01*
X265935Y387307D01*
X267601D01*
X268435Y388140D01*
X398356Y438716D02*
X397523Y439549D01*
X395856D01*
X395023Y438716D01*
Y435384D01*
X395856Y434551D01*
X397523D01*
X398356Y435384D01*
X362923Y320606D02*
X362090Y321439D01*
X360423D01*
X359590Y320606D01*
Y317274D01*
X360423Y316441D01*
X362090D01*
X362923Y317274D01*
Y249740D02*
X362090Y250573D01*
X360423D01*
X359590Y249740D01*
Y246408D01*
X360423Y245575D01*
X362090D01*
X362923Y246408D01*
X315679Y202496D02*
X314845Y203329D01*
X313179D01*
X312346Y202496D01*
Y199164D01*
X313179Y198331D01*
X314845D01*
X315679Y199164D01*
X150324Y178874D02*
X149491Y179707D01*
X147825D01*
X146992Y178874D01*
Y175542D01*
X147825Y174709D01*
X149491D01*
X150324Y175542D01*
X138513Y462338D02*
X137680Y463171D01*
X136014D01*
X135181Y462338D01*
Y459006D01*
X136014Y458173D01*
X137680D01*
X138513Y459006D01*
X114891Y344228D02*
X114058Y345061D01*
X112392D01*
X111559Y344228D01*
Y340896D01*
X112392Y340063D01*
X114058D01*
X114891Y340896D01*
X374734Y533205D02*
X373901Y534037D01*
X372235D01*
X371401Y533205D01*
Y529872D01*
X372235Y529039D01*
X373901D01*
X374734Y529872D01*
X138513Y533205D02*
X137680Y534037D01*
X136014D01*
X135181Y533205D01*
Y529872D01*
X136014Y529039D01*
X137680D01*
X138513Y529872D01*
X351112Y391472D02*
X350279Y392305D01*
X348612D01*
X347779Y391472D01*
Y388140D01*
X348612Y387307D01*
X350279D01*
X351112Y388140D01*
X339301Y296984D02*
X338468Y297817D01*
X336801D01*
X335968Y296984D01*
Y293652D01*
X336801Y292819D01*
X338468D01*
X339301Y293652D01*
X351112Y178874D02*
X350279Y179707D01*
X348612D01*
X347779Y178874D01*
Y175542D01*
X348612Y174709D01*
X350279D01*
X351112Y175542D01*
X197568Y344228D02*
X196735Y345061D01*
X195069D01*
X194236Y344228D01*
Y340896D01*
X195069Y340063D01*
X196735D01*
X197568Y340896D01*
X368828Y167063D02*
X367995Y167896D01*
X366329D01*
X365496Y167063D01*
Y163731D01*
X366329Y162898D01*
X367995D01*
X368828Y163731D01*
X262529Y356039D02*
X261696Y356872D01*
X260030D01*
X259197Y356039D01*
Y352707D01*
X260030Y351874D01*
X261696D01*
X262529Y352707D01*
X256624Y485960D02*
X255790Y486794D01*
X254124D01*
X253291Y485960D01*
Y482628D01*
X254124Y481795D01*
X255790D01*
X256624Y482628D01*
X150324Y533205D02*
X149491Y534037D01*
X147825D01*
X146992Y533205D01*
Y529872D01*
X147825Y529039D01*
X149491D01*
X150324Y529872D01*
X368828Y237929D02*
X367995Y238762D01*
X366329D01*
X365496Y237929D01*
Y234597D01*
X366329Y233764D01*
X367995D01*
X368828Y234597D01*
X410167Y485960D02*
X409334Y486794D01*
X407667D01*
X406835Y485960D01*
Y482628D01*
X407667Y481795D01*
X409334D01*
X410167Y482628D01*
X262529Y521393D02*
X261696Y522226D01*
X260030D01*
X259197Y521393D01*
Y518061D01*
X260030Y517228D01*
X261696D01*
X262529Y518061D01*
X309773Y356039D02*
X308940Y356872D01*
X307274D01*
X306441Y356039D01*
Y352707D01*
X307274Y351874D01*
X308940D01*
X309773Y352707D01*
X421978Y485960D02*
X421145Y486794D01*
X419479D01*
X418645Y485960D01*
Y482628D01*
X419479Y481795D01*
X421145D01*
X421978Y482628D01*
X368828Y521393D02*
X367995Y522226D01*
X366329D01*
X365496Y521393D01*
Y518061D01*
X366329Y517228D01*
X367995D01*
X368828Y518061D01*
X416072Y167063D02*
X415239Y167896D01*
X413573D01*
X412740Y167063D01*
Y163731D01*
X413573Y162898D01*
X415239D01*
X416072Y163731D01*
X144419Y261551D02*
X143586Y262384D01*
X141920D01*
X141086Y261551D01*
Y258219D01*
X141920Y257386D01*
X143586D01*
X144419Y258219D01*
X221190Y415094D02*
X220357Y415927D01*
X218691D01*
X217858Y415094D01*
Y411762D01*
X218691Y410929D01*
X220357D01*
X221190Y411762D01*
X439694Y167063D02*
X438861Y167896D01*
X437195D01*
X436362Y167063D01*
Y163731D01*
X437195Y162898D01*
X438861D01*
X439694Y163731D01*
X386545Y462338D02*
X385712Y463171D01*
X384046D01*
X383212Y462338D01*
Y459006D01*
X384046Y458173D01*
X385712D01*
X386545Y459006D01*
X262529Y167063D02*
X261696Y167896D01*
X260030D01*
X259197Y167063D01*
Y163731D01*
X260030Y162898D01*
X261696D01*
X262529Y163731D01*
X345206Y190685D02*
X344373Y191518D01*
X342707D01*
X341874Y190685D01*
Y187353D01*
X342707Y186520D01*
X344373D01*
X345206Y187353D01*
X410167Y296984D02*
X409334Y297817D01*
X407667D01*
X406835Y296984D01*
Y293652D01*
X407667Y292819D01*
X409334D01*
X410167Y293652D01*
X333395Y167063D02*
X332562Y167896D01*
X330896D01*
X330063Y167063D01*
Y163731D01*
X330896Y162898D01*
X332562D01*
X333395Y163731D01*
X150324Y485960D02*
X149491Y486794D01*
X147825D01*
X146992Y485960D01*
Y482628D01*
X147825Y481795D01*
X149491D01*
X150324Y482628D01*
X209379Y533205D02*
X208546Y534037D01*
X206880D01*
X206047Y533205D01*
Y529872D01*
X206880Y529039D01*
X208546D01*
X209379Y529872D01*
X185757Y344228D02*
X184924Y345061D01*
X183258D01*
X182425Y344228D01*
Y340896D01*
X183258Y340063D01*
X184924D01*
X185757Y340896D01*
X221190Y344228D02*
X220357Y345061D01*
X218691D01*
X217858Y344228D01*
Y340896D01*
X218691Y340063D01*
X220357D01*
X221190Y340896D01*
X374734Y320606D02*
X373901Y321439D01*
X372235D01*
X371401Y320606D01*
Y317274D01*
X372235Y316441D01*
X373901D01*
X374734Y317274D01*
X380639Y403283D02*
X379806Y404116D01*
X378140D01*
X377307Y403283D01*
Y399951D01*
X378140Y399118D01*
X379806D01*
X380639Y399951D01*
X475127Y403283D02*
X474294Y404116D01*
X472628D01*
X471795Y403283D01*
Y399951D01*
X472628Y399118D01*
X474294D01*
X475127Y399951D01*
X463316Y356039D02*
X462483Y356872D01*
X460817D01*
X459984Y356039D01*
Y352707D01*
X460817Y351874D01*
X462483D01*
X463316Y352707D01*
X108986Y521393D02*
X108153Y522226D01*
X106486D01*
X105654Y521393D01*
Y518061D01*
X106486Y517228D01*
X108153D01*
X108986Y518061D01*
X114891Y178874D02*
X114058Y179707D01*
X112392D01*
X111559Y178874D01*
Y175542D01*
X112392Y174709D01*
X114058D01*
X114891Y175542D01*
X297962Y285173D02*
X297129Y286006D01*
X295463D01*
X294630Y285173D01*
Y281841D01*
X295463Y281008D01*
X297129D01*
X297962Y281841D01*
X357017Y403283D02*
X356184Y404116D01*
X354518D01*
X353685Y403283D01*
Y399951D01*
X354518Y399118D01*
X356184D01*
X357017Y399951D01*
X362923Y202496D02*
X362090Y203329D01*
X360423D01*
X359590Y202496D01*
Y199164D01*
X360423Y198331D01*
X362090D01*
X362923Y199164D01*
X416072Y426905D02*
X415239Y427738D01*
X413573D01*
X412740Y426905D01*
Y423573D01*
X413573Y422740D01*
X415239D01*
X416072Y423573D01*
X114891Y226118D02*
X114058Y226951D01*
X112392D01*
X111559Y226118D01*
Y222786D01*
X112392Y221953D01*
X114058D01*
X114891Y222786D01*
X286151Y521393D02*
X285318Y522226D01*
X283652D01*
X282819Y521393D01*
Y518061D01*
X283652Y517228D01*
X285318D01*
X286151Y518061D01*
X345206Y450527D02*
X344373Y451360D01*
X342707D01*
X341874Y450527D01*
Y447195D01*
X342707Y446362D01*
X344373D01*
X345206Y447195D01*
X173946Y533205D02*
X173113Y534037D01*
X171447D01*
X170614Y533205D01*
Y529872D01*
X171447Y529039D01*
X173113D01*
X173946Y529872D01*
X398356Y462338D02*
X397523Y463171D01*
X395856D01*
X395023Y462338D01*
Y459006D01*
X395856Y458173D01*
X397523D01*
X398356Y459006D01*
X427883Y167063D02*
X427050Y167896D01*
X425384D01*
X424551Y167063D01*
Y163731D01*
X425384Y162898D01*
X427050D01*
X427883Y163731D01*
X156230Y403283D02*
X155397Y404116D01*
X153731D01*
X152898Y403283D01*
Y399951D01*
X153731Y399118D01*
X155397D01*
X156230Y399951D01*
X268435Y178874D02*
X267601Y179707D01*
X265935D01*
X265102Y178874D01*
Y175542D01*
X265935Y174709D01*
X267601D01*
X268435Y175542D01*
Y273362D02*
X267601Y274195D01*
X265935D01*
X265102Y273362D01*
Y270030D01*
X265935Y269197D01*
X267601D01*
X268435Y270030D01*
X380639Y474149D02*
X379806Y474982D01*
X378140D01*
X377307Y474149D01*
Y470817D01*
X378140Y469984D01*
X379806D01*
X380639Y470817D01*
X327490Y273362D02*
X326657Y274195D01*
X324990D01*
X324157Y273362D01*
Y270030D01*
X324990Y269197D01*
X326657D01*
X327490Y270030D01*
X233001Y438716D02*
X232168Y439549D01*
X230502D01*
X229669Y438716D01*
Y435384D01*
X230502Y434551D01*
X232168D01*
X233001Y435384D01*
X209379Y509582D02*
X208546Y510416D01*
X206880D01*
X206047Y509582D01*
Y506250D01*
X206880Y505417D01*
X208546D01*
X209379Y506250D01*
X333395Y332417D02*
X332562Y333250D01*
X330896D01*
X330063Y332417D01*
Y329085D01*
X330896Y328252D01*
X332562D01*
X333395Y329085D01*
X120797Y332417D02*
X119964Y333250D01*
X118298D01*
X117464Y332417D01*
Y329085D01*
X118298Y328252D01*
X119964D01*
X120797Y329085D01*
X439694Y214307D02*
X438861Y215140D01*
X437195D01*
X436362Y214307D01*
Y210975D01*
X437195Y210142D01*
X438861D01*
X439694Y210975D01*
X457411Y202496D02*
X456578Y203329D01*
X454912D01*
X454078Y202496D01*
Y199164D01*
X454912Y198331D01*
X456578D01*
X457411Y199164D01*
X250718Y497771D02*
X249885Y498604D01*
X248219D01*
X247386Y497771D01*
Y494439D01*
X248219Y493606D01*
X249885D01*
X250718Y494439D01*
X274340Y190685D02*
X273507Y191518D01*
X271841D01*
X271008Y190685D01*
Y187353D01*
X271841Y186520D01*
X273507D01*
X274340Y187353D01*
X475127Y285173D02*
X474294Y286006D01*
X472628D01*
X471795Y285173D01*
Y281841D01*
X472628Y281008D01*
X474294D01*
X475127Y281841D01*
X191663Y497771D02*
X190830Y498604D01*
X189164D01*
X188331Y497771D01*
Y494439D01*
X189164Y493606D01*
X190830D01*
X191663Y494439D01*
X108986Y332417D02*
X108153Y333250D01*
X106486D01*
X105654Y332417D01*
Y329085D01*
X106486Y328252D01*
X108153D01*
X108986Y329085D01*
X173946Y415094D02*
X173113Y415927D01*
X171447D01*
X170614Y415094D01*
Y411762D01*
X171447Y410929D01*
X173113D01*
X173946Y411762D01*
X469222Y367850D02*
X468389Y368683D01*
X466723D01*
X465890Y367850D01*
Y364518D01*
X466723Y363685D01*
X468389D01*
X469222Y364518D01*
X233001Y391472D02*
X232168Y392305D01*
X230502D01*
X229669Y391472D01*
Y388140D01*
X230502Y387307D01*
X232168D01*
X233001Y388140D01*
X475127Y332417D02*
X474294Y333250D01*
X472628D01*
X471795Y332417D01*
Y329085D01*
X472628Y328252D01*
X474294D01*
X475127Y329085D01*
X126702Y533205D02*
X125869Y534037D01*
X124203D01*
X123370Y533205D01*
Y529872D01*
X124203Y529039D01*
X125869D01*
X126702Y529872D01*
X215285Y237929D02*
X214452Y238762D01*
X212786D01*
X211953Y237929D01*
Y234597D01*
X212786Y233764D01*
X214452D01*
X215285Y234597D01*
X439694Y474149D02*
X438861Y474982D01*
X437195D01*
X436362Y474149D01*
Y470817D01*
X437195Y469984D01*
X438861D01*
X439694Y470817D01*
X203474Y356039D02*
X202641Y356872D01*
X200975D01*
X200142Y356039D01*
Y352707D01*
X200975Y351874D01*
X202641D01*
X203474Y352707D01*
X256624Y344228D02*
X255790Y345061D01*
X254124D01*
X253291Y344228D01*
Y340896D01*
X254124Y340063D01*
X255790D01*
X256624Y340896D01*
X351112Y249740D02*
X350279Y250573D01*
X348612D01*
X347779Y249740D01*
Y246408D01*
X348612Y245575D01*
X350279D01*
X351112Y246408D01*
X250718Y214307D02*
X249885Y215140D01*
X248219D01*
X247386Y214307D01*
Y210975D01*
X248219Y210142D01*
X249885D01*
X250718Y210975D01*
X126702Y226118D02*
X125869Y226951D01*
X124203D01*
X123370Y226118D01*
Y222786D01*
X124203Y221953D01*
X125869D01*
X126702Y222786D01*
X244812Y273362D02*
X243979Y274195D01*
X242313D01*
X241480Y273362D01*
Y270030D01*
X242313Y269197D01*
X243979D01*
X244812Y270030D01*
X209379Y320606D02*
X208546Y321439D01*
X206880D01*
X206047Y320606D01*
Y317274D01*
X206880Y316441D01*
X208546D01*
X209379Y317274D01*
X421978Y202496D02*
X421145Y203329D01*
X419479D01*
X418645Y202496D01*
Y199164D01*
X419479Y198331D01*
X421145D01*
X421978Y199164D01*
X339301Y509582D02*
X338468Y510416D01*
X336801D01*
X335968Y509582D01*
Y506250D01*
X336801Y505417D01*
X338468D01*
X339301Y506250D01*
X475127Y214307D02*
X474294Y215140D01*
X472628D01*
X471795Y214307D01*
Y210975D01*
X472628Y210142D01*
X474294D01*
X475127Y210975D01*
X274340Y403283D02*
X273507Y404116D01*
X271841D01*
X271008Y403283D01*
Y399951D01*
X271841Y399118D01*
X273507D01*
X274340Y399951D01*
X156230Y167063D02*
X155397Y167896D01*
X153731D01*
X152898Y167063D01*
Y163731D01*
X153731Y162898D01*
X155397D01*
X156230Y163731D01*
X227096Y403283D02*
X226263Y404116D01*
X224597D01*
X223764Y403283D01*
Y399951D01*
X224597Y399118D01*
X226263D01*
X227096Y399951D01*
X421978Y415094D02*
X421145Y415927D01*
X419479D01*
X418645Y415094D01*
Y411762D01*
X419479Y410929D01*
X421145D01*
X421978Y411762D01*
X386545Y296984D02*
X385712Y297817D01*
X384046D01*
X383212Y296984D01*
Y293652D01*
X384046Y292819D01*
X385712D01*
X386545Y293652D01*
X451505Y521393D02*
X450672Y522226D01*
X449006D01*
X448173Y521393D01*
Y518061D01*
X449006Y517228D01*
X450672D01*
X451505Y518061D01*
X333395Y521393D02*
X332562Y522226D01*
X330896D01*
X330063Y521393D01*
Y518061D01*
X330896Y517228D01*
X332562D01*
X333395Y518061D01*
X238907Y261551D02*
X238074Y262384D01*
X236408D01*
X235575Y261551D01*
Y258219D01*
X236408Y257386D01*
X238074D01*
X238907Y258219D01*
X120797Y356039D02*
X119964Y356872D01*
X118298D01*
X117464Y356039D01*
Y352707D01*
X118298Y351874D01*
X119964D01*
X120797Y352707D01*
X433789Y344228D02*
X432956Y345061D01*
X431290D01*
X430456Y344228D01*
Y340896D01*
X431290Y340063D01*
X432956D01*
X433789Y340896D01*
X156230Y379661D02*
X155397Y380494D01*
X153731D01*
X152898Y379661D01*
Y376329D01*
X153731Y375496D01*
X155397D01*
X156230Y376329D01*
X227096Y379661D02*
X226263Y380494D01*
X224597D01*
X223764Y379661D01*
Y376329D01*
X224597Y375496D01*
X226263D01*
X227096Y376329D01*
X374734Y249740D02*
X373901Y250573D01*
X372235D01*
X371401Y249740D01*
Y246408D01*
X372235Y245575D01*
X373901D01*
X374734Y246408D01*
X268435Y438716D02*
X267601Y439549D01*
X265935D01*
X265102Y438716D01*
Y435384D01*
X265935Y434551D01*
X267601D01*
X268435Y435384D01*
X138513Y273362D02*
X137680Y274195D01*
X136014D01*
X135181Y273362D01*
Y270030D01*
X136014Y269197D01*
X137680D01*
X138513Y270030D01*
X292056Y296984D02*
X291224Y297817D01*
X289557D01*
X288724Y296984D01*
Y293652D01*
X289557Y292819D01*
X291224D01*
X292056Y293652D01*
X439694Y308795D02*
X438861Y309628D01*
X437195D01*
X436362Y308795D01*
Y305463D01*
X437195Y304630D01*
X438861D01*
X439694Y305463D01*
X392450Y167063D02*
X391617Y167896D01*
X389951D01*
X389118Y167063D01*
Y163731D01*
X389951Y162898D01*
X391617D01*
X392450Y163731D01*
X238907Y190685D02*
X238074Y191518D01*
X236408D01*
X235575Y190685D01*
Y187353D01*
X236408Y186520D01*
X238074D01*
X238907Y187353D01*
X345206Y167063D02*
X344373Y167896D01*
X342707D01*
X341874Y167063D01*
Y163731D01*
X342707Y162898D01*
X344373D01*
X345206Y163731D01*
X132608Y497771D02*
X131775Y498604D01*
X130109D01*
X129276Y497771D01*
Y494439D01*
X130109Y493606D01*
X131775D01*
X132608Y494439D01*
X410167Y367850D02*
X409334Y368683D01*
X407667D01*
X406835Y367850D01*
Y364518D01*
X407667Y363685D01*
X409334D01*
X410167Y364518D01*
Y249740D02*
X409334Y250573D01*
X407667D01*
X406835Y249740D01*
Y246408D01*
X407667Y245575D01*
X409334D01*
X410167Y246408D01*
X280245Y485960D02*
X279412Y486794D01*
X277746D01*
X276913Y485960D01*
Y482628D01*
X277746Y481795D01*
X279412D01*
X280245Y482628D01*
X357017Y356039D02*
X356184Y356872D01*
X354518D01*
X353685Y356039D01*
Y352707D01*
X354518Y351874D01*
X356184D01*
X357017Y352707D01*
X256624Y391472D02*
X255790Y392305D01*
X254124D01*
X253291Y391472D01*
Y388140D01*
X254124Y387307D01*
X255790D01*
X256624Y388140D01*
X303868Y367850D02*
X303034Y368683D01*
X301368D01*
X300535Y367850D01*
Y364518D01*
X301368Y363685D01*
X303034D01*
X303868Y364518D01*
X345206Y237929D02*
X344373Y238762D01*
X342707D01*
X341874Y237929D01*
Y234597D01*
X342707Y233764D01*
X344373D01*
X345206Y234597D01*
X445600Y273362D02*
X444767Y274195D01*
X443101D01*
X442268Y273362D01*
Y270030D01*
X443101Y269197D01*
X444767D01*
X445600Y270030D01*
X303868Y249740D02*
X303034Y250573D01*
X301368D01*
X300535Y249740D01*
Y246408D01*
X301368Y245575D01*
X303034D01*
X303868Y246408D01*
X268435Y202496D02*
X267601Y203329D01*
X265935D01*
X265102Y202496D01*
Y199164D01*
X265935Y198331D01*
X267601D01*
X268435Y199164D01*
X292056Y178874D02*
X291224Y179707D01*
X289557D01*
X288724Y178874D01*
Y175542D01*
X289557Y174709D01*
X291224D01*
X292056Y175542D01*
X173946Y509582D02*
X173113Y510416D01*
X171447D01*
X170614Y509582D01*
Y506250D01*
X171447Y505417D01*
X173113D01*
X173946Y506250D01*
X362923Y367850D02*
X362090Y368683D01*
X360423D01*
X359590Y367850D01*
Y364518D01*
X360423Y363685D01*
X362090D01*
X362923Y364518D01*
X286151Y403283D02*
X285318Y404116D01*
X283652D01*
X282819Y403283D01*
Y399951D01*
X283652Y399118D01*
X285318D01*
X286151Y399951D01*
X138513Y391472D02*
X137680Y392305D01*
X136014D01*
X135181Y391472D01*
Y388140D01*
X136014Y387307D01*
X137680D01*
X138513Y388140D01*
X168041Y167063D02*
X167208Y167896D01*
X165542D01*
X164709Y167063D01*
Y163731D01*
X165542Y162898D01*
X167208D01*
X168041Y163731D01*
X126702Y178874D02*
X125869Y179707D01*
X124203D01*
X123370Y178874D01*
Y175542D01*
X124203Y174709D01*
X125869D01*
X126702Y175542D01*
Y249740D02*
X125869Y250573D01*
X124203D01*
X123370Y249740D01*
Y246408D01*
X124203Y245575D01*
X125869D01*
X126702Y246408D01*
X274340Y497771D02*
X273507Y498604D01*
X271841D01*
X271008Y497771D01*
Y494439D01*
X271841Y493606D01*
X273507D01*
X274340Y494439D01*
X392450Y403283D02*
X391617Y404116D01*
X389951D01*
X389118Y403283D01*
Y399951D01*
X389951Y399118D01*
X391617D01*
X392450Y399951D01*
X303868Y296984D02*
X303034Y297817D01*
X301368D01*
X300535Y296984D01*
Y293652D01*
X301368Y292819D01*
X303034D01*
X303868Y293652D01*
X457411Y273362D02*
X456578Y274195D01*
X454912D01*
X454078Y273362D01*
Y270030D01*
X454912Y269197D01*
X456578D01*
X457411Y270030D01*
X256624Y438716D02*
X255790Y439549D01*
X254124D01*
X253291Y438716D01*
Y435384D01*
X254124Y434551D01*
X255790D01*
X256624Y435384D01*
X150324Y415094D02*
X149491Y415927D01*
X147825D01*
X146992Y415094D01*
Y411762D01*
X147825Y410929D01*
X149491D01*
X150324Y411762D01*
X215285Y261551D02*
X214452Y262384D01*
X212786D01*
X211953Y261551D01*
Y258219D01*
X212786Y257386D01*
X214452D01*
X215285Y258219D01*
X227096Y285173D02*
X226263Y286006D01*
X224597D01*
X223764Y285173D01*
Y281841D01*
X224597Y281008D01*
X226263D01*
X227096Y281841D01*
X309773Y214307D02*
X308940Y215140D01*
X307274D01*
X306441Y214307D01*
Y210975D01*
X307274Y210142D01*
X308940D01*
X309773Y210975D01*
X416072Y521393D02*
X415239Y522226D01*
X413573D01*
X412740Y521393D01*
Y518061D01*
X413573Y517228D01*
X415239D01*
X416072Y518061D01*
X345206Y521393D02*
X344373Y522226D01*
X342707D01*
X341874Y521393D01*
Y518061D01*
X342707Y517228D01*
X344373D01*
X345206Y518061D01*
X357017Y379661D02*
X356184Y380494D01*
X354518D01*
X353685Y379661D01*
Y376329D01*
X354518Y375496D01*
X356184D01*
X357017Y376329D01*
X404261Y474149D02*
X403428Y474982D01*
X401762D01*
X400929Y474149D01*
Y470817D01*
X401762Y469984D01*
X403428D01*
X404261Y470817D01*
X238907Y497771D02*
X238074Y498604D01*
X236408D01*
X235575Y497771D01*
Y494439D01*
X236408Y493606D01*
X238074D01*
X238907Y494439D01*
X191663Y356039D02*
X190830Y356872D01*
X189164D01*
X188331Y356039D01*
Y352707D01*
X189164Y351874D01*
X190830D01*
X191663Y352707D01*
X156230Y190685D02*
X155397Y191518D01*
X153731D01*
X152898Y190685D01*
Y187353D01*
X153731Y186520D01*
X155397D01*
X156230Y187353D01*
X445600Y438716D02*
X444767Y439549D01*
X443101D01*
X442268Y438716D01*
Y435384D01*
X443101Y434551D01*
X444767D01*
X445600Y435384D01*
X120797Y214307D02*
X119964Y215140D01*
X118298D01*
X117464Y214307D01*
Y210975D01*
X118298Y210142D01*
X119964D01*
X120797Y210975D01*
X297962Y379661D02*
X297129Y380494D01*
X295463D01*
X294630Y379661D01*
Y376329D01*
X295463Y375496D01*
X297129D01*
X297962Y376329D01*
X250718Y167063D02*
X249885Y167896D01*
X248219D01*
X247386Y167063D01*
Y163731D01*
X248219Y162898D01*
X249885D01*
X250718Y163731D01*
X108986Y403283D02*
X108153Y404116D01*
X106486D01*
X105654Y403283D01*
Y399951D01*
X106486Y399118D01*
X108153D01*
X108986Y399951D01*
X286151Y167063D02*
X285318Y167896D01*
X283652D01*
X282819Y167063D01*
Y163731D01*
X283652Y162898D01*
X285318D01*
X286151Y163731D01*
X398356Y391472D02*
X397523Y392305D01*
X395856D01*
X395023Y391472D01*
Y388140D01*
X395856Y387307D01*
X397523D01*
X398356Y388140D01*
X238907Y403283D02*
X238074Y404116D01*
X236408D01*
X235575Y403283D01*
Y399951D01*
X236408Y399118D01*
X238074D01*
X238907Y399951D01*
X233001Y415094D02*
X232168Y415927D01*
X230502D01*
X229669Y415094D01*
Y411762D01*
X230502Y410929D01*
X232168D01*
X233001Y411762D01*
X138513Y415094D02*
X137680Y415927D01*
X136014D01*
X135181Y415094D01*
Y411762D01*
X136014Y410929D01*
X137680D01*
X138513Y411762D01*
X162135Y391472D02*
X161302Y392305D01*
X159636D01*
X158803Y391472D01*
Y388140D01*
X159636Y387307D01*
X161302D01*
X162135Y388140D01*
X144419Y450527D02*
X143586Y451360D01*
X141920D01*
X141086Y450527D01*
Y447195D01*
X141920Y446362D01*
X143586D01*
X144419Y447195D01*
X244812Y249740D02*
X243979Y250573D01*
X242313D01*
X241480Y249740D01*
Y246408D01*
X242313Y245575D01*
X243979D01*
X244812Y246408D01*
X445600Y320606D02*
X444767Y321439D01*
X443101D01*
X442268Y320606D01*
Y317274D01*
X443101Y316441D01*
X444767D01*
X445600Y317274D01*
X451505Y214307D02*
X450672Y215140D01*
X449006D01*
X448173Y214307D01*
Y210975D01*
X449006Y210142D01*
X450672D01*
X451505Y210975D01*
X439694Y426905D02*
X438861Y427738D01*
X437195D01*
X436362Y426905D01*
Y423573D01*
X437195Y422740D01*
X438861D01*
X439694Y423573D01*
X469222Y202496D02*
X468389Y203329D01*
X466723D01*
X465890Y202496D01*
Y199164D01*
X466723Y198331D01*
X468389D01*
X469222Y199164D01*
X215285Y521393D02*
X214452Y522226D01*
X212786D01*
X211953Y521393D01*
Y518061D01*
X212786Y517228D01*
X214452D01*
X215285Y518061D01*
X475127Y308795D02*
X474294Y309628D01*
X472628D01*
X471795Y308795D01*
Y305463D01*
X472628Y304630D01*
X474294D01*
X475127Y305463D01*
X191663Y403283D02*
X190830Y404116D01*
X189164D01*
X188331Y403283D01*
Y399951D01*
X189164Y399118D01*
X190830D01*
X191663Y399951D01*
X368828Y261551D02*
X367995Y262384D01*
X366329D01*
X365496Y261551D01*
Y258219D01*
X366329Y257386D01*
X367995D01*
X368828Y258219D01*
X392450Y356039D02*
X391617Y356872D01*
X389951D01*
X389118Y356039D01*
Y352707D01*
X389951Y351874D01*
X391617D01*
X392450Y352707D01*
X321584Y379661D02*
X320751Y380494D01*
X319085D01*
X318252Y379661D01*
Y376329D01*
X319085Y375496D01*
X320751D01*
X321584Y376329D01*
X126702Y202496D02*
X125869Y203329D01*
X124203D01*
X123370Y202496D01*
Y199164D01*
X124203Y198331D01*
X125869D01*
X126702Y199164D01*
X427883Y214307D02*
X427050Y215140D01*
X425384D01*
X424551Y214307D01*
Y210975D01*
X425384Y210142D01*
X427050D01*
X427883Y210975D01*
X209379Y367850D02*
X208546Y368683D01*
X206880D01*
X206047Y367850D01*
Y364518D01*
X206880Y363685D01*
X208546D01*
X209379Y364518D01*
X463316Y426905D02*
X462483Y427738D01*
X460817D01*
X459984Y426905D01*
Y423573D01*
X460817Y422740D01*
X462483D01*
X463316Y423573D01*
X179852Y403283D02*
X179019Y404116D01*
X177353D01*
X176520Y403283D01*
Y399951D01*
X177353Y399118D01*
X179019D01*
X179852Y399951D01*
X215285Y403283D02*
X214452Y404116D01*
X212786D01*
X211953Y403283D01*
Y399951D01*
X212786Y399118D01*
X214452D01*
X215285Y399951D01*
X374734Y344228D02*
X373901Y345061D01*
X372235D01*
X371401Y344228D01*
Y340896D01*
X372235Y340063D01*
X373901D01*
X374734Y340896D01*
X392450Y474149D02*
X391617Y474982D01*
X389951D01*
X389118Y474149D01*
Y470817D01*
X389951Y469984D01*
X391617D01*
X392450Y470817D01*
X357017Y261551D02*
X356184Y262384D01*
X354518D01*
X353685Y261551D01*
Y258219D01*
X354518Y257386D01*
X356184D01*
X357017Y258219D01*
X380639Y521393D02*
X379806Y522226D01*
X378140D01*
X377307Y521393D01*
Y518061D01*
X378140Y517228D01*
X379806D01*
X380639Y518061D01*
X392450Y332417D02*
X391617Y333250D01*
X389951D01*
X389118Y332417D01*
Y329085D01*
X389951Y328252D01*
X391617D01*
X392450Y329085D01*
X333395Y237929D02*
X332562Y238762D01*
X330896D01*
X330063Y237929D01*
Y234597D01*
X330896Y233764D01*
X332562D01*
X333395Y234597D01*
X357017Y190685D02*
X356184Y191518D01*
X354518D01*
X353685Y190685D01*
Y187353D01*
X354518Y186520D01*
X356184D01*
X357017Y187353D01*
X274340Y214307D02*
X273507Y215140D01*
X271841D01*
X271008Y214307D01*
Y210975D01*
X271841Y210142D01*
X273507D01*
X274340Y210975D01*
X333395Y190685D02*
X332562Y191518D01*
X330896D01*
X330063Y190685D01*
Y187353D01*
X330896Y186520D01*
X332562D01*
X333395Y187353D01*
X144419Y379661D02*
X143586Y380494D01*
X141920D01*
X141086Y379661D01*
Y376329D01*
X141920Y375496D01*
X143586D01*
X144419Y376329D01*
X427883Y190685D02*
X427050Y191518D01*
X425384D01*
X424551Y190685D01*
Y187353D01*
X425384Y186520D01*
X427050D01*
X427883Y187353D01*
X297962Y356039D02*
X297129Y356872D01*
X295463D01*
X294630Y356039D01*
Y352707D01*
X295463Y351874D01*
X297129D01*
X297962Y352707D01*
X469222Y509582D02*
X468389Y510416D01*
X466723D01*
X465890Y509582D01*
Y506250D01*
X466723Y505417D01*
X468389D01*
X469222Y506250D01*
X280245Y296984D02*
X279412Y297817D01*
X277746D01*
X276913Y296984D01*
Y293652D01*
X277746Y292819D01*
X279412D01*
X280245Y293652D01*
X227096Y190685D02*
X226263Y191518D01*
X224597D01*
X223764Y190685D01*
Y187353D01*
X224597Y186520D01*
X226263D01*
X227096Y187353D01*
X114891Y320606D02*
X114058Y321439D01*
X112392D01*
X111559Y320606D01*
Y317274D01*
X112392Y316441D01*
X114058D01*
X114891Y317274D01*
X268435Y296984D02*
X267601Y297817D01*
X265935D01*
X265102Y296984D01*
Y293652D01*
X265935Y292819D01*
X267601D01*
X268435Y293652D01*
X416072Y403283D02*
X415239Y404116D01*
X413573D01*
X412740Y403283D01*
Y399951D01*
X413573Y399118D01*
X415239D01*
X416072Y399951D01*
Y332417D02*
X415239Y333250D01*
X413573D01*
X412740Y332417D01*
Y329085D01*
X413573Y328252D01*
X415239D01*
X416072Y329085D01*
X463316Y237929D02*
X462483Y238762D01*
X460817D01*
X459984Y237929D01*
Y234597D01*
X460817Y233764D01*
X462483D01*
X463316Y234597D01*
X416072Y237929D02*
X415239Y238762D01*
X413573D01*
X412740Y237929D01*
Y234597D01*
X413573Y233764D01*
X415239D01*
X416072Y234597D01*
X421978Y438716D02*
X421145Y439549D01*
X419479D01*
X418645Y438716D01*
Y435384D01*
X419479Y434551D01*
X421145D01*
X421978Y435384D01*
X197568Y533205D02*
X196735Y534037D01*
X195069D01*
X194236Y533205D01*
Y529872D01*
X195069Y529039D01*
X196735D01*
X197568Y529872D01*
X227096Y261551D02*
X226263Y262384D01*
X224597D01*
X223764Y261551D01*
Y258219D01*
X224597Y257386D01*
X226263D01*
X227096Y258219D01*
X427883Y261551D02*
X427050Y262384D01*
X425384D01*
X424551Y261551D01*
Y258219D01*
X425384Y257386D01*
X427050D01*
X427883Y258219D01*
X463316Y261551D02*
X462483Y262384D01*
X460817D01*
X459984Y261551D01*
Y258219D01*
X460817Y257386D01*
X462483D01*
X463316Y258219D01*
X368828Y403283D02*
X367995Y404116D01*
X366329D01*
X365496Y403283D01*
Y399951D01*
X366329Y399118D01*
X367995D01*
X368828Y399951D01*
X197568Y367850D02*
X196735Y368683D01*
X195069D01*
X194236Y367850D01*
Y364518D01*
X195069Y363685D01*
X196735D01*
X197568Y364518D01*
X297962Y190685D02*
X297129Y191518D01*
X295463D01*
X294630Y190685D01*
Y187353D01*
X295463Y186520D01*
X297129D01*
X297962Y187353D01*
X144419Y308795D02*
X143586Y309628D01*
X141920D01*
X141086Y308795D01*
Y305463D01*
X141920Y304630D01*
X143586D01*
X144419Y305463D01*
X256624Y249740D02*
X255790Y250573D01*
X254124D01*
X253291Y249740D01*
Y246408D01*
X254124Y245575D01*
X255790D01*
X256624Y246408D01*
X203474Y190685D02*
X202641Y191518D01*
X200975D01*
X200142Y190685D01*
Y187353D01*
X200975Y186520D01*
X202641D01*
X203474Y187353D01*
X108986Y285173D02*
X108153Y286006D01*
X106486D01*
X105654Y285173D01*
Y281841D01*
X106486Y281008D01*
X108153D01*
X108986Y281841D01*
X380639Y332417D02*
X379806Y333250D01*
X378140D01*
X377307Y332417D01*
Y329085D01*
X378140Y328252D01*
X379806D01*
X380639Y329085D01*
X445600Y249740D02*
X444767Y250573D01*
X443101D01*
X442268Y249740D01*
Y246408D01*
X443101Y245575D01*
X444767D01*
X445600Y246408D01*
X351112Y509582D02*
X350279Y510416D01*
X348612D01*
X347779Y509582D01*
Y506250D01*
X348612Y505417D01*
X350279D01*
X351112Y506250D01*
X421978Y391472D02*
X421145Y392305D01*
X419479D01*
X418645Y391472D01*
Y388140D01*
X419479Y387307D01*
X421145D01*
X421978Y388140D01*
X463316Y497771D02*
X462483Y498604D01*
X460817D01*
X459984Y497771D01*
Y494439D01*
X460817Y493606D01*
X462483D01*
X463316Y494439D01*
X256624Y296984D02*
X255790Y297817D01*
X254124D01*
X253291Y296984D01*
Y293652D01*
X254124Y292819D01*
X255790D01*
X256624Y293652D01*
X286151Y497771D02*
X285318Y498604D01*
X283652D01*
X282819Y497771D01*
Y494439D01*
X283652Y493606D01*
X285318D01*
X286151Y494439D01*
X233001Y533205D02*
X232168Y534037D01*
X230502D01*
X229669Y533205D01*
Y529872D01*
X230502Y529039D01*
X232168D01*
X233001Y529872D01*
X114891Y296984D02*
X114058Y297817D01*
X112392D01*
X111559Y296984D01*
Y293652D01*
X112392Y292819D01*
X114058D01*
X114891Y293652D01*
X120797Y285173D02*
X119964Y286006D01*
X118298D01*
X117464Y285173D01*
Y281841D01*
X118298Y281008D01*
X119964D01*
X120797Y281841D01*
X185757Y391472D02*
X184924Y392305D01*
X183258D01*
X182425Y391472D01*
Y388140D01*
X183258Y387307D01*
X184924D01*
X185757Y388140D01*
X416072Y190685D02*
X415239Y191518D01*
X413573D01*
X412740Y190685D01*
Y187353D01*
X413573Y186520D01*
X415239D01*
X416072Y187353D01*
X451505Y308795D02*
X450672Y309628D01*
X449006D01*
X448173Y308795D01*
Y305463D01*
X449006Y304630D01*
X450672D01*
X451505Y305463D01*
X168041Y379661D02*
X167208Y380494D01*
X165542D01*
X164709Y379661D01*
Y376329D01*
X165542Y375496D01*
X167208D01*
X168041Y376329D01*
X238907Y521393D02*
X238074Y522226D01*
X236408D01*
X235575Y521393D01*
Y518061D01*
X236408Y517228D01*
X238074D01*
X238907Y518061D01*
X368828Y190685D02*
X367995Y191518D01*
X366329D01*
X365496Y190685D01*
Y187353D01*
X366329Y186520D01*
X367995D01*
X368828Y187353D01*
X374734Y273362D02*
X373901Y274195D01*
X372235D01*
X371401Y273362D01*
Y270030D01*
X372235Y269197D01*
X373901D01*
X374734Y270030D01*
X416072Y285173D02*
X415239Y286006D01*
X413573D01*
X412740Y285173D01*
Y281841D01*
X413573Y281008D01*
X415239D01*
X416072Y281841D01*
X256624Y509582D02*
X255790Y510416D01*
X254124D01*
X253291Y509582D01*
Y506250D01*
X254124Y505417D01*
X255790D01*
X256624Y506250D01*
X303868Y344228D02*
X303034Y345061D01*
X301368D01*
X300535Y344228D01*
Y340896D01*
X301368Y340063D01*
X303034D01*
X303868Y340896D01*
X433789Y249740D02*
X432956Y250573D01*
X431290D01*
X430456Y249740D01*
Y246408D01*
X431290Y245575D01*
X432956D01*
X433789Y246408D01*
X427883Y332417D02*
X427050Y333250D01*
X425384D01*
X424551Y332417D01*
Y329085D01*
X425384Y328252D01*
X427050D01*
X427883Y329085D01*
X203474Y521393D02*
X202641Y522226D01*
X200975D01*
X200142Y521393D01*
Y518061D01*
X200975Y517228D01*
X202641D01*
X203474Y518061D01*
X309773Y237929D02*
X308940Y238762D01*
X307274D01*
X306441Y237929D01*
Y234597D01*
X307274Y233764D01*
X308940D01*
X309773Y234597D01*
X404261Y403283D02*
X403428Y404116D01*
X401762D01*
X400929Y403283D01*
Y399951D01*
X401762Y399118D01*
X403428D01*
X404261Y399951D01*
X156230Y450527D02*
X155397Y451360D01*
X153731D01*
X152898Y450527D01*
Y447195D01*
X153731Y446362D01*
X155397D01*
X156230Y447195D01*
X244812Y320606D02*
X243979Y321439D01*
X242313D01*
X241480Y320606D01*
Y317274D01*
X242313Y316441D01*
X243979D01*
X244812Y317274D01*
X297962Y497771D02*
X297129Y498604D01*
X295463D01*
X294630Y497771D01*
Y494439D01*
X295463Y493606D01*
X297129D01*
X297962Y494439D01*
X404261Y214307D02*
X403428Y215140D01*
X401762D01*
X400929Y214307D01*
Y210975D01*
X401762Y210142D01*
X403428D01*
X404261Y210975D01*
X345206Y379661D02*
X344373Y380494D01*
X342707D01*
X341874Y379661D01*
Y376329D01*
X342707Y375496D01*
X344373D01*
X345206Y376329D01*
X268435Y485960D02*
X267601Y486794D01*
X265935D01*
X265102Y485960D01*
Y482628D01*
X265935Y481795D01*
X267601D01*
X268435Y482628D01*
X392450Y237929D02*
X391617Y238762D01*
X389951D01*
X389118Y237929D01*
Y234597D01*
X389951Y233764D01*
X391617D01*
X392450Y234597D01*
X303868Y485960D02*
X303034Y486794D01*
X301368D01*
X300535Y485960D01*
Y482628D01*
X301368Y481795D01*
X303034D01*
X303868Y482628D01*
X108986Y450527D02*
X108153Y451360D01*
X106486D01*
X105654Y450527D01*
Y447195D01*
X106486Y446362D01*
X108153D01*
X108986Y447195D01*
X309773Y167063D02*
X308940Y167896D01*
X307274D01*
X306441Y167063D01*
Y163731D01*
X307274Y162898D01*
X308940D01*
X309773Y163731D01*
X463316Y308795D02*
X462483Y309628D01*
X460817D01*
X459984Y308795D01*
Y305463D01*
X460817Y304630D01*
X462483D01*
X463316Y305463D01*
X309773Y379661D02*
X308940Y380494D01*
X307274D01*
X306441Y379661D01*
Y376329D01*
X307274Y375496D01*
X308940D01*
X309773Y376329D01*
X227096Y521393D02*
X226263Y522226D01*
X224597D01*
X223764Y521393D01*
Y518061D01*
X224597Y517228D01*
X226263D01*
X227096Y518061D01*
X333395Y379661D02*
X332562Y380494D01*
X330896D01*
X330063Y379661D01*
Y376329D01*
X330896Y375496D01*
X332562D01*
X333395Y376329D01*
X280245Y202496D02*
X279412Y203329D01*
X277746D01*
X276913Y202496D01*
Y199164D01*
X277746Y198331D01*
X279412D01*
X280245Y199164D01*
X404261Y521393D02*
X403428Y522226D01*
X401762D01*
X400929Y521393D01*
Y518061D01*
X401762Y517228D01*
X403428D01*
X404261Y518061D01*
X469222Y391472D02*
X468389Y392305D01*
X466723D01*
X465890Y391472D01*
Y388140D01*
X466723Y387307D01*
X468389D01*
X469222Y388140D01*
X227096Y167063D02*
X226263Y167896D01*
X224597D01*
X223764Y167063D01*
Y163731D01*
X224597Y162898D01*
X226263D01*
X227096Y163731D01*
X315679Y485960D02*
X314845Y486794D01*
X313179D01*
X312346Y485960D01*
Y482628D01*
X313179Y481795D01*
X314845D01*
X315679Y482628D01*
X345206Y214307D02*
X344373Y215140D01*
X342707D01*
X341874Y214307D01*
Y210975D01*
X342707Y210142D01*
X344373D01*
X345206Y210975D01*
X339301Y344228D02*
X338468Y345061D01*
X336801D01*
X335968Y344228D01*
Y340896D01*
X336801Y340063D01*
X338468D01*
X339301Y340896D01*
X168041Y403283D02*
X167208Y404116D01*
X165542D01*
X164709Y403283D01*
Y399951D01*
X165542Y399118D01*
X167208D01*
X168041Y399951D01*
X244812Y533205D02*
X243979Y534037D01*
X242313D01*
X241480Y533205D01*
Y529872D01*
X242313Y529039D01*
X243979D01*
X244812Y529872D01*
X280245Y509582D02*
X279412Y510416D01*
X277746D01*
X276913Y509582D01*
Y506250D01*
X277746Y505417D01*
X279412D01*
X280245Y506250D01*
Y391472D02*
X279412Y392305D01*
X277746D01*
X276913Y391472D01*
Y388140D01*
X277746Y387307D01*
X279412D01*
X280245Y388140D01*
X286151Y237929D02*
X285318Y238762D01*
X283652D01*
X282819Y237929D01*
Y234597D01*
X283652Y233764D01*
X285318D01*
X286151Y234597D01*
X315679Y415094D02*
X314845Y415927D01*
X313179D01*
X312346Y415094D01*
Y411762D01*
X313179Y410929D01*
X314845D01*
X315679Y411762D01*
X233001Y509582D02*
X232168Y510416D01*
X230502D01*
X229669Y509582D01*
Y506250D01*
X230502Y505417D01*
X232168D01*
X233001Y506250D01*
X297962Y214307D02*
X297129Y215140D01*
X295463D01*
X294630Y214307D01*
Y210975D01*
X295463Y210142D01*
X297129D01*
X297962Y210975D01*
X238907Y285173D02*
X238074Y286006D01*
X236408D01*
X235575Y285173D01*
Y281841D01*
X236408Y281008D01*
X238074D01*
X238907Y281841D01*
X280245Y178874D02*
X279412Y179707D01*
X277746D01*
X276913Y178874D01*
Y175542D01*
X277746Y174709D01*
X279412D01*
X280245Y175542D01*
X410167Y202496D02*
X409334Y203329D01*
X407667D01*
X406835Y202496D01*
Y199164D01*
X407667Y198331D01*
X409334D01*
X410167Y199164D01*
X439694Y261551D02*
X438861Y262384D01*
X437195D01*
X436362Y261551D01*
Y258219D01*
X437195Y257386D01*
X438861D01*
X439694Y258219D01*
X463316Y450527D02*
X462483Y451360D01*
X460817D01*
X459984Y450527D01*
Y447195D01*
X460817Y446362D01*
X462483D01*
X463316Y447195D01*
X380639Y167063D02*
X379806Y167896D01*
X378140D01*
X377307Y167063D01*
Y163731D01*
X378140Y162898D01*
X379806D01*
X380639Y163731D01*
X203474Y237929D02*
X202641Y238762D01*
X200975D01*
X200142Y237929D01*
Y234597D01*
X200975Y233764D01*
X202641D01*
X203474Y234597D01*
X244812Y509582D02*
X243979Y510416D01*
X242313D01*
X241480Y509582D01*
Y506250D01*
X242313Y505417D01*
X243979D01*
X244812Y506250D01*
X327490Y178874D02*
X326657Y179707D01*
X324990D01*
X324157Y178874D01*
Y175542D01*
X324990Y174709D01*
X326657D01*
X327490Y175542D01*
X398356Y273362D02*
X397523Y274195D01*
X395856D01*
X395023Y273362D01*
Y270030D01*
X395856Y269197D01*
X397523D01*
X398356Y270030D01*
X421978Y273362D02*
X421145Y274195D01*
X419479D01*
X418645Y273362D01*
Y270030D01*
X419479Y269197D01*
X421145D01*
X421978Y270030D01*
X321584Y403283D02*
X320751Y404116D01*
X319085D01*
X318252Y403283D01*
Y399951D01*
X319085Y399118D01*
X320751D01*
X321584Y399951D01*
X132608Y332417D02*
X131775Y333250D01*
X130109D01*
X129276Y332417D01*
Y329085D01*
X130109Y328252D01*
X131775D01*
X132608Y329085D01*
X445600Y202496D02*
X444767Y203329D01*
X443101D01*
X442268Y202496D01*
Y199164D01*
X443101Y198331D01*
X444767D01*
X445600Y199164D01*
X362923Y296984D02*
X362090Y297817D01*
X360423D01*
X359590Y296984D01*
Y293652D01*
X360423Y292819D01*
X362090D01*
X362923Y293652D01*
X457411Y320606D02*
X456578Y321439D01*
X454912D01*
X454078Y320606D01*
Y317274D01*
X454912Y316441D01*
X456578D01*
X457411Y317274D01*
X162135Y485960D02*
X161302Y486794D01*
X159636D01*
X158803Y485960D01*
Y482628D01*
X159636Y481795D01*
X161302D01*
X162135Y482628D01*
X126702Y273362D02*
X125869Y274195D01*
X124203D01*
X123370Y273362D01*
Y270030D01*
X124203Y269197D01*
X125869D01*
X126702Y270030D01*
X233001Y273362D02*
X232168Y274195D01*
X230502D01*
X229669Y273362D01*
Y270030D01*
X230502Y269197D01*
X232168D01*
X233001Y270030D01*
X368828Y214307D02*
X367995Y215140D01*
X366329D01*
X365496Y214307D01*
Y210975D01*
X366329Y210142D01*
X367995D01*
X368828Y210975D01*
X410167Y438716D02*
X409334Y439549D01*
X407667D01*
X406835Y438716D01*
Y435384D01*
X407667Y434551D01*
X409334D01*
X410167Y435384D01*
X132608Y237929D02*
X131775Y238762D01*
X130109D01*
X129276Y237929D01*
Y234597D01*
X130109Y233764D01*
X131775D01*
X132608Y234597D01*
X268435Y462338D02*
X267601Y463171D01*
X265935D01*
X265102Y462338D01*
Y459006D01*
X265935Y458173D01*
X267601D01*
X268435Y459006D01*
X292056Y533205D02*
X291224Y534037D01*
X289557D01*
X288724Y533205D01*
Y529872D01*
X289557Y529039D01*
X291224D01*
X292056Y529872D01*
X368828Y474149D02*
X367995Y474982D01*
X366329D01*
X365496Y474149D01*
Y470817D01*
X366329Y469984D01*
X367995D01*
X368828Y470817D01*
X244812Y391472D02*
X243979Y392305D01*
X242313D01*
X241480Y391472D01*
Y388140D01*
X242313Y387307D01*
X243979D01*
X244812Y388140D01*
Y485960D02*
X243979Y486794D01*
X242313D01*
X241480Y485960D01*
Y482628D01*
X242313Y481795D01*
X243979D01*
X244812Y482628D01*
X262529Y214307D02*
X261696Y215140D01*
X260030D01*
X259197Y214307D01*
Y210975D01*
X260030Y210142D01*
X261696D01*
X262529Y210975D01*
X185757Y533205D02*
X184924Y534037D01*
X183258D01*
X182425Y533205D01*
Y529872D01*
X183258Y529039D01*
X184924D01*
X185757Y529872D01*
X439694Y190685D02*
X438861Y191518D01*
X437195D01*
X436362Y190685D01*
Y187353D01*
X437195Y186520D01*
X438861D01*
X439694Y187353D01*
X421978Y178874D02*
X421145Y179707D01*
X419479D01*
X418645Y178874D01*
Y175542D01*
X419479Y174709D01*
X421145D01*
X421978Y175542D01*
X386545Y344228D02*
X385712Y345061D01*
X384046D01*
X383212Y344228D01*
Y340896D01*
X384046Y340063D01*
X385712D01*
X386545Y340896D01*
X191663Y190685D02*
X190830Y191518D01*
X189164D01*
X188331Y190685D01*
Y187353D01*
X189164Y186520D01*
X190830D01*
X191663Y187353D01*
X221190Y320606D02*
X220357Y321439D01*
X218691D01*
X217858Y320606D01*
Y317274D01*
X218691Y316441D01*
X220357D01*
X221190Y317274D01*
X416072Y261551D02*
X415239Y262384D01*
X413573D01*
X412740Y261551D01*
Y258219D01*
X413573Y257386D01*
X415239D01*
X416072Y258219D01*
X238907Y167063D02*
X238074Y167896D01*
X236408D01*
X235575Y167063D01*
Y163731D01*
X236408Y162898D01*
X238074D01*
X238907Y163731D01*
X457411Y178874D02*
X456578Y179707D01*
X454912D01*
X454078Y178874D01*
Y175542D01*
X454912Y174709D01*
X456578D01*
X457411Y175542D01*
X209379Y344228D02*
X208546Y345061D01*
X206880D01*
X206047Y344228D01*
Y340896D01*
X206880Y340063D01*
X208546D01*
X209379Y340896D01*
X315679Y344228D02*
X314845Y345061D01*
X313179D01*
X312346Y344228D01*
Y340896D01*
X313179Y340063D01*
X314845D01*
X315679Y340896D01*
X380639Y426905D02*
X379806Y427738D01*
X378140D01*
X377307Y426905D01*
Y423573D01*
X378140Y422740D01*
X379806D01*
X380639Y423573D01*
X297962Y237929D02*
X297129Y238762D01*
X295463D01*
X294630Y237929D01*
Y234597D01*
X295463Y233764D01*
X297129D01*
X297962Y234597D01*
X439694Y332417D02*
X438861Y333250D01*
X437195D01*
X436362Y332417D01*
Y329085D01*
X437195Y328252D01*
X438861D01*
X439694Y329085D01*
X327490Y391472D02*
X326657Y392305D01*
X324990D01*
X324157Y391472D01*
Y388140D01*
X324990Y387307D01*
X326657D01*
X327490Y388140D01*
X150324Y509582D02*
X149491Y510416D01*
X147825D01*
X146992Y509582D01*
Y506250D01*
X147825Y505417D01*
X149491D01*
X150324Y506250D01*
X439694Y356039D02*
X438861Y356872D01*
X437195D01*
X436362Y356039D01*
Y352707D01*
X437195Y351874D01*
X438861D01*
X439694Y352707D01*
X380639Y190685D02*
X379806Y191518D01*
X378140D01*
X377307Y190685D01*
Y187353D01*
X378140Y186520D01*
X379806D01*
X380639Y187353D01*
X357017Y332417D02*
X356184Y333250D01*
X354518D01*
X353685Y332417D01*
Y329085D01*
X354518Y328252D01*
X356184D01*
X357017Y329085D01*
X179852Y379661D02*
X179019Y380494D01*
X177353D01*
X176520Y379661D01*
Y376329D01*
X177353Y375496D01*
X179019D01*
X179852Y376329D01*
X250718Y403283D02*
X249885Y404116D01*
X248219D01*
X247386Y403283D01*
Y399951D01*
X248219Y399118D01*
X249885D01*
X250718Y399951D01*
X445600Y296984D02*
X444767Y297817D01*
X443101D01*
X442268Y296984D01*
Y293652D01*
X443101Y292819D01*
X444767D01*
X445600Y293652D01*
X351112Y202496D02*
X350279Y203329D01*
X348612D01*
X347779Y202496D01*
Y199164D01*
X348612Y198331D01*
X350279D01*
X351112Y199164D01*
X404261Y261551D02*
X403428Y262384D01*
X401762D01*
X400929Y261551D01*
Y258219D01*
X401762Y257386D01*
X403428D01*
X404261Y258219D01*
X120797Y379661D02*
X119964Y380494D01*
X118298D01*
X117464Y379661D01*
Y376329D01*
X118298Y375496D01*
X119964D01*
X120797Y376329D01*
X345206Y403283D02*
X344373Y404116D01*
X342707D01*
X341874Y403283D01*
Y399951D01*
X342707Y399118D01*
X344373D01*
X345206Y399951D01*
X221190Y485960D02*
X220357Y486794D01*
X218691D01*
X217858Y485960D01*
Y482628D01*
X218691Y481795D01*
X220357D01*
X221190Y482628D01*
X445600Y415094D02*
X444767Y415927D01*
X443101D01*
X442268Y415094D01*
Y411762D01*
X443101Y410929D01*
X444767D01*
X445600Y411762D01*
X463316Y214307D02*
X462483Y215140D01*
X460817D01*
X459984Y214307D01*
Y210975D01*
X460817Y210142D01*
X462483D01*
X463316Y210975D01*
X144419Y521393D02*
X143586Y522226D01*
X141920D01*
X141086Y521393D01*
Y518061D01*
X141920Y517228D01*
X143586D01*
X144419Y518061D01*
X410167Y391472D02*
X409334Y392305D01*
X407667D01*
X406835Y391472D01*
Y388140D01*
X407667Y387307D01*
X409334D01*
X410167Y388140D01*
X185757Y415094D02*
X184924Y415927D01*
X183258D01*
X182425Y415094D01*
Y411762D01*
X183258Y410929D01*
X184924D01*
X185757Y411762D01*
X333395Y214307D02*
X332562Y215140D01*
X330896D01*
X330063Y214307D01*
Y210975D01*
X330896Y210142D01*
X332562D01*
X333395Y210975D01*
X339301Y533205D02*
X338468Y534037D01*
X336801D01*
X335968Y533205D01*
Y529872D01*
X336801Y529039D01*
X338468D01*
X339301Y529872D01*
X386545Y273362D02*
X385712Y274195D01*
X384046D01*
X383212Y273362D01*
Y270030D01*
X384046Y269197D01*
X385712D01*
X386545Y270030D01*
X309773Y521393D02*
X308940Y522226D01*
X307274D01*
X306441Y521393D01*
Y518061D01*
X307274Y517228D01*
X308940D01*
X309773Y518061D01*
X392450Y214307D02*
X391617Y215140D01*
X389951D01*
X389118Y214307D01*
Y210975D01*
X389951Y210142D01*
X391617D01*
X392450Y210975D01*
X280245Y344228D02*
X279412Y345061D01*
X277746D01*
X276913Y344228D01*
Y340896D01*
X277746Y340063D01*
X279412D01*
X280245Y340896D01*
X362923Y462338D02*
X362090Y463171D01*
X360423D01*
X359590Y462338D01*
Y459006D01*
X360423Y458173D01*
X362090D01*
X362923Y459006D01*
X439694Y450527D02*
X438861Y451360D01*
X437195D01*
X436362Y450527D01*
Y447195D01*
X437195Y446362D01*
X438861D01*
X439694Y447195D01*
Y521393D02*
X438861Y522226D01*
X437195D01*
X436362Y521393D01*
Y518061D01*
X437195Y517228D01*
X438861D01*
X439694Y518061D01*
X268435Y509582D02*
X267601Y510416D01*
X265935D01*
X265102Y509582D01*
Y506250D01*
X265935Y505417D01*
X267601D01*
X268435Y506250D01*
X144419Y167063D02*
X143586Y167896D01*
X141920D01*
X141086Y167063D01*
Y163731D01*
X141920Y162898D01*
X143586D01*
X144419Y163731D01*
X321584Y521393D02*
X320751Y522226D01*
X319085D01*
X318252Y521393D01*
Y518061D01*
X319085Y517228D01*
X320751D01*
X321584Y518061D01*
X333395Y285173D02*
X332562Y286006D01*
X330896D01*
X330063Y285173D01*
Y281841D01*
X330896Y281008D01*
X332562D01*
X333395Y281841D01*
X386545Y438716D02*
X385712Y439549D01*
X384046D01*
X383212Y438716D01*
Y435384D01*
X384046Y434551D01*
X385712D01*
X386545Y435384D01*
X457411Y249740D02*
X456578Y250573D01*
X454912D01*
X454078Y249740D01*
Y246408D01*
X454912Y245575D01*
X456578D01*
X457411Y246408D01*
X475127Y450527D02*
X474294Y451360D01*
X472628D01*
X471795Y450527D01*
Y447195D01*
X472628Y446362D01*
X474294D01*
X475127Y447195D01*
X114891Y367850D02*
X114058Y368683D01*
X112392D01*
X111559Y367850D01*
Y364518D01*
X112392Y363685D01*
X114058D01*
X114891Y364518D01*
X120797Y497771D02*
X119964Y498604D01*
X118298D01*
X117464Y497771D01*
Y494439D01*
X118298Y493606D01*
X119964D01*
X120797Y494439D01*
X215285Y308795D02*
X214452Y309628D01*
X212786D01*
X211953Y308795D01*
Y305463D01*
X212786Y304630D01*
X214452D01*
X215285Y305463D01*
X233001Y178874D02*
X232168Y179707D01*
X230502D01*
X229669Y178874D01*
Y175542D01*
X230502Y174709D01*
X232168D01*
X233001Y175542D01*
X374734Y415094D02*
X373901Y415927D01*
X372235D01*
X371401Y415094D01*
Y411762D01*
X372235Y410929D01*
X373901D01*
X374734Y411762D01*
X463316Y474149D02*
X462483Y474982D01*
X460817D01*
X459984Y474149D01*
Y470817D01*
X460817Y469984D01*
X462483D01*
X463316Y470817D01*
X179852Y450527D02*
X179019Y451360D01*
X177353D01*
X176520Y450527D01*
Y447195D01*
X177353Y446362D01*
X179019D01*
X179852Y447195D01*
X463316Y332417D02*
X462483Y333250D01*
X460817D01*
X459984Y332417D01*
Y329085D01*
X460817Y328252D01*
X462483D01*
X463316Y329085D01*
X244812Y438716D02*
X243979Y439549D01*
X242313D01*
X241480Y438716D01*
Y435384D01*
X242313Y434551D01*
X243979D01*
X244812Y435384D01*
X108986Y497771D02*
X108153Y498604D01*
X106486D01*
X105654Y497771D01*
Y494439D01*
X106486Y493606D01*
X108153D01*
X108986Y494439D01*
X233001Y462338D02*
X232168Y463171D01*
X230502D01*
X229669Y462338D01*
Y459006D01*
X230502Y458173D01*
X232168D01*
X233001Y459006D01*
X292056Y391472D02*
X291224Y392305D01*
X289557D01*
X288724Y391472D01*
Y388140D01*
X289557Y387307D01*
X291224D01*
X292056Y388140D01*
X427883Y521393D02*
X427050Y522226D01*
X425384D01*
X424551Y521393D01*
Y518061D01*
X425384Y517228D01*
X427050D01*
X427883Y518061D01*
X303868Y202496D02*
X303034Y203329D01*
X301368D01*
X300535Y202496D01*
Y199164D01*
X301368Y198331D01*
X303034D01*
X303868Y199164D01*
X292056Y344228D02*
X291224Y345061D01*
X289557D01*
X288724Y344228D01*
Y340896D01*
X289557Y340063D01*
X291224D01*
X292056Y340896D01*
X179852Y237929D02*
X179019Y238762D01*
X177353D01*
X176520Y237929D01*
Y234597D01*
X177353Y233764D01*
X179019D01*
X179852Y234597D01*
X327490Y320606D02*
X326657Y321439D01*
X324990D01*
X324157Y320606D01*
Y317274D01*
X324990Y316441D01*
X326657D01*
X327490Y317274D01*
X250718Y521393D02*
X249885Y522226D01*
X248219D01*
X247386Y521393D01*
Y518061D01*
X248219Y517228D01*
X249885D01*
X250718Y518061D01*
X315679Y178874D02*
X314845Y179707D01*
X313179D01*
X312346Y178874D01*
Y175542D01*
X313179Y174709D01*
X314845D01*
X315679Y175542D01*
X463316Y403283D02*
X462483Y404116D01*
X460817D01*
X459984Y403283D01*
Y399951D01*
X460817Y399118D01*
X462483D01*
X463316Y399951D01*
X475127Y426905D02*
X474294Y427738D01*
X472628D01*
X471795Y426905D01*
Y423573D01*
X472628Y422740D01*
X474294D01*
X475127Y423573D01*
X469222Y485960D02*
X468389Y486794D01*
X466723D01*
X465890Y485960D01*
Y482628D01*
X466723Y481795D01*
X468389D01*
X469222Y482628D01*
X227096Y237929D02*
X226263Y238762D01*
X224597D01*
X223764Y237929D01*
Y234597D01*
X224597Y233764D01*
X226263D01*
X227096Y234597D01*
X250718Y474149D02*
X249885Y474982D01*
X248219D01*
X247386Y474149D01*
Y470817D01*
X248219Y469984D01*
X249885D01*
X250718Y470817D01*
X280245Y533205D02*
X279412Y534037D01*
X277746D01*
X276913Y533205D01*
Y529872D01*
X277746Y529039D01*
X279412D01*
X280245Y529872D01*
X315679Y391472D02*
X314845Y392305D01*
X313179D01*
X312346Y391472D01*
Y388140D01*
X313179Y387307D01*
X314845D01*
X315679Y388140D01*
X173946Y344228D02*
X173113Y345061D01*
X171447D01*
X170614Y344228D01*
Y340896D01*
X171447Y340063D01*
X173113D01*
X173946Y340896D01*
X233001Y249740D02*
X232168Y250573D01*
X230502D01*
X229669Y249740D01*
Y246408D01*
X230502Y245575D01*
X232168D01*
X233001Y246408D01*
X333395Y403283D02*
X332562Y404116D01*
X330896D01*
X330063Y403283D01*
Y399951D01*
X330896Y399118D01*
X332562D01*
X333395Y399951D01*
X345206Y261551D02*
X344373Y262384D01*
X342707D01*
X341874Y261551D01*
Y258219D01*
X342707Y257386D01*
X344373D01*
X345206Y258219D01*
X362923Y178874D02*
X362090Y179707D01*
X360423D01*
X359590Y178874D01*
Y175542D01*
X360423Y174709D01*
X362090D01*
X362923Y175542D01*
X114891Y533205D02*
X114058Y534037D01*
X112392D01*
X111559Y533205D01*
Y529872D01*
X112392Y529039D01*
X114058D01*
X114891Y529872D01*
X410167Y415094D02*
X409334Y415927D01*
X407667D01*
X406835Y415094D01*
Y411762D01*
X407667Y410929D01*
X409334D01*
X410167Y411762D01*
X185757Y249740D02*
X184924Y250573D01*
X183258D01*
X182425Y249740D01*
Y246408D01*
X183258Y245575D01*
X184924D01*
X185757Y246408D01*
X215285Y285173D02*
X214452Y286006D01*
X212786D01*
X211953Y285173D01*
Y281841D01*
X212786Y281008D01*
X214452D01*
X215285Y281841D01*
X262529Y190685D02*
X261696Y191518D01*
X260030D01*
X259197Y190685D01*
Y187353D01*
X260030Y186520D01*
X261696D01*
X262529Y187353D01*
X386545Y202496D02*
X385712Y203329D01*
X384046D01*
X383212Y202496D01*
Y199164D01*
X384046Y198331D01*
X385712D01*
X386545Y199164D01*
X380639Y261551D02*
X379806Y262384D01*
X378140D01*
X377307Y261551D01*
Y258219D01*
X378140Y257386D01*
X379806D01*
X380639Y258219D01*
X297962Y403283D02*
X297129Y404116D01*
X295463D01*
X294630Y403283D01*
Y399951D01*
X295463Y399118D01*
X297129D01*
X297962Y399951D01*
X221190Y533205D02*
X220357Y534037D01*
X218691D01*
X217858Y533205D01*
Y529872D01*
X218691Y529039D01*
X220357D01*
X221190Y529872D01*
X469222Y320606D02*
X468389Y321439D01*
X466723D01*
X465890Y320606D01*
Y317274D01*
X466723Y316441D01*
X468389D01*
X469222Y317274D01*
X309773Y190685D02*
X308940Y191518D01*
X307274D01*
X306441Y190685D01*
Y187353D01*
X307274Y186520D01*
X308940D01*
X309773Y187353D01*
X321584Y167063D02*
X320751Y167896D01*
X319085D01*
X318252Y167063D01*
Y163731D01*
X319085Y162898D01*
X320751D01*
X321584Y163731D01*
X262529Y497771D02*
X261696Y498604D01*
X260030D01*
X259197Y497771D01*
Y494439D01*
X260030Y493606D01*
X261696D01*
X262529Y494439D01*
X398356Y344228D02*
X397523Y345061D01*
X395856D01*
X395023Y344228D01*
Y340896D01*
X395856Y340063D01*
X397523D01*
X398356Y340896D01*
X215285Y190685D02*
X214452Y191518D01*
X212786D01*
X211953Y190685D01*
Y187353D01*
X212786Y186520D01*
X214452D01*
X215285Y187353D01*
X321584Y190685D02*
X320751Y191518D01*
X319085D01*
X318252Y190685D01*
Y187353D01*
X319085Y186520D01*
X320751D01*
X321584Y187353D01*
X185757Y367850D02*
X184924Y368683D01*
X183258D01*
X182425Y367850D01*
Y364518D01*
X183258Y363685D01*
X184924D01*
X185757Y364518D01*
X463316Y379661D02*
X462483Y380494D01*
X460817D01*
X459984Y379661D01*
Y376329D01*
X460817Y375496D01*
X462483D01*
X463316Y376329D01*
X233001Y485960D02*
X232168Y486794D01*
X230502D01*
X229669Y485960D01*
Y482628D01*
X230502Y481795D01*
X232168D01*
X233001Y482628D01*
X256624Y533205D02*
X255790Y534037D01*
X254124D01*
X253291Y533205D01*
Y529872D01*
X254124Y529039D01*
X255790D01*
X256624Y529872D01*
Y178874D02*
X255790Y179707D01*
X254124D01*
X253291Y178874D01*
Y175542D01*
X254124Y174709D01*
X255790D01*
X256624Y175542D01*
X209379Y391472D02*
X208546Y392305D01*
X206880D01*
X206047Y391472D01*
Y388140D01*
X206880Y387307D01*
X208546D01*
X209379Y388140D01*
X120797Y450527D02*
X119964Y451360D01*
X118298D01*
X117464Y450527D01*
Y447195D01*
X118298Y446362D01*
X119964D01*
X120797Y447195D01*
X327490Y533205D02*
X326657Y534037D01*
X324990D01*
X324157Y533205D01*
Y529872D01*
X324990Y529039D01*
X326657D01*
X327490Y529872D01*
X433789Y178874D02*
X432956Y179707D01*
X431290D01*
X430456Y178874D01*
Y175542D01*
X431290Y174709D01*
X432956D01*
X433789Y175542D01*
X321584Y214307D02*
X320751Y215140D01*
X319085D01*
X318252Y214307D01*
Y210975D01*
X319085Y210142D01*
X320751D01*
X321584Y210975D01*
X280245Y438716D02*
X279412Y439549D01*
X277746D01*
X276913Y438716D01*
Y435384D01*
X277746Y434551D01*
X279412D01*
X280245Y435384D01*
X120797Y167063D02*
X119964Y167896D01*
X118298D01*
X117464Y167063D01*
Y163731D01*
X118298Y162898D01*
X119964D01*
X120797Y163731D01*
X221190Y273362D02*
X220357Y274195D01*
X218691D01*
X217858Y273362D01*
Y270030D01*
X218691Y269197D01*
X220357D01*
X221190Y270030D01*
X156230Y261551D02*
X155397Y262384D01*
X153731D01*
X152898Y261551D01*
Y258219D01*
X153731Y257386D01*
X155397D01*
X156230Y258219D01*
X203474Y285173D02*
X202641Y286006D01*
X200975D01*
X200142Y285173D01*
Y281841D01*
X200975Y281008D01*
X202641D01*
X203474Y281841D01*
X209379Y273362D02*
X208546Y274195D01*
X206880D01*
X206047Y273362D01*
Y270030D01*
X206880Y269197D01*
X208546D01*
X209379Y270030D01*
X303868Y509582D02*
X303034Y510416D01*
X301368D01*
X300535Y509582D01*
Y506250D01*
X301368Y505417D01*
X303034D01*
X303868Y506250D01*
X416072Y214307D02*
X415239Y215140D01*
X413573D01*
X412740Y214307D01*
Y210975D01*
X413573Y210142D01*
X415239D01*
X416072Y210975D01*
X433789Y202496D02*
X432956Y203329D01*
X431290D01*
X430456Y202496D01*
Y199164D01*
X431290Y198331D01*
X432956D01*
X433789Y199164D01*
X475127Y474149D02*
X474294Y474982D01*
X472628D01*
X471795Y474149D01*
Y470817D01*
X472628Y469984D01*
X474294D01*
X475127Y470817D01*
X162135Y415094D02*
X161302Y415927D01*
X159636D01*
X158803Y415094D01*
Y411762D01*
X159636Y410929D01*
X161302D01*
X162135Y411762D01*
X150324Y391472D02*
X149491Y392305D01*
X147825D01*
X146992Y391472D01*
Y388140D01*
X147825Y387307D01*
X149491D01*
X150324Y388140D01*
X292056Y485960D02*
X291224Y486794D01*
X289557D01*
X288724Y485960D01*
Y482628D01*
X289557Y481795D01*
X291224D01*
X292056Y482628D01*
X386545Y391472D02*
X385712Y392305D01*
X384046D01*
X383212Y391472D01*
Y388140D01*
X384046Y387307D01*
X385712D01*
X386545Y388140D01*
X215285Y356039D02*
X214452Y356872D01*
X212786D01*
X211953Y356039D01*
Y352707D01*
X212786Y351874D01*
X214452D01*
X215285Y352707D01*
X244812Y178874D02*
X243979Y179707D01*
X242313D01*
X241480Y178874D01*
Y175542D01*
X242313Y174709D01*
X243979D01*
X244812Y175542D01*
X108986Y379661D02*
X108153Y380494D01*
X106486D01*
X105654Y379661D01*
Y376329D01*
X106486Y375496D01*
X108153D01*
X108986Y376329D01*
X268435Y533205D02*
X267601Y534037D01*
X265935D01*
X265102Y533205D01*
Y529872D01*
X265935Y529039D01*
X267601D01*
X268435Y529872D01*
X227096Y426905D02*
X226263Y427738D01*
X224597D01*
X223764Y426905D01*
Y423573D01*
X224597Y422740D01*
X226263D01*
X227096Y423573D01*
X197568Y273362D02*
X196735Y274195D01*
X195069D01*
X194236Y273362D01*
Y270030D01*
X195069Y269197D01*
X196735D01*
X197568Y270030D01*
X144419Y214307D02*
X143586Y215140D01*
X141920D01*
X141086Y214307D01*
Y210975D01*
X141920Y210142D01*
X143586D01*
X144419Y210975D01*
X386545Y415094D02*
X385712Y415927D01*
X384046D01*
X383212Y415094D01*
Y411762D01*
X384046Y410929D01*
X385712D01*
X386545Y411762D01*
X114891Y249740D02*
X114058Y250573D01*
X112392D01*
X111559Y249740D01*
Y246408D01*
X112392Y245575D01*
X114058D01*
X114891Y246408D01*
X357017Y167063D02*
X356184Y167896D01*
X354518D01*
X353685Y167063D01*
Y163731D01*
X354518Y162898D01*
X356184D01*
X357017Y163731D01*
X374734Y462338D02*
X373901Y463171D01*
X372235D01*
X371401Y462338D01*
Y459006D01*
X372235Y458173D01*
X373901D01*
X374734Y459006D01*
X185757Y509582D02*
X184924Y510416D01*
X183258D01*
X182425Y509582D01*
Y506250D01*
X183258Y505417D01*
X184924D01*
X185757Y506250D01*
X342800Y273998D02*
Y269000D01*
X345299D01*
X346132Y269833D01*
Y270666D01*
X345299Y271499D01*
X342800D01*
X345299D01*
X346132Y272332D01*
Y273165D01*
X345299Y273998D01*
X342800D01*
X278000Y426498D02*
Y421500D01*
X280499D01*
X281332Y422333D01*
Y423166D01*
X280499Y423999D01*
X278000D01*
X280499D01*
X281332Y424832D01*
Y425665D01*
X280499Y426498D01*
X278000D01*
X478800Y167798D02*
Y162800D01*
X481299D01*
X482132Y163633D01*
Y164466D01*
X481299Y165299D01*
X478800D01*
X481299D01*
X482132Y166132D01*
Y166965D01*
X481299Y167798D01*
X478800D01*
X477200Y537598D02*
Y532600D01*
X479699D01*
X480532Y533433D01*
Y534266D01*
X479699Y535099D01*
X477200D01*
X479699D01*
X480532Y535932D01*
Y536765D01*
X479699Y537598D01*
X477200D01*
X352536Y473859D02*
Y468860D01*
X355036D01*
X355869Y469693D01*
Y470526D01*
X355036Y471359D01*
X352536D01*
X355036D01*
X355869Y472192D01*
Y473026D01*
X355036Y473859D01*
X352536D01*
D79*
X270894Y301598D02*
X270665Y302528D01*
X270030Y303244D01*
X269135Y303584D01*
X268185Y303468D01*
X267397Y302925D01*
X266952Y302077D01*
Y301120D01*
X267397Y300272D01*
X268185Y299728D01*
X269135Y299613D01*
X270030Y299952D01*
X270665Y300669D01*
X270894Y301598D01*
X230106D02*
X229877Y302528D01*
X229242Y303244D01*
X228347Y303584D01*
X227397Y303468D01*
X226609Y302925D01*
X226165Y302077D01*
Y301120D01*
X226609Y300272D01*
X227397Y299728D01*
X228347Y299613D01*
X229242Y299952D01*
X229877Y300669D01*
X230106Y301598D01*
X346594Y286200D02*
X346365Y287129D01*
X345730Y287846D01*
X344835Y288185D01*
X343885Y288070D01*
X343097Y287526D01*
X342652Y286679D01*
Y285721D01*
X343097Y284874D01*
X343885Y284330D01*
X344835Y284215D01*
X345730Y284554D01*
X346365Y285271D01*
X346594Y286200D01*
X305806D02*
X305577Y287129D01*
X304942Y287846D01*
X304047Y288185D01*
X303097Y288070D01*
X302309Y287526D01*
X301865Y286679D01*
Y285721D01*
X302309Y284874D01*
X303097Y284330D01*
X304047Y284215D01*
X304942Y284554D01*
X305577Y285271D01*
X305806Y286200D01*
X426394Y284900D02*
X426165Y285829D01*
X425530Y286546D01*
X424635Y286885D01*
X423685Y286770D01*
X422897Y286226D01*
X422452Y285379D01*
Y284421D01*
X422897Y283574D01*
X423685Y283030D01*
X424635Y282915D01*
X425530Y283254D01*
X426165Y283971D01*
X426394Y284900D01*
X385606D02*
X385377Y285829D01*
X384742Y286546D01*
X383847Y286885D01*
X382897Y286770D01*
X382109Y286226D01*
X381664Y285379D01*
Y284421D01*
X382109Y283574D01*
X382897Y283030D01*
X383847Y282915D01*
X384742Y283254D01*
X385377Y283971D01*
X385606Y284900D01*
X161000Y351248D02*
X160771Y352177D01*
X160136Y352894D01*
X159241Y353233D01*
X158291Y353118D01*
X157503Y352574D01*
X157058Y351727D01*
Y350769D01*
X157503Y349922D01*
X158291Y349378D01*
X159241Y349263D01*
X160136Y349602D01*
X160771Y350319D01*
X161000Y351248D01*
X151000D02*
X150771Y352177D01*
X150136Y352894D01*
X149241Y353233D01*
X148291Y353118D01*
X147503Y352574D01*
X147058Y351727D01*
Y350769D01*
X147503Y349922D01*
X148291Y349378D01*
X149241Y349263D01*
X150136Y349602D01*
X150771Y350319D01*
X151000Y351248D01*
X141000D02*
X140771Y352177D01*
X140136Y352894D01*
X139241Y353233D01*
X138291Y353118D01*
X137503Y352574D01*
X137058Y351727D01*
Y350769D01*
X137503Y349922D01*
X138291Y349378D01*
X139241Y349263D01*
X140136Y349602D01*
X140771Y350319D01*
X141000Y351248D01*
X166600Y249806D02*
X166371Y250735D01*
X165736Y251452D01*
X164841Y251791D01*
X163891Y251676D01*
X163103Y251132D01*
X162658Y250284D01*
Y249327D01*
X163103Y248479D01*
X163891Y247936D01*
X164841Y247820D01*
X165736Y248160D01*
X166371Y248876D01*
X166600Y249806D01*
Y290593D02*
X166371Y291522D01*
X165736Y292239D01*
X164841Y292578D01*
X163891Y292463D01*
X163103Y291919D01*
X162658Y291072D01*
Y290114D01*
X163103Y289267D01*
X163891Y288723D01*
X164841Y288608D01*
X165736Y288947D01*
X166371Y289664D01*
X166600Y290593D01*
X199400Y211767D02*
X199171Y212697D01*
X198536Y213413D01*
X197641Y213752D01*
X196691Y213637D01*
X195903Y213093D01*
X195458Y212246D01*
Y211288D01*
X195903Y210441D01*
X196691Y209897D01*
X197641Y209782D01*
X198536Y210121D01*
X199171Y210838D01*
X199400Y211767D01*
Y170980D02*
X199171Y171909D01*
X198536Y172626D01*
X197641Y172965D01*
X196691Y172850D01*
X195903Y172306D01*
X195458Y171458D01*
Y170501D01*
X195903Y169653D01*
X196691Y169110D01*
X197641Y168994D01*
X198536Y169334D01*
X199171Y170050D01*
X199400Y170980D01*
X215767D02*
X215538Y171909D01*
X214903Y172626D01*
X214008Y172965D01*
X213057Y172850D01*
X212270Y172306D01*
X211825Y171458D01*
Y170501D01*
X212270Y169653D01*
X213057Y169110D01*
X214008Y168994D01*
X214903Y169334D01*
X215538Y170050D01*
X215767Y170980D01*
Y211767D02*
X215538Y212697D01*
X214903Y213413D01*
X214008Y213752D01*
X213057Y213637D01*
X212270Y213093D01*
X211825Y212246D01*
Y211288D01*
X212270Y210441D01*
X213057Y209897D01*
X214008Y209782D01*
X214903Y210121D01*
X215538Y210838D01*
X215767Y211767D01*
X164433Y170980D02*
X164204Y171909D01*
X163569Y172626D01*
X162674Y172965D01*
X161724Y172850D01*
X160936Y172306D01*
X160492Y171458D01*
Y170501D01*
X160936Y169653D01*
X161724Y169110D01*
X162674Y168994D01*
X163569Y169334D01*
X164204Y170050D01*
X164433Y170980D01*
Y211767D02*
X164204Y212697D01*
X163569Y213413D01*
X162674Y213752D01*
X161724Y213637D01*
X160936Y213093D01*
X160492Y212246D01*
Y211288D01*
X160936Y210441D01*
X161724Y209897D01*
X162674Y209782D01*
X163569Y210121D01*
X164204Y210838D01*
X164433Y211767D01*
X180800D02*
X180571Y212697D01*
X179936Y213413D01*
X179041Y213752D01*
X178091Y213637D01*
X177303Y213093D01*
X176858Y212246D01*
Y211288D01*
X177303Y210441D01*
X178091Y209897D01*
X179041Y209782D01*
X179936Y210121D01*
X180571Y210838D01*
X180800Y211767D01*
Y170980D02*
X180571Y171909D01*
X179936Y172626D01*
X179041Y172965D01*
X178091Y172850D01*
X177303Y172306D01*
X176858Y171458D01*
Y170501D01*
X177303Y169653D01*
X178091Y169110D01*
X179041Y168994D01*
X179936Y169334D01*
X180571Y170050D01*
X180800Y170980D01*
X422800Y351248D02*
X422571Y352177D01*
X421936Y352894D01*
X421041Y353233D01*
X420091Y353118D01*
X419303Y352574D01*
X418858Y351727D01*
Y350769D01*
X419303Y349922D01*
X420091Y349378D01*
X421041Y349263D01*
X421936Y349602D01*
X422571Y350319D01*
X422800Y351248D01*
X412800D02*
X412571Y352177D01*
X411936Y352894D01*
X411041Y353233D01*
X410091Y353118D01*
X409303Y352574D01*
X408858Y351727D01*
Y350769D01*
X409303Y349922D01*
X410091Y349378D01*
X411041Y349263D01*
X411936Y349602D01*
X412571Y350319D01*
X412800Y351248D01*
X402800D02*
X402571Y352177D01*
X401936Y352894D01*
X401041Y353233D01*
X400091Y353118D01*
X399303Y352574D01*
X398858Y351727D01*
Y350769D01*
X399303Y349922D01*
X400091Y349378D01*
X401041Y349263D01*
X401936Y349602D01*
X402571Y350319D01*
X402800Y351248D01*
X334600D02*
X334371Y352177D01*
X333736Y352894D01*
X332841Y353233D01*
X331891Y353118D01*
X331103Y352574D01*
X330658Y351727D01*
Y350769D01*
X331103Y349922D01*
X331891Y349378D01*
X332841Y349263D01*
X333736Y349602D01*
X334371Y350319D01*
X334600Y351248D01*
X324600D02*
X324371Y352177D01*
X323736Y352894D01*
X322841Y353233D01*
X321891Y353118D01*
X321103Y352574D01*
X320658Y351727D01*
Y350769D01*
X321103Y349922D01*
X321891Y349378D01*
X322841Y349263D01*
X323736Y349602D01*
X324371Y350319D01*
X324600Y351248D01*
X314600D02*
X314371Y352177D01*
X313736Y352894D01*
X312841Y353233D01*
X311891Y353118D01*
X311103Y352574D01*
X310658Y351727D01*
Y350769D01*
X311103Y349922D01*
X311891Y349378D01*
X312841Y349263D01*
X313736Y349602D01*
X314371Y350319D01*
X314600Y351248D01*
X111260Y424606D02*
X111031Y425536D01*
X110396Y426252D01*
X109501Y426592D01*
X108551Y426476D01*
X107763Y425933D01*
X107318Y425085D01*
Y424128D01*
X107763Y423280D01*
X108551Y422736D01*
X109501Y422621D01*
X110396Y422960D01*
X111031Y423677D01*
X111260Y424606D01*
Y465394D02*
X111031Y466323D01*
X110396Y467040D01*
X109501Y467379D01*
X108551Y467264D01*
X107763Y466720D01*
X107318Y465872D01*
Y464915D01*
X107763Y464068D01*
X108551Y463524D01*
X109501Y463408D01*
X110396Y463748D01*
X111031Y464464D01*
X111260Y465394D01*
X137260Y424606D02*
X137031Y425536D01*
X136396Y426252D01*
X135501Y426592D01*
X134551Y426476D01*
X133763Y425933D01*
X133318Y425085D01*
Y424128D01*
X133763Y423280D01*
X134551Y422736D01*
X135501Y422621D01*
X136396Y422960D01*
X137031Y423677D01*
X137260Y424606D01*
Y465394D02*
X137031Y466323D01*
X136396Y467040D01*
X135501Y467379D01*
X134551Y467264D01*
X133763Y466720D01*
X133318Y465872D01*
Y464915D01*
X133763Y464068D01*
X134551Y463524D01*
X135501Y463408D01*
X136396Y463748D01*
X137031Y464464D01*
X137260Y465394D01*
X244100Y424606D02*
X243871Y425536D01*
X243236Y426252D01*
X242341Y426592D01*
X241391Y426476D01*
X240603Y425933D01*
X240158Y425085D01*
Y424128D01*
X240603Y423280D01*
X241391Y422736D01*
X242341Y422621D01*
X243236Y422960D01*
X243871Y423677D01*
X244100Y424606D01*
Y465394D02*
X243871Y466323D01*
X243236Y467040D01*
X242341Y467379D01*
X241391Y467264D01*
X240603Y466720D01*
X240158Y465872D01*
Y464915D01*
X240603Y464068D01*
X241391Y463524D01*
X242341Y463408D01*
X243236Y463748D01*
X243871Y464464D01*
X244100Y465394D01*
X272500Y424606D02*
X272271Y425536D01*
X271636Y426252D01*
X270741Y426592D01*
X269791Y426476D01*
X269003Y425933D01*
X268558Y425085D01*
Y424128D01*
X269003Y423280D01*
X269791Y422736D01*
X270741Y422621D01*
X271636Y422960D01*
X272271Y423677D01*
X272500Y424606D01*
Y465394D02*
X272271Y466323D01*
X271636Y467040D01*
X270741Y467379D01*
X269791Y467264D01*
X269003Y466720D01*
X268558Y465872D01*
Y464915D01*
X269003Y464068D01*
X269791Y463524D01*
X270741Y463408D01*
X271636Y463748D01*
X272271Y464464D01*
X272500Y465394D01*
X168000Y301500D02*
X167771Y302429D01*
X167136Y303146D01*
X166241Y303485D01*
X165291Y303370D01*
X164503Y302826D01*
X164058Y301979D01*
Y301021D01*
X164503Y300174D01*
X165291Y299630D01*
X166241Y299515D01*
X167136Y299854D01*
X167771Y300571D01*
X168000Y301500D01*
X127213D02*
X126983Y302429D01*
X126349Y303146D01*
X125454Y303485D01*
X124503Y303370D01*
X123716Y302826D01*
X123271Y301979D01*
Y301021D01*
X123716Y300174D01*
X124503Y299630D01*
X125454Y299515D01*
X126349Y299854D01*
X126983Y300571D01*
X127213Y301500D01*
X254500Y351248D02*
X254271Y352177D01*
X253636Y352894D01*
X252741Y353233D01*
X251791Y353118D01*
X251003Y352574D01*
X250558Y351727D01*
Y350769D01*
X251003Y349922D01*
X251791Y349378D01*
X252741Y349263D01*
X253636Y349602D01*
X254271Y350319D01*
X254500Y351248D01*
X244500D02*
X244271Y352177D01*
X243636Y352894D01*
X242741Y353233D01*
X241791Y353118D01*
X241003Y352574D01*
X240558Y351727D01*
Y350769D01*
X241003Y349922D01*
X241791Y349378D01*
X242741Y349263D01*
X243636Y349602D01*
X244271Y350319D01*
X244500Y351248D01*
X234500D02*
X234271Y352177D01*
X233636Y352894D01*
X232741Y353233D01*
X231791Y353118D01*
X231003Y352574D01*
X230558Y351727D01*
Y350769D01*
X231003Y349922D01*
X231791Y349378D01*
X232741Y349263D01*
X233636Y349602D01*
X234271Y350319D01*
X234500Y351248D01*
D80*
X160200D02*
X159848Y352097D01*
X159000Y352448D01*
X158151Y352097D01*
X157800Y351248D01*
X158151Y350399D01*
X159000Y350048D01*
X159848Y350399D01*
X160200Y351248D01*
X150200D02*
X149848Y352097D01*
X149000Y352448D01*
X148152Y352097D01*
X147800Y351248D01*
X148152Y350399D01*
X149000Y350048D01*
X149848Y350399D01*
X150200Y351248D01*
X140200D02*
X139848Y352097D01*
X139000Y352448D01*
X138152Y352097D01*
X137800Y351248D01*
X138152Y350399D01*
X139000Y350048D01*
X139848Y350399D01*
X140200Y351248D01*
X422000D02*
X421649Y352097D01*
X420800Y352448D01*
X419951Y352097D01*
X419600Y351248D01*
X419951Y350399D01*
X420800Y350048D01*
X421649Y350399D01*
X422000Y351248D01*
X412000D02*
X411649Y352097D01*
X410800Y352448D01*
X409951Y352097D01*
X409600Y351248D01*
X409951Y350399D01*
X410800Y350048D01*
X411649Y350399D01*
X412000Y351248D01*
X402000D02*
X401649Y352097D01*
X400800Y352448D01*
X399952Y352097D01*
X399600Y351248D01*
X399952Y350399D01*
X400800Y350048D01*
X401649Y350399D01*
X402000Y351248D01*
X333800D02*
X333449Y352097D01*
X332600Y352448D01*
X331751Y352097D01*
X331400Y351248D01*
X331751Y350399D01*
X332600Y350048D01*
X333449Y350399D01*
X333800Y351248D01*
X323800D02*
X323448Y352097D01*
X322600Y352448D01*
X321751Y352097D01*
X321400Y351248D01*
X321751Y350399D01*
X322600Y350048D01*
X323448Y350399D01*
X323800Y351248D01*
X313800D02*
X313449Y352097D01*
X312600Y352448D01*
X311752Y352097D01*
X311400Y351248D01*
X311752Y350399D01*
X312600Y350048D01*
X313449Y350399D01*
X313800Y351248D01*
X253700D02*
X253348Y352097D01*
X252500Y352448D01*
X251652Y352097D01*
X251300Y351248D01*
X251652Y350399D01*
X252500Y350048D01*
X253348Y350399D01*
X253700Y351248D01*
X243700D02*
X243349Y352097D01*
X242500Y352448D01*
X241652Y352097D01*
X241300Y351248D01*
X241652Y350399D01*
X242500Y350048D01*
X243349Y350399D01*
X243700Y351248D01*
X233700D02*
X233348Y352097D01*
X232500Y352448D01*
X231651Y352097D01*
X231300Y351248D01*
X231651Y350399D01*
X232500Y350048D01*
X233348Y350399D01*
X233700Y351248D01*
M02*
