G04*
G04 #@! TF.GenerationSoftware,Altium Limited,Altium Designer,23.8.1 (32)*
G04*
G04 Layer_Color=16711935*
%FSLAX25Y25*%
%MOIN*%
G70*
G04*
G04 #@! TF.SameCoordinates,39E68628-0E6C-4B0E-937A-7B5971290EE0*
G04*
G04*
G04 #@! TF.FilePolarity,Positive*
G04*
G01*
G75*
%ADD11C,0.00500*%
%ADD12C,0.02000*%
%ADD13C,0.00787*%
%ADD76C,0.00394*%
%ADD77C,0.00100*%
D11*
X141225Y262621D02*
X142081Y262088D01*
X142991Y261652D01*
X143942Y261318D01*
X144925Y261089D01*
X145926Y260968D01*
X146935Y260957D01*
X147939Y261056D01*
X148926Y261263D01*
X149885Y261577D01*
X150804Y261993D01*
X151672Y262507D01*
X152479Y263113D01*
X153215Y263802D01*
X153872Y264568D01*
X154441Y265400D01*
X154917Y266290D01*
X155292Y267226D01*
X155564Y268197D01*
X155728Y269193D01*
X155783Y270200D01*
X155728Y271207D01*
X155564Y272202D01*
X155292Y273174D01*
X154917Y274110D01*
X154441Y275000D01*
X153872Y275832D01*
X153215Y276598D01*
X152479Y277287D01*
X151672Y277893D01*
X150804Y278407D01*
X149885Y278823D01*
X148926Y279137D01*
X147939Y279344D01*
X146935Y279443D01*
X145926Y279432D01*
X144925Y279311D01*
X143942Y279082D01*
X142991Y278748D01*
X142081Y278311D01*
X141225Y277779D01*
X346902Y480500D02*
X346861Y481498D01*
X346741Y482489D01*
X346541Y483468D01*
X346263Y484427D01*
X345909Y485361D01*
X345481Y486263D01*
X344982Y487128D01*
X344414Y487950D01*
X343783Y488724D01*
X343091Y489444D01*
X342343Y490106D01*
X341545Y490706D01*
X340701Y491240D01*
X339816Y491704D01*
X338898Y492096D01*
X337950Y492412D01*
X336981Y492651D01*
X335995Y492811D01*
X334999Y492892D01*
X334001D01*
X333005Y492811D01*
X332019Y492651D01*
X331050Y492412D01*
X330102Y492096D01*
X329184Y491704D01*
X328299Y491240D01*
X327455Y490706D01*
X326657Y490106D01*
X325909Y489444D01*
X325217Y488724D01*
X324586Y487950D01*
X324018Y487128D01*
X323519Y486263D01*
X323091Y485361D01*
X322737Y484427D01*
X322459Y483468D01*
X322259Y482489D01*
X322139Y481498D01*
X322098Y480500D01*
X322139Y479502D01*
X322259Y478511D01*
X322459Y477532D01*
X322737Y476573D01*
X323091Y475639D01*
X323519Y474737D01*
X324018Y473872D01*
X324586Y473050D01*
X325217Y472276D01*
X325909Y471556D01*
X326657Y470894D01*
X327455Y470294D01*
X328299Y469760D01*
X329184Y469296D01*
X330102Y468904D01*
X331050Y468588D01*
X332019Y468349D01*
X333005Y468189D01*
X334001Y468109D01*
X334999D01*
X335995Y468189D01*
X336981Y468349D01*
X337950Y468588D01*
X338898Y468904D01*
X339816Y469296D01*
X340701Y469760D01*
X341545Y470294D01*
X342343Y470894D01*
X343091Y471556D01*
X343783Y472276D01*
X344414Y473050D01*
X344982Y473872D01*
X345481Y474737D01*
X345909Y475639D01*
X346263Y476573D01*
X346541Y477532D01*
X346741Y478511D01*
X346861Y479502D01*
X346902Y480500D01*
X363496Y208000D02*
X363480Y208999D01*
X363433Y209998D01*
X363353Y210994D01*
X363243Y211987D01*
X363100Y212976D01*
X362927Y213961D01*
X362722Y214939D01*
X362487Y215910D01*
X362220Y216874D01*
X361924Y217828D01*
X361597Y218772D01*
X361240Y219706D01*
X360854Y220628D01*
X360439Y221537D01*
X359995Y222432D01*
X359523Y223313D01*
X359023Y224179D01*
X358496Y225028D01*
X357943Y225860D01*
X357363Y226674D01*
X356758Y227470D01*
X356127Y228245D01*
X355473Y229001D01*
X354795Y229735D01*
X354094Y230447D01*
X353370Y231137D01*
X352625Y231803D01*
X351860Y232446D01*
X351074Y233063D01*
X350270Y233656D01*
X349446Y234223D01*
X348605Y234763D01*
X347748Y235276D01*
X346875Y235762D01*
X345986Y236220D01*
X345084Y236650D01*
X344168Y237051D01*
X343240Y237422D01*
X342301Y237764D01*
X341352Y238076D01*
X340393Y238357D01*
X339425Y238608D01*
X338451Y238828D01*
X337469Y239018D01*
X336482Y239176D01*
X335491Y239302D01*
X334496Y239397D01*
X333499Y239460D01*
X332500Y239492D01*
X331500D01*
X330501Y239460D01*
X329504Y239397D01*
X328509Y239302D01*
X327518Y239176D01*
X326531Y239018D01*
X325549Y238828D01*
X324574Y238608D01*
X323607Y238357D01*
X322648Y238076D01*
X321699Y237764D01*
X320760Y237422D01*
X319832Y237051D01*
X318916Y236650D01*
X318014Y236220D01*
X317125Y235762D01*
X316252Y235276D01*
X315394Y234763D01*
X314554Y234223D01*
X313731Y233656D01*
X312926Y233063D01*
X312140Y232446D01*
X311374Y231803D01*
X310630Y231137D01*
X309906Y230447D01*
X309205Y229735D01*
X308527Y229001D01*
X307873Y228245D01*
X307242Y227470D01*
X306637Y226674D01*
X306057Y225860D01*
X305504Y225028D01*
X304977Y224179D01*
X304477Y223313D01*
X304005Y222432D01*
X303561Y221537D01*
X303146Y220628D01*
X302760Y219706D01*
X302403Y218772D01*
X302077Y217828D01*
X301780Y216874D01*
X301513Y215910D01*
X301278Y214939D01*
X301073Y213961D01*
X300900Y212977D01*
X300757Y211987D01*
X300647Y210994D01*
X300567Y209998D01*
X300520Y208999D01*
X300504Y208000D01*
X300520Y207001D01*
X300567Y206002D01*
X300646Y205006D01*
X300757Y204013D01*
X300900Y203024D01*
X301073Y202039D01*
X301278Y201061D01*
X301513Y200090D01*
X301780Y199127D01*
X302077Y198172D01*
X302403Y197228D01*
X302760Y196294D01*
X303146Y195372D01*
X303561Y194463D01*
X304005Y193568D01*
X304477Y192687D01*
X304977Y191821D01*
X305504Y190972D01*
X306057Y190140D01*
X306637Y189326D01*
X307242Y188531D01*
X307873Y187755D01*
X308527Y186999D01*
X309205Y186265D01*
X309906Y185553D01*
X310630Y184863D01*
X311374Y184197D01*
X312140Y183554D01*
X312926Y182937D01*
X313730Y182344D01*
X314554Y181777D01*
X315394Y181237D01*
X316252Y180724D01*
X317125Y180238D01*
X318014Y179780D01*
X318916Y179350D01*
X319831Y178949D01*
X320759Y178578D01*
X321698Y178236D01*
X322648Y177924D01*
X323607Y177643D01*
X324574Y177392D01*
X325549Y177172D01*
X326531Y176982D01*
X327517Y176824D01*
X328509Y176698D01*
X329504Y176603D01*
X330501Y176540D01*
X331500Y176508D01*
X332500Y176508D01*
X333498Y176540D01*
X334496Y176603D01*
X335491Y176698D01*
X336482Y176824D01*
X337469Y176982D01*
X338450Y177172D01*
X339425Y177392D01*
X340393Y177643D01*
X341352Y177924D01*
X342301Y178236D01*
X343240Y178578D01*
X344168Y178949D01*
X345084Y179350D01*
X345986Y179780D01*
X346874Y180238D01*
X347748Y180724D01*
X348605Y181237D01*
X349446Y181777D01*
X350269Y182344D01*
X351074Y182937D01*
X351860Y183554D01*
X352625Y184197D01*
X353370Y184863D01*
X354094Y185553D01*
X354795Y186265D01*
X355473Y186999D01*
X356127Y187754D01*
X356757Y188530D01*
X357363Y189325D01*
X357942Y190140D01*
X358496Y190972D01*
X359023Y191821D01*
X359523Y192686D01*
X359995Y193567D01*
X360438Y194463D01*
X360854Y195372D01*
X361240Y196294D01*
X361596Y197227D01*
X361923Y198172D01*
X362220Y199126D01*
X362487Y200090D01*
X362722Y201061D01*
X362927Y202039D01*
X363100Y203023D01*
X363243Y204012D01*
X363353Y205006D01*
X363433Y206002D01*
X363480Y207000D01*
X363496Y208000D01*
X296996Y208000D02*
X296980Y208999D01*
X296933Y209998D01*
X296853Y210994D01*
X296743Y211987D01*
X296600Y212976D01*
X296427Y213961D01*
X296222Y214939D01*
X295987Y215910D01*
X295720Y216874D01*
X295424Y217828D01*
X295097Y218772D01*
X294740Y219706D01*
X294354Y220628D01*
X293939Y221537D01*
X293495Y222432D01*
X293023Y223313D01*
X292523Y224179D01*
X291996Y225028D01*
X291443Y225860D01*
X290863Y226674D01*
X290258Y227470D01*
X289627Y228245D01*
X288973Y229001D01*
X288295Y229735D01*
X287594Y230447D01*
X286870Y231137D01*
X286125Y231803D01*
X285360Y232446D01*
X284574Y233063D01*
X283769Y233656D01*
X282946Y234223D01*
X282105Y234763D01*
X281248Y235276D01*
X280375Y235762D01*
X279486Y236220D01*
X278584Y236650D01*
X277668Y237051D01*
X276741Y237422D01*
X275801Y237764D01*
X274852Y238076D01*
X273893Y238357D01*
X272925Y238608D01*
X271951Y238828D01*
X270969Y239018D01*
X269982Y239176D01*
X268991Y239302D01*
X267996Y239397D01*
X266999Y239460D01*
X266000Y239492D01*
X265000D01*
X264001Y239460D01*
X263004Y239397D01*
X262009Y239302D01*
X261018Y239176D01*
X260031Y239018D01*
X259049Y238828D01*
X258074Y238608D01*
X257107Y238357D01*
X256148Y238076D01*
X255199Y237764D01*
X254259Y237422D01*
X253332Y237051D01*
X252416Y236650D01*
X251514Y236220D01*
X250625Y235762D01*
X249752Y235276D01*
X248895Y234763D01*
X248054Y234223D01*
X247231Y233656D01*
X246426Y233063D01*
X245640Y232446D01*
X244875Y231803D01*
X244130Y231137D01*
X243406Y230447D01*
X242705Y229735D01*
X242027Y229001D01*
X241373Y228245D01*
X240742Y227470D01*
X240137Y226674D01*
X239557Y225860D01*
X239004Y225028D01*
X238477Y224179D01*
X237977Y223313D01*
X237505Y222432D01*
X237061Y221537D01*
X236646Y220628D01*
X236260Y219706D01*
X235903Y218772D01*
X235577Y217828D01*
X235280Y216874D01*
X235013Y215910D01*
X234778Y214939D01*
X234573Y213961D01*
X234400Y212977D01*
X234257Y211987D01*
X234147Y210994D01*
X234067Y209998D01*
X234020Y208999D01*
X234004Y208000D01*
X234020Y207001D01*
X234067Y206002D01*
X234146Y205006D01*
X234257Y204013D01*
X234400Y203024D01*
X234573Y202039D01*
X234778Y201061D01*
X235013Y200090D01*
X235280Y199127D01*
X235577Y198172D01*
X235903Y197228D01*
X236260Y196294D01*
X236646Y195372D01*
X237061Y194463D01*
X237505Y193568D01*
X237977Y192687D01*
X238477Y191821D01*
X239004Y190972D01*
X239557Y190140D01*
X240137Y189326D01*
X240742Y188531D01*
X241372Y187755D01*
X242027Y186999D01*
X242705Y186265D01*
X243406Y185553D01*
X244129Y184863D01*
X244874Y184197D01*
X245640Y183554D01*
X246426Y182937D01*
X247230Y182344D01*
X248054Y181777D01*
X248894Y181237D01*
X249752Y180724D01*
X250625Y180238D01*
X251514Y179780D01*
X252416Y179350D01*
X253331Y178949D01*
X254259Y178578D01*
X255199Y178236D01*
X256148Y177924D01*
X257107Y177643D01*
X258074Y177392D01*
X259049Y177172D01*
X260031Y176982D01*
X261017Y176824D01*
X262009Y176698D01*
X263004Y176603D01*
X264001Y176540D01*
X265000Y176508D01*
X266000Y176508D01*
X266998Y176540D01*
X267996Y176603D01*
X268991Y176698D01*
X269982Y176824D01*
X270969Y176982D01*
X271950Y177172D01*
X272925Y177392D01*
X273893Y177643D01*
X274852Y177924D01*
X275801Y178236D01*
X276740Y178578D01*
X277668Y178949D01*
X278584Y179350D01*
X279486Y179780D01*
X280374Y180238D01*
X281248Y180724D01*
X282105Y181237D01*
X282946Y181777D01*
X283769Y182344D01*
X284574Y182937D01*
X285360Y183554D01*
X286125Y184197D01*
X286870Y184863D01*
X287594Y185553D01*
X288295Y186265D01*
X288973Y186999D01*
X289627Y187754D01*
X290257Y188530D01*
X290863Y189325D01*
X291442Y190140D01*
X291996Y190972D01*
X292523Y191821D01*
X293023Y192686D01*
X293495Y193567D01*
X293938Y194463D01*
X294354Y195372D01*
X294740Y196294D01*
X295096Y197227D01*
X295423Y198172D01*
X295720Y199126D01*
X295987Y200090D01*
X296222Y201061D01*
X296427Y202039D01*
X296600Y203023D01*
X296743Y204012D01*
X296853Y205006D01*
X296933Y206002D01*
X296980Y207000D01*
X296996Y208000D01*
X209502Y480500D02*
X209461Y481498D01*
X209341Y482489D01*
X209141Y483468D01*
X208863Y484427D01*
X208509Y485361D01*
X208081Y486263D01*
X207582Y487128D01*
X207014Y487950D01*
X206383Y488724D01*
X205691Y489444D01*
X204943Y490106D01*
X204145Y490706D01*
X203301Y491240D01*
X202416Y491704D01*
X201498Y492096D01*
X200550Y492412D01*
X199581Y492651D01*
X198595Y492811D01*
X197599Y492892D01*
X196601D01*
X195605Y492811D01*
X194619Y492651D01*
X193650Y492412D01*
X192702Y492096D01*
X191783Y491704D01*
X190899Y491240D01*
X190055Y490706D01*
X189257Y490106D01*
X188509Y489444D01*
X187817Y488724D01*
X187186Y487950D01*
X186618Y487128D01*
X186119Y486263D01*
X185691Y485361D01*
X185337Y484427D01*
X185059Y483468D01*
X184859Y482489D01*
X184739Y481498D01*
X184698Y480500D01*
X184739Y479502D01*
X184859Y478511D01*
X185059Y477532D01*
X185337Y476573D01*
X185691Y475639D01*
X186119Y474737D01*
X186618Y473872D01*
X187186Y473050D01*
X187817Y472276D01*
X188509Y471556D01*
X189257Y470894D01*
X190055Y470294D01*
X190899Y469760D01*
X191783Y469296D01*
X192702Y468904D01*
X193650Y468588D01*
X194619Y468349D01*
X195605Y468189D01*
X196601Y468109D01*
X197599D01*
X198595Y468189D01*
X199581Y468349D01*
X200550Y468588D01*
X201498Y468904D01*
X202416Y469296D01*
X203301Y469760D01*
X204145Y470294D01*
X204943Y470894D01*
X205691Y471556D01*
X206383Y472276D01*
X207014Y473050D01*
X207582Y473872D01*
X208081Y474737D01*
X208509Y475639D01*
X208863Y476573D01*
X209141Y477532D01*
X209341Y478511D01*
X209461Y479502D01*
X209502Y480500D01*
X303500Y490809D02*
Y496714D01*
Y523486D02*
Y529391D01*
X308618Y496714D02*
Y523486D01*
X303500Y496714D02*
X308618D01*
X298382D02*
X303500D01*
X298382D02*
Y523486D01*
X303500D01*
X308618D01*
X141217Y262627D02*
Y277773D01*
X177126Y323621D02*
X192874D01*
Y313779D02*
Y323621D01*
X177126Y313779D02*
Y323621D01*
Y313779D02*
X192874D01*
X175166Y243700D02*
Y293700D01*
Y243700D02*
X289339D01*
Y293700D01*
X175166D02*
X289339D01*
X211332Y296480D02*
Y301598D01*
Y306717D01*
X184561D02*
X211332D01*
X184561Y301598D02*
Y306717D01*
Y296480D02*
Y301598D01*
Y296480D02*
X211332D01*
Y301598D02*
X217238D01*
X178655D02*
X184561D01*
X239386Y296923D02*
X257614D01*
X239386D02*
Y301598D01*
Y306274D01*
X257614D01*
Y301598D02*
Y306274D01*
Y296923D02*
Y301598D01*
X268894D01*
X228106D02*
X239386D01*
X395686Y295681D02*
Y300799D01*
Y305917D01*
X368914D02*
X395686D01*
X368914Y300799D02*
Y305917D01*
Y295681D02*
Y300799D01*
Y295681D02*
X395686D01*
Y300799D02*
X401591D01*
X363009D02*
X368914D01*
X305414Y300700D02*
Y305818D01*
Y295582D02*
Y300700D01*
Y295582D02*
X332186D01*
Y300700D01*
Y305818D01*
X305414D02*
X332186D01*
X299509Y300700D02*
X305414D01*
X332186D02*
X338091D01*
X288821Y302626D02*
Y318374D01*
X278979Y302626D02*
X288821D01*
X278979Y318374D02*
X288821D01*
X278979Y302626D02*
Y318374D01*
X355921Y306126D02*
Y321874D01*
X346079Y306126D02*
X355921D01*
X346079Y321874D02*
X355921D01*
X346079Y306126D02*
Y321874D01*
X315086Y281525D02*
X333314D01*
X315086D02*
Y286200D01*
Y290875D01*
X333314D01*
Y286200D02*
Y290875D01*
Y281525D02*
Y286200D01*
X344594D01*
X303806D02*
X315086D01*
X331874Y256657D02*
Y276343D01*
X316126Y256657D02*
Y276343D01*
Y256657D02*
X331874D01*
X316126Y276343D02*
X331874D01*
X394886Y280225D02*
X413114D01*
X394886D02*
Y284900D01*
Y289575D01*
X413114D01*
Y284900D02*
Y289575D01*
Y280225D02*
Y284900D01*
X424394D01*
X383606D02*
X394886D01*
X397900Y266386D02*
X403018D01*
X392782D02*
X397900D01*
X392782Y239614D02*
Y266386D01*
Y239614D02*
X397900D01*
X403018D01*
Y266386D01*
X397900D02*
Y272291D01*
Y233709D02*
Y239614D01*
X134500Y397634D02*
X139618D01*
X129382D02*
X134500D01*
X129382Y370862D02*
Y397634D01*
Y370862D02*
X134500D01*
X139618D01*
Y397634D01*
X134500D02*
Y403539D01*
Y364957D02*
Y370862D01*
X163000Y368894D02*
Y374012D01*
Y394484D02*
Y399602D01*
Y374012D02*
X168315D01*
X157685D02*
X163000D01*
X157685Y394484D02*
X163000D01*
X168315D01*
X157685Y391236D02*
X168315D01*
X157685Y374012D02*
Y391236D01*
Y394484D01*
X168315Y391236D02*
Y394484D01*
Y374012D02*
Y391236D01*
X128331Y308713D02*
X169669D01*
Y326783D01*
X128331D02*
X169669D01*
X128331Y308713D02*
Y326783D01*
X169502Y339309D02*
Y356809D01*
X128498Y339309D02*
X169502D01*
X128498D02*
Y356809D01*
X169502D01*
X148650Y397634D02*
X153768D01*
X143532D02*
X148650D01*
X143532Y370862D02*
Y397634D01*
Y370862D02*
X148650D01*
X153768D01*
Y397634D01*
X148650D02*
Y403539D01*
Y364957D02*
Y370862D01*
X170014Y234500D02*
Y239618D01*
Y229382D02*
Y234500D01*
Y229382D02*
X196786D01*
Y234500D01*
Y239618D01*
X170014D02*
X196786D01*
X164109Y234500D02*
X170014D01*
X196786D02*
X202691D01*
X440615Y248752D02*
X479985D01*
X440615D02*
Y278280D01*
X479985D01*
Y248752D02*
Y278280D01*
X127782Y256814D02*
X132900D01*
X138018D01*
Y283586D01*
X132900D02*
X138018D01*
X127782D02*
X132900D01*
X127782Y256814D02*
Y283586D01*
X132900Y250909D02*
Y256814D01*
Y283586D02*
Y289491D01*
X113782Y256814D02*
X118900D01*
X124018D01*
Y283586D01*
X118900D02*
X124018D01*
X113782D02*
X118900D01*
X113782Y256814D02*
Y283586D01*
X118900Y250909D02*
Y256814D01*
Y283586D02*
Y289491D01*
X159925Y261085D02*
Y279313D01*
X164600D01*
X169275D01*
Y261085D02*
Y279313D01*
X164600Y261085D02*
X169275D01*
X159925D02*
X164600D01*
Y249806D02*
Y261085D01*
Y279313D02*
Y290593D01*
X325360Y531500D02*
Y536618D01*
Y526382D02*
Y531500D01*
Y526382D02*
X352132D01*
Y531500D01*
Y536618D01*
X325360D02*
X352132D01*
X319454Y531500D02*
X325360D01*
X352132D02*
X358037D01*
X202075Y182259D02*
Y200487D01*
X197400Y182259D02*
X202075D01*
X192725D02*
X197400D01*
X192725D02*
Y200487D01*
X197400D01*
X202075D01*
X197400D02*
Y211767D01*
Y170980D02*
Y182259D01*
X209091D02*
Y200487D01*
X213767D01*
X218442D01*
Y182259D02*
Y200487D01*
X213767Y182259D02*
X218442D01*
X209091D02*
X213767D01*
Y170980D02*
Y182259D01*
Y200487D02*
Y211767D01*
X157758Y182259D02*
Y200487D01*
X162433D01*
X167109D01*
Y182259D02*
Y200487D01*
X162433Y182259D02*
X167109D01*
X157758D02*
X162433D01*
Y170980D02*
Y182259D01*
Y200487D02*
Y211767D01*
X183475Y182259D02*
Y200487D01*
X178800Y182259D02*
X183475D01*
X174125D02*
X178800D01*
X174125D02*
Y200487D01*
X178800D01*
X183475D01*
X178800D02*
Y211767D01*
Y170980D02*
Y182259D01*
X431302Y339309D02*
Y356809D01*
X390298Y339309D02*
X431302D01*
X390298D02*
Y356809D01*
X431302D01*
X343102Y339309D02*
Y356809D01*
X302098Y339309D02*
X343102D01*
X302098D02*
Y356809D01*
X343102D01*
X301931Y308713D02*
X343269D01*
Y326783D01*
X301931D02*
X343269D01*
X301931Y308713D02*
Y326783D01*
X390131Y308713D02*
X431469D01*
Y326783D01*
X390131D02*
X431469D01*
X390131Y308713D02*
Y326783D01*
X337700Y368992D02*
Y374110D01*
Y394583D02*
Y399701D01*
Y374110D02*
X343015D01*
X332385D02*
X337700D01*
X332385Y394583D02*
X337700D01*
X343015D01*
X332385Y391335D02*
X343015D01*
X332385Y374110D02*
Y391335D01*
Y394583D01*
X343015Y391335D02*
Y394583D01*
Y374110D02*
Y391335D01*
X309175Y397559D02*
X314293D01*
X304057D02*
X309175D01*
X304057Y370787D02*
Y397559D01*
Y370787D02*
X309175D01*
X314293D01*
Y397559D01*
X309175D02*
Y403464D01*
Y364881D02*
Y370787D01*
X323339Y397483D02*
X328457D01*
X318221D02*
X323339D01*
X318221Y370712D02*
Y397483D01*
Y370712D02*
X323339D01*
X328457D01*
Y397483D01*
X323339D02*
Y403389D01*
Y364806D02*
Y370712D01*
X411749Y397634D02*
X416867D01*
X406631D02*
X411749D01*
X406631Y370862D02*
Y397634D01*
Y370862D02*
X411749D01*
X416867D01*
Y397634D01*
X411749D02*
Y403539D01*
Y364957D02*
Y370862D01*
X397900Y397634D02*
X403018D01*
X392782D02*
X397900D01*
X392782Y370862D02*
Y397634D01*
Y370862D02*
X397900D01*
X403018D01*
Y397634D01*
X397900D02*
Y403539D01*
Y364957D02*
Y370862D01*
X425900Y368894D02*
Y374012D01*
Y394484D02*
Y399602D01*
Y374012D02*
X431215D01*
X420585D02*
X425900D01*
X420585Y394484D02*
X425900D01*
X431215D01*
X420585Y391236D02*
X431215D01*
X420585Y374012D02*
Y391236D01*
Y394484D01*
X431215Y391236D02*
Y394484D01*
Y374012D02*
Y391236D01*
X325950Y501245D02*
Y519355D01*
X351541Y501245D02*
Y519355D01*
X325950D02*
X351541D01*
X325950Y501245D02*
X351541D01*
X147236Y428484D02*
X226764D01*
X147236D02*
Y456516D01*
X226764D01*
Y428484D02*
Y456516D01*
X104585Y435886D02*
Y454114D01*
X109260D01*
X113935D01*
Y435886D02*
Y454114D01*
X109260Y435886D02*
X113935D01*
X104585D02*
X109260D01*
Y424606D02*
Y435886D01*
Y454114D02*
Y465394D01*
X117142Y431114D02*
X122260D01*
X127378D01*
Y457886D01*
X122260D02*
X127378D01*
X117142D02*
X122260D01*
X117142Y431114D02*
Y457886D01*
X122260Y425209D02*
Y431114D01*
Y457886D02*
Y463791D01*
X130585Y435886D02*
Y454114D01*
X135260D01*
X139935D01*
Y435886D02*
Y454114D01*
X135260Y435886D02*
X139935D01*
X130585D02*
X135260D01*
Y424606D02*
Y435886D01*
Y454114D02*
Y465394D01*
X148126Y463579D02*
X163874D01*
X148126D02*
Y473421D01*
X163874Y463579D02*
Y473421D01*
X148126D02*
X163874D01*
X282536Y428484D02*
X362064D01*
X282536D02*
Y456516D01*
X362064D01*
Y428484D02*
Y456516D01*
X237425Y435886D02*
Y454114D01*
X242100D01*
X246775D01*
Y435886D02*
Y454114D01*
X242100Y435886D02*
X246775D01*
X237425D02*
X242100D01*
Y424606D02*
Y435886D01*
Y454114D02*
Y465394D01*
X251482Y431122D02*
X256600D01*
X261718D01*
Y457894D01*
X256600D02*
X261718D01*
X251482D02*
X256600D01*
X251482Y431122D02*
Y457894D01*
X256600Y425217D02*
Y431122D01*
Y457894D02*
Y463799D01*
X265825Y435886D02*
Y454114D01*
X270500D01*
X275175D01*
Y435886D02*
Y454114D01*
X270500Y435886D02*
X275175D01*
X265825D02*
X270500D01*
Y424606D02*
Y435886D01*
Y454114D02*
Y465394D01*
X284326Y463579D02*
X300074D01*
X284326D02*
Y473421D01*
X300074Y463579D02*
Y473421D01*
X284326D02*
X300074D01*
X136492Y296825D02*
X154720D01*
X136492D02*
Y301500D01*
Y306175D01*
X154720D01*
Y301500D02*
Y306175D01*
Y296825D02*
Y301500D01*
X166000D01*
X125213D02*
X136492D01*
X99982Y267814D02*
X105100D01*
X110218D01*
Y294586D01*
X105100D02*
X110218D01*
X99982D02*
X105100D01*
X99982Y267814D02*
Y294586D01*
X105100Y261909D02*
Y267814D01*
Y294586D02*
Y300491D01*
X263002Y339309D02*
Y356809D01*
X221998Y339309D02*
X263002D01*
X221998D02*
Y356809D01*
X263002D01*
X221831Y308713D02*
X263169D01*
Y326783D01*
X221831D02*
X263169D01*
X221831Y308713D02*
Y326783D01*
X243150Y397634D02*
X248268D01*
X238032D02*
X243150D01*
X238032Y370862D02*
Y397634D01*
Y370862D02*
X243150D01*
X248268D01*
Y397634D01*
X243150D02*
Y403539D01*
Y364957D02*
Y370862D01*
X257500Y368992D02*
Y374110D01*
Y394583D02*
Y399701D01*
Y374110D02*
X262815D01*
X252185D02*
X257500D01*
X252185Y394583D02*
X257500D01*
X262815D01*
X252185Y391335D02*
X262815D01*
X252185Y374110D02*
Y391335D01*
Y394583D01*
X262815Y391335D02*
Y394583D01*
Y374110D02*
Y391335D01*
X229000Y397634D02*
X234118D01*
X223882D02*
X229000D01*
X223882Y370862D02*
Y397634D01*
Y370862D02*
X229000D01*
X234118D01*
Y397634D01*
X229000D02*
Y403539D01*
Y364957D02*
Y370862D01*
X350179Y251726D02*
Y267474D01*
X360021D01*
X350179Y251726D02*
X360021D01*
Y267474D01*
X414826Y295878D02*
X430574D01*
X414826D02*
Y305720D01*
X430574Y295878D02*
Y305720D01*
X414826D02*
X430574D01*
X408652Y434815D02*
Y474185D01*
X438180D01*
Y434815D02*
Y474185D01*
X408652Y434815D02*
X438180D01*
D12*
X140400Y214079D02*
X140049Y215044D01*
X139161Y215557D01*
X138150Y215378D01*
X137490Y214593D01*
Y213566D01*
X138150Y212780D01*
X139161Y212602D01*
X140049Y213115D01*
X140400Y214079D01*
D13*
X146315Y286735D02*
X145528D01*
X146315D01*
X276354Y301598D02*
X275567D01*
X276354D01*
X352054Y286200D02*
X351267D01*
X352054D01*
X306894Y276362D02*
X306106D01*
X306894D01*
X431854Y284900D02*
X431067D01*
X431854D01*
X125782Y315965D02*
X124994D01*
X125782D01*
X172848Y351248D02*
X172061D01*
X172848D01*
X350248Y480500D02*
X349461D01*
X350248D01*
X482741Y264500D02*
X481953D01*
X482741D01*
X164994Y242739D02*
X164206D01*
X164994D01*
X332394Y242449D02*
X331606D01*
X332394D01*
X265894D02*
X265106D01*
X265894D01*
X197794Y218834D02*
X197006D01*
X197794D01*
X214160Y163913D02*
X213373D01*
X214160D01*
X162827D02*
X162040D01*
X162827D01*
X179194Y218834D02*
X178406D01*
X179194D01*
X434648Y351248D02*
X433861D01*
X434648D01*
X346448D02*
X345661D01*
X346448D01*
X299381Y315965D02*
X298594D01*
X299381D01*
X387581D02*
X386794D01*
X387581D01*
X358470Y505300D02*
X357683D01*
X358470D01*
X157079Y421240D02*
X156291D01*
X157079D01*
X109653Y417539D02*
X108866D01*
X109653D01*
X135653D02*
X134866D01*
X135653D01*
X212848Y480500D02*
X212061D01*
X212848D01*
X292379Y421240D02*
X291591D01*
X292379D01*
X242494Y417539D02*
X241706D01*
X242494D01*
X270894D02*
X270106D01*
X270894D01*
X173461Y301500D02*
X172673D01*
X173461D01*
X266348Y351248D02*
X265561D01*
X266348D01*
X219282Y315965D02*
X218494D01*
X219282D01*
X424794Y432453D02*
X424006D01*
X424794D01*
D76*
X154380Y243900D02*
X154314Y244897D01*
X154114Y245876D01*
X153787Y246820D01*
X153336Y247712D01*
X152770Y248536D01*
X152100Y249277D01*
X151337Y249922D01*
X150495Y250460D01*
X149589Y250881D01*
X148634Y251177D01*
X147649Y251343D01*
X146650Y251376D01*
X145656Y251276D01*
X144684Y251045D01*
X143751Y250685D01*
X142875Y250205D01*
X142070Y249612D01*
X141352Y248918D01*
X140733Y248133D01*
X140224Y247274D01*
X139834Y246354D01*
X139570Y245390D01*
X139436Y244400D01*
Y243400D01*
X139570Y242410D01*
X139834Y241446D01*
X140224Y240526D01*
X140733Y239667D01*
X141352Y238882D01*
X142070Y238188D01*
X142875Y237595D01*
X143751Y237115D01*
X144684Y236755D01*
X145656Y236524D01*
X146650Y236424D01*
X147649Y236457D01*
X148634Y236624D01*
X149589Y236919D01*
X150495Y237340D01*
X151337Y237878D01*
X152100Y238523D01*
X152771Y239264D01*
X153336Y240088D01*
X153787Y240980D01*
X154114Y241924D01*
X154314Y242903D01*
X154380Y243900D01*
X153002D02*
X152919Y244904D01*
X152672Y245881D01*
X152267Y246804D01*
X151716Y247648D01*
X151033Y248390D01*
X150238Y249009D01*
X149351Y249488D01*
X148398Y249816D01*
X147404Y249981D01*
X146396D01*
X145402Y249816D01*
X144449Y249488D01*
X143562Y249009D01*
X142767Y248390D01*
X142084Y247648D01*
X141533Y246804D01*
X141128Y245881D01*
X140881Y244904D01*
X140798Y243900D01*
X140881Y242896D01*
X141128Y241919D01*
X141533Y240996D01*
X142084Y240152D01*
X142767Y239410D01*
X143562Y238791D01*
X144449Y238312D01*
X145402Y237984D01*
X146396Y237819D01*
X147404D01*
X148398Y237984D01*
X149351Y238312D01*
X150238Y238791D01*
X151033Y239410D01*
X151716Y240152D01*
X152267Y240996D01*
X152672Y241919D01*
X152919Y242896D01*
X153002Y243900D01*
X153789Y243900D02*
X153716Y244903D01*
X153497Y245885D01*
X153138Y246824D01*
X152646Y247701D01*
X152031Y248497D01*
X151307Y249196D01*
X150489Y249781D01*
X149594Y250241D01*
X148642Y250565D01*
X147653Y250748D01*
X146648Y250785D01*
X145648Y250675D01*
X144675Y250420D01*
X143749Y250027D01*
X142891Y249503D01*
X142118Y248860D01*
X141446Y248111D01*
X140892Y247272D01*
X140464Y246361D01*
X140175Y245398D01*
X140028Y244403D01*
Y243397D01*
X140175Y242402D01*
X140464Y241438D01*
X140892Y240528D01*
X141446Y239689D01*
X142118Y238940D01*
X142891Y238296D01*
X143749Y237772D01*
X144675Y237379D01*
X145648Y237124D01*
X146648Y237015D01*
X147653Y237051D01*
X148642Y237234D01*
X149594Y237559D01*
X150489Y238019D01*
X151307Y238604D01*
X152031Y239302D01*
X152646Y240098D01*
X153138Y240975D01*
X153497Y241915D01*
X153716Y242897D01*
X153789Y243900D01*
X425980Y253400D02*
X425914Y254397D01*
X425714Y255376D01*
X425387Y256320D01*
X424936Y257212D01*
X424370Y258036D01*
X423700Y258777D01*
X422937Y259422D01*
X422095Y259960D01*
X421188Y260381D01*
X420234Y260677D01*
X419249Y260843D01*
X418250Y260876D01*
X417256Y260776D01*
X416284Y260544D01*
X415351Y260185D01*
X414475Y259705D01*
X413670Y259112D01*
X412952Y258418D01*
X412333Y257633D01*
X411824Y256774D01*
X411434Y255854D01*
X411170Y254890D01*
X411036Y253900D01*
Y252900D01*
X411170Y251910D01*
X411434Y250946D01*
X411824Y250026D01*
X412333Y249166D01*
X412952Y248382D01*
X413670Y247688D01*
X414475Y247095D01*
X415351Y246615D01*
X416284Y246255D01*
X417256Y246024D01*
X418250Y245924D01*
X419249Y245957D01*
X420234Y246124D01*
X421188Y246420D01*
X422095Y246840D01*
X422937Y247378D01*
X423700Y248023D01*
X424371Y248764D01*
X424936Y249588D01*
X425387Y250480D01*
X425714Y251424D01*
X425914Y252403D01*
X425980Y253400D01*
X424602D02*
X424519Y254404D01*
X424272Y255381D01*
X423867Y256304D01*
X423316Y257148D01*
X422633Y257890D01*
X421838Y258509D01*
X420951Y258988D01*
X419998Y259316D01*
X419004Y259482D01*
X417996D01*
X417002Y259316D01*
X416049Y258988D01*
X415162Y258509D01*
X414367Y257890D01*
X413684Y257148D01*
X413133Y256304D01*
X412728Y255381D01*
X412481Y254404D01*
X412398Y253400D01*
X412481Y252396D01*
X412728Y251419D01*
X413133Y250496D01*
X413684Y249652D01*
X414367Y248910D01*
X415162Y248291D01*
X416049Y247812D01*
X417002Y247484D01*
X417996Y247319D01*
X419004D01*
X419998Y247484D01*
X420951Y247812D01*
X421838Y248291D01*
X422633Y248910D01*
X423316Y249652D01*
X423867Y250496D01*
X424272Y251419D01*
X424519Y252396D01*
X424602Y253400D01*
X425390Y253400D02*
X425317Y254403D01*
X425098Y255385D01*
X424739Y256324D01*
X424246Y257201D01*
X423632Y257997D01*
X422907Y258696D01*
X422089Y259281D01*
X421195Y259741D01*
X420243Y260065D01*
X419254Y260248D01*
X418249Y260285D01*
X417249Y260175D01*
X416276Y259920D01*
X415350Y259527D01*
X414491Y259003D01*
X413718Y258360D01*
X413047Y257611D01*
X412492Y256772D01*
X412065Y255861D01*
X411775Y254898D01*
X411629Y253903D01*
Y252897D01*
X411775Y251902D01*
X412065Y250938D01*
X412492Y250028D01*
X413047Y249189D01*
X413718Y248440D01*
X414492Y247796D01*
X415350Y247272D01*
X416276Y246879D01*
X417249Y246624D01*
X418249Y246515D01*
X419254Y246551D01*
X420243Y246734D01*
X421195Y247059D01*
X422089Y247519D01*
X422907Y248104D01*
X423632Y248802D01*
X424246Y249598D01*
X424739Y250475D01*
X425098Y251415D01*
X425317Y252396D01*
X425390Y253400D01*
D77*
X98724Y163710D02*
Y223110D01*
Y163710D02*
X136124D01*
Y223110D01*
X98724D02*
X136124D01*
M02*
