G04*
G04 #@! TF.GenerationSoftware,Altium Limited,Altium Designer,23.8.1 (32)*
G04*
G04 Layer_Color=32768*
%FSLAX25Y25*%
%MOIN*%
G70*
G04*
G04 #@! TF.SameCoordinates,39E68628-0E6C-4B0E-937A-7B5971290EE0*
G04*
G04*
G04 #@! TF.FilePolarity,Positive*
G04*
G01*
G75*
%ADD14C,0.00600*%
%ADD76C,0.00394*%
%ADD78C,0.00197*%
G36*
X137124Y162710D02*
Y224110D01*
X97724D01*
Y162710D01*
X137124D01*
D02*
G37*
G36*
X376795Y541803D02*
X400732D01*
Y487157D01*
X376795D01*
Y541803D01*
D02*
G37*
G36*
X401299D02*
X425236D01*
Y487157D01*
X401299D01*
Y541803D01*
D02*
G37*
G36*
X427047D02*
X450984D01*
Y487157D01*
X427047D01*
Y541803D01*
D02*
G37*
D14*
X97724Y224110D02*
X137124D01*
X97724Y162710D02*
Y224110D01*
Y162710D02*
X137124D01*
Y224110D01*
D76*
X144932Y243900D02*
X148869D01*
X146900Y241932D02*
Y245869D01*
X418500Y251432D02*
Y255369D01*
X416532Y253400D02*
X420469D01*
D78*
X155561Y243900D02*
X155503Y244905D01*
X155328Y245898D01*
X155039Y246862D01*
X154640Y247787D01*
X154137Y248659D01*
X153535Y249467D01*
X152844Y250200D01*
X152072Y250848D01*
X151231Y251401D01*
X150331Y251853D01*
X149384Y252198D01*
X148404Y252430D01*
X147404Y252547D01*
X146396D01*
X145396Y252430D01*
X144416Y252198D01*
X143469Y251853D01*
X142569Y251401D01*
X141728Y250848D01*
X140956Y250200D01*
X140265Y249467D01*
X139664Y248659D01*
X139160Y247787D01*
X138761Y246862D01*
X138472Y245898D01*
X138297Y244905D01*
X138239Y243900D01*
X138297Y242895D01*
X138472Y241902D01*
X138761Y240938D01*
X139160Y240013D01*
X139664Y239141D01*
X140265Y238333D01*
X140956Y237600D01*
X141728Y236952D01*
X142569Y236399D01*
X143469Y235947D01*
X144416Y235602D01*
X145396Y235370D01*
X146396Y235253D01*
X147404D01*
X148404Y235370D01*
X149384Y235602D01*
X150331Y235947D01*
X151231Y236399D01*
X152072Y236952D01*
X152844Y237600D01*
X153535Y238333D01*
X154137Y239141D01*
X154640Y240013D01*
X155039Y240938D01*
X155328Y241902D01*
X155503Y242895D01*
X155561Y243900D01*
X347886Y480500D02*
X347848Y481500D01*
X347736Y482495D01*
X347550Y483479D01*
X347291Y484445D01*
X346960Y485390D01*
X346560Y486308D01*
X346093Y487193D01*
X345560Y488040D01*
X344966Y488846D01*
X344313Y489605D01*
X343605Y490312D01*
X342846Y490966D01*
X342040Y491560D01*
X341193Y492093D01*
X340308Y492560D01*
X339390Y492961D01*
X338446Y493291D01*
X337479Y493550D01*
X336495Y493736D01*
X335500Y493848D01*
X334500Y493886D01*
X333500Y493848D01*
X332505Y493736D01*
X331521Y493550D01*
X330555Y493291D01*
X329610Y492961D01*
X328692Y492560D01*
X327807Y492093D01*
X326959Y491560D01*
X326154Y490966D01*
X325395Y490312D01*
X324688Y489605D01*
X324035Y488846D01*
X323440Y488040D01*
X322907Y487193D01*
X322440Y486308D01*
X322040Y485390D01*
X321709Y484445D01*
X321450Y483479D01*
X321264Y482495D01*
X321152Y481500D01*
X321114Y480500D01*
X321152Y479500D01*
X321264Y478505D01*
X321450Y477521D01*
X321709Y476554D01*
X322040Y475610D01*
X322440Y474692D01*
X322907Y473807D01*
X323440Y472960D01*
X324035Y472154D01*
X324688Y471395D01*
X325395Y470687D01*
X326154Y470035D01*
X326959Y469440D01*
X327807Y468907D01*
X328692Y468440D01*
X329610Y468040D01*
X330555Y467709D01*
X331521Y467450D01*
X332505Y467264D01*
X333500Y467152D01*
X334500Y467114D01*
X335500Y467152D01*
X336495Y467264D01*
X337479Y467450D01*
X338446Y467709D01*
X339390Y468040D01*
X340308Y468440D01*
X341193Y468907D01*
X342040Y469440D01*
X342846Y470035D01*
X343605Y470687D01*
X344313Y471395D01*
X344966Y472154D01*
X345560Y472960D01*
X346093Y473807D01*
X346560Y474692D01*
X346960Y475610D01*
X347291Y476554D01*
X347550Y477521D01*
X347736Y478505D01*
X347848Y479500D01*
X347886Y480500D01*
X364480Y208000D02*
X364465Y209000D01*
X364419Y209999D01*
X364342Y210997D01*
X364234Y211991D01*
X364096Y212982D01*
X363927Y213968D01*
X363728Y214949D01*
X363499Y215922D01*
X363240Y216889D01*
X362952Y217846D01*
X362634Y218795D01*
X362287Y219733D01*
X361911Y220660D01*
X361507Y221575D01*
X361075Y222478D01*
X360615Y223366D01*
X360129Y224240D01*
X359615Y225099D01*
X359076Y225941D01*
X358510Y226766D01*
X357920Y227574D01*
X357305Y228363D01*
X356666Y229132D01*
X356003Y229882D01*
X355318Y230611D01*
X354611Y231318D01*
X353882Y232003D01*
X353132Y232666D01*
X352363Y233305D01*
X351574Y233920D01*
X350766Y234510D01*
X349941Y235076D01*
X349099Y235615D01*
X348240Y236129D01*
X347366Y236615D01*
X346478Y237075D01*
X345575Y237507D01*
X344660Y237911D01*
X343733Y238287D01*
X342795Y238634D01*
X341846Y238952D01*
X340889Y239240D01*
X339922Y239499D01*
X338949Y239728D01*
X337968Y239927D01*
X336982Y240096D01*
X335991Y240234D01*
X334997Y240342D01*
X333999Y240419D01*
X333000Y240465D01*
X332000Y240480D01*
X331000Y240465D01*
X330000Y240419D01*
X329003Y240342D01*
X328009Y240234D01*
X327018Y240096D01*
X326032Y239927D01*
X325051Y239728D01*
X324078Y239499D01*
X323111Y239240D01*
X322153Y238952D01*
X321205Y238634D01*
X320267Y238287D01*
X319340Y237911D01*
X318425Y237507D01*
X317522Y237075D01*
X316634Y236615D01*
X315760Y236129D01*
X314901Y235615D01*
X314059Y235076D01*
X313234Y234510D01*
X312426Y233920D01*
X311637Y233305D01*
X310868Y232666D01*
X310118Y232003D01*
X309389Y231318D01*
X308682Y230611D01*
X307997Y229882D01*
X307334Y229132D01*
X306695Y228363D01*
X306080Y227574D01*
X305490Y226766D01*
X304924Y225941D01*
X304385Y225099D01*
X303871Y224240D01*
X303384Y223366D01*
X302925Y222478D01*
X302493Y221575D01*
X302089Y220660D01*
X301713Y219733D01*
X301366Y218795D01*
X301048Y217846D01*
X300760Y216888D01*
X300501Y215922D01*
X300272Y214949D01*
X300073Y213968D01*
X299904Y212982D01*
X299766Y211991D01*
X299658Y210997D01*
X299581Y209999D01*
X299535Y209000D01*
X299520Y208000D01*
X299535Y207000D01*
X299581Y206000D01*
X299658Y205003D01*
X299766Y204008D01*
X299904Y203018D01*
X300073Y202032D01*
X300272Y201051D01*
X300501Y200078D01*
X300760Y199111D01*
X301048Y198153D01*
X301366Y197205D01*
X301713Y196267D01*
X302089Y195340D01*
X302493Y194424D01*
X302925Y193522D01*
X303384Y192634D01*
X303871Y191760D01*
X304385Y190901D01*
X304924Y190059D01*
X305490Y189234D01*
X306080Y188426D01*
X306695Y187637D01*
X307334Y186868D01*
X307997Y186118D01*
X308682Y185389D01*
X309389Y184682D01*
X310118Y183997D01*
X310868Y183334D01*
X311637Y182695D01*
X312426Y182080D01*
X313234Y181490D01*
X314059Y180924D01*
X314901Y180385D01*
X315760Y179871D01*
X316634Y179384D01*
X317523Y178925D01*
X318425Y178493D01*
X319340Y178089D01*
X320267Y177713D01*
X321205Y177366D01*
X322154Y177048D01*
X323112Y176760D01*
X324078Y176501D01*
X325052Y176272D01*
X326032Y176073D01*
X327018Y175904D01*
X328009Y175766D01*
X329003Y175658D01*
X330001Y175581D01*
X331000Y175535D01*
X332000Y175520D01*
X333000Y175535D01*
X334000Y175581D01*
X334997Y175658D01*
X335992Y175766D01*
X336982Y175904D01*
X337968Y176073D01*
X338949Y176272D01*
X339923Y176501D01*
X340889Y176760D01*
X341847Y177048D01*
X342795Y177366D01*
X343734Y177713D01*
X344661Y178089D01*
X345576Y178493D01*
X346478Y178925D01*
X347366Y179385D01*
X348240Y179871D01*
X349099Y180385D01*
X349941Y180924D01*
X350766Y181490D01*
X351574Y182080D01*
X352363Y182695D01*
X353133Y183335D01*
X353882Y183997D01*
X354611Y184682D01*
X355318Y185390D01*
X356003Y186118D01*
X356666Y186868D01*
X357305Y187637D01*
X357920Y188426D01*
X358510Y189234D01*
X359076Y190059D01*
X359615Y190902D01*
X360129Y191760D01*
X360616Y192634D01*
X361075Y193523D01*
X361507Y194425D01*
X361911Y195340D01*
X362287Y196267D01*
X362634Y197205D01*
X362952Y198154D01*
X363241Y199112D01*
X363499Y200078D01*
X363728Y201052D01*
X363927Y202032D01*
X364096Y203018D01*
X364234Y204009D01*
X364342Y205003D01*
X364419Y206001D01*
X364465Y207000D01*
X364480Y208000D01*
X297980D02*
X297965Y209000D01*
X297919Y209999D01*
X297842Y210997D01*
X297734Y211991D01*
X297596Y212982D01*
X297427Y213968D01*
X297228Y214949D01*
X296999Y215922D01*
X296740Y216889D01*
X296452Y217846D01*
X296134Y218795D01*
X295787Y219733D01*
X295411Y220660D01*
X295007Y221575D01*
X294575Y222478D01*
X294115Y223366D01*
X293629Y224240D01*
X293115Y225099D01*
X292576Y225941D01*
X292010Y226766D01*
X291420Y227574D01*
X290805Y228363D01*
X290166Y229132D01*
X289503Y229882D01*
X288818Y230611D01*
X288111Y231318D01*
X287382Y232003D01*
X286632Y232666D01*
X285863Y233305D01*
X285074Y233920D01*
X284266Y234510D01*
X283441Y235076D01*
X282599Y235615D01*
X281740Y236129D01*
X280866Y236615D01*
X279978Y237075D01*
X279076Y237507D01*
X278160Y237911D01*
X277233Y238287D01*
X276295Y238634D01*
X275346Y238952D01*
X274389Y239240D01*
X273422Y239499D01*
X272449Y239728D01*
X271468Y239927D01*
X270482Y240096D01*
X269491Y240234D01*
X268497Y240342D01*
X267499Y240419D01*
X266500Y240465D01*
X265500Y240480D01*
X264500Y240465D01*
X263500Y240419D01*
X262503Y240342D01*
X261508Y240234D01*
X260518Y240096D01*
X259532Y239927D01*
X258551Y239728D01*
X257578Y239499D01*
X256611Y239240D01*
X255654Y238952D01*
X254705Y238634D01*
X253767Y238287D01*
X252840Y237911D01*
X251924Y237507D01*
X251022Y237075D01*
X250134Y236615D01*
X249260Y236129D01*
X248401Y235615D01*
X247559Y235076D01*
X246734Y234510D01*
X245926Y233920D01*
X245137Y233305D01*
X244368Y232666D01*
X243618Y232003D01*
X242889Y231318D01*
X242182Y230611D01*
X241497Y229882D01*
X240834Y229132D01*
X240195Y228363D01*
X239580Y227574D01*
X238990Y226766D01*
X238424Y225941D01*
X237885Y225099D01*
X237371Y224240D01*
X236884Y223366D01*
X236425Y222478D01*
X235993Y221575D01*
X235589Y220660D01*
X235213Y219733D01*
X234866Y218795D01*
X234548Y217846D01*
X234260Y216888D01*
X234001Y215922D01*
X233772Y214949D01*
X233573Y213968D01*
X233404Y212982D01*
X233266Y211991D01*
X233158Y210997D01*
X233081Y209999D01*
X233035Y209000D01*
X233020Y208000D01*
X233035Y207000D01*
X233081Y206000D01*
X233158Y205003D01*
X233266Y204008D01*
X233404Y203018D01*
X233573Y202032D01*
X233772Y201051D01*
X234001Y200078D01*
X234260Y199111D01*
X234548Y198153D01*
X234866Y197205D01*
X235213Y196267D01*
X235589Y195340D01*
X235993Y194424D01*
X236425Y193522D01*
X236884Y192634D01*
X237371Y191760D01*
X237885Y190901D01*
X238424Y190059D01*
X238990Y189234D01*
X239580Y188426D01*
X240195Y187637D01*
X240834Y186868D01*
X241497Y186118D01*
X242182Y185389D01*
X242889Y184682D01*
X243618Y183997D01*
X244368Y183334D01*
X245138Y182695D01*
X245926Y182080D01*
X246734Y181490D01*
X247559Y180924D01*
X248401Y180385D01*
X249260Y179871D01*
X250134Y179384D01*
X251023Y178925D01*
X251925Y178493D01*
X252840Y178089D01*
X253767Y177713D01*
X254705Y177366D01*
X255654Y177048D01*
X256611Y176760D01*
X257578Y176501D01*
X258552Y176272D01*
X259532Y176073D01*
X260518Y175904D01*
X261509Y175766D01*
X262503Y175658D01*
X263501Y175581D01*
X264500Y175535D01*
X265500Y175520D01*
X266500Y175535D01*
X267500Y175581D01*
X268497Y175658D01*
X269492Y175766D01*
X270482Y175904D01*
X271468Y176073D01*
X272449Y176272D01*
X273423Y176501D01*
X274389Y176760D01*
X275347Y177048D01*
X276295Y177366D01*
X277234Y177713D01*
X278161Y178089D01*
X279076Y178493D01*
X279978Y178925D01*
X280866Y179385D01*
X281740Y179871D01*
X282599Y180385D01*
X283441Y180924D01*
X284266Y181490D01*
X285074Y182080D01*
X285863Y182695D01*
X286632Y183335D01*
X287382Y183997D01*
X288111Y184682D01*
X288818Y185390D01*
X289503Y186118D01*
X290166Y186868D01*
X290805Y187637D01*
X291420Y188426D01*
X292010Y189234D01*
X292576Y190059D01*
X293115Y190902D01*
X293629Y191760D01*
X294116Y192634D01*
X294575Y193523D01*
X295007Y194425D01*
X295411Y195340D01*
X295787Y196267D01*
X296134Y197205D01*
X296452Y198154D01*
X296741Y199112D01*
X296999Y200078D01*
X297228Y201052D01*
X297427Y202032D01*
X297596Y203018D01*
X297734Y204009D01*
X297842Y205003D01*
X297919Y206001D01*
X297965Y207000D01*
X297980Y208000D01*
X210486Y480500D02*
X210448Y481500D01*
X210336Y482495D01*
X210150Y483479D01*
X209891Y484445D01*
X209560Y485390D01*
X209160Y486308D01*
X208693Y487193D01*
X208160Y488040D01*
X207565Y488846D01*
X206912Y489605D01*
X206205Y490312D01*
X205446Y490966D01*
X204641Y491560D01*
X203793Y492093D01*
X202908Y492560D01*
X201990Y492961D01*
X201046Y493291D01*
X200079Y493550D01*
X199095Y493736D01*
X198100Y493848D01*
X197100Y493886D01*
X196100Y493848D01*
X195105Y493736D01*
X194121Y493550D01*
X193155Y493291D01*
X192210Y492961D01*
X191292Y492560D01*
X190407Y492093D01*
X189559Y491560D01*
X188754Y490966D01*
X187995Y490312D01*
X187287Y489605D01*
X186635Y488846D01*
X186040Y488040D01*
X185508Y487193D01*
X185040Y486308D01*
X184640Y485390D01*
X184309Y484445D01*
X184050Y483479D01*
X183864Y482495D01*
X183752Y481500D01*
X183714Y480500D01*
X183752Y479500D01*
X183864Y478505D01*
X184050Y477521D01*
X184309Y476554D01*
X184640Y475610D01*
X185040Y474692D01*
X185508Y473807D01*
X186040Y472960D01*
X186635Y472154D01*
X187287Y471395D01*
X187995Y470687D01*
X188754Y470035D01*
X189559Y469440D01*
X190407Y468907D01*
X191292Y468440D01*
X192210Y468040D01*
X193155Y467709D01*
X194121Y467450D01*
X195105Y467264D01*
X196100Y467152D01*
X197100Y467114D01*
X198100Y467152D01*
X199095Y467264D01*
X200079Y467450D01*
X201046Y467709D01*
X201990Y468040D01*
X202908Y468440D01*
X203793Y468907D01*
X204641Y469440D01*
X205446Y470035D01*
X206205Y470687D01*
X206912Y471395D01*
X207565Y472154D01*
X208160Y472960D01*
X208693Y473807D01*
X209160Y474692D01*
X209560Y475610D01*
X209891Y476554D01*
X210150Y477521D01*
X210336Y478505D01*
X210448Y479500D01*
X210486Y480500D01*
X427161Y253400D02*
X427103Y254405D01*
X426928Y255398D01*
X426639Y256362D01*
X426240Y257287D01*
X425737Y258159D01*
X425135Y258967D01*
X424444Y259700D01*
X423672Y260348D01*
X422831Y260901D01*
X421931Y261353D01*
X420984Y261698D01*
X420004Y261930D01*
X419004Y262047D01*
X417996D01*
X416996Y261930D01*
X416016Y261698D01*
X415069Y261353D01*
X414169Y260901D01*
X413328Y260348D01*
X412556Y259700D01*
X411865Y258967D01*
X411264Y258159D01*
X410760Y257287D01*
X410361Y256362D01*
X410072Y255398D01*
X409897Y254405D01*
X409839Y253400D01*
X409897Y252395D01*
X410072Y251402D01*
X410361Y250438D01*
X410760Y249513D01*
X411264Y248640D01*
X411865Y247832D01*
X412556Y247100D01*
X413328Y246452D01*
X414169Y245899D01*
X415069Y245447D01*
X416016Y245102D01*
X416996Y244870D01*
X417996Y244753D01*
X419004D01*
X420004Y244870D01*
X420984Y245102D01*
X421931Y245447D01*
X422831Y245899D01*
X423672Y246452D01*
X424444Y247100D01*
X425135Y247832D01*
X425737Y248640D01*
X426240Y249513D01*
X426639Y250438D01*
X426928Y251402D01*
X427103Y252395D01*
X427161Y253400D01*
X300154Y535100D02*
X306846D01*
X300154Y524470D02*
Y535100D01*
X297398Y524470D02*
X300154D01*
X297398Y495730D02*
Y524470D01*
Y495730D02*
X300154D01*
Y485100D02*
Y495730D01*
Y485100D02*
X306846D01*
Y495730D01*
X309602D01*
Y524470D01*
X306846D02*
X309602D01*
X306846D02*
Y535100D01*
X140232Y283783D02*
X156768D01*
X140232Y256617D02*
Y283783D01*
Y256617D02*
X156768D01*
Y283783D01*
X171909Y324606D02*
X198091D01*
X171909Y312794D02*
Y324606D01*
X198091Y312794D02*
Y324606D01*
X171909Y312794D02*
X198091D01*
X174182Y242716D02*
Y294684D01*
Y242716D02*
X290324D01*
Y294684D01*
X174182D02*
X290324D01*
X212317Y298252D02*
X222946D01*
X212317Y295496D02*
Y298252D01*
X183576Y295496D02*
X212317D01*
X183576D02*
Y298252D01*
X172946D02*
X183576D01*
X172946D02*
Y304945D01*
X183576D01*
Y307701D01*
X212317D01*
Y304945D02*
Y307701D01*
Y304945D02*
X222946D01*
Y298252D02*
Y304945D01*
X273008Y295939D02*
Y307258D01*
X223992D02*
X273008D01*
X223992Y295939D02*
Y307258D01*
Y295939D02*
X273008D01*
X396670Y297453D02*
X407300D01*
X396670Y294697D02*
Y297453D01*
X367930Y294697D02*
X396670D01*
X367930D02*
Y297453D01*
X357300D02*
X367930D01*
X357300D02*
Y304146D01*
X367930D01*
Y306902D01*
X396670D01*
Y304146D02*
Y306902D01*
Y304146D02*
X407300D01*
Y297453D02*
Y304146D01*
X293800Y304046D02*
X304430D01*
Y306802D01*
X333170D01*
Y304046D02*
Y306802D01*
Y304046D02*
X343800D01*
Y297354D02*
Y304046D01*
X333170Y297354D02*
X343800D01*
X333170Y294598D02*
Y297354D01*
X304430Y294598D02*
X333170D01*
X304430D02*
Y297354D01*
X293800D02*
X304430D01*
X293800D02*
Y304046D01*
X289806Y297409D02*
Y323591D01*
X277994D02*
X289806D01*
X277994Y297409D02*
X289806D01*
X277994D02*
Y323591D01*
X356906Y300909D02*
Y327091D01*
X345094D02*
X356906D01*
X345094Y300909D02*
X356906D01*
X345094D02*
Y327091D01*
X348708Y280541D02*
Y291859D01*
X299692D02*
X348708D01*
X299692Y280541D02*
Y291859D01*
Y280541D02*
X348708D01*
X338606Y255673D02*
Y277327D01*
X309394Y255673D02*
Y277327D01*
Y255673D02*
X338606D01*
X309394Y277327D02*
X338606D01*
X428508Y279241D02*
Y290559D01*
X379492D02*
X428508D01*
X379492Y279241D02*
Y290559D01*
Y279241D02*
X428508D01*
X401246Y267370D02*
Y278000D01*
Y267370D02*
X404002D01*
Y238630D02*
Y267370D01*
X401246Y238630D02*
X404002D01*
X401246Y228000D02*
Y238630D01*
X394554Y228000D02*
X401246D01*
X394554D02*
Y238630D01*
X391798D02*
X394554D01*
X391798D02*
Y267370D01*
X394554D01*
Y278000D01*
X401246D01*
X137846Y398618D02*
Y409248D01*
Y398618D02*
X140602D01*
Y369878D02*
Y398618D01*
X137846Y369878D02*
X140602D01*
X137846Y359248D02*
Y369878D01*
X131154Y359248D02*
X137846D01*
X131154D02*
Y369878D01*
X128398D02*
X131154D01*
X128398D02*
Y398618D01*
X131154D01*
Y409248D01*
X137846D01*
X156701Y409346D02*
X169299D01*
Y359150D02*
Y409346D01*
X156701Y359150D02*
X169299D01*
X156701D02*
Y409346D01*
X127346Y327768D02*
X170654D01*
Y307728D02*
Y327768D01*
X127346Y307728D02*
X170654D01*
X127346D02*
Y327768D01*
X170486Y338325D02*
Y357793D01*
X127514D02*
X170486D01*
X127514Y338325D02*
Y357793D01*
Y338325D02*
X170486D01*
X151996Y398618D02*
Y409248D01*
Y398618D02*
X154752D01*
Y369878D02*
Y398618D01*
X151996Y369878D02*
X154752D01*
X151996Y359248D02*
Y369878D01*
X145303Y359248D02*
X151996D01*
X145303D02*
Y369878D01*
X142547D02*
X145303D01*
X142547D02*
Y398618D01*
X145303D01*
Y409248D01*
X151996D01*
X158400Y237846D02*
X169030D01*
Y240602D01*
X197770D01*
Y237846D02*
Y240602D01*
Y237846D02*
X208400D01*
Y231154D02*
Y237846D01*
X197770Y231154D02*
X208400D01*
X197770Y228398D02*
Y231154D01*
X169030Y228398D02*
X197770D01*
X169030D02*
Y231154D01*
X158400D02*
X169030D01*
X158400D02*
Y237846D01*
X439631Y247768D02*
X480969D01*
X439631D02*
Y279264D01*
X480969D01*
Y247768D02*
Y279264D01*
X129554Y245200D02*
Y255830D01*
X126798D02*
X129554D01*
X126798D02*
Y284570D01*
X129554D01*
Y295200D01*
X136246D01*
Y284570D02*
Y295200D01*
Y284570D02*
X139002D01*
Y255830D02*
Y284570D01*
X136246Y255830D02*
X139002D01*
X136246Y245200D02*
Y255830D01*
X129554Y245200D02*
X136246D01*
X115554D02*
Y255830D01*
X112798D02*
X115554D01*
X112798D02*
Y284570D01*
X115554D01*
Y295200D01*
X122246D01*
Y284570D02*
Y295200D01*
Y284570D02*
X125002D01*
Y255830D02*
Y284570D01*
X122246Y255830D02*
X125002D01*
X122246Y245200D02*
Y255830D01*
X115554Y245200D02*
X122246D01*
X158941Y245691D02*
X170259D01*
Y294707D01*
X158941D02*
X170259D01*
X158941Y245691D02*
Y294707D01*
X313746Y534846D02*
X324376D01*
Y537602D01*
X353116D01*
Y534846D02*
Y537602D01*
Y534846D02*
X363746D01*
Y528154D02*
Y534846D01*
X353116Y528154D02*
X363746D01*
X353116Y525398D02*
Y528154D01*
X324376Y525398D02*
X353116D01*
X324376D02*
Y528154D01*
X313746D02*
X324376D01*
X313746D02*
Y534846D01*
X191741Y215881D02*
X203059D01*
X191741Y166865D02*
Y215881D01*
Y166865D02*
X203059D01*
Y215881D01*
X208107Y166865D02*
X219426D01*
Y215881D01*
X208107D02*
X219426D01*
X208107Y166865D02*
Y215881D01*
X156774Y166865D02*
X168093D01*
Y215881D01*
X156774D02*
X168093D01*
X156774Y166865D02*
Y215881D01*
X173141D02*
X184459D01*
X173141Y166865D02*
Y215881D01*
Y166865D02*
X184459D01*
Y215881D01*
X432286Y338325D02*
Y357793D01*
X389314D02*
X432286D01*
X389314Y338325D02*
Y357793D01*
Y338325D02*
X432286D01*
X344086D02*
Y357793D01*
X301114D02*
X344086D01*
X301114Y338325D02*
Y357793D01*
Y338325D02*
X344086D01*
X300946Y327768D02*
X344254D01*
Y307728D02*
Y327768D01*
X300946Y307728D02*
X344254D01*
X300946D02*
Y327768D01*
X389146D02*
X432454D01*
Y307728D02*
Y327768D01*
X389146Y307728D02*
X432454D01*
X389146D02*
Y327768D01*
X331401Y409445D02*
X343999D01*
Y359248D02*
Y409445D01*
X331401Y359248D02*
X343999D01*
X331401D02*
Y409445D01*
X312522Y398543D02*
Y409173D01*
Y398543D02*
X315278D01*
Y369803D02*
Y398543D01*
X312522Y369803D02*
X315278D01*
X312522Y359173D02*
Y369803D01*
X305829Y359173D02*
X312522D01*
X305829D02*
Y369803D01*
X303073D02*
X305829D01*
X303073D02*
Y398543D01*
X305829D01*
Y409173D01*
X312522D01*
X326686Y398467D02*
Y409097D01*
Y398467D02*
X329442D01*
Y369727D02*
Y398467D01*
X326686Y369727D02*
X329442D01*
X326686Y359097D02*
Y369727D01*
X319993Y359097D02*
X326686D01*
X319993D02*
Y369727D01*
X317237D02*
X319993D01*
X317237D02*
Y398467D01*
X319993D01*
Y409097D01*
X326686D01*
X415096Y398618D02*
Y409248D01*
Y398618D02*
X417851D01*
Y369878D02*
Y398618D01*
X415096Y369878D02*
X417851D01*
X415096Y359248D02*
Y369878D01*
X408403Y359248D02*
X415096D01*
X408403D02*
Y369878D01*
X405647D02*
X408403D01*
X405647D02*
Y398618D01*
X408403D01*
Y409248D01*
X415096D01*
X401246Y398618D02*
Y409248D01*
Y398618D02*
X404002D01*
Y369878D02*
Y398618D01*
X401246Y369878D02*
X404002D01*
X401246Y359248D02*
Y369878D01*
X394554Y359248D02*
X401246D01*
X394554D02*
Y369878D01*
X391798D02*
X394554D01*
X391798D02*
Y398618D01*
X394554D01*
Y409248D01*
X401246D01*
X419601Y409346D02*
X432199D01*
Y359150D02*
Y409346D01*
X419601Y359150D02*
X432199D01*
X419601D02*
Y409346D01*
X357250Y500261D02*
Y520339D01*
X320242Y500261D02*
Y520339D01*
X357250D01*
X320242Y500261D02*
X357250D01*
X146252Y424035D02*
X227748D01*
X146252D02*
Y460965D01*
X227748D01*
Y424035D02*
Y460965D01*
X103600Y420492D02*
X114919D01*
Y469508D01*
X103600D02*
X114919D01*
X103600Y420492D02*
Y469508D01*
X118913Y419500D02*
Y430130D01*
X116157D02*
X118913D01*
X116157D02*
Y458870D01*
X118913D01*
Y469500D01*
X125606D01*
Y458870D02*
Y469500D01*
Y458870D02*
X128362D01*
Y430130D02*
Y458870D01*
X125606Y430130D02*
X128362D01*
X125606Y419500D02*
Y430130D01*
X118913Y419500D02*
X125606D01*
X129600Y420492D02*
X140919D01*
Y469508D01*
X129600D02*
X140919D01*
X129600Y420492D02*
Y469508D01*
X142909Y462594D02*
X169091D01*
Y474406D01*
X142909Y462594D02*
Y474406D01*
X169091D01*
X281552Y424035D02*
X363048D01*
X281552D02*
Y460965D01*
X363048D01*
Y424035D02*
Y460965D01*
X236441Y420492D02*
X247759D01*
Y469508D01*
X236441D02*
X247759D01*
X236441Y420492D02*
Y469508D01*
X253254Y419508D02*
Y430138D01*
X250498D02*
X253254D01*
X250498D02*
Y458878D01*
X253254D01*
Y469508D01*
X259946D01*
Y458878D02*
Y469508D01*
Y458878D02*
X262702D01*
Y430138D02*
Y458878D01*
X259946Y430138D02*
X262702D01*
X259946Y419508D02*
Y430138D01*
X253254Y419508D02*
X259946D01*
X264841Y420492D02*
X276159D01*
Y469508D01*
X264841D02*
X276159D01*
X264841Y420492D02*
Y469508D01*
X279109Y462594D02*
X305291D01*
Y474406D01*
X279109Y462594D02*
Y474406D01*
X305291D01*
X170114Y295841D02*
Y307159D01*
X121098D02*
X170114D01*
X121098Y295841D02*
Y307159D01*
Y295841D02*
X170114D01*
X101754Y256200D02*
Y266830D01*
X98998D02*
X101754D01*
X98998D02*
Y295570D01*
X101754D01*
Y306200D01*
X108446D01*
Y295570D02*
Y306200D01*
Y295570D02*
X111202D01*
Y266830D02*
Y295570D01*
X108446Y266830D02*
X111202D01*
X108446Y256200D02*
Y266830D01*
X101754Y256200D02*
X108446D01*
X263986Y338325D02*
Y357793D01*
X221014D02*
X263986D01*
X221014Y338325D02*
Y357793D01*
Y338325D02*
X263986D01*
X220846Y327768D02*
X264154D01*
Y307728D02*
Y327768D01*
X220846Y307728D02*
X264154D01*
X220846D02*
Y327768D01*
X246496Y398618D02*
Y409248D01*
Y398618D02*
X249252D01*
Y369878D02*
Y398618D01*
X246496Y369878D02*
X249252D01*
X246496Y359248D02*
Y369878D01*
X239803Y359248D02*
X246496D01*
X239803D02*
Y369878D01*
X237047D02*
X239803D01*
X237047D02*
Y398618D01*
X239803D01*
Y409248D01*
X246496D01*
X251201Y409445D02*
X263799D01*
Y359248D02*
Y409445D01*
X251201Y359248D02*
X263799D01*
X251201D02*
Y409445D01*
X232346Y398618D02*
Y409248D01*
Y398618D02*
X235102D01*
Y369878D02*
Y398618D01*
X232346Y369878D02*
X235102D01*
X232346Y359248D02*
Y369878D01*
X225654Y359248D02*
X232346D01*
X225654D02*
Y369878D01*
X222898D02*
X225654D01*
X222898D02*
Y398618D01*
X225654D01*
Y409248D01*
X232346D01*
X349194Y246509D02*
Y272691D01*
Y246509D02*
X361006D01*
X349194Y272691D02*
X361006D01*
Y246509D02*
Y272691D01*
X409609Y294894D02*
X435791D01*
Y306705D01*
X409609Y294894D02*
Y306705D01*
X435791D01*
X407668Y433831D02*
Y475169D01*
X439164D01*
Y433831D02*
Y475169D01*
X407668Y433831D02*
X439164D01*
M02*
